<svg width="20" height="20" viewBox="0 0 20 20" fill="none" xmlns="http://www.w3.org/2000/svg">
<circle cx="10" cy="10" r="9.5" stroke="#484E53"/>
<path d="M7.24 13.1C6.59333 13.1 6.06667 12.97 5.66 12.71C5.26 12.45 4.96667 12.0767 4.78 11.59C4.59333 11.1033 4.5 10.5267 4.5 9.86C4.5 9.14 4.58667 8.52667 4.76 8.02C4.93333 7.51333 5.22 7.12667 5.62 6.86C6.02 6.59333 6.56 6.46 7.24 6.46C7.91333 6.46 8.45 6.59333 8.85 6.86C9.25 7.12667 9.53667 7.51333 9.71 8.02C9.88333 8.52667 9.97 9.14 9.97 9.86C9.97 10.5267 9.87667 11.1033 9.69 11.59C9.51 12.0767 9.22 12.45 8.82 12.71C8.42 12.97 7.89333 13.1 7.24 13.1ZM7.24 12.4C7.71333 12.4 8.08667 12.2967 8.36 12.09C8.64 11.8767 8.84 11.58 8.96 11.2C9.08667 10.8133 9.15 10.3667 9.15 9.86C9.15 8.98667 9.01 8.32 8.73 7.86C8.45667 7.39333 7.96 7.16 7.24 7.16C6.76 7.16 6.38 7.26333 6.1 7.47C5.82 7.67667 5.62 7.98333 5.5 8.39C5.38 8.79 5.32 9.28 5.32 9.86C5.32 10.3667 5.38 10.8133 5.5 11.2C5.62667 11.58 5.83 11.8767 6.11 12.09C6.39667 12.2967 6.77333 12.4 7.24 12.4ZM12.7046 13.1C12.4113 13.1 12.0979 13.0733 11.7646 13.02C11.4313 12.9667 11.1679 12.9033 10.9746 12.83V12.11C11.2279 12.21 11.4913 12.2833 11.7646 12.33C12.0379 12.3767 12.3179 12.4 12.6046 12.4C13.1779 12.4 13.6013 12.3133 13.8746 12.14C14.1546 11.9667 14.2946 11.6633 14.2946 11.23C14.2946 10.8167 14.1646 10.5167 13.9046 10.33C13.6446 10.1433 13.2813 10.05 12.8146 10.05H11.8846L11.9646 9.43H12.7346C13.2146 9.43 13.5713 9.32667 13.8046 9.12C14.0379 8.90667 14.1546 8.61 14.1546 8.23C14.1546 7.86333 14.0313 7.59333 13.7846 7.42C13.5446 7.24667 13.1579 7.16 12.6246 7.16C12.3579 7.16 12.0879 7.18667 11.8146 7.24C11.5479 7.29333 11.3079 7.36333 11.0946 7.45V6.74C11.2813 6.66667 11.5246 6.60333 11.8246 6.55C12.1313 6.49 12.4346 6.46 12.7346 6.46C13.5013 6.46 14.0646 6.62667 14.4246 6.96C14.7913 7.28667 14.9746 7.70667 14.9746 8.22C14.9746 8.54667 14.8879 8.85333 14.7146 9.14C14.5479 9.42 14.2779 9.61667 13.9046 9.73C14.3313 9.82333 14.6379 10.01 14.8246 10.29C15.0179 10.5633 15.1146 10.8767 15.1146 11.23C15.1146 11.8567 14.8979 12.3267 14.4646 12.64C14.0313 12.9467 13.4446 13.1 12.7046 13.1Z" fill="#3D3A3A"/>
</svg>
