<svg width="110" height="12" viewBox="0 0 110 12" fill="none" xmlns="http://www.w3.org/2000/svg">
<path d="M10 2H2C1.45 2 1.005 2.45 1.005 3L1 9C1 9.55 1.45 10 2 10H10C10.55 10 11 9.55 11 9V3C11 2.45 10.55 2 10 2ZM10 4L6 6.5L2 4V3L6 5.5L10 3V4Z" fill="white"/>
<path d="M18.3717 8.064C18.0037 8.064 17.649 8.02133 17.3077 7.936C16.9717 7.84533 16.705 7.73333 16.5077 7.6L16.9237 6.704C17.121 6.82667 17.353 6.928 17.6197 7.008C17.8917 7.08267 18.1583 7.12 18.4197 7.12C18.7077 7.12 18.9103 7.08533 19.0277 7.016C19.1503 6.94667 19.2117 6.85067 19.2117 6.728C19.2117 6.62667 19.1637 6.552 19.0677 6.504C18.977 6.45067 18.8543 6.41067 18.6997 6.384C18.545 6.35733 18.3743 6.33067 18.1877 6.304C18.0063 6.27733 17.8223 6.24267 17.6357 6.2C17.449 6.152 17.2783 6.08267 17.1237 5.992C16.969 5.90133 16.8437 5.77867 16.7477 5.624C16.657 5.46933 16.6117 5.26933 16.6117 5.024C16.6117 4.752 16.689 4.512 16.8437 4.304C17.0037 4.096 17.233 3.93333 17.5317 3.816C17.8303 3.69333 18.1877 3.632 18.6037 3.632C18.897 3.632 19.1957 3.664 19.4997 3.728C19.8037 3.792 20.057 3.88533 20.2597 4.008L19.8437 4.896C19.6357 4.77333 19.425 4.69067 19.2117 4.648C19.0037 4.6 18.801 4.576 18.6037 4.576C18.3263 4.576 18.1237 4.61333 17.9957 4.688C17.8677 4.76267 17.8037 4.85867 17.8037 4.976C17.8037 5.08267 17.849 5.16267 17.9397 5.216C18.0357 5.26933 18.161 5.312 18.3157 5.344C18.4703 5.376 18.6383 5.40533 18.8197 5.432C19.0063 5.45333 19.193 5.488 19.3797 5.536C19.5663 5.584 19.7343 5.65333 19.8837 5.744C20.0383 5.82933 20.1637 5.94933 20.2597 6.104C20.3557 6.25333 20.4037 6.45067 20.4037 6.696C20.4037 6.96267 20.3237 7.2 20.1637 7.408C20.0037 7.61067 19.7717 7.77067 19.4677 7.888C19.169 8.00533 18.8037 8.064 18.3717 8.064ZM23.8137 8V7.16L23.7337 6.976V5.472C23.7337 5.20533 23.651 4.99733 23.4857 4.848C23.3257 4.69867 23.0777 4.624 22.7417 4.624C22.5123 4.624 22.2857 4.66133 22.0617 4.736C21.843 4.80533 21.6563 4.90133 21.5017 5.024L21.0537 4.152C21.2883 3.98667 21.571 3.85867 21.9017 3.768C22.2323 3.67733 22.5683 3.632 22.9097 3.632C23.5657 3.632 24.075 3.78667 24.4377 4.096C24.8003 4.40533 24.9817 4.888 24.9817 5.544V8H23.8137ZM22.5017 8.064C22.1657 8.064 21.8777 8.008 21.6377 7.896C21.3977 7.77867 21.2137 7.62133 21.0857 7.424C20.9577 7.22667 20.8937 7.00533 20.8937 6.76C20.8937 6.504 20.955 6.28 21.0777 6.088C21.2057 5.896 21.4057 5.74667 21.6777 5.64C21.9497 5.528 22.3043 5.472 22.7417 5.472H23.8857V6.2H22.8777C22.5843 6.2 22.3817 6.248 22.2697 6.344C22.163 6.44 22.1097 6.56 22.1097 6.704C22.1097 6.864 22.171 6.992 22.2937 7.088C22.4217 7.17867 22.595 7.224 22.8137 7.224C23.0217 7.224 23.2083 7.176 23.3737 7.08C23.539 6.97867 23.659 6.832 23.7337 6.64L23.9257 7.216C23.835 7.49333 23.6697 7.704 23.4297 7.848C23.1897 7.992 22.8803 8.064 22.5017 8.064ZM26.1112 8V2.064H27.3592V8H26.1112ZM30.6534 8.064C30.1627 8.064 29.7307 7.968 29.3574 7.776C28.9894 7.584 28.7041 7.32267 28.5014 6.992C28.2987 6.656 28.1974 6.27467 28.1974 5.848C28.1974 5.416 28.2961 5.03467 28.4934 4.704C28.6961 4.368 28.9707 4.10667 29.3174 3.92C29.6641 3.728 30.0561 3.632 30.4934 3.632C30.9147 3.632 31.2934 3.72267 31.6294 3.904C31.9707 4.08 32.2401 4.336 32.4374 4.672C32.6347 5.00267 32.7334 5.4 32.7334 5.864C32.7334 5.912 32.7307 5.968 32.7254 6.032C32.7201 6.09067 32.7147 6.14667 32.7094 6.2H29.2134V5.472H32.0534L31.5734 5.688C31.5734 5.464 31.5281 5.26933 31.4374 5.104C31.3467 4.93867 31.2214 4.81067 31.0614 4.72C30.9014 4.624 30.7147 4.576 30.5014 4.576C30.2881 4.576 30.0987 4.624 29.9334 4.72C29.7734 4.81067 29.6481 4.94133 29.5574 5.112C29.4667 5.27733 29.4214 5.47467 29.4214 5.704V5.896C29.4214 6.13067 29.4721 6.33867 29.5734 6.52C29.6801 6.696 29.8267 6.832 30.0134 6.928C30.2054 7.01867 30.4294 7.064 30.6854 7.064C30.9147 7.064 31.1147 7.02933 31.2854 6.96C31.4614 6.89067 31.6214 6.78667 31.7654 6.648L32.4294 7.368C32.2321 7.592 31.9841 7.76533 31.6854 7.888C31.3867 8.00533 31.0427 8.064 30.6534 8.064ZM35.0123 8.064C34.6443 8.064 34.2896 8.02133 33.9483 7.936C33.6123 7.84533 33.3456 7.73333 33.1483 7.6L33.5643 6.704C33.7616 6.82667 33.9936 6.928 34.2603 7.008C34.5323 7.08267 34.7989 7.12 35.0603 7.12C35.3483 7.12 35.5509 7.08533 35.6683 7.016C35.7909 6.94667 35.8523 6.85067 35.8523 6.728C35.8523 6.62667 35.8043 6.552 35.7083 6.504C35.6176 6.45067 35.4949 6.41067 35.3403 6.384C35.1856 6.35733 35.0149 6.33067 34.8283 6.304C34.6469 6.27733 34.4629 6.24267 34.2763 6.2C34.0896 6.152 33.9189 6.08267 33.7643 5.992C33.6096 5.90133 33.4843 5.77867 33.3883 5.624C33.2976 5.46933 33.2523 5.26933 33.2523 5.024C33.2523 4.752 33.3296 4.512 33.4843 4.304C33.6443 4.096 33.8736 3.93333 34.1723 3.816C34.4709 3.69333 34.8283 3.632 35.2443 3.632C35.5376 3.632 35.8363 3.664 36.1403 3.728C36.4443 3.792 36.6976 3.88533 36.9003 4.008L36.4843 4.896C36.2763 4.77333 36.0656 4.69067 35.8523 4.648C35.6443 4.6 35.4416 4.576 35.2443 4.576C34.9669 4.576 34.7643 4.61333 34.6363 4.688C34.5083 4.76267 34.4443 4.85867 34.4443 4.976C34.4443 5.08267 34.4896 5.16267 34.5803 5.216C34.6763 5.26933 34.8016 5.312 34.9563 5.344C35.1109 5.376 35.2789 5.40533 35.4603 5.432C35.6469 5.45333 35.8336 5.488 36.0203 5.536C36.2069 5.584 36.3749 5.65333 36.5243 5.744C36.6789 5.82933 36.8043 5.94933 36.9003 6.104C36.9963 6.25333 37.0443 6.45067 37.0443 6.696C37.0443 6.96267 36.9643 7.2 36.8043 7.408C36.6443 7.61067 36.4123 7.77067 36.1083 7.888C35.8096 8.00533 35.4443 8.064 35.0123 8.064ZM41.3903 9.648C40.8143 9.648 40.2916 9.55467 39.8223 9.368C39.3529 9.18667 38.9476 8.93067 38.6063 8.6C38.2703 8.26933 38.0089 7.88 37.8223 7.432C37.6409 6.984 37.5503 6.496 37.5503 5.968C37.5503 5.44533 37.6409 4.96267 37.8223 4.52C38.0089 4.07733 38.2729 3.69067 38.6143 3.36C38.9556 3.02933 39.3636 2.77333 39.8383 2.592C40.3129 2.41067 40.8409 2.32 41.4223 2.32C41.9823 2.32 42.4943 2.408 42.9583 2.584C43.4223 2.75467 43.8223 2.99733 44.1583 3.312C44.4943 3.62667 44.7529 3.99733 44.9343 4.424C45.1156 4.84533 45.2063 5.30667 45.2063 5.808C45.2063 6.28267 45.1369 6.688 44.9983 7.024C44.8649 7.36 44.6756 7.616 44.4303 7.792C44.1849 7.968 43.8969 8.056 43.5663 8.056C43.2036 8.056 42.9156 7.94933 42.7023 7.736C42.4889 7.52267 42.3823 7.21067 42.3823 6.8V6.432L42.4063 6L42.3343 4.84V4.072H43.4223V6.664C43.4223 6.856 43.4596 6.98933 43.5343 7.064C43.6089 7.13867 43.6996 7.176 43.8063 7.176C43.9289 7.176 44.0329 7.128 44.1183 7.032C44.2089 6.936 44.2783 6.78933 44.3263 6.592C44.3743 6.38933 44.3983 6.13333 44.3983 5.824C44.3983 5.41867 44.3263 5.048 44.1823 4.712C44.0436 4.376 43.8409 4.08533 43.5743 3.84C43.3129 3.59467 42.9983 3.408 42.6303 3.28C42.2676 3.14667 41.8649 3.08 41.4223 3.08C40.9796 3.08 40.5743 3.152 40.2063 3.296C39.8383 3.44 39.5236 3.64267 39.2623 3.904C39.0009 4.16 38.7983 4.464 38.6543 4.816C38.5156 5.168 38.4463 5.552 38.4463 5.968C38.4463 6.39467 38.5156 6.78667 38.6543 7.144C38.7929 7.496 38.9903 7.8 39.2463 8.056C39.5076 8.31733 39.8196 8.52 40.1823 8.664C40.5449 8.808 40.9476 8.88 41.3903 8.88C41.6463 8.88 41.9103 8.85067 42.1823 8.792C42.4543 8.73867 42.7156 8.65067 42.9663 8.528L43.2223 9.264C42.9769 9.38667 42.6889 9.48 42.3583 9.544C42.0329 9.61333 41.7103 9.648 41.3903 9.648ZM41.1023 8.056C40.7609 8.056 40.4489 7.97333 40.1663 7.808C39.8889 7.63733 39.6676 7.4 39.5023 7.096C39.3369 6.78667 39.2543 6.432 39.2543 6.032C39.2543 5.632 39.3343 5.28 39.4943 4.976C39.6596 4.672 39.8809 4.43733 40.1583 4.272C40.4409 4.10133 40.7556 4.016 41.1023 4.016C41.4543 4.016 41.7556 4.096 42.0063 4.256C42.2569 4.416 42.4489 4.64533 42.5823 4.944C42.7156 5.24267 42.7823 5.60533 42.7823 6.032C42.7823 6.45333 42.7183 6.816 42.5903 7.12C42.4623 7.424 42.2729 7.656 42.0223 7.816C41.7769 7.976 41.4703 8.056 41.1023 8.056ZM41.3503 7.136C41.5423 7.136 41.7129 7.09333 41.8623 7.008C42.0169 6.91733 42.1369 6.78933 42.2223 6.624C42.3076 6.45867 42.3503 6.26133 42.3503 6.032C42.3503 5.79733 42.3076 5.6 42.2223 5.44C42.1369 5.28 42.0169 5.15733 41.8623 5.072C41.7129 4.98667 41.5423 4.944 41.3503 4.944C41.1583 4.944 40.9876 4.98667 40.8383 5.072C40.6889 5.15733 40.5716 5.28267 40.4863 5.448C40.4009 5.608 40.3583 5.80267 40.3583 6.032C40.3583 6.26133 40.4009 6.45867 40.4863 6.624C40.5716 6.784 40.6889 6.90933 40.8383 7C40.9876 7.09067 41.1583 7.136 41.3503 7.136ZM48.7355 8V7.16L48.6555 6.976V5.472C48.6555 5.20533 48.5729 4.99733 48.4075 4.848C48.2475 4.69867 47.9995 4.624 47.6635 4.624C47.4342 4.624 47.2075 4.66133 46.9835 4.736C46.7649 4.80533 46.5782 4.90133 46.4235 5.024L45.9755 4.152C46.2102 3.98667 46.4929 3.85867 46.8235 3.768C47.1542 3.67733 47.4902 3.632 47.8315 3.632C48.4875 3.632 48.9969 3.78667 49.3595 4.096C49.7222 4.40533 49.9035 4.888 49.9035 5.544V8H48.7355ZM47.4235 8.064C47.0875 8.064 46.7995 8.008 46.5595 7.896C46.3195 7.77867 46.1355 7.62133 46.0075 7.424C45.8795 7.22667 45.8155 7.00533 45.8155 6.76C45.8155 6.504 45.8769 6.28 45.9995 6.088C46.1275 5.896 46.3275 5.74667 46.5995 5.64C46.8715 5.528 47.2262 5.472 47.6635 5.472H48.8075V6.2H47.7995C47.5062 6.2 47.3035 6.248 47.1915 6.344C47.0849 6.44 47.0315 6.56 47.0315 6.704C47.0315 6.864 47.0929 6.992 47.2155 7.088C47.3435 7.17867 47.5169 7.224 47.7355 7.224C47.9435 7.224 48.1302 7.176 48.2955 7.08C48.4609 6.97867 48.5809 6.832 48.6555 6.64L48.8475 7.216C48.7569 7.49333 48.5915 7.704 48.3515 7.848C48.1115 7.992 47.8022 8.064 47.4235 8.064ZM51.033 8V3.696H52.281V8H51.033ZM51.657 3.096C51.4277 3.096 51.241 3.02933 51.097 2.896C50.953 2.76267 50.881 2.59733 50.881 2.4C50.881 2.20267 50.953 2.03733 51.097 1.904C51.241 1.77067 51.4277 1.704 51.657 1.704C51.8864 1.704 52.073 1.768 52.217 1.896C52.361 2.01867 52.433 2.17867 52.433 2.376C52.433 2.584 52.361 2.75733 52.217 2.896C52.0784 3.02933 51.8917 3.096 51.657 3.096ZM53.4393 8V3.696H54.6313V4.912L54.4633 4.56C54.5913 4.256 54.7966 4.02667 55.0793 3.872C55.3619 3.712 55.7059 3.632 56.1113 3.632V4.784C56.0579 4.77867 56.0099 4.776 55.9673 4.776C55.9246 4.77067 55.8793 4.768 55.8313 4.768C55.4899 4.768 55.2126 4.86667 54.9993 5.064C54.7913 5.256 54.6873 5.55733 54.6873 5.968V8H53.4393ZM56.8533 8V2.064H58.1013V8H56.8533ZM61.3076 8.064C60.8489 8.064 60.4409 7.968 60.0836 7.776C59.7316 7.584 59.4516 7.32267 59.2436 6.992C59.0409 6.656 58.9396 6.27467 58.9396 5.848C58.9396 5.416 59.0409 5.03467 59.2436 4.704C59.4516 4.368 59.7316 4.10667 60.0836 3.92C60.4409 3.728 60.8489 3.632 61.3076 3.632C61.7609 3.632 62.1663 3.728 62.5236 3.92C62.8809 4.10667 63.1609 4.36533 63.3636 4.696C63.5663 5.02667 63.6676 5.41067 63.6676 5.848C63.6676 6.27467 63.5663 6.656 63.3636 6.992C63.1609 7.32267 62.8809 7.584 62.5236 7.776C62.1663 7.968 61.7609 8.064 61.3076 8.064ZM61.3076 7.04C61.5156 7.04 61.7023 6.992 61.8676 6.896C62.0329 6.8 62.1636 6.664 62.2596 6.488C62.3556 6.30667 62.4036 6.09333 62.4036 5.848C62.4036 5.59733 62.3556 5.384 62.2596 5.208C62.1636 5.032 62.0329 4.896 61.8676 4.8C61.7023 4.704 61.5156 4.656 61.3076 4.656C61.0996 4.656 60.9129 4.704 60.7476 4.8C60.5823 4.896 60.4489 5.032 60.3476 5.208C60.2516 5.384 60.2036 5.59733 60.2036 5.848C60.2036 6.09333 60.2516 6.30667 60.3476 6.488C60.4489 6.664 60.5823 6.8 60.7476 6.896C60.9129 6.992 61.0996 7.04 61.3076 7.04ZM66.5818 8.064C66.1178 8.064 65.7044 7.97067 65.3418 7.784C64.9791 7.592 64.6938 7.328 64.4858 6.992C64.2831 6.656 64.1818 6.27467 64.1818 5.848C64.1818 5.416 64.2831 5.03467 64.4858 4.704C64.6938 4.368 64.9791 4.10667 65.3418 3.92C65.7044 3.728 66.1178 3.632 66.5818 3.632C67.0351 3.632 67.4298 3.728 67.7658 3.92C68.1018 4.10667 68.3498 4.376 68.5098 4.728L67.5418 5.248C67.4298 5.04533 67.2884 4.896 67.1178 4.8C66.9524 4.704 66.7711 4.656 66.5738 4.656C66.3604 4.656 66.1684 4.704 65.9978 4.8C65.8271 4.896 65.6911 5.032 65.5898 5.208C65.4938 5.384 65.4458 5.59733 65.4458 5.848C65.4458 6.09867 65.4938 6.312 65.5898 6.488C65.6911 6.664 65.8271 6.8 65.9978 6.896C66.1684 6.992 66.3604 7.04 66.5738 7.04C66.7711 7.04 66.9524 6.99467 67.1178 6.904C67.2884 6.808 67.4298 6.656 67.5418 6.448L68.5098 6.976C68.3498 7.32267 68.1018 7.592 67.7658 7.784C67.4298 7.97067 67.0351 8.064 66.5818 8.064ZM70.2291 7.12L70.2611 5.6L72.2691 3.696H73.7571L71.8291 5.656L71.1811 6.184L70.2291 7.12ZM69.1971 8V2.064H70.4451V8H69.1971ZM72.4051 8L70.9491 6.192L71.7331 5.224L73.9171 8H72.4051ZM74.4783 8V3.696H75.7263V8H74.4783ZM75.1023 3.096C74.873 3.096 74.6863 3.02933 74.5423 2.896C74.3983 2.76267 74.3263 2.59733 74.3263 2.4C74.3263 2.20267 74.3983 2.03733 74.5423 1.904C74.6863 1.77067 74.873 1.704 75.1023 1.704C75.3317 1.704 75.5183 1.768 75.6623 1.896C75.8063 2.01867 75.8783 2.17867 75.8783 2.376C75.8783 2.584 75.8063 2.75733 75.6623 2.896C75.5237 3.02933 75.337 3.096 75.1023 3.096ZM79.5006 3.632C79.8419 3.632 80.1459 3.70133 80.4126 3.84C80.6846 3.97333 80.8979 4.18133 81.0526 4.464C81.2073 4.74133 81.2846 5.09867 81.2846 5.536V8H80.0366V5.728C80.0366 5.38133 79.9593 5.12533 79.8046 4.96C79.6553 4.79467 79.4419 4.712 79.1646 4.712C78.9673 4.712 78.7886 4.75467 78.6286 4.84C78.4739 4.92 78.3513 5.04533 78.2606 5.216C78.1753 5.38667 78.1326 5.60533 78.1326 5.872V8H76.8846V3.696H78.0766V4.888L77.8526 4.528C78.0073 4.24 78.2286 4.01867 78.5166 3.864C78.8046 3.70933 79.1326 3.632 79.5006 3.632ZM84.1758 8.064C83.6692 8.064 83.2745 7.936 82.9918 7.68C82.7092 7.41867 82.5678 7.032 82.5678 6.52V2.744H83.8158V6.504C83.8158 6.68533 83.8638 6.82667 83.9598 6.928C84.0558 7.024 84.1865 7.072 84.3518 7.072C84.5492 7.072 84.7172 7.01867 84.8558 6.912L85.1918 7.792C85.0638 7.88267 84.9092 7.952 84.7278 8C84.5518 8.04267 84.3678 8.064 84.1758 8.064ZM81.9038 4.752V3.792H84.8878V4.752H81.9038ZM85.8924 8V2.064H87.1404V8H85.8924ZM88.7707 8.064C88.5573 8.064 88.3733 7.992 88.2187 7.848C88.0693 7.69867 87.9947 7.50933 87.9947 7.28C87.9947 7.05067 88.0693 6.86667 88.2187 6.728C88.3733 6.584 88.5573 6.512 88.7707 6.512C88.9893 6.512 89.1733 6.584 89.3227 6.728C89.472 6.86667 89.5467 7.05067 89.5467 7.28C89.5467 7.50933 89.472 7.69867 89.3227 7.848C89.1733 7.992 88.9893 8.064 88.7707 8.064ZM92.4177 8.064C91.9537 8.064 91.5404 7.97067 91.1777 7.784C90.8151 7.592 90.5297 7.328 90.3217 6.992C90.1191 6.656 90.0177 6.27467 90.0177 5.848C90.0177 5.416 90.1191 5.03467 90.3217 4.704C90.5297 4.368 90.8151 4.10667 91.1777 3.92C91.5404 3.728 91.9537 3.632 92.4177 3.632C92.8711 3.632 93.2657 3.728 93.6017 3.92C93.9377 4.10667 94.1857 4.376 94.3457 4.728L93.3777 5.248C93.2657 5.04533 93.1244 4.896 92.9537 4.8C92.7884 4.704 92.6071 4.656 92.4097 4.656C92.1964 4.656 92.0044 4.704 91.8337 4.8C91.6631 4.896 91.5271 5.032 91.4257 5.208C91.3297 5.384 91.2817 5.59733 91.2817 5.848C91.2817 6.09867 91.3297 6.312 91.4257 6.488C91.5271 6.664 91.6631 6.8 91.8337 6.896C92.0044 6.992 92.1964 7.04 92.4097 7.04C92.6071 7.04 92.7884 6.99467 92.9537 6.904C93.1244 6.808 93.2657 6.656 93.3777 6.448L94.3457 6.976C94.1857 7.32267 93.9377 7.592 93.6017 7.784C93.2657 7.97067 92.8711 8.064 92.4177 8.064ZM97.0576 8.064C96.5989 8.064 96.1909 7.968 95.8336 7.776C95.4816 7.584 95.2016 7.32267 94.9936 6.992C94.7909 6.656 94.6896 6.27467 94.6896 5.848C94.6896 5.416 94.7909 5.03467 94.9936 4.704C95.2016 4.368 95.4816 4.10667 95.8336 3.92C96.1909 3.728 96.5989 3.632 97.0576 3.632C97.5109 3.632 97.9163 3.728 98.2736 3.92C98.6309 4.10667 98.9109 4.36533 99.1136 4.696C99.3163 5.02667 99.4176 5.41067 99.4176 5.848C99.4176 6.27467 99.3163 6.656 99.1136 6.992C98.9109 7.32267 98.6309 7.584 98.2736 7.776C97.9163 7.968 97.5109 8.064 97.0576 8.064ZM97.0576 7.04C97.2656 7.04 97.4523 6.992 97.6176 6.896C97.7829 6.8 97.9136 6.664 98.0096 6.488C98.1056 6.30667 98.1536 6.09333 98.1536 5.848C98.1536 5.59733 98.1056 5.384 98.0096 5.208C97.9136 5.032 97.7829 4.896 97.6176 4.8C97.4523 4.704 97.2656 4.656 97.0576 4.656C96.8496 4.656 96.6629 4.704 96.4976 4.8C96.3323 4.896 96.1989 5.032 96.0976 5.208C96.0016 5.384 95.9536 5.59733 95.9536 5.848C95.9536 6.09333 96.0016 6.30667 96.0976 6.488C96.1989 6.664 96.3323 6.8 96.4976 6.896C96.6629 6.992 96.8496 7.04 97.0576 7.04ZM100.669 8.064C100.456 8.064 100.272 7.992 100.117 7.848C99.9678 7.69867 99.8931 7.50933 99.8931 7.28C99.8931 7.05067 99.9678 6.86667 100.117 6.728C100.272 6.584 100.456 6.512 100.669 6.512C100.888 6.512 101.072 6.584 101.221 6.728C101.37 6.86667 101.445 7.05067 101.445 7.28C101.445 7.50933 101.37 7.69867 101.221 7.848C101.072 7.992 100.888 8.064 100.669 8.064ZM102.291 8V3.696H103.539V8H102.291ZM102.915 3.096C102.686 3.096 102.499 3.02933 102.355 2.896C102.211 2.76267 102.139 2.59733 102.139 2.4C102.139 2.20267 102.211 2.03733 102.355 1.904C102.499 1.77067 102.686 1.704 102.915 1.704C103.144 1.704 103.331 1.768 103.475 1.896C103.619 2.01867 103.691 2.17867 103.691 2.376C103.691 2.584 103.619 2.75733 103.475 2.896C103.336 3.02933 103.15 3.096 102.915 3.096ZM107.313 3.632C107.654 3.632 107.958 3.70133 108.225 3.84C108.497 3.97333 108.71 4.18133 108.865 4.464C109.02 4.74133 109.097 5.09867 109.097 5.536V8H107.849V5.728C107.849 5.38133 107.772 5.12533 107.617 4.96C107.468 4.79467 107.254 4.712 106.977 4.712C106.78 4.712 106.601 4.75467 106.441 4.84C106.286 4.92 106.164 5.04533 106.073 5.216C105.988 5.38667 105.945 5.60533 105.945 5.872V8H104.697V3.696H105.889V4.888L105.665 4.528C105.82 4.24 106.041 4.01867 106.329 3.864C106.617 3.70933 106.945 3.632 107.313 3.632Z" fill="white"/>
</svg>
