<svg width="308" height="40" viewBox="0 0 308 40" fill="none" xmlns="http://www.w3.org/2000/svg">
<path d="M123.54 6.07H126.77V7.6H123.54V6.07ZM123.68 10H121.7V3H127.19V4.53H123.68V10ZM127.003 10L130.093 3H132.043L135.143 10H133.083L130.663 3.97H131.443L129.023 10H127.003ZM128.693 8.64L129.203 7.18H132.623L133.133 8.64H128.693ZM139.096 10.14C138.543 10.14 138.03 10.0533 137.556 9.88C137.09 9.7 136.683 9.44667 136.336 9.12C135.996 8.79333 135.73 8.41 135.536 7.97C135.343 7.52333 135.246 7.03333 135.246 6.5C135.246 5.96667 135.343 5.48 135.536 5.04C135.73 4.59333 135.996 4.20667 136.336 3.88C136.683 3.55333 137.09 3.30333 137.556 3.13C138.03 2.95 138.543 2.86 139.096 2.86C139.743 2.86 140.32 2.97333 140.826 3.2C141.34 3.42667 141.766 3.75333 142.106 4.18L140.846 5.32C140.62 5.05333 140.37 4.85 140.096 4.71C139.83 4.57 139.53 4.5 139.196 4.5C138.91 4.5 138.646 4.54667 138.406 4.64C138.166 4.73333 137.96 4.87 137.786 5.05C137.62 5.22333 137.486 5.43333 137.386 5.68C137.293 5.92667 137.246 6.2 137.246 6.5C137.246 6.8 137.293 7.07333 137.386 7.32C137.486 7.56667 137.62 7.78 137.786 7.96C137.96 8.13333 138.166 8.26667 138.406 8.36C138.646 8.45333 138.91 8.5 139.196 8.5C139.53 8.5 139.83 8.43 140.096 8.29C140.37 8.15 140.62 7.94667 140.846 7.68L142.106 8.82C141.766 9.24 141.34 9.56667 140.826 9.8C140.32 10.0267 139.743 10.14 139.096 10.14ZM144.42 10V4.57H142.27V3H148.54V4.57H146.4V10H144.42ZM152.71 10.14C152.15 10.14 151.634 10.05 151.16 9.87C150.687 9.69 150.274 9.43667 149.92 9.11C149.574 8.77667 149.304 8.39 149.11 7.95C148.917 7.51 148.82 7.02667 148.82 6.5C148.82 5.97333 148.917 5.49 149.11 5.05C149.304 4.61 149.574 4.22667 149.92 3.9C150.274 3.56667 150.687 3.31 151.16 3.13C151.634 2.95 152.15 2.86 152.71 2.86C153.277 2.86 153.794 2.95 154.26 3.13C154.734 3.31 155.144 3.56667 155.49 3.9C155.837 4.22667 156.107 4.61 156.3 5.05C156.5 5.49 156.6 5.97333 156.6 6.5C156.6 7.02667 156.5 7.51333 156.3 7.96C156.107 8.4 155.837 8.78333 155.49 9.11C155.144 9.43667 154.734 9.69 154.26 9.87C153.794 10.05 153.277 10.14 152.71 10.14ZM152.71 8.5C152.977 8.5 153.224 8.45333 153.45 8.36C153.684 8.26667 153.884 8.13333 154.05 7.96C154.224 7.78 154.357 7.56667 154.45 7.32C154.55 7.07333 154.6 6.8 154.6 6.5C154.6 6.19333 154.55 5.92 154.45 5.68C154.357 5.43333 154.224 5.22333 154.05 5.05C153.884 4.87 153.684 4.73333 153.45 4.64C153.224 4.54667 152.977 4.5 152.71 4.5C152.444 4.5 152.194 4.54667 151.96 4.64C151.734 4.73333 151.534 4.87 151.36 5.05C151.194 5.22333 151.06 5.43333 150.96 5.68C150.867 5.92 150.82 6.19333 150.82 6.5C150.82 6.8 150.867 7.07333 150.96 7.32C151.06 7.56667 151.194 7.78 151.36 7.96C151.534 8.13333 151.734 8.26667 151.96 8.36C152.194 8.45333 152.444 8.5 152.71 8.5ZM157.638 10V3H160.838C161.478 3 162.028 3.10333 162.488 3.31C162.954 3.51667 163.314 3.81667 163.568 4.21C163.821 4.59667 163.948 5.05667 163.948 5.59C163.948 6.11667 163.821 6.57333 163.568 6.96C163.314 7.34 162.954 7.63333 162.488 7.84C162.028 8.04 161.478 8.14 160.838 8.14H158.738L159.618 7.31V10H157.638ZM161.968 10L160.228 7.45H162.338L164.088 10H161.968ZM159.618 7.52L158.738 6.61H160.718C161.131 6.61 161.438 6.52 161.638 6.34C161.844 6.16 161.948 5.91 161.948 5.59C161.948 5.26333 161.844 5.01 161.638 4.83C161.438 4.65 161.131 4.56 160.718 4.56H158.738L159.618 3.65V7.52ZM166.712 10V7.04L167.172 8.23L164.042 3H166.132L168.392 6.79H167.182L169.452 3H171.372L168.252 8.23L168.692 7.04V10H166.712Z" fill="white"/>
<path d="M11.2385 28V22.88L11.7985 23.44H10.1185V22.4H12.5345V28H11.2385ZM12.9313 28.8L15.5713 21.264H16.6833L14.0433 28.8H12.9313ZM17.7463 28V22.88L18.3063 23.44H16.6263V22.4H19.0423V28H17.7463ZM21.9191 28.096C21.5298 28.096 21.1431 28.0453 20.7591 27.944C20.3805 27.8373 20.0551 27.688 19.7831 27.496L20.2951 26.504C20.5085 26.6587 20.7538 26.7813 21.0311 26.872C21.3138 26.9627 21.5991 27.008 21.8871 27.008C22.2125 27.008 22.4685 26.944 22.6551 26.816C22.8418 26.688 22.9351 26.5093 22.9351 26.28C22.9351 26.136 22.8978 26.008 22.8231 25.896C22.7485 25.784 22.6151 25.6987 22.4231 25.64C22.2365 25.5813 21.9725 25.552 21.6311 25.552H20.1991L20.4871 22.4H23.9031V23.44H20.9511L21.6231 22.848L21.4231 25.096L20.7511 24.504H21.9351C22.4898 24.504 22.9351 24.5813 23.2711 24.736C23.6125 24.8853 23.8605 25.0907 24.0151 25.352C24.1698 25.6133 24.2471 25.9093 24.2471 26.24C24.2471 26.5707 24.1645 26.8773 23.9991 27.16C23.8338 27.4373 23.5778 27.664 23.2311 27.84C22.8898 28.0107 22.4525 28.096 21.9191 28.096ZM24.8769 26.248V25.248H27.1409V26.248H24.8769ZM30.1789 28.096C29.7095 28.096 29.2989 28.0267 28.9469 27.888C28.5949 27.744 28.3202 27.544 28.1229 27.288C27.9255 27.0267 27.8269 26.7227 27.8269 26.376C27.8269 26.0293 27.9229 25.736 28.1149 25.496C28.3122 25.2507 28.5869 25.0667 28.9389 24.944C29.2909 24.816 29.7042 24.752 30.1789 24.752C30.6589 24.752 31.0749 24.816 31.4269 24.944C31.7842 25.0667 32.0589 25.2507 32.2509 25.496C32.4482 25.736 32.5469 26.0293 32.5469 26.376C32.5469 26.7227 32.4482 27.0267 32.2509 27.288C32.0535 27.544 31.7762 27.744 31.4189 27.888C31.0669 28.0267 30.6535 28.096 30.1789 28.096ZM30.1789 27.144C30.5042 27.144 30.7602 27.072 30.9469 26.928C31.1389 26.784 31.2349 26.5867 31.2349 26.336C31.2349 26.0853 31.1389 25.8907 30.9469 25.752C30.7602 25.608 30.5042 25.536 30.1789 25.536C29.8589 25.536 29.6055 25.608 29.4189 25.752C29.2322 25.8907 29.1389 26.0853 29.1389 26.336C29.1389 26.5867 29.2322 26.784 29.4189 26.928C29.6055 27.072 29.8589 27.144 30.1789 27.144ZM30.1789 25.408C29.7469 25.408 29.3682 25.3493 29.0429 25.232C28.7229 25.1147 28.4722 24.944 28.2909 24.72C28.1149 24.4907 28.0269 24.2187 28.0269 23.904C28.0269 23.5733 28.1175 23.2907 28.2989 23.056C28.4802 22.816 28.7335 22.632 29.0589 22.504C29.3842 22.3707 29.7575 22.304 30.1789 22.304C30.6109 22.304 30.9869 22.3707 31.3069 22.504C31.6322 22.632 31.8855 22.816 32.0669 23.056C32.2535 23.2907 32.3469 23.5733 32.3469 23.904C32.3469 24.2187 32.2562 24.4907 32.0749 24.72C31.8989 24.944 31.6482 25.1147 31.3229 25.232C30.9975 25.3493 30.6162 25.408 30.1789 25.408ZM30.1789 24.648C30.4509 24.648 30.6642 24.5867 30.8189 24.464C30.9789 24.3413 31.0589 24.1733 31.0589 23.96C31.0589 23.736 30.9762 23.5627 30.8109 23.44C30.6509 23.3173 30.4402 23.256 30.1789 23.256C29.9229 23.256 29.7149 23.3173 29.5549 23.44C29.3949 23.5627 29.3149 23.736 29.3149 23.96C29.3149 24.1733 29.3922 24.3413 29.5469 24.464C29.7015 24.5867 29.9122 24.648 30.1789 24.648ZM33.2663 29.232L33.7943 27.312L33.9703 28.032C33.7409 28.032 33.5516 27.9653 33.4023 27.832C33.2583 27.6987 33.1863 27.5147 33.1863 27.28C33.1863 27.0453 33.2609 26.8587 33.4103 26.72C33.5596 26.5813 33.7436 26.512 33.9622 26.512C34.1863 26.512 34.3703 26.584 34.5143 26.728C34.6583 26.8667 34.7303 27.0507 34.7303 27.28C34.7303 27.3493 34.7249 27.4187 34.7143 27.488C34.7036 27.552 34.6823 27.632 34.6503 27.728C34.6236 27.8187 34.5783 27.936 34.5143 28.08L34.0583 29.232H33.2663ZM37.9296 28V22.4H40.3536C40.855 22.4 41.287 22.4827 41.6496 22.648C42.0123 22.808 42.2923 23.04 42.4896 23.344C42.687 23.648 42.7856 24.0107 42.7856 24.432C42.7856 24.848 42.687 25.208 42.4896 25.512C42.2923 25.816 42.0123 26.0507 41.6496 26.216C41.287 26.376 40.855 26.456 40.3536 26.456H38.6496L39.2256 25.872V28H37.9296ZM39.2256 26.016L38.6496 25.4H40.2816C40.6816 25.4 40.9803 25.3147 41.1776 25.144C41.375 24.9733 41.4736 24.736 41.4736 24.432C41.4736 24.1227 41.375 23.8827 41.1776 23.712C40.9803 23.5413 40.6816 23.456 40.2816 23.456H38.6496L39.2256 22.84V26.016ZM45.6631 28.064C45.2044 28.064 44.7964 27.968 44.4391 27.776C44.0871 27.584 43.8071 27.3227 43.5991 26.992C43.3964 26.656 43.2951 26.2747 43.2951 25.848C43.2951 25.416 43.3964 25.0347 43.5991 24.704C43.8071 24.368 44.0871 24.1067 44.4391 23.92C44.7964 23.728 45.2044 23.632 45.6631 23.632C46.1164 23.632 46.5217 23.728 46.8791 23.92C47.2364 24.1067 47.5164 24.3653 47.7191 24.696C47.9217 25.0267 48.0231 25.4107 48.0231 25.848C48.0231 26.2747 47.9217 26.656 47.7191 26.992C47.5164 27.3227 47.2364 27.584 46.8791 27.776C46.5217 27.968 46.1164 28.064 45.6631 28.064ZM45.6631 27.04C45.8711 27.04 46.0577 26.992 46.2231 26.896C46.3884 26.8 46.5191 26.664 46.6151 26.488C46.7111 26.3067 46.7591 26.0933 46.7591 25.848C46.7591 25.5973 46.7111 25.384 46.6151 25.208C46.5191 25.032 46.3884 24.896 46.2231 24.8C46.0577 24.704 45.8711 24.656 45.6631 24.656C45.4551 24.656 45.2684 24.704 45.1031 24.8C44.9377 24.896 44.8044 25.032 44.7031 25.208C44.6071 25.384 44.5591 25.5973 44.5591 25.848C44.5591 26.0933 44.6071 26.3067 44.7031 26.488C44.8044 26.664 44.9377 26.8 45.1031 26.896C45.2684 26.992 45.4551 27.04 45.6631 27.04ZM51.4733 23.632C51.8146 23.632 52.1186 23.7013 52.3853 23.84C52.6573 23.9733 52.8706 24.1813 53.0253 24.464C53.1799 24.7413 53.2573 25.0987 53.2573 25.536V28H52.0093V25.728C52.0093 25.3813 51.9319 25.1253 51.7773 24.96C51.6279 24.7947 51.4146 24.712 51.1373 24.712C50.9399 24.712 50.7613 24.7547 50.6013 24.84C50.4466 24.92 50.3239 25.0453 50.2333 25.216C50.1479 25.3867 50.1053 25.6053 50.1053 25.872V28H48.8573V23.696H50.0493V24.888L49.8253 24.528C49.9799 24.24 50.2013 24.0187 50.4893 23.864C50.7773 23.7093 51.1053 23.632 51.4733 23.632ZM57.0045 23.632C57.3458 23.632 57.6498 23.7013 57.9165 23.84C58.1885 23.9733 58.4018 24.1813 58.5565 24.464C58.7112 24.7413 58.7885 25.0987 58.7885 25.536V28H57.5405V25.728C57.5405 25.3813 57.4632 25.1253 57.3085 24.96C57.1592 24.7947 56.9458 24.712 56.6685 24.712C56.4712 24.712 56.2925 24.7547 56.1325 24.84C55.9778 24.92 55.8552 25.0453 55.7645 25.216C55.6792 25.3867 55.6365 25.6053 55.6365 25.872V28H54.3885V23.696H55.5805V24.888L55.3565 24.528C55.5112 24.24 55.7325 24.0187 56.0205 23.864C56.3085 23.7093 56.6365 23.632 57.0045 23.632ZM62.5598 28V27.16L62.4798 26.976V25.472C62.4798 25.2053 62.3971 24.9973 62.2318 24.848C62.0718 24.6987 61.8238 24.624 61.4878 24.624C61.2584 24.624 61.0318 24.6613 60.8078 24.736C60.5891 24.8053 60.4024 24.9013 60.2478 25.024L59.7998 24.152C60.0344 23.9867 60.3171 23.8587 60.6478 23.768C60.9784 23.6773 61.3144 23.632 61.6558 23.632C62.3118 23.632 62.8211 23.7867 63.1838 24.096C63.5464 24.4053 63.7278 24.888 63.7278 25.544V28H62.5598ZM61.2478 28.064C60.9118 28.064 60.6238 28.008 60.3838 27.896C60.1438 27.7787 59.9598 27.6213 59.8318 27.424C59.7038 27.2267 59.6398 27.0053 59.6398 26.76C59.6398 26.504 59.7011 26.28 59.8238 26.088C59.9518 25.896 60.1518 25.7467 60.4238 25.64C60.6958 25.528 61.0504 25.472 61.4878 25.472H62.6318V26.2H61.6238C61.3304 26.2 61.1278 26.248 61.0158 26.344C60.9091 26.44 60.8558 26.56 60.8558 26.704C60.8558 26.864 60.9171 26.992 61.0398 27.088C61.1678 27.1787 61.3411 27.224 61.5598 27.224C61.7678 27.224 61.9544 27.176 62.1198 27.08C62.2851 26.9787 62.4051 26.832 62.4798 26.64L62.6718 27.216C62.5811 27.4933 62.4158 27.704 62.1758 27.848C61.9358 27.992 61.6264 28.064 61.2478 28.064ZM67.4733 23.632C67.8146 23.632 68.1186 23.7013 68.3853 23.84C68.6573 23.9733 68.8706 24.1813 69.0253 24.464C69.1799 24.7413 69.2573 25.0987 69.2573 25.536V28H68.0093V25.728C68.0093 25.3813 67.9319 25.1253 67.7773 24.96C67.6279 24.7947 67.4146 24.712 67.1373 24.712C66.9399 24.712 66.7613 24.7547 66.6013 24.84C66.4466 24.92 66.3239 25.0453 66.2333 25.216C66.1479 25.3867 66.1053 25.6053 66.1053 25.872V28H64.8573V23.696H66.0493V24.888L65.8253 24.528C65.9799 24.24 66.2013 24.0187 66.4893 23.864C66.7773 23.7093 67.1053 23.632 67.4733 23.632ZM72.2678 28.064C71.8624 28.064 71.4971 27.9733 71.1718 27.792C70.8464 27.6053 70.5878 27.3467 70.3958 27.016C70.2091 26.6853 70.1158 26.296 70.1158 25.848C70.1158 25.3947 70.2091 25.0027 70.3958 24.672C70.5878 24.3413 70.8464 24.0853 71.1718 23.904C71.4971 23.7227 71.8624 23.632 72.2678 23.632C72.6304 23.632 72.9478 23.712 73.2198 23.872C73.4918 24.032 73.7024 24.2747 73.8518 24.6C74.0011 24.9253 74.0758 25.3413 74.0758 25.848C74.0758 26.3493 74.0038 26.7653 73.8598 27.096C73.7158 27.4213 73.5078 27.664 73.2358 27.824C72.9691 27.984 72.6464 28.064 72.2678 28.064ZM72.4838 27.04C72.6864 27.04 72.8704 26.992 73.0358 26.896C73.2011 26.8 73.3318 26.664 73.4278 26.488C73.5291 26.3067 73.5798 26.0933 73.5798 25.848C73.5798 25.5973 73.5291 25.384 73.4278 25.208C73.3318 25.032 73.2011 24.896 73.0358 24.8C72.8704 24.704 72.6864 24.656 72.4838 24.656C72.2758 24.656 72.0891 24.704 71.9238 24.8C71.7584 24.896 71.6251 25.032 71.5238 25.208C71.4278 25.384 71.3798 25.5973 71.3798 25.848C71.3798 26.0933 71.4278 26.3067 71.5238 26.488C71.6251 26.664 71.7584 26.8 71.9238 26.896C72.0891 26.992 72.2758 27.04 72.4838 27.04ZM73.6118 28V27.12L73.6358 25.84L73.5558 24.568V22.064H74.8038V28H73.6118ZM78.5988 28V27.16L78.5188 26.976V25.472C78.5188 25.2053 78.4361 24.9973 78.2708 24.848C78.1108 24.6987 77.8628 24.624 77.5268 24.624C77.2975 24.624 77.0708 24.6613 76.8468 24.736C76.6281 24.8053 76.4415 24.9013 76.2868 25.024L75.8388 24.152C76.0735 23.9867 76.3561 23.8587 76.6868 23.768C77.0175 23.6773 77.3535 23.632 77.6948 23.632C78.3508 23.632 78.8601 23.7867 79.2228 24.096C79.5855 24.4053 79.7668 24.888 79.7668 25.544V28H78.5988ZM77.2868 28.064C76.9508 28.064 76.6628 28.008 76.4228 27.896C76.1828 27.7787 75.9988 27.6213 75.8708 27.424C75.7428 27.2267 75.6788 27.0053 75.6788 26.76C75.6788 26.504 75.7401 26.28 75.8628 26.088C75.9908 25.896 76.1908 25.7467 76.4628 25.64C76.7348 25.528 77.0895 25.472 77.5268 25.472H78.6708V26.2H77.6628C77.3695 26.2 77.1668 26.248 77.0548 26.344C76.9481 26.44 76.8948 26.56 76.8948 26.704C76.8948 26.864 76.9561 26.992 77.0788 27.088C77.2068 27.1787 77.3801 27.224 77.5988 27.224C77.8068 27.224 77.9935 27.176 78.1588 27.08C78.3241 26.9787 78.4441 26.832 78.5188 26.64L78.7108 27.216C78.6201 27.4933 78.4548 27.704 78.2148 27.848C77.9748 27.992 77.6655 28.064 77.2868 28.064ZM86.4083 23.632C86.7496 23.632 87.051 23.7013 87.3123 23.84C87.579 23.9733 87.787 24.1813 87.9363 24.464C88.091 24.7413 88.1683 25.0987 88.1683 25.536V28H86.9203V25.728C86.9203 25.3813 86.8483 25.1253 86.7043 24.96C86.5603 24.7947 86.3576 24.712 86.0963 24.712C85.915 24.712 85.7523 24.7547 85.6083 24.84C85.4643 24.92 85.3523 25.0427 85.2723 25.208C85.1923 25.3733 85.1523 25.584 85.1523 25.84V28H83.9043V25.728C83.9043 25.3813 83.8323 25.1253 83.6883 24.96C83.5496 24.7947 83.3496 24.712 83.0883 24.712C82.907 24.712 82.7443 24.7547 82.6003 24.84C82.4563 24.92 82.3443 25.0427 82.2643 25.208C82.1843 25.3733 82.1443 25.584 82.1443 25.84V28H80.8963V23.696H82.0883V24.872L81.8643 24.528C82.0136 24.2347 82.2243 24.0133 82.4963 23.864C82.7736 23.7093 83.0883 23.632 83.4403 23.632C83.835 23.632 84.179 23.7333 84.4723 23.936C84.771 24.1333 84.9683 24.4373 85.0643 24.848L84.6243 24.728C84.7683 24.392 84.9976 24.1253 85.3123 23.928C85.6323 23.7307 85.9976 23.632 86.4083 23.632ZM91.8309 28.064C91.4683 28.064 91.1509 27.984 90.8789 27.824C90.6069 27.664 90.3936 27.4213 90.2389 27.096C90.0896 26.7653 90.0149 26.3493 90.0149 25.848C90.0149 25.3413 90.0869 24.9253 90.2309 24.6C90.3749 24.2747 90.5829 24.032 90.8549 23.872C91.1269 23.712 91.4523 23.632 91.8309 23.632C92.2363 23.632 92.5989 23.7253 92.9189 23.912C93.2443 24.0933 93.5003 24.3493 93.6869 24.68C93.8789 25.0107 93.9749 25.4 93.9749 25.848C93.9749 26.3013 93.8789 26.6933 93.6869 27.024C93.5003 27.3547 93.2443 27.6107 92.9189 27.792C92.5989 27.9733 92.2363 28.064 91.8309 28.064ZM89.2869 29.552V23.696H90.4789V24.576L90.4549 25.856L90.5349 27.128V29.552H89.2869ZM91.6149 27.04C91.8229 27.04 92.0069 26.992 92.1669 26.896C92.3323 26.8 92.4629 26.664 92.5589 26.488C92.6603 26.3067 92.7109 26.0933 92.7109 25.848C92.7109 25.5973 92.6603 25.384 92.5589 25.208C92.4629 25.032 92.3323 24.896 92.1669 24.8C92.0069 24.704 91.8229 24.656 91.6149 24.656C91.4069 24.656 91.2203 24.704 91.0549 24.8C90.8896 24.896 90.7589 25.032 90.6629 25.208C90.5669 25.384 90.5189 25.5973 90.5189 25.848C90.5189 26.0933 90.5669 26.3067 90.6629 26.488C90.7589 26.664 90.8896 26.8 91.0549 26.896C91.2203 26.992 91.4069 27.04 91.6149 27.04ZM97.3801 28V27.16L97.3001 26.976V25.472C97.3001 25.2053 97.2174 24.9973 97.0521 24.848C96.8921 24.6987 96.6441 24.624 96.3081 24.624C96.0787 24.624 95.8521 24.6613 95.6281 24.736C95.4094 24.8053 95.2227 24.9013 95.0681 25.024L94.6201 24.152C94.8547 23.9867 95.1374 23.8587 95.4681 23.768C95.7987 23.6773 96.1347 23.632 96.4761 23.632C97.1321 23.632 97.6414 23.7867 98.0041 24.096C98.3667 24.4053 98.5481 24.888 98.5481 25.544V28H97.3801ZM96.0681 28.064C95.7321 28.064 95.4441 28.008 95.2041 27.896C94.9641 27.7787 94.7801 27.6213 94.6521 27.424C94.5241 27.2267 94.4601 27.0053 94.4601 26.76C94.4601 26.504 94.5214 26.28 94.6441 26.088C94.7721 25.896 94.9721 25.7467 95.2441 25.64C95.5161 25.528 95.8707 25.472 96.3081 25.472H97.4521V26.2H96.4441C96.1507 26.2 95.9481 26.248 95.8361 26.344C95.7294 26.44 95.6761 26.56 95.6761 26.704C95.6761 26.864 95.7374 26.992 95.8601 27.088C95.9881 27.1787 96.1614 27.224 96.3801 27.224C96.5881 27.224 96.7747 27.176 96.9401 27.08C97.1054 26.9787 97.2254 26.832 97.3001 26.64L97.4921 27.216C97.4014 27.4933 97.2361 27.704 96.9961 27.848C96.7561 27.992 96.4467 28.064 96.0681 28.064ZM99.6776 28V22.064H100.926V28H99.6776ZM104.724 28V27.16L104.644 26.976V25.472C104.644 25.2053 104.561 24.9973 104.396 24.848C104.236 24.6987 103.988 24.624 103.652 24.624C103.422 24.624 103.196 24.6613 102.972 24.736C102.753 24.8053 102.566 24.9013 102.412 25.024L101.964 24.152C102.198 23.9867 102.481 23.8587 102.812 23.768C103.142 23.6773 103.478 23.632 103.82 23.632C104.476 23.632 104.985 23.7867 105.348 24.096C105.71 24.4053 105.892 24.888 105.892 25.544V28H104.724ZM103.412 28.064C103.076 28.064 102.788 28.008 102.548 27.896C102.308 27.7787 102.124 27.6213 101.996 27.424C101.868 27.2267 101.804 27.0053 101.804 26.76C101.804 26.504 101.865 26.28 101.988 26.088C102.116 25.896 102.316 25.7467 102.588 25.64C102.86 25.528 103.214 25.472 103.652 25.472H104.796V26.2H103.788C103.494 26.2 103.292 26.248 103.18 26.344C103.073 26.44 103.02 26.56 103.02 26.704C103.02 26.864 103.081 26.992 103.204 27.088C103.332 27.1787 103.505 27.224 103.724 27.224C103.932 27.224 104.118 27.176 104.284 27.08C104.449 26.9787 104.569 26.832 104.644 26.64L104.836 27.216C104.745 27.4933 104.58 27.704 104.34 27.848C104.1 27.992 103.79 28.064 103.412 28.064ZM107.487 29.616C107.263 29.616 107.042 29.5813 106.823 29.512C106.605 29.4427 106.426 29.3467 106.287 29.224L106.743 28.336C106.839 28.4213 106.949 28.488 107.071 28.536C107.199 28.584 107.325 28.608 107.447 28.608C107.623 28.608 107.762 28.5653 107.863 28.48C107.97 28.4 108.066 28.264 108.151 28.072L108.375 27.544L108.471 27.408L110.015 23.696H111.215L109.271 28.264C109.133 28.6107 108.973 28.8827 108.791 29.08C108.615 29.2773 108.418 29.416 108.199 29.496C107.986 29.576 107.749 29.616 107.487 29.616ZM108.223 28.168L106.303 23.696H107.591L109.079 27.296L108.223 28.168ZM114.224 28V27.16L114.144 26.976V25.472C114.144 25.2053 114.061 24.9973 113.896 24.848C113.736 24.6987 113.488 24.624 113.152 24.624C112.922 24.624 112.696 24.6613 112.472 24.736C112.253 24.8053 112.066 24.9013 111.912 25.024L111.464 24.152C111.698 23.9867 111.981 23.8587 112.312 23.768C112.642 23.6773 112.978 23.632 113.32 23.632C113.976 23.632 114.485 23.7867 114.848 24.096C115.21 24.4053 115.392 24.888 115.392 25.544V28H114.224ZM112.912 28.064C112.576 28.064 112.288 28.008 112.048 27.896C111.808 27.7787 111.624 27.6213 111.496 27.424C111.368 27.2267 111.304 27.0053 111.304 26.76C111.304 26.504 111.365 26.28 111.488 26.088C111.616 25.896 111.816 25.7467 112.088 25.64C112.36 25.528 112.714 25.472 113.152 25.472H114.296V26.2H113.288C112.994 26.2 112.792 26.248 112.68 26.344C112.573 26.44 112.52 26.56 112.52 26.704C112.52 26.864 112.581 26.992 112.704 27.088C112.832 27.1787 113.005 27.224 113.224 27.224C113.432 27.224 113.618 27.176 113.784 27.08C113.949 26.9787 114.069 26.832 114.144 26.64L114.336 27.216C114.245 27.4933 114.08 27.704 113.84 27.848C113.6 27.992 113.29 28.064 112.912 28.064ZM122.033 23.632C122.375 23.632 122.676 23.7013 122.937 23.84C123.204 23.9733 123.412 24.1813 123.561 24.464C123.716 24.7413 123.793 25.0987 123.793 25.536V28H122.545V25.728C122.545 25.3813 122.473 25.1253 122.329 24.96C122.185 24.7947 121.983 24.712 121.721 24.712C121.54 24.712 121.377 24.7547 121.233 24.84C121.089 24.92 120.977 25.0427 120.897 25.208C120.817 25.3733 120.777 25.584 120.777 25.84V28H119.529V25.728C119.529 25.3813 119.457 25.1253 119.313 24.96C119.175 24.7947 118.975 24.712 118.713 24.712C118.532 24.712 118.369 24.7547 118.225 24.84C118.081 24.92 117.969 25.0427 117.889 25.208C117.809 25.3733 117.769 25.584 117.769 25.84V28H116.521V23.696H117.713V24.872L117.489 24.528C117.639 24.2347 117.849 24.0133 118.121 23.864C118.399 23.7093 118.713 23.632 119.065 23.632C119.46 23.632 119.804 23.7333 120.097 23.936C120.396 24.1333 120.593 24.4373 120.689 24.848L120.249 24.728C120.393 24.392 120.623 24.1253 120.937 23.928C121.257 23.7307 121.623 23.632 122.033 23.632ZM124.696 29.232L125.224 27.312L125.4 28.032C125.171 28.032 124.981 27.9653 124.832 27.832C124.688 27.6987 124.616 27.5147 124.616 27.28C124.616 27.0453 124.691 26.8587 124.84 26.72C124.989 26.5813 125.173 26.512 125.392 26.512C125.616 26.512 125.8 26.584 125.944 26.728C126.088 26.8667 126.16 27.0507 126.16 27.28C126.16 27.3493 126.155 27.4187 126.144 27.488C126.133 27.552 126.112 27.632 126.08 27.728C126.053 27.8187 126.008 27.936 125.944 28.08L125.488 29.232H124.696ZM128.623 28L131.119 22.4H132.399L134.903 28H133.543L131.495 23.056H132.007L129.951 28H128.623ZM129.871 26.8L130.215 25.816H133.095L133.447 26.8H129.871ZM135.396 28V23.696H136.588V24.912L136.42 24.56C136.548 24.256 136.754 24.0267 137.036 23.872C137.319 23.712 137.663 23.632 138.068 23.632V24.784C138.015 24.7787 137.967 24.776 137.924 24.776C137.882 24.7707 137.836 24.768 137.788 24.768C137.447 24.768 137.17 24.8667 136.956 25.064C136.748 25.256 136.644 25.5573 136.644 25.968V28H135.396ZM141.169 28V27.16L141.089 26.976V25.472C141.089 25.2053 141.006 24.9973 140.841 24.848C140.681 24.6987 140.433 24.624 140.097 24.624C139.868 24.624 139.641 24.6613 139.417 24.736C139.198 24.8053 139.012 24.9013 138.857 25.024L138.409 24.152C138.644 23.9867 138.926 23.8587 139.257 23.768C139.588 23.6773 139.924 23.632 140.265 23.632C140.921 23.632 141.43 23.7867 141.793 24.096C142.156 24.4053 142.337 24.888 142.337 25.544V28H141.169ZM139.857 28.064C139.521 28.064 139.233 28.008 138.993 27.896C138.753 27.7787 138.569 27.6213 138.441 27.424C138.313 27.2267 138.249 27.0053 138.249 26.76C138.249 26.504 138.31 26.28 138.433 26.088C138.561 25.896 138.761 25.7467 139.033 25.64C139.305 25.528 139.66 25.472 140.097 25.472H141.241V26.2H140.233C139.94 26.2 139.737 26.248 139.625 26.344C139.518 26.44 139.465 26.56 139.465 26.704C139.465 26.864 139.526 26.992 139.649 27.088C139.777 27.1787 139.95 27.224 140.169 27.224C140.377 27.224 140.564 27.176 140.729 27.08C140.894 26.9787 141.014 26.832 141.089 26.64L141.281 27.216C141.19 27.4933 141.025 27.704 140.785 27.848C140.545 27.992 140.236 28.064 139.857 28.064ZM144.915 28.064C144.547 28.064 144.192 28.0213 143.851 27.936C143.515 27.8453 143.248 27.7333 143.051 27.6L143.467 26.704C143.664 26.8267 143.896 26.928 144.163 27.008C144.435 27.0827 144.701 27.12 144.963 27.12C145.251 27.12 145.453 27.0853 145.571 27.016C145.693 26.9467 145.755 26.8507 145.755 26.728C145.755 26.6267 145.707 26.552 145.611 26.504C145.52 26.4507 145.397 26.4107 145.243 26.384C145.088 26.3573 144.917 26.3307 144.731 26.304C144.549 26.2773 144.365 26.2427 144.179 26.2C143.992 26.152 143.821 26.0827 143.667 25.992C143.512 25.9013 143.387 25.7787 143.291 25.624C143.2 25.4693 143.155 25.2693 143.155 25.024C143.155 24.752 143.232 24.512 143.387 24.304C143.547 24.096 143.776 23.9333 144.075 23.816C144.373 23.6933 144.731 23.632 145.147 23.632C145.44 23.632 145.739 23.664 146.043 23.728C146.347 23.792 146.6 23.8853 146.803 24.008L146.387 24.896C146.179 24.7733 145.968 24.6907 145.755 24.648C145.547 24.6 145.344 24.576 145.147 24.576C144.869 24.576 144.667 24.6133 144.539 24.688C144.411 24.7627 144.347 24.8587 144.347 24.976C144.347 25.0827 144.392 25.1627 144.483 25.216C144.579 25.2693 144.704 25.312 144.859 25.344C145.013 25.376 145.181 25.4053 145.363 25.432C145.549 25.4533 145.736 25.488 145.923 25.536C146.109 25.584 146.277 25.6533 146.427 25.744C146.581 25.8293 146.707 25.9493 146.803 26.104C146.899 26.2533 146.947 26.4507 146.947 26.696C146.947 26.9627 146.867 27.2 146.707 27.408C146.547 27.6107 146.315 27.7707 146.011 27.888C145.712 28.0053 145.347 28.064 144.915 28.064ZM149.533 28.064C149.175 28.064 148.855 27.9947 148.573 27.856C148.295 27.7173 148.079 27.5067 147.925 27.224C147.77 26.936 147.693 26.5707 147.693 26.128V23.696H148.941V25.944C148.941 26.3013 149.015 26.5653 149.165 26.736C149.319 26.9013 149.535 26.984 149.813 26.984C150.005 26.984 150.175 26.944 150.325 26.864C150.474 26.7787 150.591 26.6507 150.677 26.48C150.762 26.304 150.805 26.0853 150.805 25.824V23.696H152.053V28H150.869V26.816L151.085 27.16C150.941 27.4587 150.727 27.6853 150.445 27.84C150.167 27.9893 149.863 28.064 149.533 28.064ZM153.209 28V23.696H154.401V24.912L154.233 24.56C154.361 24.256 154.566 24.0267 154.849 23.872C155.131 23.712 155.475 23.632 155.881 23.632V24.784C155.827 24.7787 155.779 24.776 155.737 24.776C155.694 24.7707 155.649 24.768 155.601 24.768C155.259 24.768 154.982 24.8667 154.769 25.064C154.561 25.256 154.457 25.5573 154.457 25.968V28H153.209ZM158.76 26.248V25.248H161.024V26.248H158.76ZM163.623 28L166.119 22.4H167.399L169.903 28H168.543L166.495 23.056H167.007L164.951 28H163.623ZM164.871 26.8L165.215 25.816H168.095L168.447 26.8H164.871ZM173.012 23.632C173.354 23.632 173.658 23.7013 173.924 23.84C174.196 23.9733 174.41 24.1813 174.564 24.464C174.719 24.7413 174.796 25.0987 174.796 25.536V28H173.548V25.728C173.548 25.3813 173.471 25.1253 173.316 24.96C173.167 24.7947 172.954 24.712 172.676 24.712C172.479 24.712 172.3 24.7547 172.14 24.84C171.986 24.92 171.863 25.0453 171.772 25.216C171.687 25.3867 171.644 25.6053 171.644 25.872V28H170.396V23.696H171.588V24.888L171.364 24.528C171.519 24.24 171.74 24.0187 172.028 23.864C172.316 23.7093 172.644 23.632 173.012 23.632ZM178.544 23.632C178.885 23.632 179.189 23.7013 179.456 23.84C179.728 23.9733 179.941 24.1813 180.096 24.464C180.25 24.7413 180.328 25.0987 180.328 25.536V28H179.08V25.728C179.08 25.3813 179.002 25.1253 178.848 24.96C178.698 24.7947 178.485 24.712 178.208 24.712C178.01 24.712 177.832 24.7547 177.672 24.84C177.517 24.92 177.394 25.0453 177.304 25.216C177.218 25.3867 177.176 25.6053 177.176 25.872V28H175.928V23.696H177.12V24.888L176.896 24.528C177.05 24.24 177.272 24.0187 177.56 23.864C177.848 23.7093 178.176 23.632 178.544 23.632ZM183.275 28.064C182.917 28.064 182.597 27.9947 182.315 27.856C182.037 27.7173 181.821 27.5067 181.667 27.224C181.512 26.936 181.435 26.5707 181.435 26.128V23.696H182.683V25.944C182.683 26.3013 182.757 26.5653 182.907 26.736C183.061 26.9013 183.277 26.984 183.555 26.984C183.747 26.984 183.917 26.944 184.067 26.864C184.216 26.7787 184.333 26.6507 184.419 26.48C184.504 26.304 184.547 26.0853 184.547 25.824V23.696H185.795V28H184.611V26.816L184.827 27.16C184.683 27.4587 184.469 27.6853 184.187 27.84C183.909 27.9893 183.605 28.064 183.275 28.064ZM186.951 28V23.696H188.143V24.912L187.975 24.56C188.103 24.256 188.308 24.0267 188.591 23.872C188.874 23.712 189.218 23.632 189.623 23.632V24.784C189.57 24.7787 189.522 24.776 189.479 24.776C189.436 24.7707 189.391 24.768 189.343 24.768C189.002 24.768 188.724 24.8667 188.511 25.064C188.303 25.256 188.199 25.5573 188.199 25.968V28H186.951ZM192.75 28V22.4H195.174C195.675 22.4 196.107 22.4827 196.47 22.648C196.833 22.808 197.113 23.04 197.31 23.344C197.507 23.648 197.606 24.0107 197.606 24.432C197.606 24.848 197.507 25.208 197.31 25.512C197.113 25.8107 196.833 26.04 196.47 26.2C196.107 26.36 195.675 26.44 195.174 26.44H193.47L194.046 25.872V28H192.75ZM196.31 28L194.91 25.968H196.294L197.71 28H196.31ZM194.046 26.016L193.47 25.408H195.102C195.502 25.408 195.801 25.3227 195.998 25.152C196.195 24.976 196.294 24.736 196.294 24.432C196.294 24.1227 196.195 23.8827 195.998 23.712C195.801 23.5413 195.502 23.456 195.102 23.456H193.47L194.046 22.84V26.016ZM200.593 28.064C200.134 28.064 199.726 27.968 199.369 27.776C199.017 27.584 198.737 27.3227 198.529 26.992C198.326 26.656 198.225 26.2747 198.225 25.848C198.225 25.416 198.326 25.0347 198.529 24.704C198.737 24.368 199.017 24.1067 199.369 23.92C199.726 23.728 200.134 23.632 200.593 23.632C201.046 23.632 201.451 23.728 201.809 23.92C202.166 24.1067 202.446 24.3653 202.649 24.696C202.851 25.0267 202.953 25.4107 202.953 25.848C202.953 26.2747 202.851 26.656 202.649 26.992C202.446 27.3227 202.166 27.584 201.809 27.776C201.451 27.968 201.046 28.064 200.593 28.064ZM200.593 27.04C200.801 27.04 200.987 26.992 201.153 26.896C201.318 26.8 201.449 26.664 201.545 26.488C201.641 26.3067 201.689 26.0933 201.689 25.848C201.689 25.5973 201.641 25.384 201.545 25.208C201.449 25.032 201.318 24.896 201.153 24.8C200.987 24.704 200.801 24.656 200.593 24.656C200.385 24.656 200.198 24.704 200.033 24.8C199.867 24.896 199.734 25.032 199.633 25.208C199.537 25.384 199.489 25.5973 199.489 25.848C199.489 26.0933 199.537 26.3067 199.633 26.488C199.734 26.664 199.867 26.8 200.033 26.896C200.198 26.992 200.385 27.04 200.593 27.04ZM206.357 28V27.16L206.277 26.976V25.472C206.277 25.2053 206.194 24.9973 206.029 24.848C205.869 24.6987 205.621 24.624 205.285 24.624C205.055 24.624 204.829 24.6613 204.605 24.736C204.386 24.8053 204.199 24.9013 204.045 25.024L203.597 24.152C203.831 23.9867 204.114 23.8587 204.445 23.768C204.775 23.6773 205.111 23.632 205.453 23.632C206.109 23.632 206.618 23.7867 206.981 24.096C207.343 24.4053 207.525 24.888 207.525 25.544V28H206.357ZM205.045 28.064C204.709 28.064 204.421 28.008 204.181 27.896C203.941 27.7787 203.757 27.6213 203.629 27.424C203.501 27.2267 203.437 27.0053 203.437 26.76C203.437 26.504 203.498 26.28 203.621 26.088C203.749 25.896 203.949 25.7467 204.221 25.64C204.493 25.528 204.847 25.472 205.285 25.472H206.429V26.2H205.421C205.127 26.2 204.925 26.248 204.813 26.344C204.706 26.44 204.653 26.56 204.653 26.704C204.653 26.864 204.714 26.992 204.837 27.088C204.965 27.1787 205.138 27.224 205.357 27.224C205.565 27.224 205.751 27.176 205.917 27.08C206.082 26.9787 206.202 26.832 206.277 26.64L206.469 27.216C206.378 27.4933 206.213 27.704 205.973 27.848C205.733 27.992 205.423 28.064 205.045 28.064ZM210.533 28.064C210.128 28.064 209.763 27.9733 209.437 27.792C209.112 27.6053 208.853 27.3467 208.661 27.016C208.475 26.6853 208.381 26.296 208.381 25.848C208.381 25.3947 208.475 25.0027 208.661 24.672C208.853 24.3413 209.112 24.0853 209.437 23.904C209.763 23.7227 210.128 23.632 210.533 23.632C210.896 23.632 211.213 23.712 211.485 23.872C211.757 24.032 211.968 24.2747 212.117 24.6C212.267 24.9253 212.341 25.3413 212.341 25.848C212.341 26.3493 212.269 26.7653 212.125 27.096C211.981 27.4213 211.773 27.664 211.501 27.824C211.235 27.984 210.912 28.064 210.533 28.064ZM210.749 27.04C210.952 27.04 211.136 26.992 211.301 26.896C211.467 26.8 211.597 26.664 211.693 26.488C211.795 26.3067 211.845 26.0933 211.845 25.848C211.845 25.5973 211.795 25.384 211.693 25.208C211.597 25.032 211.467 24.896 211.301 24.8C211.136 24.704 210.952 24.656 210.749 24.656C210.541 24.656 210.355 24.704 210.189 24.8C210.024 24.896 209.891 25.032 209.789 25.208C209.693 25.384 209.645 25.5973 209.645 25.848C209.645 26.0933 209.693 26.3067 209.789 26.488C209.891 26.664 210.024 26.8 210.189 26.896C210.355 26.992 210.541 27.04 210.749 27.04ZM211.877 28V27.12L211.901 25.84L211.821 24.568V22.064H213.069V28H211.877ZM214.008 29.232L214.536 27.312L214.712 28.032C214.483 28.032 214.294 27.9653 214.144 27.832C214 27.6987 213.928 27.5147 213.928 27.28C213.928 27.0453 214.003 26.8587 214.152 26.72C214.302 26.5813 214.486 26.512 214.704 26.512C214.928 26.512 215.112 26.584 215.256 26.728C215.4 26.8667 215.472 27.0507 215.472 27.28C215.472 27.3493 215.467 27.4187 215.456 27.488C215.446 27.552 215.424 27.632 215.392 27.728C215.366 27.8187 215.32 27.936 215.256 28.08L214.8 29.232H214.008ZM219.832 28V23.456H218.04V22.4H222.92V23.456H221.128V28H219.832ZM226.145 23.632C226.486 23.632 226.79 23.7013 227.057 23.84C227.329 23.9733 227.542 24.1813 227.697 24.464C227.852 24.7413 227.929 25.0987 227.929 25.536V28H226.681V25.728C226.681 25.3813 226.604 25.1253 226.449 24.96C226.3 24.7947 226.086 24.712 225.809 24.712C225.612 24.712 225.433 24.7547 225.273 24.84C225.118 24.92 224.996 25.0453 224.905 25.216C224.82 25.3867 224.777 25.6053 224.777 25.872V28H223.529V22.064H224.777V24.888L224.497 24.528C224.652 24.24 224.873 24.0187 225.161 23.864C225.449 23.7093 225.777 23.632 226.145 23.632ZM231.228 28.064C230.737 28.064 230.305 27.968 229.932 27.776C229.564 27.584 229.278 27.3227 229.076 26.992C228.873 26.656 228.772 26.2747 228.772 25.848C228.772 25.416 228.87 25.0347 229.068 24.704C229.27 24.368 229.545 24.1067 229.892 23.92C230.238 23.728 230.63 23.632 231.068 23.632C231.489 23.632 231.868 23.7227 232.204 23.904C232.545 24.08 232.814 24.336 233.012 24.672C233.209 25.0027 233.308 25.4 233.308 25.864C233.308 25.912 233.305 25.968 233.3 26.032C233.294 26.0907 233.289 26.1467 233.284 26.2H229.788V25.472H232.628L232.148 25.688C232.148 25.464 232.102 25.2693 232.012 25.104C231.921 24.9387 231.796 24.8107 231.636 24.72C231.476 24.624 231.289 24.576 231.076 24.576C230.862 24.576 230.673 24.624 230.508 24.72C230.348 24.8107 230.222 24.9413 230.132 25.112C230.041 25.2773 229.996 25.4747 229.996 25.704V25.896C229.996 26.1307 230.046 26.3387 230.148 26.52C230.254 26.696 230.401 26.832 230.588 26.928C230.78 27.0187 231.004 27.064 231.26 27.064C231.489 27.064 231.689 27.0293 231.86 26.96C232.036 26.8907 232.196 26.7867 232.34 26.648L233.004 27.368C232.806 27.592 232.558 27.7653 232.26 27.888C231.961 28.0053 231.617 28.064 231.228 28.064ZM236.755 23.632C237.096 23.632 237.4 23.7013 237.667 23.84C237.939 23.9733 238.152 24.1813 238.307 24.464C238.461 24.7413 238.539 25.0987 238.539 25.536V28H237.291V25.728C237.291 25.3813 237.213 25.1253 237.059 24.96C236.909 24.7947 236.696 24.712 236.419 24.712C236.221 24.712 236.043 24.7547 235.883 24.84C235.728 24.92 235.605 25.0453 235.515 25.216C235.429 25.3867 235.387 25.6053 235.387 25.872V28H234.139V23.696H235.331V24.888L235.107 24.528C235.261 24.24 235.483 24.0187 235.771 23.864C236.059 23.7093 236.387 23.632 236.755 23.632ZM242.286 23.632C242.627 23.632 242.931 23.7013 243.198 23.84C243.47 23.9733 243.683 24.1813 243.838 24.464C243.992 24.7413 244.07 25.0987 244.07 25.536V28H242.822V25.728C242.822 25.3813 242.744 25.1253 242.59 24.96C242.44 24.7947 242.227 24.712 241.95 24.712C241.752 24.712 241.574 24.7547 241.414 24.84C241.259 24.92 241.136 25.0453 241.046 25.216C240.96 25.3867 240.918 25.6053 240.918 25.872V28H239.67V23.696H240.862V24.888L240.638 24.528C240.792 24.24 241.014 24.0187 241.302 23.864C241.59 23.7093 241.918 23.632 242.286 23.632ZM247.841 28V27.16L247.761 26.976V25.472C247.761 25.2053 247.678 24.9973 247.513 24.848C247.353 24.6987 247.105 24.624 246.769 24.624C246.54 24.624 246.313 24.6613 246.089 24.736C245.87 24.8053 245.684 24.9013 245.529 25.024L245.081 24.152C245.316 23.9867 245.598 23.8587 245.929 23.768C246.26 23.6773 246.596 23.632 246.937 23.632C247.593 23.632 248.102 23.7867 248.465 24.096C248.828 24.4053 249.009 24.888 249.009 25.544V28H247.841ZM246.529 28.064C246.193 28.064 245.905 28.008 245.665 27.896C245.425 27.7787 245.241 27.6213 245.113 27.424C244.985 27.2267 244.921 27.0053 244.921 26.76C244.921 26.504 244.982 26.28 245.105 26.088C245.233 25.896 245.433 25.7467 245.705 25.64C245.977 25.528 246.332 25.472 246.769 25.472H247.913V26.2H246.905C246.612 26.2 246.409 26.248 246.297 26.344C246.19 26.44 246.137 26.56 246.137 26.704C246.137 26.864 246.198 26.992 246.321 27.088C246.449 27.1787 246.622 27.224 246.841 27.224C247.049 27.224 247.236 27.176 247.401 27.08C247.566 26.9787 247.686 26.832 247.761 26.64L247.953 27.216C247.862 27.4933 247.697 27.704 247.457 27.848C247.217 27.992 246.908 28.064 246.529 28.064ZM255.651 23.632C255.992 23.632 256.293 23.7013 256.555 23.84C256.821 23.9733 257.029 24.1813 257.179 24.464C257.333 24.7413 257.411 25.0987 257.411 25.536V28H256.163V25.728C256.163 25.3813 256.091 25.1253 255.947 24.96C255.803 24.7947 255.6 24.712 255.339 24.712C255.157 24.712 254.995 24.7547 254.851 24.84C254.707 24.92 254.595 25.0427 254.515 25.208C254.435 25.3733 254.395 25.584 254.395 25.84V28H253.147V25.728C253.147 25.3813 253.075 25.1253 252.931 24.96C252.792 24.7947 252.592 24.712 252.331 24.712C252.149 24.712 251.987 24.7547 251.843 24.84C251.699 24.92 251.587 25.0427 251.507 25.208C251.427 25.3733 251.387 25.584 251.387 25.84V28H250.139V23.696H251.331V24.872L251.107 24.528C251.256 24.2347 251.467 24.0133 251.739 23.864C252.016 23.7093 252.331 23.632 252.683 23.632C253.077 23.632 253.421 23.7333 253.715 23.936C254.013 24.1333 254.211 24.4373 254.307 24.848L253.867 24.728C254.011 24.392 254.24 24.1253 254.555 23.928C254.875 23.7307 255.24 23.632 255.651 23.632ZM261.073 28.064C260.71 28.064 260.393 27.984 260.121 27.824C259.849 27.664 259.636 27.4213 259.481 27.096C259.332 26.7653 259.257 26.3493 259.257 25.848C259.257 25.3413 259.329 24.9253 259.473 24.6C259.617 24.2747 259.825 24.032 260.097 23.872C260.369 23.712 260.694 23.632 261.073 23.632C261.478 23.632 261.841 23.7253 262.161 23.912C262.486 24.0933 262.742 24.3493 262.929 24.68C263.121 25.0107 263.217 25.4 263.217 25.848C263.217 26.3013 263.121 26.6933 262.929 27.024C262.742 27.3547 262.486 27.6107 262.161 27.792C261.841 27.9733 261.478 28.064 261.073 28.064ZM258.529 29.552V23.696H259.721V24.576L259.697 25.856L259.777 27.128V29.552H258.529ZM260.857 27.04C261.065 27.04 261.249 26.992 261.409 26.896C261.574 26.8 261.705 26.664 261.801 26.488C261.902 26.3067 261.953 26.0933 261.953 25.848C261.953 25.5973 261.902 25.384 261.801 25.208C261.705 25.032 261.574 24.896 261.409 24.8C261.249 24.704 261.065 24.656 260.857 24.656C260.649 24.656 260.462 24.704 260.297 24.8C260.132 24.896 260.001 25.032 259.905 25.208C259.809 25.384 259.761 25.5973 259.761 25.848C259.761 26.0933 259.809 26.3067 259.905 26.488C260.001 26.664 260.132 26.8 260.297 26.896C260.462 26.992 260.649 27.04 260.857 27.04ZM266.622 28V27.16L266.542 26.976V25.472C266.542 25.2053 266.46 24.9973 266.294 24.848C266.134 24.6987 265.886 24.624 265.55 24.624C265.321 24.624 265.094 24.6613 264.87 24.736C264.652 24.8053 264.465 24.9013 264.31 25.024L263.862 24.152C264.097 23.9867 264.38 23.8587 264.71 23.768C265.041 23.6773 265.377 23.632 265.718 23.632C266.374 23.632 266.884 23.7867 267.246 24.096C267.609 24.4053 267.79 24.888 267.79 25.544V28H266.622ZM265.31 28.064C264.974 28.064 264.686 28.008 264.446 27.896C264.206 27.7787 264.022 27.6213 263.894 27.424C263.766 27.2267 263.702 27.0053 263.702 26.76C263.702 26.504 263.764 26.28 263.886 26.088C264.014 25.896 264.214 25.7467 264.486 25.64C264.758 25.528 265.113 25.472 265.55 25.472H266.694V26.2H265.686C265.393 26.2 265.19 26.248 265.078 26.344C264.972 26.44 264.918 26.56 264.918 26.704C264.918 26.864 264.98 26.992 265.102 27.088C265.23 27.1787 265.404 27.224 265.622 27.224C265.83 27.224 266.017 27.176 266.182 27.08C266.348 26.9787 266.468 26.832 266.542 26.64L266.734 27.216C266.644 27.4933 266.478 27.704 266.238 27.848C265.998 27.992 265.689 28.064 265.31 28.064ZM268.92 28V22.064H270.168V28H268.92ZM273.966 28V27.16L273.886 26.976V25.472C273.886 25.2053 273.803 24.9973 273.638 24.848C273.478 24.6987 273.23 24.624 272.894 24.624C272.665 24.624 272.438 24.6613 272.214 24.736C271.995 24.8053 271.809 24.9013 271.654 25.024L271.206 24.152C271.441 23.9867 271.723 23.8587 272.054 23.768C272.385 23.6773 272.721 23.632 273.062 23.632C273.718 23.632 274.227 23.7867 274.59 24.096C274.953 24.4053 275.134 24.888 275.134 25.544V28H273.966ZM272.654 28.064C272.318 28.064 272.03 28.008 271.79 27.896C271.55 27.7787 271.366 27.6213 271.238 27.424C271.11 27.2267 271.046 27.0053 271.046 26.76C271.046 26.504 271.107 26.28 271.23 26.088C271.358 25.896 271.558 25.7467 271.83 25.64C272.102 25.528 272.457 25.472 272.894 25.472H274.038V26.2H273.03C272.737 26.2 272.534 26.248 272.422 26.344C272.315 26.44 272.262 26.56 272.262 26.704C272.262 26.864 272.323 26.992 272.446 27.088C272.574 27.1787 272.747 27.224 272.966 27.224C273.174 27.224 273.361 27.176 273.526 27.08C273.691 26.9787 273.811 26.832 273.886 26.64L274.078 27.216C273.987 27.4933 273.822 27.704 273.582 27.848C273.342 27.992 273.033 28.064 272.654 28.064ZM276.729 29.616C276.505 29.616 276.284 29.5813 276.065 29.512C275.847 29.4427 275.668 29.3467 275.529 29.224L275.985 28.336C276.081 28.4213 276.191 28.488 276.313 28.536C276.441 28.584 276.567 28.608 276.689 28.608C276.865 28.608 277.004 28.5653 277.105 28.48C277.212 28.4 277.308 28.264 277.393 28.072L277.617 27.544L277.713 27.408L279.257 23.696H280.457L278.513 28.264C278.375 28.6107 278.215 28.8827 278.033 29.08C277.857 29.2773 277.66 29.416 277.441 29.496C277.228 29.576 276.991 29.616 276.729 29.616ZM277.465 28.168L275.545 23.696H276.833L278.321 27.296L277.465 28.168ZM283.466 28V27.16L283.386 26.976V25.472C283.386 25.2053 283.303 24.9973 283.138 24.848C282.978 24.6987 282.73 24.624 282.394 24.624C282.165 24.624 281.938 24.6613 281.714 24.736C281.495 24.8053 281.309 24.9013 281.154 25.024L280.706 24.152C280.941 23.9867 281.223 23.8587 281.554 23.768C281.885 23.6773 282.221 23.632 282.562 23.632C283.218 23.632 283.727 23.7867 284.09 24.096C284.453 24.4053 284.634 24.888 284.634 25.544V28H283.466ZM282.154 28.064C281.818 28.064 281.53 28.008 281.29 27.896C281.05 27.7787 280.866 27.6213 280.738 27.424C280.61 27.2267 280.546 27.0053 280.546 26.76C280.546 26.504 280.607 26.28 280.73 26.088C280.858 25.896 281.058 25.7467 281.33 25.64C281.602 25.528 281.957 25.472 282.394 25.472H283.538V26.2H282.53C282.237 26.2 282.034 26.248 281.922 26.344C281.815 26.44 281.762 26.56 281.762 26.704C281.762 26.864 281.823 26.992 281.946 27.088C282.074 27.1787 282.247 27.224 282.466 27.224C282.674 27.224 282.861 27.176 283.026 27.08C283.191 26.9787 283.311 26.832 283.386 26.64L283.578 27.216C283.487 27.4933 283.322 27.704 283.082 27.848C282.842 27.992 282.533 28.064 282.154 28.064ZM291.276 23.632C291.617 23.632 291.918 23.7013 292.18 23.84C292.446 23.9733 292.654 24.1813 292.804 24.464C292.958 24.7413 293.036 25.0987 293.036 25.536V28H291.788V25.728C291.788 25.3813 291.716 25.1253 291.572 24.96C291.428 24.7947 291.225 24.712 290.964 24.712C290.782 24.712 290.62 24.7547 290.476 24.84C290.332 24.92 290.22 25.0427 290.14 25.208C290.06 25.3733 290.02 25.584 290.02 25.84V28H288.772V25.728C288.772 25.3813 288.7 25.1253 288.556 24.96C288.417 24.7947 288.217 24.712 287.956 24.712C287.774 24.712 287.612 24.7547 287.468 24.84C287.324 24.92 287.212 25.0427 287.132 25.208C287.052 25.3733 287.012 25.584 287.012 25.84V28H285.764V23.696H286.956V24.872L286.732 24.528C286.881 24.2347 287.092 24.0133 287.364 23.864C287.641 23.7093 287.956 23.632 288.308 23.632C288.702 23.632 289.046 23.7333 289.34 23.936C289.638 24.1333 289.836 24.4373 289.932 24.848L289.492 24.728C289.636 24.392 289.865 24.1253 290.18 23.928C290.5 23.7307 290.865 23.632 291.276 23.632ZM293.938 29.232L294.466 27.312L294.642 28.032C294.413 28.032 294.223 27.9653 294.074 27.832C293.93 27.6987 293.858 27.5147 293.858 27.28C293.858 27.0453 293.933 26.8587 294.082 26.72C294.231 26.5813 294.415 26.512 294.634 26.512C294.858 26.512 295.042 26.584 295.186 26.728C295.33 26.8667 295.402 27.0507 295.402 27.28C295.402 27.3493 295.397 27.4187 295.386 27.488C295.375 27.552 295.354 27.632 295.322 27.728C295.295 27.8187 295.25 27.936 295.186 28.08L294.73 29.232H293.938ZM74.9378 38.096C74.5058 38.096 74.1031 38.0267 73.7298 37.888C73.3618 37.744 73.0418 37.5413 72.7697 37.28C72.4978 37.0187 72.2844 36.712 72.1298 36.36C71.9804 36.008 71.9058 35.6213 71.9058 35.2C71.9058 34.7787 71.9804 34.392 72.1298 34.04C72.2844 33.688 72.4978 33.3813 72.7697 33.12C73.0471 32.8587 73.3698 32.6587 73.7378 32.52C74.1058 32.376 74.5084 32.304 74.9458 32.304C75.4311 32.304 75.8684 32.3893 76.2578 32.56C76.6524 32.7253 76.9831 32.9707 77.2498 33.296L76.4178 34.064C76.2258 33.8453 76.0124 33.6827 75.7778 33.576C75.5431 33.464 75.2871 33.408 75.0098 33.408C74.7484 33.408 74.5084 33.4507 74.2898 33.536C74.0711 33.6213 73.8818 33.744 73.7218 33.904C73.5618 34.064 73.4364 34.2533 73.3458 34.472C73.2604 34.6907 73.2178 34.9333 73.2178 35.2C73.2178 35.4667 73.2604 35.7093 73.3458 35.928C73.4364 36.1467 73.5618 36.336 73.7218 36.496C73.8818 36.656 74.0711 36.7787 74.2898 36.864C74.5084 36.9493 74.7484 36.992 75.0098 36.992C75.2871 36.992 75.5431 36.9387 75.7778 36.832C76.0124 36.72 76.2258 36.552 76.4178 36.328L77.2498 37.096C76.9831 37.4213 76.6524 37.6693 76.2578 37.84C75.8684 38.0107 75.4284 38.096 74.9378 38.096ZM79.9365 38.064C79.4778 38.064 79.0698 37.968 78.7125 37.776C78.3605 37.584 78.0805 37.3227 77.8725 36.992C77.6698 36.656 77.5685 36.2747 77.5685 35.848C77.5685 35.416 77.6698 35.0347 77.8725 34.704C78.0805 34.368 78.3605 34.1067 78.7125 33.92C79.0698 33.728 79.4778 33.632 79.9365 33.632C80.3898 33.632 80.7952 33.728 81.1525 33.92C81.5098 34.1067 81.7898 34.3653 81.9925 34.696C82.1952 35.0267 82.2965 35.4107 82.2965 35.848C82.2965 36.2747 82.1952 36.656 81.9925 36.992C81.7898 37.3227 81.5098 37.584 81.1525 37.776C80.7952 37.968 80.3898 38.064 79.9365 38.064ZM79.9365 37.04C80.1445 37.04 80.3312 36.992 80.4965 36.896C80.6618 36.8 80.7925 36.664 80.8885 36.488C80.9845 36.3067 81.0325 36.0933 81.0325 35.848C81.0325 35.5973 80.9845 35.384 80.8885 35.208C80.7925 35.032 80.6618 34.896 80.4965 34.8C80.3312 34.704 80.1445 34.656 79.9365 34.656C79.7285 34.656 79.5418 34.704 79.3765 34.8C79.2112 34.896 79.0778 35.032 78.9765 35.208C78.8805 35.384 78.8325 35.5973 78.8325 35.848C78.8325 36.0933 78.8805 36.3067 78.9765 36.488C79.0778 36.664 79.2112 36.8 79.3765 36.896C79.5418 36.992 79.7285 37.04 79.9365 37.04ZM83.1307 38V33.696H84.3787V38H83.1307ZM83.7547 33.096C83.5254 33.096 83.3387 33.0293 83.1947 32.896C83.0507 32.7627 82.9787 32.5973 82.9787 32.4C82.9787 32.2027 83.0507 32.0373 83.1947 31.904C83.3387 31.7707 83.5254 31.704 83.7547 31.704C83.984 31.704 84.1707 31.768 84.3147 31.896C84.4587 32.0187 84.5307 32.1787 84.5307 32.376C84.5307 32.584 84.4587 32.7573 84.3147 32.896C84.176 33.0293 83.9894 33.096 83.7547 33.096ZM91.0489 33.632C91.3903 33.632 91.6916 33.7013 91.9529 33.84C92.2196 33.9733 92.4276 34.1813 92.5769 34.464C92.7316 34.7413 92.8089 35.0987 92.8089 35.536V38H91.5609V35.728C91.5609 35.3813 91.4889 35.1253 91.3449 34.96C91.2009 34.7947 90.9983 34.712 90.7369 34.712C90.5556 34.712 90.3929 34.7547 90.2489 34.84C90.1049 34.92 89.9929 35.0427 89.9129 35.208C89.8329 35.3733 89.7929 35.584 89.7929 35.84V38H88.5449V35.728C88.5449 35.3813 88.4729 35.1253 88.3289 34.96C88.1903 34.7947 87.9903 34.712 87.7289 34.712C87.5476 34.712 87.3849 34.7547 87.2409 34.84C87.0969 34.92 86.9849 35.0427 86.9049 35.208C86.8249 35.3733 86.7849 35.584 86.7849 35.84V38H85.5369V33.696H86.7289V34.872L86.5049 34.528C86.6543 34.2347 86.8649 34.0133 87.1369 33.864C87.4143 33.7093 87.7289 33.632 88.0809 33.632C88.4756 33.632 88.8196 33.7333 89.1129 33.936C89.4116 34.1333 89.6089 34.4373 89.7049 34.848L89.2649 34.728C89.4089 34.392 89.6383 34.1253 89.9529 33.928C90.2729 33.7307 90.6383 33.632 91.0489 33.632ZM96.4716 38.064C96.0929 38.064 95.7676 37.984 95.4956 37.824C95.2236 37.664 95.0156 37.4213 94.8716 37.096C94.7276 36.7653 94.6556 36.3493 94.6556 35.848C94.6556 35.3413 94.7302 34.9253 94.8796 34.6C95.0342 34.2747 95.2476 34.032 95.5196 33.872C95.7916 33.712 96.1089 33.632 96.4716 33.632C96.8769 33.632 97.2396 33.7227 97.5596 33.904C97.8849 34.0853 98.1409 34.3413 98.3276 34.672C98.5196 35.0027 98.6156 35.3947 98.6156 35.848C98.6156 36.296 98.5196 36.6853 98.3276 37.016C98.1409 37.3467 97.8849 37.6053 97.5596 37.792C97.2396 37.9733 96.8769 38.064 96.4716 38.064ZM93.9276 38V32.064H95.1756V34.568L95.0956 35.84L95.1196 37.12V38H93.9276ZM96.2556 37.04C96.4636 37.04 96.6476 36.992 96.8076 36.896C96.9729 36.8 97.1036 36.664 97.1996 36.488C97.3009 36.3067 97.3516 36.0933 97.3516 35.848C97.3516 35.5973 97.3009 35.384 97.1996 35.208C97.1036 35.032 96.9729 34.896 96.8076 34.8C96.6476 34.704 96.4636 34.656 96.2556 34.656C96.0476 34.656 95.8609 34.704 95.6956 34.8C95.5302 34.896 95.3996 35.032 95.3036 35.208C95.2076 35.384 95.1596 35.5973 95.1596 35.848C95.1596 36.0933 95.2076 36.3067 95.3036 36.488C95.3996 36.664 95.5302 36.8 95.6956 36.896C95.8609 36.992 96.0476 37.04 96.2556 37.04ZM102.021 38V37.16L101.941 36.976V35.472C101.941 35.2053 101.858 34.9973 101.693 34.848C101.533 34.6987 101.285 34.624 100.949 34.624C100.719 34.624 100.493 34.6613 100.269 34.736C100.05 34.8053 99.8634 34.9013 99.7087 35.024L99.2607 34.152C99.4954 33.9867 99.778 33.8587 100.109 33.768C100.439 33.6773 100.775 33.632 101.117 33.632C101.773 33.632 102.282 33.7867 102.645 34.096C103.007 34.4053 103.189 34.888 103.189 35.544V38H102.021ZM100.709 38.064C100.373 38.064 100.085 38.008 99.8447 37.896C99.6047 37.7787 99.4207 37.6213 99.2927 37.424C99.1647 37.2267 99.1007 37.0053 99.1007 36.76C99.1007 36.504 99.162 36.28 99.2847 36.088C99.4127 35.896 99.6127 35.7467 99.8847 35.64C100.157 35.528 100.511 35.472 100.949 35.472H102.093V36.2H101.085C100.791 36.2 100.589 36.248 100.477 36.344C100.37 36.44 100.317 36.56 100.317 36.704C100.317 36.864 100.378 36.992 100.501 37.088C100.629 37.1787 100.802 37.224 101.021 37.224C101.229 37.224 101.415 37.176 101.581 37.08C101.746 36.9787 101.866 36.832 101.941 36.64L102.133 37.216C102.042 37.4933 101.877 37.704 101.637 37.848C101.397 37.992 101.087 38.064 100.709 38.064ZM106.078 38.064C105.572 38.064 105.177 37.936 104.894 37.68C104.612 37.4187 104.47 37.032 104.47 36.52V32.744H105.718V36.504C105.718 36.6853 105.766 36.8267 105.862 36.928C105.958 37.024 106.089 37.072 106.254 37.072C106.452 37.072 106.62 37.0187 106.758 36.912L107.094 37.792C106.966 37.8827 106.812 37.952 106.63 38C106.454 38.0427 106.27 38.064 106.078 38.064ZM103.806 34.752V33.792H106.79V34.752H103.806ZM109.71 38.064C109.251 38.064 108.843 37.968 108.486 37.776C108.134 37.584 107.854 37.3227 107.646 36.992C107.443 36.656 107.342 36.2747 107.342 35.848C107.342 35.416 107.443 35.0347 107.646 34.704C107.854 34.368 108.134 34.1067 108.486 33.92C108.843 33.728 109.251 33.632 109.71 33.632C110.163 33.632 110.569 33.728 110.926 33.92C111.283 34.1067 111.563 34.3653 111.766 34.696C111.969 35.0267 112.07 35.4107 112.07 35.848C112.07 36.2747 111.969 36.656 111.766 36.992C111.563 37.3227 111.283 37.584 110.926 37.776C110.569 37.968 110.163 38.064 109.71 38.064ZM109.71 37.04C109.918 37.04 110.105 36.992 110.27 36.896C110.435 36.8 110.566 36.664 110.662 36.488C110.758 36.3067 110.806 36.0933 110.806 35.848C110.806 35.5973 110.758 35.384 110.662 35.208C110.566 35.032 110.435 34.896 110.27 34.8C110.105 34.704 109.918 34.656 109.71 34.656C109.502 34.656 109.315 34.704 109.15 34.8C108.985 34.896 108.851 35.032 108.75 35.208C108.654 35.384 108.606 35.5973 108.606 35.848C108.606 36.0933 108.654 36.3067 108.75 36.488C108.851 36.664 108.985 36.8 109.15 36.896C109.315 36.992 109.502 37.04 109.71 37.04ZM112.904 38V33.696H114.096V34.912L113.928 34.56C114.056 34.256 114.261 34.0267 114.544 33.872C114.827 33.712 115.171 33.632 115.576 33.632V34.784C115.523 34.7787 115.475 34.776 115.432 34.776C115.389 34.7707 115.344 34.768 115.296 34.768C114.955 34.768 114.677 34.8667 114.464 35.064C114.256 35.256 114.152 35.5573 114.152 35.968V38H112.904ZM118.423 38.064C117.932 38.064 117.5 37.968 117.127 37.776C116.759 37.584 116.474 37.3227 116.271 36.992C116.068 36.656 115.967 36.2747 115.967 35.848C115.967 35.416 116.066 35.0347 116.263 34.704C116.466 34.368 116.74 34.1067 117.087 33.92C117.434 33.728 117.826 33.632 118.263 33.632C118.684 33.632 119.063 33.7227 119.399 33.904C119.74 34.08 120.01 34.336 120.207 34.672C120.404 35.0027 120.503 35.4 120.503 35.864C120.503 35.912 120.5 35.968 120.495 36.032C120.49 36.0907 120.484 36.1467 120.479 36.2H116.983V35.472H119.823L119.343 35.688C119.343 35.464 119.298 35.2693 119.207 35.104C119.116 34.9387 118.991 34.8107 118.831 34.72C118.671 34.624 118.484 34.576 118.271 34.576C118.058 34.576 117.868 34.624 117.703 34.72C117.543 34.8107 117.418 34.9413 117.327 35.112C117.236 35.2773 117.191 35.4747 117.191 35.704V35.896C117.191 36.1307 117.242 36.3387 117.343 36.52C117.45 36.696 117.596 36.832 117.783 36.928C117.975 37.0187 118.199 37.064 118.455 37.064C118.684 37.064 118.884 37.0293 119.055 36.96C119.231 36.8907 119.391 36.7867 119.535 36.648L120.199 37.368C120.002 37.592 119.754 37.7653 119.455 37.888C119.156 38.0053 118.812 38.064 118.423 38.064ZM123.439 36.248V35.248H125.703V36.248H123.439ZM131.191 38.096C130.679 38.096 130.234 37.9893 129.855 37.776C129.482 37.5627 129.194 37.2507 128.991 36.84C128.788 36.4293 128.687 35.9227 128.687 35.32C128.687 34.6747 128.807 34.128 129.047 33.68C129.292 33.232 129.628 32.8907 130.055 32.656C130.487 32.4213 130.983 32.304 131.543 32.304C131.842 32.304 132.127 32.336 132.399 32.4C132.671 32.464 132.906 32.56 133.103 32.688L132.623 33.64C132.468 33.5333 132.303 33.4613 132.127 33.424C131.951 33.3813 131.767 33.36 131.575 33.36C131.09 33.36 130.706 33.5067 130.423 33.8C130.14 34.0933 129.999 34.528 129.999 35.104C129.999 35.2 129.999 35.3067 129.999 35.424C130.004 35.5413 130.02 35.6587 130.047 35.776L129.687 35.44C129.788 35.232 129.919 35.0587 130.079 34.92C130.239 34.776 130.428 34.6693 130.647 34.6C130.871 34.5253 131.116 34.488 131.383 34.488C131.746 34.488 132.071 34.56 132.359 34.704C132.647 34.848 132.876 35.0507 133.047 35.312C133.223 35.5733 133.311 35.88 133.311 36.232C133.311 36.6107 133.215 36.9413 133.023 37.224C132.836 37.5013 132.583 37.7173 132.263 37.872C131.948 38.0213 131.591 38.096 131.191 38.096ZM131.119 37.128C131.3 37.128 131.46 37.096 131.599 37.032C131.743 36.9627 131.855 36.864 131.935 36.736C132.015 36.608 132.055 36.4613 132.055 36.296C132.055 36.04 131.967 35.8373 131.791 35.688C131.62 35.5333 131.391 35.456 131.103 35.456C130.911 35.456 130.743 35.4933 130.599 35.568C130.455 35.6373 130.34 35.736 130.255 35.864C130.175 35.9867 130.135 36.1307 130.135 36.296C130.135 36.456 130.175 36.6 130.255 36.728C130.335 36.8507 130.447 36.9493 130.591 37.024C130.735 37.0933 130.911 37.128 131.119 37.128ZM133.717 36.824V35.952L136.357 32.4H137.717L135.133 35.952L134.501 35.768H138.909V36.824H133.717ZM136.733 38V36.824L136.773 35.768V34.72H137.997V38H136.733ZM139.957 38V32.88L140.517 33.44H138.837V32.4H141.253V38H139.957ZM146.996 38.096C146.484 38.096 146.038 37.9893 145.66 37.776C145.286 37.5627 144.998 37.2507 144.796 36.84C144.593 36.4293 144.492 35.9227 144.492 35.32C144.492 34.6747 144.612 34.128 144.852 33.68C145.097 33.232 145.433 32.8907 145.86 32.656C146.292 32.4213 146.788 32.304 147.348 32.304C147.646 32.304 147.932 32.336 148.204 32.4C148.476 32.464 148.71 32.56 148.908 32.688L148.428 33.64C148.273 33.5333 148.108 33.4613 147.932 33.424C147.756 33.3813 147.572 33.36 147.38 33.36C146.894 33.36 146.51 33.5067 146.228 33.8C145.945 34.0933 145.804 34.528 145.804 35.104C145.804 35.2 145.804 35.3067 145.804 35.424C145.809 35.5413 145.825 35.6587 145.852 35.776L145.492 35.44C145.593 35.232 145.724 35.0587 145.884 34.92C146.044 34.776 146.233 34.6693 146.452 34.6C146.676 34.5253 146.921 34.488 147.188 34.488C147.55 34.488 147.876 34.56 148.164 34.704C148.452 34.848 148.681 35.0507 148.852 35.312C149.028 35.5733 149.116 35.88 149.116 36.232C149.116 36.6107 149.02 36.9413 148.828 37.224C148.641 37.5013 148.388 37.7173 148.068 37.872C147.753 38.0213 147.396 38.096 146.996 38.096ZM146.924 37.128C147.105 37.128 147.265 37.096 147.404 37.032C147.548 36.9627 147.66 36.864 147.74 36.736C147.82 36.608 147.86 36.4613 147.86 36.296C147.86 36.04 147.772 35.8373 147.596 35.688C147.425 35.5333 147.196 35.456 146.908 35.456C146.716 35.456 146.548 35.4933 146.404 35.568C146.26 35.6373 146.145 35.736 146.06 35.864C145.98 35.9867 145.94 36.1307 145.94 36.296C145.94 36.456 145.98 36.6 146.06 36.728C146.14 36.8507 146.252 36.9493 146.396 37.024C146.54 37.0933 146.716 37.128 146.924 37.128ZM151.489 38.096C151.1 38.096 150.713 38.0453 150.329 37.944C149.951 37.8373 149.625 37.688 149.353 37.496L149.865 36.504C150.079 36.6587 150.324 36.7813 150.601 36.872C150.884 36.9627 151.169 37.008 151.457 37.008C151.783 37.008 152.039 36.944 152.225 36.816C152.412 36.688 152.505 36.5093 152.505 36.28C152.505 36.136 152.468 36.008 152.393 35.896C152.319 35.784 152.185 35.6987 151.993 35.64C151.807 35.5813 151.543 35.552 151.201 35.552H149.769L150.057 32.4H153.473V33.44H150.521L151.193 32.848L150.993 35.096L150.321 34.504H151.505C152.06 34.504 152.505 34.5813 152.841 34.736C153.183 34.8853 153.431 35.0907 153.585 35.352C153.74 35.6133 153.817 35.9093 153.817 36.24C153.817 36.5707 153.735 36.8773 153.569 37.16C153.404 37.4373 153.148 37.664 152.801 37.84C152.46 38.0107 152.023 38.096 151.489 38.096ZM156.311 32.304C156.829 32.304 157.274 32.4107 157.647 32.624C158.021 32.8373 158.309 33.1493 158.511 33.56C158.714 33.9653 158.815 34.472 158.815 35.08C158.815 35.7253 158.693 36.272 158.447 36.72C158.207 37.168 157.874 37.5093 157.447 37.744C157.021 37.9787 156.525 38.096 155.959 38.096C155.666 38.096 155.383 38.064 155.111 38C154.839 37.936 154.605 37.84 154.407 37.712L154.887 36.76C155.042 36.8667 155.207 36.9413 155.383 36.984C155.559 37.0213 155.743 37.04 155.935 37.04C156.415 37.04 156.797 36.8933 157.079 36.6C157.367 36.3067 157.511 35.872 157.511 35.296C157.511 35.2 157.509 35.0933 157.503 34.976C157.498 34.8587 157.485 34.7413 157.463 34.624L157.815 34.96C157.725 35.168 157.597 35.344 157.431 35.488C157.266 35.6267 157.074 35.7333 156.855 35.808C156.637 35.8773 156.391 35.912 156.119 35.912C155.762 35.912 155.437 35.84 155.143 35.696C154.855 35.552 154.623 35.3493 154.447 35.088C154.277 34.8267 154.191 34.52 154.191 34.168C154.191 33.784 154.285 33.4533 154.471 33.176C154.663 32.8987 154.919 32.6853 155.239 32.536C155.565 32.3813 155.922 32.304 156.311 32.304ZM156.391 33.272C156.205 33.272 156.042 33.3067 155.903 33.376C155.765 33.44 155.655 33.536 155.575 33.664C155.495 33.7867 155.455 33.9333 155.455 34.104C155.455 34.36 155.541 34.5653 155.711 34.72C155.887 34.8693 156.119 34.944 156.407 34.944C156.594 34.944 156.759 34.9093 156.903 34.84C157.053 34.7653 157.167 34.664 157.247 34.536C157.327 34.408 157.367 34.264 157.367 34.104C157.367 33.944 157.327 33.8027 157.247 33.68C157.173 33.552 157.063 33.4533 156.919 33.384C156.775 33.3093 156.599 33.272 156.391 33.272ZM159.383 39.232L159.911 37.312L160.087 38.032C159.858 38.032 159.669 37.9653 159.519 37.832C159.375 37.6987 159.303 37.5147 159.303 37.28C159.303 37.0453 159.378 36.8587 159.527 36.72C159.677 36.5813 159.861 36.512 160.079 36.512C160.303 36.512 160.487 36.584 160.631 36.728C160.775 36.8667 160.847 37.0507 160.847 37.28C160.847 37.3493 160.842 37.4187 160.831 37.488C160.821 37.552 160.799 37.632 160.767 37.728C160.741 37.8187 160.695 37.936 160.631 38.08L160.175 39.232H159.383ZM165.207 38V33.456H163.415V32.4H168.295V33.456H166.503V38H165.207ZM171.325 38V37.16L171.245 36.976V35.472C171.245 35.2053 171.163 34.9973 170.997 34.848C170.837 34.6987 170.589 34.624 170.253 34.624C170.024 34.624 169.797 34.6613 169.573 34.736C169.355 34.8053 169.168 34.9013 169.013 35.024L168.565 34.152C168.8 33.9867 169.083 33.8587 169.413 33.768C169.744 33.6773 170.08 33.632 170.421 33.632C171.077 33.632 171.587 33.7867 171.949 34.096C172.312 34.4053 172.493 34.888 172.493 35.544V38H171.325ZM170.013 38.064C169.677 38.064 169.389 38.008 169.149 37.896C168.909 37.7787 168.725 37.6213 168.597 37.424C168.469 37.2267 168.405 37.0053 168.405 36.76C168.405 36.504 168.467 36.28 168.589 36.088C168.717 35.896 168.917 35.7467 169.189 35.64C169.461 35.528 169.816 35.472 170.253 35.472H171.397V36.2H170.389C170.096 36.2 169.893 36.248 169.781 36.344C169.675 36.44 169.621 36.56 169.621 36.704C169.621 36.864 169.683 36.992 169.805 37.088C169.933 37.1787 170.107 37.224 170.325 37.224C170.533 37.224 170.72 37.176 170.885 37.08C171.051 36.9787 171.171 36.832 171.245 36.64L171.437 37.216C171.347 37.4933 171.181 37.704 170.941 37.848C170.701 37.992 170.392 38.064 170.013 38.064ZM179.135 33.632C179.476 33.632 179.778 33.7013 180.039 33.84C180.306 33.9733 180.514 34.1813 180.663 34.464C180.818 34.7413 180.895 35.0987 180.895 35.536V38H179.647V35.728C179.647 35.3813 179.575 35.1253 179.431 34.96C179.287 34.7947 179.084 34.712 178.823 34.712C178.642 34.712 178.479 34.7547 178.335 34.84C178.191 34.92 178.079 35.0427 177.999 35.208C177.919 35.3733 177.879 35.584 177.879 35.84V38H176.631V35.728C176.631 35.3813 176.559 35.1253 176.415 34.96C176.276 34.7947 176.076 34.712 175.815 34.712C175.634 34.712 175.471 34.7547 175.327 34.84C175.183 34.92 175.071 35.0427 174.991 35.208C174.911 35.3733 174.871 35.584 174.871 35.84V38H173.623V33.696H174.815V34.872L174.591 34.528C174.74 34.2347 174.951 34.0133 175.223 33.864C175.5 33.7093 175.815 33.632 176.167 33.632C176.562 33.632 176.906 33.7333 177.199 33.936C177.498 34.1333 177.695 34.4373 177.791 34.848L177.351 34.728C177.495 34.392 177.724 34.1253 178.039 33.928C178.359 33.7307 178.724 33.632 179.135 33.632ZM182.014 38V33.696H183.262V38H182.014ZM182.638 33.096C182.408 33.096 182.222 33.0293 182.078 32.896C181.934 32.7627 181.862 32.5973 181.862 32.4C181.862 32.2027 181.934 32.0373 182.078 31.904C182.222 31.7707 182.408 31.704 182.638 31.704C182.867 31.704 183.054 31.768 183.198 31.896C183.342 32.0187 183.414 32.1787 183.414 32.376C183.414 32.584 183.342 32.7573 183.198 32.896C183.059 33.0293 182.872 33.096 182.638 33.096ZM184.42 38V32.064H185.668V38H184.42ZM189.18 38V32.4H190.252L193.556 36.432H193.036V32.4H194.316V38H193.252L189.94 33.968H190.46V38H189.18ZM198.193 38V37.16L198.113 36.976V35.472C198.113 35.2053 198.03 34.9973 197.865 34.848C197.705 34.6987 197.457 34.624 197.121 34.624C196.891 34.624 196.665 34.6613 196.441 34.736C196.222 34.8053 196.035 34.9013 195.881 35.024L195.433 34.152C195.667 33.9867 195.95 33.8587 196.281 33.768C196.611 33.6773 196.947 33.632 197.289 33.632C197.945 33.632 198.454 33.7867 198.817 34.096C199.179 34.4053 199.361 34.888 199.361 35.544V38H198.193ZM196.881 38.064C196.545 38.064 196.257 38.008 196.017 37.896C195.777 37.7787 195.593 37.6213 195.465 37.424C195.337 37.2267 195.273 37.0053 195.273 36.76C195.273 36.504 195.334 36.28 195.457 36.088C195.585 35.896 195.785 35.7467 196.057 35.64C196.329 35.528 196.683 35.472 197.121 35.472H198.265V36.2H197.257C196.963 36.2 196.761 36.248 196.649 36.344C196.542 36.44 196.489 36.56 196.489 36.704C196.489 36.864 196.55 36.992 196.673 37.088C196.801 37.1787 196.974 37.224 197.193 37.224C197.401 37.224 197.587 37.176 197.753 37.08C197.918 36.9787 198.038 36.832 198.113 36.64L198.305 37.216C198.214 37.4933 198.049 37.704 197.809 37.848C197.569 37.992 197.259 38.064 196.881 38.064ZM202.369 38.064C201.964 38.064 201.599 37.9733 201.273 37.792C200.948 37.6053 200.689 37.3467 200.497 37.016C200.311 36.6853 200.217 36.296 200.217 35.848C200.217 35.3947 200.311 35.0027 200.497 34.672C200.689 34.3413 200.948 34.0853 201.273 33.904C201.599 33.7227 201.964 33.632 202.369 33.632C202.732 33.632 203.049 33.712 203.321 33.872C203.593 34.032 203.804 34.2747 203.953 34.6C204.103 34.9253 204.177 35.3413 204.177 35.848C204.177 36.3493 204.105 36.7653 203.961 37.096C203.817 37.4213 203.609 37.664 203.337 37.824C203.071 37.984 202.748 38.064 202.369 38.064ZM202.585 37.04C202.788 37.04 202.972 36.992 203.137 36.896C203.303 36.8 203.433 36.664 203.529 36.488C203.631 36.3067 203.681 36.0933 203.681 35.848C203.681 35.5973 203.631 35.384 203.529 35.208C203.433 35.032 203.303 34.896 203.137 34.8C202.972 34.704 202.788 34.656 202.585 34.656C202.377 34.656 202.191 34.704 202.025 34.8C201.86 34.896 201.727 35.032 201.625 35.208C201.529 35.384 201.481 35.5973 201.481 35.848C201.481 36.0933 201.529 36.3067 201.625 36.488C201.727 36.664 201.86 36.8 202.025 36.896C202.191 36.992 202.377 37.04 202.585 37.04ZM203.713 38V37.12L203.737 35.84L203.657 34.568V32.064H204.905V38H203.713ZM207.876 38.064C207.519 38.064 207.199 37.9947 206.916 37.856C206.639 37.7173 206.423 37.5067 206.268 37.224C206.114 36.936 206.036 36.5707 206.036 36.128V33.696H207.284V35.944C207.284 36.3013 207.359 36.5653 207.508 36.736C207.663 36.9013 207.879 36.984 208.156 36.984C208.348 36.984 208.519 36.944 208.668 36.864C208.818 36.7787 208.935 36.6507 209.02 36.48C209.106 36.304 209.148 36.0853 209.148 35.824V33.696H210.396V38H209.212V36.816L209.428 37.16C209.284 37.4587 209.071 37.6853 208.788 37.84C208.511 37.9893 208.207 38.064 207.876 38.064ZM211.337 39.232L211.865 37.312L212.041 38.032C211.811 38.032 211.622 37.9653 211.473 37.832C211.329 37.6987 211.257 37.5147 211.257 37.28C211.257 37.0453 211.331 36.8587 211.481 36.72C211.63 36.5813 211.814 36.512 212.033 36.512C212.257 36.512 212.441 36.584 212.585 36.728C212.729 36.8667 212.801 37.0507 212.801 37.28C212.801 37.3493 212.795 37.4187 212.785 37.488C212.774 37.552 212.753 37.632 212.721 37.728C212.694 37.8187 212.649 37.936 212.585 38.08L212.129 39.232H211.337ZM216 38V32.4H217.296V38H216ZM221.153 33.632C221.494 33.632 221.798 33.7013 222.065 33.84C222.337 33.9733 222.55 34.1813 222.705 34.464C222.86 34.7413 222.937 35.0987 222.937 35.536V38H221.689V35.728C221.689 35.3813 221.612 35.1253 221.457 34.96C221.308 34.7947 221.094 34.712 220.817 34.712C220.62 34.712 220.441 34.7547 220.281 34.84C220.126 34.92 220.004 35.0453 219.913 35.216C219.828 35.3867 219.785 35.6053 219.785 35.872V38H218.537V33.696H219.729V34.888L219.505 34.528C219.66 34.24 219.881 34.0187 220.169 33.864C220.457 33.7093 220.785 33.632 221.153 33.632ZM225.947 38.064C225.542 38.064 225.177 37.9733 224.851 37.792C224.526 37.6053 224.267 37.3467 224.075 37.016C223.889 36.6853 223.795 36.296 223.795 35.848C223.795 35.3947 223.889 35.0027 224.075 34.672C224.267 34.3413 224.526 34.0853 224.851 33.904C225.177 33.7227 225.542 33.632 225.947 33.632C226.31 33.632 226.627 33.712 226.899 33.872C227.171 34.032 227.382 34.2747 227.531 34.6C227.681 34.9253 227.755 35.3413 227.755 35.848C227.755 36.3493 227.683 36.7653 227.539 37.096C227.395 37.4213 227.187 37.664 226.915 37.824C226.649 37.984 226.326 38.064 225.947 38.064ZM226.163 37.04C226.366 37.04 226.55 36.992 226.715 36.896C226.881 36.8 227.011 36.664 227.107 36.488C227.209 36.3067 227.259 36.0933 227.259 35.848C227.259 35.5973 227.209 35.384 227.107 35.208C227.011 35.032 226.881 34.896 226.715 34.8C226.55 34.704 226.366 34.656 226.163 34.656C225.955 34.656 225.769 34.704 225.603 34.8C225.438 34.896 225.305 35.032 225.203 35.208C225.107 35.384 225.059 35.5973 225.059 35.848C225.059 36.0933 225.107 36.3067 225.203 36.488C225.305 36.664 225.438 36.8 225.603 36.896C225.769 36.992 225.955 37.04 226.163 37.04ZM227.291 38V37.12L227.315 35.84L227.235 34.568V32.064H228.483V38H227.291ZM229.639 38V33.696H230.887V38H229.639ZM230.263 33.096C230.033 33.096 229.847 33.0293 229.703 32.896C229.559 32.7627 229.487 32.5973 229.487 32.4C229.487 32.2027 229.559 32.0373 229.703 31.904C229.847 31.7707 230.033 31.704 230.263 31.704C230.492 31.704 230.679 31.768 230.823 31.896C230.967 32.0187 231.039 32.1787 231.039 32.376C231.039 32.584 230.967 32.7573 230.823 32.896C230.684 33.0293 230.497 33.096 230.263 33.096ZM234.685 38V37.16L234.605 36.976V35.472C234.605 35.2053 234.522 34.9973 234.357 34.848C234.197 34.6987 233.949 34.624 233.613 34.624C233.383 34.624 233.157 34.6613 232.933 34.736C232.714 34.8053 232.527 34.9013 232.373 35.024L231.925 34.152C232.159 33.9867 232.442 33.8587 232.773 33.768C233.103 33.6773 233.439 33.632 233.781 33.632C234.437 33.632 234.946 33.7867 235.309 34.096C235.671 34.4053 235.853 34.888 235.853 35.544V38H234.685ZM233.373 38.064C233.037 38.064 232.749 38.008 232.509 37.896C232.269 37.7787 232.085 37.6213 231.957 37.424C231.829 37.2267 231.765 37.0053 231.765 36.76C231.765 36.504 231.826 36.28 231.949 36.088C232.077 35.896 232.277 35.7467 232.549 35.64C232.821 35.528 233.175 35.472 233.613 35.472H234.757V36.2H233.749C233.455 36.2 233.253 36.248 233.141 36.344C233.034 36.44 232.981 36.56 232.981 36.704C232.981 36.864 233.042 36.992 233.165 37.088C233.293 37.1787 233.466 37.224 233.685 37.224C233.893 37.224 234.079 37.176 234.245 37.08C234.41 36.9787 234.53 36.832 234.605 36.64L234.797 37.216C234.706 37.4933 234.541 37.704 234.301 37.848C234.061 37.992 233.751 38.064 233.373 38.064Z" fill="white"/>
</svg>
