<svg width="110" height="12" viewBox="0 0 110 12" fill="none" xmlns="http://www.w3.org/2000/svg">
<path d="M10.5002 7.73L7.8652 7.425L6.6052 8.685C5.18579 7.96311 4.03209 6.80941 3.3102 5.39L4.5752 4.125L4.2702 1.5H1.5152C1.2252 6.59 5.4102 10.775 10.5002 10.485V7.73Z" fill="white"/>
<path d="M18.1613 8.048V4.352H19.1933V8.048H18.1613ZM16.7773 6.688V5.712H20.5853V6.688H16.7773ZM23.3503 3.304C23.8676 3.304 24.313 3.41067 24.6863 3.624C25.0596 3.83733 25.3476 4.14933 25.5503 4.56C25.753 4.96533 25.8543 5.472 25.8543 6.08C25.8543 6.72533 25.7316 7.272 25.4863 7.72C25.2463 8.168 24.913 8.50933 24.4863 8.744C24.0596 8.97867 23.5636 9.096 22.9983 9.096C22.705 9.096 22.4223 9.064 22.1503 9C21.8783 8.936 21.6436 8.84 21.4463 8.712L21.9263 7.76C22.081 7.86667 22.2463 7.94133 22.4223 7.984C22.5983 8.02133 22.7823 8.04 22.9743 8.04C23.4543 8.04 23.8356 7.89333 24.1183 7.6C24.4063 7.30667 24.5503 6.872 24.5503 6.296C24.5503 6.2 24.5476 6.09333 24.5423 5.976C24.537 5.85867 24.5236 5.74133 24.5023 5.624L24.8543 5.96C24.7636 6.168 24.6356 6.344 24.4703 6.488C24.305 6.62667 24.113 6.73333 23.8943 6.808C23.6756 6.87733 23.4303 6.912 23.1583 6.912C22.801 6.912 22.4756 6.84 22.1823 6.696C21.8943 6.552 21.6623 6.34933 21.4863 6.088C21.3156 5.82667 21.2303 5.52 21.2303 5.168C21.2303 4.784 21.3236 4.45333 21.5103 4.176C21.7023 3.89867 21.9583 3.68533 22.2783 3.536C22.6036 3.38133 22.961 3.304 23.3503 3.304ZM23.4303 4.272C23.2436 4.272 23.081 4.30667 22.9423 4.376C22.8036 4.44 22.6943 4.536 22.6143 4.664C22.5343 4.78667 22.4943 4.93333 22.4943 5.104C22.4943 5.36 22.5796 5.56533 22.7503 5.72C22.9263 5.86933 23.1583 5.944 23.4463 5.944C23.633 5.944 23.7983 5.90933 23.9423 5.84C24.0916 5.76533 24.2063 5.664 24.2863 5.536C24.3663 5.408 24.4063 5.264 24.4063 5.104C24.4063 4.944 24.3663 4.80267 24.2863 4.68C24.2116 4.552 24.1023 4.45333 23.9583 4.384C23.8143 4.30933 23.6383 4.272 23.4303 4.272ZM27.3088 9V3.88L27.8688 4.44H26.1888V3.4H28.6048V9H27.3088ZM33.1153 10.552C32.7953 10.0667 32.5473 9.50667 32.3713 8.872C32.2006 8.232 32.1153 7.544 32.1153 6.808C32.1153 6.072 32.2006 5.384 32.3713 4.744C32.5473 4.09867 32.7953 3.53867 33.1153 3.064H34.3073C33.9713 3.66667 33.7259 4.27467 33.5713 4.888C33.4166 5.496 33.3393 6.136 33.3393 6.808C33.3393 7.48 33.4166 8.12267 33.5713 8.736C33.7259 9.344 33.9713 9.94933 34.3073 10.552H33.1153ZM34.4824 7.824V6.952L37.1224 3.4H38.4824L35.8984 6.952L35.2664 6.768H39.6744V7.824H34.4824ZM37.4984 9V7.824L37.5384 6.768V5.72H38.7624V9H37.4984ZM40.014 9V8.16L42.174 6.12C42.3447 5.96533 42.47 5.82667 42.55 5.704C42.63 5.58133 42.6833 5.46933 42.71 5.368C42.742 5.26667 42.758 5.17333 42.758 5.088C42.758 4.864 42.6807 4.69333 42.526 4.576C42.3767 4.45333 42.1553 4.392 41.862 4.392C41.6273 4.392 41.4087 4.43733 41.206 4.528C41.0087 4.61867 40.8407 4.76 40.702 4.952L39.758 4.344C39.9713 4.024 40.27 3.77067 40.654 3.584C41.038 3.39733 41.4807 3.304 41.982 3.304C42.398 3.304 42.7607 3.37333 43.07 3.512C43.3847 3.64533 43.6273 3.83467 43.798 4.08C43.974 4.32533 44.062 4.61867 44.062 4.96C44.062 5.14133 44.038 5.32267 43.99 5.504C43.9473 5.68 43.8567 5.86667 43.718 6.064C43.5847 6.26133 43.3873 6.48267 43.126 6.728L41.334 8.416L41.086 7.944H44.246V9H40.014ZM44.7327 9V8.16L46.8928 6.12C47.0634 5.96533 47.1888 5.82667 47.2688 5.704C47.3488 5.58133 47.4021 5.46933 47.4288 5.368C47.4608 5.26667 47.4768 5.17333 47.4768 5.088C47.4768 4.864 47.3994 4.69333 47.2448 4.576C47.0954 4.45333 46.8741 4.392 46.5807 4.392C46.3461 4.392 46.1274 4.43733 45.9248 4.528C45.7274 4.61867 45.5594 4.76 45.4208 4.952L44.4768 4.344C44.6901 4.024 44.9888 3.77067 45.3728 3.584C45.7568 3.39733 46.1994 3.304 46.7008 3.304C47.1168 3.304 47.4794 3.37333 47.7888 3.512C48.1034 3.64533 48.3461 3.83467 48.5168 4.08C48.6928 4.32533 48.7808 4.61867 48.7808 4.96C48.7808 5.14133 48.7568 5.32267 48.7088 5.504C48.6661 5.68 48.5754 5.86667 48.4368 6.064C48.3034 6.26133 48.1061 6.48267 47.8448 6.728L46.0528 8.416L45.8048 7.944H48.9648V9H44.7327ZM50.4595 10.552H49.2675C49.6142 9.94933 49.8622 9.344 50.0115 8.736C50.1662 8.12267 50.2435 7.48 50.2435 6.808C50.2435 6.136 50.1662 5.496 50.0115 4.888C49.8622 4.27467 49.6142 3.66667 49.2675 3.064H50.4595C50.7902 3.53867 51.0408 4.09867 51.2115 4.744C51.3822 5.384 51.4675 6.072 51.4675 6.808C51.4675 7.544 51.3822 8.232 51.2115 8.872C51.0408 9.50667 50.7902 10.0667 50.4595 10.552ZM57.1363 9.096C56.6243 9.096 56.179 8.98933 55.8003 8.776C55.427 8.56267 55.139 8.25067 54.9363 7.84C54.7336 7.42933 54.6323 6.92267 54.6323 6.32C54.6323 5.67467 54.7523 5.128 54.9923 4.68C55.2376 4.232 55.5736 3.89067 56.0003 3.656C56.4323 3.42133 56.9283 3.304 57.4883 3.304C57.787 3.304 58.0723 3.336 58.3443 3.4C58.6163 3.464 58.851 3.56 59.0483 3.688L58.5683 4.64C58.4136 4.53333 58.2483 4.46133 58.0723 4.424C57.8963 4.38133 57.7123 4.36 57.5203 4.36C57.035 4.36 56.651 4.50667 56.3683 4.8C56.0856 5.09333 55.9443 5.528 55.9443 6.104C55.9443 6.2 55.9443 6.30667 55.9443 6.424C55.9496 6.54133 55.9656 6.65867 55.9923 6.776L55.6323 6.44C55.7336 6.232 55.8643 6.05867 56.0243 5.92C56.1843 5.776 56.3736 5.66933 56.5923 5.6C56.8163 5.52533 57.0616 5.488 57.3283 5.488C57.691 5.488 58.0163 5.56 58.3043 5.704C58.5923 5.848 58.8216 6.05067 58.9923 6.312C59.1683 6.57333 59.2563 6.88 59.2563 7.232C59.2563 7.61067 59.1603 7.94133 58.9683 8.224C58.7816 8.50133 58.5283 8.71733 58.2083 8.872C57.8936 9.02133 57.5363 9.096 57.1363 9.096ZM57.0643 8.128C57.2456 8.128 57.4056 8.096 57.5443 8.032C57.6883 7.96267 57.8003 7.864 57.8803 7.736C57.9603 7.608 58.0003 7.46133 58.0003 7.296C58.0003 7.04 57.9123 6.83733 57.7363 6.688C57.5656 6.53333 57.3363 6.456 57.0483 6.456C56.8563 6.456 56.6883 6.49333 56.5443 6.568C56.4003 6.63733 56.2856 6.736 56.2003 6.864C56.1203 6.98667 56.0803 7.13067 56.0803 7.296C56.0803 7.456 56.1203 7.6 56.2003 7.728C56.2803 7.85067 56.3923 7.94933 56.5363 8.024C56.6803 8.09333 56.8563 8.128 57.0643 8.128ZM62.2301 9.096C61.7181 9.096 61.2727 8.98933 60.8941 8.776C60.5207 8.56267 60.2327 8.25067 60.0301 7.84C59.8274 7.42933 59.7261 6.92267 59.7261 6.32C59.7261 5.67467 59.8461 5.128 60.0861 4.68C60.3314 4.232 60.6674 3.89067 61.0941 3.656C61.5261 3.42133 62.0221 3.304 62.5821 3.304C62.8807 3.304 63.1661 3.336 63.4381 3.4C63.7101 3.464 63.9447 3.56 64.1421 3.688L63.6621 4.64C63.5074 4.53333 63.3421 4.46133 63.1661 4.424C62.9901 4.38133 62.8061 4.36 62.6141 4.36C62.1287 4.36 61.7447 4.50667 61.4621 4.8C61.1794 5.09333 61.0381 5.528 61.0381 6.104C61.0381 6.2 61.0381 6.30667 61.0381 6.424C61.0434 6.54133 61.0594 6.65867 61.0861 6.776L60.7261 6.44C60.8274 6.232 60.9581 6.05867 61.1181 5.92C61.2781 5.776 61.4674 5.66933 61.6861 5.6C61.9101 5.52533 62.1554 5.488 62.4221 5.488C62.7847 5.488 63.1101 5.56 63.3981 5.704C63.6861 5.848 63.9154 6.05067 64.0861 6.312C64.2621 6.57333 64.3501 6.88 64.3501 7.232C64.3501 7.61067 64.2541 7.94133 64.0621 8.224C63.8754 8.50133 63.6221 8.71733 63.3021 8.872C62.9874 9.02133 62.6301 9.096 62.2301 9.096ZM62.1581 8.128C62.3394 8.128 62.4994 8.096 62.6381 8.032C62.7821 7.96267 62.8941 7.864 62.9741 7.736C63.0541 7.608 63.0941 7.46133 63.0941 7.296C63.0941 7.04 63.0061 6.83733 62.8301 6.688C62.6594 6.53333 62.4301 6.456 62.1421 6.456C61.9501 6.456 61.7821 6.49333 61.6381 6.568C61.4941 6.63733 61.3794 6.736 61.2941 6.864C61.2141 6.98667 61.1741 7.13067 61.1741 7.296C61.1741 7.456 61.2141 7.6 61.2941 7.728C61.3741 7.85067 61.4861 7.94933 61.6301 8.024C61.7741 8.09333 61.9501 8.128 62.1581 8.128ZM65.6846 9L67.9406 3.896L68.2766 4.456H65.2606L65.8366 3.848V5.368H64.6846V3.4H69.1726V4.24L67.0926 9H65.6846ZM71.9367 9.096C71.4674 9.096 71.0567 9.02667 70.7047 8.888C70.3527 8.744 70.078 8.544 69.8807 8.288C69.6834 8.02667 69.5847 7.72267 69.5847 7.376C69.5847 7.02933 69.6807 6.736 69.8727 6.496C70.07 6.25067 70.3447 6.06667 70.6967 5.944C71.0487 5.816 71.462 5.752 71.9367 5.752C72.4167 5.752 72.8327 5.816 73.1847 5.944C73.542 6.06667 73.8167 6.25067 74.0087 6.496C74.206 6.736 74.3047 7.02933 74.3047 7.376C74.3047 7.72267 74.206 8.02667 74.0087 8.288C73.8114 8.544 73.534 8.744 73.1767 8.888C72.8247 9.02667 72.4114 9.096 71.9367 9.096ZM71.9367 8.144C72.262 8.144 72.518 8.072 72.7047 7.928C72.8967 7.784 72.9927 7.58667 72.9927 7.336C72.9927 7.08533 72.8967 6.89067 72.7047 6.752C72.518 6.608 72.262 6.536 71.9367 6.536C71.6167 6.536 71.3634 6.608 71.1767 6.752C70.99 6.89067 70.8967 7.08533 70.8967 7.336C70.8967 7.58667 70.99 7.784 71.1767 7.928C71.3634 8.072 71.6167 8.144 71.9367 8.144ZM71.9367 6.408C71.5047 6.408 71.126 6.34933 70.8007 6.232C70.4807 6.11467 70.23 5.944 70.0487 5.72C69.8727 5.49067 69.7847 5.21867 69.7847 4.904C69.7847 4.57333 69.8754 4.29067 70.0567 4.056C70.238 3.816 70.4914 3.632 70.8167 3.504C71.142 3.37067 71.5154 3.304 71.9367 3.304C72.3687 3.304 72.7447 3.37067 73.0647 3.504C73.39 3.632 73.6434 3.816 73.8247 4.056C74.0114 4.29067 74.1047 4.57333 74.1047 4.904C74.1047 5.21867 74.014 5.49067 73.8327 5.72C73.6567 5.944 73.406 6.11467 73.0807 6.232C72.7554 6.34933 72.374 6.408 71.9367 6.408ZM71.9367 5.648C72.2087 5.648 72.422 5.58667 72.5767 5.464C72.7367 5.34133 72.8167 5.17333 72.8167 4.96C72.8167 4.736 72.734 4.56267 72.5687 4.44C72.4087 4.31733 72.198 4.256 71.9367 4.256C71.6807 4.256 71.4727 4.31733 71.3127 4.44C71.1527 4.56267 71.0727 4.736 71.0727 4.96C71.0727 5.17333 71.15 5.34133 71.3047 5.464C71.4594 5.58667 71.67 5.648 71.9367 5.648ZM76.8019 9.096C76.4126 9.096 76.0259 9.04533 75.6419 8.944C75.2633 8.83733 74.9379 8.688 74.6659 8.496L75.1779 7.504C75.3913 7.65867 75.6366 7.78133 75.9139 7.872C76.1966 7.96267 76.4819 8.008 76.7699 8.008C77.0953 8.008 77.3513 7.944 77.5379 7.816C77.7246 7.688 77.8179 7.50933 77.8179 7.28C77.8179 7.136 77.7806 7.008 77.7059 6.896C77.6313 6.784 77.4979 6.69867 77.3059 6.64C77.1193 6.58133 76.8553 6.552 76.5139 6.552H75.0819L75.3699 3.4H78.7859V4.44H75.8339L76.5059 3.848L76.3059 6.096L75.6339 5.504H76.8179C77.3726 5.504 77.8179 5.58133 78.1539 5.736C78.4953 5.88533 78.7433 6.09067 78.8979 6.352C79.0526 6.61333 79.1299 6.90933 79.1299 7.24C79.1299 7.57067 79.0473 7.87733 78.8819 8.16C78.7166 8.43733 78.4606 8.664 78.1139 8.84C77.7726 9.01067 77.3353 9.096 76.8019 9.096ZM81.4327 9.096C81.0434 9.096 80.6567 9.04533 80.2727 8.944C79.8887 8.83733 79.5634 8.688 79.2967 8.496L79.8007 7.504C80.014 7.65867 80.262 7.78133 80.5447 7.872C80.8274 7.96267 81.1127 8.008 81.4007 8.008C81.726 8.008 81.982 7.944 82.1687 7.816C82.3554 7.688 82.4487 7.512 82.4487 7.288C82.4487 7.07467 82.366 6.90667 82.2007 6.784C82.0354 6.66133 81.7687 6.6 81.4007 6.6H80.8087V5.744L82.3687 3.976L82.5127 4.44H79.5767V3.4H83.4967V4.24L81.9447 6.008L81.2887 5.632H81.6647C82.3527 5.632 82.8727 5.78667 83.2247 6.096C83.5767 6.40533 83.7527 6.80267 83.7527 7.288C83.7527 7.60267 83.67 7.89867 83.5047 8.176C83.3394 8.448 83.086 8.66933 82.7447 8.84C82.4034 9.01067 81.966 9.096 81.4327 9.096ZM86.1769 9.096C85.7876 9.096 85.4009 9.04533 85.0169 8.944C84.6383 8.83733 84.3129 8.688 84.0409 8.496L84.5529 7.504C84.7663 7.65867 85.0116 7.78133 85.2889 7.872C85.5716 7.96267 85.8569 8.008 86.1449 8.008C86.4703 8.008 86.7263 7.944 86.9129 7.816C87.0996 7.688 87.1929 7.50933 87.1929 7.28C87.1929 7.136 87.1556 7.008 87.0809 6.896C87.0063 6.784 86.8729 6.69867 86.6809 6.64C86.4943 6.58133 86.2303 6.552 85.8889 6.552H84.4569L84.7449 3.4H88.1609V4.44H85.2089L85.8809 3.848L85.6809 6.096L85.0089 5.504H86.1929C86.7476 5.504 87.1929 5.58133 87.5289 5.736C87.8703 5.88533 88.1183 6.09067 88.2729 6.352C88.4276 6.61333 88.5049 6.90933 88.5049 7.24C88.5049 7.57067 88.4223 7.87733 88.2569 8.16C88.0916 8.43733 87.8356 8.664 87.4889 8.84C87.1476 9.01067 86.7103 9.096 86.1769 9.096Z" fill="white"/>
</svg>
