<svg width="285" height="40" viewBox="0 0 285 40" fill="none" xmlns="http://www.w3.org/2000/svg">
<path d="M21.6132 28V22.4H24.1572C24.7652 22.4 25.3012 22.5173 25.7652 22.752C26.2292 22.9813 26.5919 23.304 26.8532 23.72C27.1146 24.136 27.2452 24.6293 27.2452 25.2C27.2452 25.7653 27.1146 26.2587 26.8532 26.68C26.5919 27.096 26.2292 27.4213 25.7652 27.656C25.3012 27.8853 24.7652 28 24.1572 28H21.6132ZM22.9092 26.936H24.0932C24.4666 26.936 24.7892 26.8667 25.0612 26.728C25.3386 26.584 25.5519 26.3813 25.7012 26.12C25.8559 25.8587 25.9332 25.552 25.9332 25.2C25.9332 24.8427 25.8559 24.536 25.7012 24.28C25.5519 24.0187 25.3386 23.8187 25.0612 23.68C24.7892 23.536 24.4666 23.464 24.0932 23.464H22.9092V26.936ZM30.2706 28.064C29.7799 28.064 29.3479 27.968 28.9746 27.776C28.6066 27.584 28.3213 27.3227 28.1186 26.992C27.9159 26.656 27.8146 26.2747 27.8146 25.848C27.8146 25.416 27.9133 25.0347 28.1106 24.704C28.3133 24.368 28.5879 24.1067 28.9346 23.92C29.2813 23.728 29.6733 23.632 30.1106 23.632C30.5319 23.632 30.9106 23.7227 31.2466 23.904C31.5879 24.08 31.8573 24.336 32.0546 24.672C32.2519 25.0027 32.3506 25.4 32.3506 25.864C32.3506 25.912 32.3479 25.968 32.3426 26.032C32.3373 26.0907 32.3319 26.1467 32.3266 26.2H28.8306V25.472H31.6706L31.1906 25.688C31.1906 25.464 31.1453 25.2693 31.0546 25.104C30.9639 24.9387 30.8386 24.8107 30.6786 24.72C30.5186 24.624 30.3319 24.576 30.1186 24.576C29.9053 24.576 29.7159 24.624 29.5506 24.72C29.3906 24.8107 29.2653 24.9413 29.1746 25.112C29.0839 25.2773 29.0386 25.4747 29.0386 25.704V25.896C29.0386 26.1307 29.0893 26.3387 29.1906 26.52C29.2973 26.696 29.4439 26.832 29.6306 26.928C29.8226 27.0187 30.0466 27.064 30.3026 27.064C30.5319 27.064 30.7319 27.0293 30.9026 26.96C31.0786 26.8907 31.2386 26.7867 31.3826 26.648L32.0466 27.368C31.8493 27.592 31.6013 27.7653 31.3026 27.888C31.0039 28.0053 30.6599 28.064 30.2706 28.064ZM33.1815 28V22.064H34.4295V28H33.1815ZM38.2037 23.632C38.5451 23.632 38.8491 23.7013 39.1157 23.84C39.3877 23.9733 39.6011 24.1813 39.7557 24.464C39.9104 24.7413 39.9877 25.0987 39.9877 25.536V28H38.7397V25.728C38.7397 25.3813 38.6624 25.1253 38.5077 24.96C38.3584 24.7947 38.1451 24.712 37.8677 24.712C37.6704 24.712 37.4917 24.7547 37.3317 24.84C37.1771 24.92 37.0544 25.0453 36.9637 25.216C36.8784 25.3867 36.8357 25.6053 36.8357 25.872V28H35.5877V22.064H36.8357V24.888L36.5557 24.528C36.7104 24.24 36.9317 24.0187 37.2197 23.864C37.5077 23.7093 37.8357 23.632 38.2037 23.632ZM41.119 28V23.696H42.367V28H41.119ZM41.743 23.096C41.5136 23.096 41.327 23.0293 41.183 22.896C41.039 22.7627 40.967 22.5973 40.967 22.4C40.967 22.2027 41.039 22.0373 41.183 21.904C41.327 21.7707 41.5136 21.704 41.743 21.704C41.9723 21.704 42.159 21.768 42.303 21.896C42.447 22.0187 42.519 22.1787 42.519 22.376C42.519 22.584 42.447 22.7573 42.303 22.896C42.1643 23.0293 41.9776 23.096 41.743 23.096ZM44.9508 28.8L47.5908 21.264H48.7028L46.0628 28.8H44.9508ZM53.9573 28.096C53.5253 28.096 53.1226 28.0267 52.7493 27.888C52.3813 27.744 52.0613 27.5413 51.7893 27.28C51.5173 27.0187 51.3039 26.712 51.1493 26.36C50.9999 26.008 50.9253 25.6213 50.9253 25.2C50.9253 24.7787 50.9999 24.392 51.1493 24.04C51.3039 23.688 51.5173 23.3813 51.7893 23.12C52.0666 22.8587 52.3893 22.6587 52.7573 22.52C53.1253 22.376 53.5279 22.304 53.9653 22.304C54.4506 22.304 54.8879 22.3893 55.2773 22.56C55.6719 22.7253 56.0026 22.9707 56.2693 23.296L55.4373 24.064C55.2453 23.8453 55.0319 23.6827 54.7973 23.576C54.5626 23.464 54.3066 23.408 54.0293 23.408C53.7679 23.408 53.5279 23.4507 53.3093 23.536C53.0906 23.6213 52.9013 23.744 52.7413 23.904C52.5813 24.064 52.4559 24.2533 52.3653 24.472C52.2799 24.6907 52.2373 24.9333 52.2373 25.2C52.2373 25.4667 52.2799 25.7093 52.3653 25.928C52.4559 26.1467 52.5813 26.336 52.7413 26.496C52.9013 26.656 53.0906 26.7787 53.3093 26.864C53.5279 26.9493 53.7679 26.992 54.0293 26.992C54.3066 26.992 54.5626 26.9387 54.7973 26.832C55.0319 26.72 55.2453 26.552 55.4373 26.328L56.2693 27.096C56.0026 27.4213 55.6719 27.6693 55.2773 27.84C54.8879 28.0107 54.4479 28.096 53.9573 28.096ZM59.6725 23.632C60.0138 23.632 60.3178 23.7013 60.5845 23.84C60.8565 23.9733 61.0698 24.1813 61.2245 24.464C61.3791 24.7413 61.4565 25.0987 61.4565 25.536V28H60.2085V25.728C60.2085 25.3813 60.1311 25.1253 59.9765 24.96C59.8271 24.7947 59.6138 24.712 59.3365 24.712C59.1391 24.712 58.9605 24.7547 58.8005 24.84C58.6458 24.92 58.5231 25.0453 58.4325 25.216C58.3471 25.3867 58.3045 25.6053 58.3045 25.872V28H57.0565V22.064H58.3045V24.888L58.0245 24.528C58.1791 24.24 58.4005 24.0187 58.6885 23.864C58.9765 23.7093 59.3045 23.632 59.6725 23.632ZM65.2277 28V27.16L65.1477 26.976V25.472C65.1477 25.2053 65.0651 24.9973 64.8997 24.848C64.7397 24.6987 64.4917 24.624 64.1557 24.624C63.9264 24.624 63.6997 24.6613 63.4757 24.736C63.2571 24.8053 63.0704 24.9013 62.9157 25.024L62.4677 24.152C62.7024 23.9867 62.9851 23.8587 63.3157 23.768C63.6464 23.6773 63.9824 23.632 64.3237 23.632C64.9797 23.632 65.4891 23.7867 65.8517 24.096C66.2144 24.4053 66.3957 24.888 66.3957 25.544V28H65.2277ZM63.9157 28.064C63.5797 28.064 63.2917 28.008 63.0517 27.896C62.8117 27.7787 62.6277 27.6213 62.4997 27.424C62.3717 27.2267 62.3077 27.0053 62.3077 26.76C62.3077 26.504 62.3691 26.28 62.4917 26.088C62.6197 25.896 62.8197 25.7467 63.0917 25.64C63.3637 25.528 63.7184 25.472 64.1557 25.472H65.2997V26.2H64.2917C63.9984 26.2 63.7957 26.248 63.6837 26.344C63.5771 26.44 63.5237 26.56 63.5237 26.704C63.5237 26.864 63.5851 26.992 63.7077 27.088C63.8357 27.1787 64.0091 27.224 64.2277 27.224C64.4357 27.224 64.6224 27.176 64.7877 27.08C64.9531 26.9787 65.0731 26.832 65.1477 26.64L65.3397 27.216C65.2491 27.4933 65.0837 27.704 64.8437 27.848C64.6037 27.992 64.2944 28.064 63.9157 28.064ZM70.1412 23.632C70.4826 23.632 70.7866 23.7013 71.0532 23.84C71.3252 23.9733 71.5386 24.1813 71.6932 24.464C71.8479 24.7413 71.9252 25.0987 71.9252 25.536V28H70.6772V25.728C70.6772 25.3813 70.5999 25.1253 70.4452 24.96C70.2959 24.7947 70.0826 24.712 69.8052 24.712C69.6079 24.712 69.4292 24.7547 69.2692 24.84C69.1146 24.92 68.9919 25.0453 68.9012 25.216C68.8159 25.3867 68.7732 25.6053 68.7732 25.872V28H67.5252V23.696H68.7172V24.888L68.4932 24.528C68.6479 24.24 68.8692 24.0187 69.1572 23.864C69.4452 23.7093 69.7732 23.632 70.1412 23.632ZM74.9357 28.064C74.5304 28.064 74.1651 27.9733 73.8397 27.792C73.5144 27.6053 73.2557 27.3467 73.0637 27.016C72.8771 26.6853 72.7837 26.296 72.7837 25.848C72.7837 25.3947 72.8771 25.0027 73.0637 24.672C73.2557 24.3413 73.5144 24.0853 73.8397 23.904C74.1651 23.7227 74.5304 23.632 74.9357 23.632C75.2984 23.632 75.6157 23.712 75.8877 23.872C76.1597 24.032 76.3704 24.2747 76.5197 24.6C76.6691 24.9253 76.7437 25.3413 76.7437 25.848C76.7437 26.3493 76.6717 26.7653 76.5277 27.096C76.3837 27.4213 76.1757 27.664 75.9037 27.824C75.6371 27.984 75.3144 28.064 74.9357 28.064ZM75.1517 27.04C75.3544 27.04 75.5384 26.992 75.7037 26.896C75.8691 26.8 75.9997 26.664 76.0957 26.488C76.1971 26.3067 76.2477 26.0933 76.2477 25.848C76.2477 25.5973 76.1971 25.384 76.0957 25.208C75.9997 25.032 75.8691 24.896 75.7037 24.8C75.5384 24.704 75.3544 24.656 75.1517 24.656C74.9437 24.656 74.7571 24.704 74.5917 24.8C74.4264 24.896 74.2931 25.032 74.1917 25.208C74.0957 25.384 74.0477 25.5973 74.0477 25.848C74.0477 26.0933 74.0957 26.3067 74.1917 26.488C74.2931 26.664 74.4264 26.8 74.5917 26.896C74.7571 26.992 74.9437 27.04 75.1517 27.04ZM76.2797 28V27.12L76.3037 25.84L76.2237 24.568V22.064H77.4717V28H76.2797ZM78.6268 28V23.696H79.8748V28H78.6268ZM79.2508 23.096C79.0214 23.096 78.8348 23.0293 78.6908 22.896C78.5468 22.7627 78.4748 22.5973 78.4748 22.4C78.4748 22.2027 78.5468 22.0373 78.6908 21.904C78.8348 21.7707 79.0214 21.704 79.2508 21.704C79.4801 21.704 79.6668 21.768 79.8108 21.896C79.9548 22.0187 80.0268 22.1787 80.0268 22.376C80.0268 22.584 79.9548 22.7573 79.8108 22.896C79.6721 23.0293 79.4854 23.096 79.2508 23.096ZM83.057 29.616C82.6517 29.616 82.2597 29.5653 81.881 29.464C81.5077 29.368 81.1957 29.2213 80.945 29.024L81.441 28.128C81.6224 28.2773 81.8517 28.3947 82.129 28.48C82.4117 28.5707 82.689 28.616 82.961 28.616C83.4037 28.616 83.7237 28.5173 83.921 28.32C84.1237 28.1227 84.225 27.8293 84.225 27.44V26.792L84.305 25.712L84.289 24.624V23.696H85.473V27.28C85.473 28.08 85.265 28.6693 84.849 29.048C84.433 29.4267 83.8357 29.616 83.057 29.616ZM82.865 27.792C82.465 27.792 82.1024 27.7067 81.777 27.536C81.457 27.36 81.1984 27.1173 81.001 26.808C80.809 26.4933 80.713 26.128 80.713 25.712C80.713 25.2907 80.809 24.9253 81.001 24.616C81.1984 24.3013 81.457 24.0587 81.777 23.888C82.1024 23.7173 82.465 23.632 82.865 23.632C83.2277 23.632 83.5477 23.7067 83.825 23.856C84.1024 24 84.3184 24.2267 84.473 24.536C84.6277 24.84 84.705 25.232 84.705 25.712C84.705 26.1867 84.6277 26.5787 84.473 26.888C84.3184 27.192 84.1024 27.4187 83.825 27.568C83.5477 27.7173 83.2277 27.792 82.865 27.792ZM83.113 26.768C83.3317 26.768 83.5264 26.7253 83.697 26.64C83.8677 26.5493 84.001 26.424 84.097 26.264C84.193 26.104 84.241 25.92 84.241 25.712C84.241 25.4987 84.193 25.3147 84.097 25.16C84.001 25 83.8677 24.8773 83.697 24.792C83.5264 24.7013 83.3317 24.656 83.113 24.656C82.8944 24.656 82.6997 24.7013 82.529 24.792C82.3584 24.8773 82.2224 25 82.121 25.16C82.025 25.3147 81.977 25.4987 81.977 25.712C81.977 25.92 82.025 26.104 82.121 26.264C82.2224 26.424 82.3584 26.5493 82.529 26.64C82.6997 26.7253 82.8944 26.768 83.113 26.768ZM89.2746 28V27.16L89.1946 26.976V25.472C89.1946 25.2053 89.1119 24.9973 88.9466 24.848C88.7866 24.6987 88.5386 24.624 88.2026 24.624C87.9733 24.624 87.7466 24.6613 87.5226 24.736C87.3039 24.8053 87.1173 24.9013 86.9626 25.024L86.5146 24.152C86.7493 23.9867 87.0319 23.8587 87.3626 23.768C87.6933 23.6773 88.0293 23.632 88.3706 23.632C89.0266 23.632 89.5359 23.7867 89.8986 24.096C90.2613 24.4053 90.4426 24.888 90.4426 25.544V28H89.2746ZM87.9626 28.064C87.6266 28.064 87.3386 28.008 87.0986 27.896C86.8586 27.7787 86.6746 27.6213 86.5466 27.424C86.4186 27.2267 86.3546 27.0053 86.3546 26.76C86.3546 26.504 86.4159 26.28 86.5386 26.088C86.6666 25.896 86.8666 25.7467 87.1386 25.64C87.4106 25.528 87.7653 25.472 88.2026 25.472H89.3466V26.2H88.3386C88.0453 26.2 87.8426 26.248 87.7306 26.344C87.6239 26.44 87.5706 26.56 87.5706 26.704C87.5706 26.864 87.6319 26.992 87.7546 27.088C87.8826 27.1787 88.0559 27.224 88.2746 27.224C88.4826 27.224 88.6693 27.176 88.8346 27.08C88.9999 26.9787 89.1199 26.832 89.1946 26.64L89.3866 27.216C89.2959 27.4933 89.1306 27.704 88.8906 27.848C88.6506 27.992 88.3413 28.064 87.9626 28.064ZM91.5721 28V23.696H92.7641V24.912L92.5961 24.56C92.7241 24.256 92.9294 24.0267 93.2121 23.872C93.4948 23.712 93.8388 23.632 94.2441 23.632V24.784C94.1908 24.7787 94.1428 24.776 94.1001 24.776C94.0574 24.7707 94.0121 24.768 93.9641 24.768C93.6228 24.768 93.3454 24.8667 93.1321 25.064C92.9241 25.256 92.8201 25.5573 92.8201 25.968V28H91.5721ZM97.6022 23.632C97.9435 23.632 98.2475 23.7013 98.5142 23.84C98.7862 23.9733 98.9995 24.1813 99.1542 24.464C99.3088 24.7413 99.3862 25.0987 99.3862 25.536V28H98.1382V25.728C98.1382 25.3813 98.0608 25.1253 97.9062 24.96C97.7568 24.7947 97.5435 24.712 97.2662 24.712C97.0688 24.712 96.8902 24.7547 96.7302 24.84C96.5755 24.92 96.4528 25.0453 96.3622 25.216C96.2768 25.3867 96.2342 25.6053 96.2342 25.872V28H94.9862V22.064H96.2342V24.888L95.9542 24.528C96.1088 24.24 96.3302 24.0187 96.6182 23.864C96.9062 23.7093 97.2342 23.632 97.6022 23.632ZM101.943 28.8L104.583 21.264H105.695L103.055 28.8H101.943ZM109.949 28L107.533 22.4H108.933L111.045 27.36H110.221L112.365 22.4H113.653L111.229 28H109.949ZM116.353 28V27.16L116.273 26.976V25.472C116.273 25.2053 116.19 24.9973 116.025 24.848C115.865 24.6987 115.617 24.624 115.281 24.624C115.051 24.624 114.825 24.6613 114.601 24.736C114.382 24.8053 114.195 24.9013 114.041 25.024L113.593 24.152C113.827 23.9867 114.11 23.8587 114.441 23.768C114.771 23.6773 115.107 23.632 115.449 23.632C116.105 23.632 116.614 23.7867 116.977 24.096C117.339 24.4053 117.521 24.888 117.521 25.544V28H116.353ZM115.041 28.064C114.705 28.064 114.417 28.008 114.177 27.896C113.937 27.7787 113.753 27.6213 113.625 27.424C113.497 27.2267 113.433 27.0053 113.433 26.76C113.433 26.504 113.494 26.28 113.617 26.088C113.745 25.896 113.945 25.7467 114.217 25.64C114.489 25.528 114.843 25.472 115.281 25.472H116.425V26.2H115.417C115.123 26.2 114.921 26.248 114.809 26.344C114.702 26.44 114.649 26.56 114.649 26.704C114.649 26.864 114.71 26.992 114.833 27.088C114.961 27.1787 115.134 27.224 115.353 27.224C115.561 27.224 115.747 27.176 115.913 27.08C116.078 26.9787 116.198 26.832 116.273 26.64L116.465 27.216C116.374 27.4933 116.209 27.704 115.969 27.848C115.729 27.992 115.419 28.064 115.041 28.064ZM120.529 28.064C120.124 28.064 119.759 27.9733 119.433 27.792C119.108 27.6053 118.849 27.3467 118.657 27.016C118.471 26.6853 118.377 26.296 118.377 25.848C118.377 25.3947 118.471 25.0027 118.657 24.672C118.849 24.3413 119.108 24.0853 119.433 23.904C119.759 23.7227 120.124 23.632 120.529 23.632C120.892 23.632 121.209 23.712 121.481 23.872C121.753 24.032 121.964 24.2747 122.113 24.6C122.263 24.9253 122.337 25.3413 122.337 25.848C122.337 26.3493 122.265 26.7653 122.121 27.096C121.977 27.4213 121.769 27.664 121.497 27.824C121.231 27.984 120.908 28.064 120.529 28.064ZM120.745 27.04C120.948 27.04 121.132 26.992 121.297 26.896C121.463 26.8 121.593 26.664 121.689 26.488C121.791 26.3067 121.841 26.0933 121.841 25.848C121.841 25.5973 121.791 25.384 121.689 25.208C121.593 25.032 121.463 24.896 121.297 24.8C121.132 24.704 120.948 24.656 120.745 24.656C120.537 24.656 120.351 24.704 120.185 24.8C120.02 24.896 119.887 25.032 119.785 25.208C119.689 25.384 119.641 25.5973 119.641 25.848C119.641 26.0933 119.689 26.3067 119.785 26.488C119.887 26.664 120.02 26.8 120.185 26.896C120.351 26.992 120.537 27.04 120.745 27.04ZM121.873 28V27.12L121.897 25.84L121.817 24.568V22.064H123.065V28H121.873ZM126.269 28.064C125.81 28.064 125.402 27.968 125.045 27.776C124.693 27.584 124.413 27.3227 124.205 26.992C124.002 26.656 123.901 26.2747 123.901 25.848C123.901 25.416 124.002 25.0347 124.205 24.704C124.413 24.368 124.693 24.1067 125.045 23.92C125.402 23.728 125.81 23.632 126.269 23.632C126.722 23.632 127.127 23.728 127.485 23.92C127.842 24.1067 128.122 24.3653 128.325 24.696C128.527 25.0267 128.629 25.4107 128.629 25.848C128.629 26.2747 128.527 26.656 128.325 26.992C128.122 27.3227 127.842 27.584 127.485 27.776C127.127 27.968 126.722 28.064 126.269 28.064ZM126.269 27.04C126.477 27.04 126.663 26.992 126.829 26.896C126.994 26.8 127.125 26.664 127.221 26.488C127.317 26.3067 127.365 26.0933 127.365 25.848C127.365 25.5973 127.317 25.384 127.221 25.208C127.125 25.032 126.994 24.896 126.829 24.8C126.663 24.704 126.477 24.656 126.269 24.656C126.061 24.656 125.874 24.704 125.709 24.8C125.543 24.896 125.41 25.032 125.309 25.208C125.213 25.384 125.165 25.5973 125.165 25.848C125.165 26.0933 125.213 26.3067 125.309 26.488C125.41 26.664 125.543 26.8 125.709 26.896C125.874 26.992 126.061 27.04 126.269 27.04ZM131.311 28.064C130.905 28.064 130.54 27.9733 130.215 27.792C129.889 27.6053 129.631 27.3467 129.439 27.016C129.252 26.6853 129.159 26.296 129.159 25.848C129.159 25.3947 129.252 25.0027 129.439 24.672C129.631 24.3413 129.889 24.0853 130.215 23.904C130.54 23.7227 130.905 23.632 131.311 23.632C131.673 23.632 131.991 23.712 132.263 23.872C132.535 24.032 132.745 24.2747 132.895 24.6C133.044 24.9253 133.119 25.3413 133.119 25.848C133.119 26.3493 133.047 26.7653 132.903 27.096C132.759 27.4213 132.551 27.664 132.279 27.824C132.012 27.984 131.689 28.064 131.311 28.064ZM131.527 27.04C131.729 27.04 131.913 26.992 132.079 26.896C132.244 26.8 132.375 26.664 132.471 26.488C132.572 26.3067 132.623 26.0933 132.623 25.848C132.623 25.5973 132.572 25.384 132.471 25.208C132.375 25.032 132.244 24.896 132.079 24.8C131.913 24.704 131.729 24.656 131.527 24.656C131.319 24.656 131.132 24.704 130.967 24.8C130.801 24.896 130.668 25.032 130.567 25.208C130.471 25.384 130.423 25.5973 130.423 25.848C130.423 26.0933 130.471 26.3067 130.567 26.488C130.668 26.664 130.801 26.8 130.967 26.896C131.132 26.992 131.319 27.04 131.527 27.04ZM132.655 28V27.12L132.679 25.84L132.599 24.568V22.064H133.847V28H132.655ZM137.642 28V27.16L137.562 26.976V25.472C137.562 25.2053 137.479 24.9973 137.314 24.848C137.154 24.6987 136.906 24.624 136.57 24.624C136.34 24.624 136.114 24.6613 135.89 24.736C135.671 24.8053 135.484 24.9013 135.33 25.024L134.882 24.152C135.116 23.9867 135.399 23.8587 135.73 23.768C136.06 23.6773 136.396 23.632 136.738 23.632C137.394 23.632 137.903 23.7867 138.266 24.096C138.628 24.4053 138.81 24.888 138.81 25.544V28H137.642ZM136.33 28.064C135.994 28.064 135.706 28.008 135.466 27.896C135.226 27.7787 135.042 27.6213 134.914 27.424C134.786 27.2267 134.722 27.0053 134.722 26.76C134.722 26.504 134.783 26.28 134.906 26.088C135.034 25.896 135.234 25.7467 135.506 25.64C135.778 25.528 136.132 25.472 136.57 25.472H137.714V26.2H136.706C136.412 26.2 136.21 26.248 136.098 26.344C135.991 26.44 135.938 26.56 135.938 26.704C135.938 26.864 135.999 26.992 136.122 27.088C136.25 27.1787 136.423 27.224 136.642 27.224C136.85 27.224 137.036 27.176 137.202 27.08C137.367 26.9787 137.487 26.832 137.562 26.64L137.754 27.216C137.663 27.4933 137.498 27.704 137.258 27.848C137.018 27.992 136.708 28.064 136.33 28.064ZM139.939 28V23.696H141.131V24.912L140.963 24.56C141.091 24.256 141.297 24.0267 141.579 23.872C141.862 23.712 142.206 23.632 142.611 23.632V24.784C142.558 24.7787 142.51 24.776 142.467 24.776C142.425 24.7707 142.379 24.768 142.331 24.768C141.99 24.768 141.713 24.8667 141.499 25.064C141.291 25.256 141.187 25.5573 141.187 25.968V28H139.939ZM145.712 28V27.16L145.632 26.976V25.472C145.632 25.2053 145.549 24.9973 145.384 24.848C145.224 24.6987 144.976 24.624 144.64 24.624C144.411 24.624 144.184 24.6613 143.96 24.736C143.741 24.8053 143.555 24.9013 143.4 25.024L142.952 24.152C143.187 23.9867 143.469 23.8587 143.8 23.768C144.131 23.6773 144.467 23.632 144.808 23.632C145.464 23.632 145.973 23.7867 146.336 24.096C146.699 24.4053 146.88 24.888 146.88 25.544V28H145.712ZM144.4 28.064C144.064 28.064 143.776 28.008 143.536 27.896C143.296 27.7787 143.112 27.6213 142.984 27.424C142.856 27.2267 142.792 27.0053 142.792 26.76C142.792 26.504 142.853 26.28 142.976 26.088C143.104 25.896 143.304 25.7467 143.576 25.64C143.848 25.528 144.203 25.472 144.64 25.472H145.784V26.2H144.776C144.483 26.2 144.28 26.248 144.168 26.344C144.061 26.44 144.008 26.56 144.008 26.704C144.008 26.864 144.069 26.992 144.192 27.088C144.32 27.1787 144.493 27.224 144.712 27.224C144.92 27.224 145.107 27.176 145.272 27.08C145.437 26.9787 145.557 26.832 145.632 26.64L145.824 27.216C145.733 27.4933 145.568 27.704 145.328 27.848C145.088 27.992 144.779 28.064 144.4 28.064ZM149.435 28.8L152.075 21.264H153.187L150.547 28.8H149.435ZM155.762 28V22.4H156.834L159.218 26.352H158.65L160.994 22.4H162.058L162.074 28H160.858L160.85 24.264H161.074L159.202 27.408H158.618L156.706 24.264H156.978V28H155.762ZM165.13 28.064C164.773 28.064 164.453 27.9947 164.17 27.856C163.893 27.7173 163.677 27.5067 163.522 27.224C163.368 26.936 163.29 26.5707 163.29 26.128V23.696H164.538V25.944C164.538 26.3013 164.613 26.5653 164.762 26.736C164.917 26.9013 165.133 26.984 165.41 26.984C165.602 26.984 165.773 26.944 165.922 26.864C166.072 26.7787 166.189 26.6507 166.274 26.48C166.36 26.304 166.402 26.0853 166.402 25.824V23.696H167.65V28H166.466V26.816L166.682 27.16C166.538 27.4587 166.325 27.6853 166.042 27.84C165.765 27.9893 165.461 28.064 165.13 28.064ZM174.318 23.632C174.66 23.632 174.961 23.7013 175.222 23.84C175.489 23.9733 175.697 24.1813 175.846 24.464C176.001 24.7413 176.078 25.0987 176.078 25.536V28H174.83V25.728C174.83 25.3813 174.758 25.1253 174.614 24.96C174.47 24.7947 174.268 24.712 174.006 24.712C173.825 24.712 173.662 24.7547 173.518 24.84C173.374 24.92 173.262 25.0427 173.182 25.208C173.102 25.3733 173.062 25.584 173.062 25.84V28H171.814V25.728C171.814 25.3813 171.742 25.1253 171.598 24.96C171.46 24.7947 171.26 24.712 170.998 24.712C170.817 24.712 170.654 24.7547 170.51 24.84C170.366 24.92 170.254 25.0427 170.174 25.208C170.094 25.3733 170.054 25.584 170.054 25.84V28H168.806V23.696H169.998V24.872L169.774 24.528C169.924 24.2347 170.134 24.0133 170.406 23.864C170.684 23.7093 170.998 23.632 171.35 23.632C171.745 23.632 172.089 23.7333 172.382 23.936C172.681 24.1333 172.878 24.4373 172.974 24.848L172.534 24.728C172.678 24.392 172.908 24.1253 173.222 23.928C173.542 23.7307 173.908 23.632 174.318 23.632ZM179.741 28.064C179.362 28.064 179.037 27.984 178.765 27.824C178.493 27.664 178.285 27.4213 178.141 27.096C177.997 26.7653 177.925 26.3493 177.925 25.848C177.925 25.3413 178 24.9253 178.149 24.6C178.304 24.2747 178.517 24.032 178.789 23.872C179.061 23.712 179.378 23.632 179.741 23.632C180.146 23.632 180.509 23.7227 180.829 23.904C181.154 24.0853 181.41 24.3413 181.597 24.672C181.789 25.0027 181.885 25.3947 181.885 25.848C181.885 26.296 181.789 26.6853 181.597 27.016C181.41 27.3467 181.154 27.6053 180.829 27.792C180.509 27.9733 180.146 28.064 179.741 28.064ZM177.197 28V22.064H178.445V24.568L178.365 25.84L178.389 27.12V28H177.197ZM179.525 27.04C179.733 27.04 179.917 26.992 180.077 26.896C180.242 26.8 180.373 26.664 180.469 26.488C180.57 26.3067 180.621 26.0933 180.621 25.848C180.621 25.5973 180.57 25.384 180.469 25.208C180.373 25.032 180.242 24.896 180.077 24.8C179.917 24.704 179.733 24.656 179.525 24.656C179.317 24.656 179.13 24.704 178.965 24.8C178.8 24.896 178.669 25.032 178.573 25.208C178.477 25.384 178.429 25.5973 178.429 25.848C178.429 26.0933 178.477 26.3067 178.573 26.488C178.669 26.664 178.8 26.8 178.965 26.896C179.13 26.992 179.317 27.04 179.525 27.04ZM185.29 28V27.16L185.21 26.976V25.472C185.21 25.2053 185.128 24.9973 184.962 24.848C184.802 24.6987 184.554 24.624 184.218 24.624C183.989 24.624 183.762 24.6613 183.538 24.736C183.32 24.8053 183.133 24.9013 182.978 25.024L182.53 24.152C182.765 23.9867 183.048 23.8587 183.378 23.768C183.709 23.6773 184.045 23.632 184.386 23.632C185.042 23.632 185.552 23.7867 185.914 24.096C186.277 24.4053 186.458 24.888 186.458 25.544V28H185.29ZM183.978 28.064C183.642 28.064 183.354 28.008 183.114 27.896C182.874 27.7787 182.69 27.6213 182.562 27.424C182.434 27.2267 182.37 27.0053 182.37 26.76C182.37 26.504 182.432 26.28 182.554 26.088C182.682 25.896 182.882 25.7467 183.154 25.64C183.426 25.528 183.781 25.472 184.218 25.472H185.362V26.2H184.354C184.061 26.2 183.858 26.248 183.746 26.344C183.64 26.44 183.586 26.56 183.586 26.704C183.586 26.864 183.648 26.992 183.77 27.088C183.898 27.1787 184.072 27.224 184.29 27.224C184.498 27.224 184.685 27.176 184.85 27.08C185.016 26.9787 185.136 26.832 185.21 26.64L185.402 27.216C185.312 27.4933 185.146 27.704 184.906 27.848C184.666 27.992 184.357 28.064 183.978 28.064ZM187.588 28V23.696H188.836V28H187.588ZM188.212 23.096C187.982 23.096 187.796 23.0293 187.652 22.896C187.508 22.7627 187.436 22.5973 187.436 22.4C187.436 22.2027 187.508 22.0373 187.652 21.904C187.796 21.7707 187.982 21.704 188.212 21.704C188.441 21.704 188.628 21.768 188.772 21.896C188.916 22.0187 188.988 22.1787 188.988 22.376C188.988 22.584 188.916 22.7573 188.772 22.896C188.633 23.0293 188.446 23.096 188.212 23.096ZM191.42 28.8L194.06 21.264H195.172L192.532 28.8H191.42ZM197.746 28V22.4H200.17C200.671 22.4 201.103 22.4827 201.466 22.648C201.829 22.808 202.109 23.04 202.306 23.344C202.503 23.648 202.602 24.0107 202.602 24.432C202.602 24.848 202.503 25.208 202.306 25.512C202.109 25.816 201.829 26.0507 201.466 26.216C201.103 26.376 200.671 26.456 200.17 26.456H198.466L199.042 25.872V28H197.746ZM199.042 26.016L198.466 25.4H200.098C200.498 25.4 200.797 25.3147 200.994 25.144C201.191 24.9733 201.29 24.736 201.29 24.432C201.29 24.1227 201.191 23.8827 200.994 23.712C200.797 23.5413 200.498 23.456 200.098 23.456H198.466L199.042 22.84V26.016ZM205.333 28.064C204.976 28.064 204.656 27.9947 204.373 27.856C204.096 27.7173 203.88 27.5067 203.725 27.224C203.571 26.936 203.493 26.5707 203.493 26.128V23.696H204.741V25.944C204.741 26.3013 204.816 26.5653 204.965 26.736C205.12 26.9013 205.336 26.984 205.613 26.984C205.805 26.984 205.976 26.944 206.125 26.864C206.275 26.7787 206.392 26.6507 206.477 26.48C206.563 26.304 206.605 26.0853 206.605 25.824V23.696H207.853V28H206.669V26.816L206.885 27.16C206.741 27.4587 206.528 27.6853 206.245 27.84C205.968 27.9893 205.664 28.064 205.333 28.064ZM211.626 23.632C211.967 23.632 212.271 23.7013 212.538 23.84C212.81 23.9733 213.023 24.1813 213.178 24.464C213.332 24.7413 213.41 25.0987 213.41 25.536V28H212.162V25.728C212.162 25.3813 212.084 25.1253 211.93 24.96C211.78 24.7947 211.567 24.712 211.29 24.712C211.092 24.712 210.914 24.7547 210.754 24.84C210.599 24.92 210.476 25.0453 210.386 25.216C210.3 25.3867 210.258 25.6053 210.258 25.872V28H209.01V23.696H210.202V24.888L209.978 24.528C210.132 24.24 210.354 24.0187 210.642 23.864C210.93 23.7093 211.258 23.632 211.626 23.632ZM216.708 28.064C216.217 28.064 215.785 27.968 215.412 27.776C215.044 27.584 214.759 27.3227 214.556 26.992C214.353 26.656 214.252 26.2747 214.252 25.848C214.252 25.416 214.351 25.0347 214.548 24.704C214.751 24.368 215.025 24.1067 215.372 23.92C215.719 23.728 216.111 23.632 216.548 23.632C216.969 23.632 217.348 23.7227 217.684 23.904C218.025 24.08 218.295 24.336 218.492 24.672C218.689 25.0027 218.788 25.4 218.788 25.864C218.788 25.912 218.785 25.968 218.78 26.032C218.775 26.0907 218.769 26.1467 218.764 26.2H215.268V25.472H218.108L217.628 25.688C217.628 25.464 217.583 25.2693 217.492 25.104C217.401 24.9387 217.276 24.8107 217.116 24.72C216.956 24.624 216.769 24.576 216.556 24.576C216.343 24.576 216.153 24.624 215.988 24.72C215.828 24.8107 215.703 24.9413 215.612 25.112C215.521 25.2773 215.476 25.4747 215.476 25.704V25.896C215.476 26.1307 215.527 26.3387 215.628 26.52C215.735 26.696 215.881 26.832 216.068 26.928C216.26 27.0187 216.484 27.064 216.74 27.064C216.969 27.064 217.169 27.0293 217.34 26.96C217.516 26.8907 217.676 26.7867 217.82 26.648L218.484 27.368C218.287 27.592 218.039 27.7653 217.74 27.888C217.441 28.0053 217.097 28.064 216.708 28.064ZM221.045 28.8L223.685 21.264H224.797L222.157 28.8H221.045ZM228.531 26.72L228.459 25.224L231.139 22.4H232.579L230.163 25L229.443 25.768L228.531 26.72ZM227.371 28V22.4H228.659V28H227.371ZM231.203 28L229.211 25.56L230.059 24.64L232.715 28H231.203ZM235.073 28.064C234.615 28.064 234.207 27.968 233.849 27.776C233.497 27.584 233.217 27.3227 233.009 26.992C232.807 26.656 232.705 26.2747 232.705 25.848C232.705 25.416 232.807 25.0347 233.009 24.704C233.217 24.368 233.497 24.1067 233.849 23.92C234.207 23.728 234.615 23.632 235.073 23.632C235.527 23.632 235.932 23.728 236.289 23.92C236.647 24.1067 236.927 24.3653 237.129 24.696C237.332 25.0267 237.433 25.4107 237.433 25.848C237.433 26.2747 237.332 26.656 237.129 26.992C236.927 27.3227 236.647 27.584 236.289 27.776C235.932 27.968 235.527 28.064 235.073 28.064ZM235.073 27.04C235.281 27.04 235.468 26.992 235.633 26.896C235.799 26.8 235.929 26.664 236.025 26.488C236.121 26.3067 236.169 26.0933 236.169 25.848C236.169 25.5973 236.121 25.384 236.025 25.208C235.929 25.032 235.799 24.896 235.633 24.8C235.468 24.704 235.281 24.656 235.073 24.656C234.865 24.656 234.679 24.704 234.513 24.8C234.348 24.896 234.215 25.032 234.113 25.208C234.017 25.384 233.969 25.5973 233.969 25.848C233.969 26.0933 234.017 26.3067 234.113 26.488C234.215 26.664 234.348 26.8 234.513 26.896C234.679 26.992 234.865 27.04 235.073 27.04ZM238.267 28V22.064H239.515V28H238.267ZM241.706 27.12L241.738 25.6L243.746 23.696H245.234L243.306 25.656L242.658 26.184L241.706 27.12ZM240.674 28V22.064H241.922V28H240.674ZM243.882 28L242.426 26.192L243.21 25.224L245.394 28H243.882ZM248.517 28V27.16L248.437 26.976V25.472C248.437 25.2053 248.354 24.9973 248.189 24.848C248.029 24.6987 247.781 24.624 247.445 24.624C247.215 24.624 246.989 24.6613 246.765 24.736C246.546 24.8053 246.359 24.9013 246.205 25.024L245.757 24.152C245.991 23.9867 246.274 23.8587 246.605 23.768C246.935 23.6773 247.271 23.632 247.613 23.632C248.269 23.632 248.778 23.7867 249.141 24.096C249.503 24.4053 249.685 24.888 249.685 25.544V28H248.517ZM247.205 28.064C246.869 28.064 246.581 28.008 246.341 27.896C246.101 27.7787 245.917 27.6213 245.789 27.424C245.661 27.2267 245.597 27.0053 245.597 26.76C245.597 26.504 245.658 26.28 245.781 26.088C245.909 25.896 246.109 25.7467 246.381 25.64C246.653 25.528 247.007 25.472 247.445 25.472H248.589V26.2H247.581C247.287 26.2 247.085 26.248 246.973 26.344C246.866 26.44 246.813 26.56 246.813 26.704C246.813 26.864 246.874 26.992 246.997 27.088C247.125 27.1787 247.298 27.224 247.517 27.224C247.725 27.224 247.911 27.176 248.077 27.08C248.242 26.9787 248.362 26.832 248.437 26.64L248.629 27.216C248.538 27.4933 248.373 27.704 248.133 27.848C247.893 27.992 247.583 28.064 247.205 28.064ZM252.574 28.064C252.068 28.064 251.673 27.936 251.39 27.68C251.108 27.4187 250.966 27.032 250.966 26.52V22.744H252.214V26.504C252.214 26.6853 252.262 26.8267 252.358 26.928C252.454 27.024 252.585 27.072 252.75 27.072C252.948 27.072 253.116 27.0187 253.254 26.912L253.59 27.792C253.462 27.8827 253.308 27.952 253.126 28C252.95 28.0427 252.766 28.064 252.574 28.064ZM250.302 24.752V23.792H253.286V24.752H250.302ZM256.931 28V27.16L256.851 26.976V25.472C256.851 25.2053 256.768 24.9973 256.603 24.848C256.443 24.6987 256.195 24.624 255.859 24.624C255.63 24.624 255.403 24.6613 255.179 24.736C254.96 24.8053 254.774 24.9013 254.619 25.024L254.171 24.152C254.406 23.9867 254.688 23.8587 255.019 23.768C255.35 23.6773 255.686 23.632 256.027 23.632C256.683 23.632 257.192 23.7867 257.555 24.096C257.918 24.4053 258.099 24.888 258.099 25.544V28H256.931ZM255.619 28.064C255.283 28.064 254.995 28.008 254.755 27.896C254.515 27.7787 254.331 27.6213 254.203 27.424C254.075 27.2267 254.011 27.0053 254.011 26.76C254.011 26.504 254.072 26.28 254.195 26.088C254.323 25.896 254.523 25.7467 254.795 25.64C255.067 25.528 255.422 25.472 255.859 25.472H257.003V26.2H255.995C255.702 26.2 255.499 26.248 255.387 26.344C255.28 26.44 255.227 26.56 255.227 26.704C255.227 26.864 255.288 26.992 255.411 27.088C255.539 27.1787 255.712 27.224 255.931 27.224C256.139 27.224 256.326 27.176 256.491 27.08C256.656 26.9787 256.776 26.832 256.851 26.64L257.043 27.216C256.952 27.4933 256.787 27.704 256.547 27.848C256.307 27.992 255.998 28.064 255.619 28.064ZM260.654 28.8L263.294 21.264H264.406L261.766 28.8H260.654ZM70.2774 32.4H71.5734V38H70.2774V32.4ZM67.7334 38H66.4374V32.4H67.7334V38ZM70.3734 35.704H67.6374V34.608H70.3734V35.704ZM73.3544 39.616C73.1304 39.616 72.909 39.5813 72.6904 39.512C72.4717 39.4427 72.293 39.3467 72.1544 39.224L72.6104 38.336C72.7064 38.4213 72.8157 38.488 72.9384 38.536C73.0664 38.584 73.1917 38.608 73.3144 38.608C73.4904 38.608 73.629 38.5653 73.7304 38.48C73.837 38.4 73.933 38.264 74.0184 38.072L74.2424 37.544L74.3384 37.408L75.8824 33.696H77.0824L75.1384 38.264C74.9997 38.6107 74.8397 38.8827 74.6584 39.08C74.4824 39.2773 74.285 39.416 74.0664 39.496C73.853 39.576 73.6157 39.616 73.3544 39.616ZM74.0904 38.168L72.1704 33.696H73.4584L74.9464 37.296L74.0904 38.168ZM79.3224 38.064C78.9171 38.064 78.5518 37.9733 78.2264 37.792C77.9011 37.6053 77.6424 37.3467 77.4504 37.016C77.2638 36.6853 77.1704 36.296 77.1704 35.848C77.1704 35.3947 77.2638 35.0027 77.4504 34.672C77.6424 34.3413 77.9011 34.0853 78.2264 33.904C78.5518 33.7227 78.9171 33.632 79.3224 33.632C79.6851 33.632 80.0024 33.712 80.2744 33.872C80.5464 34.032 80.7571 34.2747 80.9064 34.6C81.0558 34.9253 81.1304 35.3413 81.1304 35.848C81.1304 36.3493 81.0584 36.7653 80.9144 37.096C80.7704 37.4213 80.5624 37.664 80.2904 37.824C80.0238 37.984 79.7011 38.064 79.3224 38.064ZM79.5384 37.04C79.7411 37.04 79.9251 36.992 80.0904 36.896C80.2558 36.8 80.3864 36.664 80.4824 36.488C80.5838 36.3067 80.6344 36.0933 80.6344 35.848C80.6344 35.5973 80.5838 35.384 80.4824 35.208C80.3864 35.032 80.2558 34.896 80.0904 34.8C79.9251 34.704 79.7411 34.656 79.5384 34.656C79.3304 34.656 79.1438 34.704 78.9784 34.8C78.8131 34.896 78.6798 35.032 78.5784 35.208C78.4824 35.384 78.4344 35.5973 78.4344 35.848C78.4344 36.0933 78.4824 36.3067 78.5784 36.488C78.6798 36.664 78.8131 36.8 78.9784 36.896C79.1438 36.992 79.3304 37.04 79.5384 37.04ZM80.6664 38V37.12L80.6904 35.84L80.6104 34.568V32.064H81.8584V38H80.6664ZM85.1495 38.064C84.6588 38.064 84.2268 37.968 83.8535 37.776C83.4855 37.584 83.2002 37.3227 82.9975 36.992C82.7948 36.656 82.6935 36.2747 82.6935 35.848C82.6935 35.416 82.7922 35.0347 82.9895 34.704C83.1922 34.368 83.4668 34.1067 83.8135 33.92C84.1602 33.728 84.5522 33.632 84.9895 33.632C85.4108 33.632 85.7895 33.7227 86.1255 33.904C86.4668 34.08 86.7362 34.336 86.9335 34.672C87.1308 35.0027 87.2295 35.4 87.2295 35.864C87.2295 35.912 87.2268 35.968 87.2215 36.032C87.2162 36.0907 87.2108 36.1467 87.2055 36.2H83.7095V35.472H86.5495L86.0695 35.688C86.0695 35.464 86.0242 35.2693 85.9335 35.104C85.8428 34.9387 85.7175 34.8107 85.5575 34.72C85.3975 34.624 85.2108 34.576 84.9975 34.576C84.7842 34.576 84.5948 34.624 84.4295 34.72C84.2695 34.8107 84.1442 34.9413 84.0535 35.112C83.9628 35.2773 83.9175 35.4747 83.9175 35.704V35.896C83.9175 36.1307 83.9682 36.3387 84.0695 36.52C84.1762 36.696 84.3228 36.832 84.5095 36.928C84.7015 37.0187 84.9255 37.064 85.1815 37.064C85.4108 37.064 85.6108 37.0293 85.7815 36.96C85.9575 36.8907 86.1175 36.7867 86.2615 36.648L86.9255 37.368C86.7282 37.592 86.4802 37.7653 86.1815 37.888C85.8828 38.0053 85.5388 38.064 85.1495 38.064ZM88.0604 38V33.696H89.2524V34.912L89.0844 34.56C89.2124 34.256 89.4177 34.0267 89.7004 33.872C89.983 33.712 90.327 33.632 90.7324 33.632V34.784C90.679 34.7787 90.631 34.776 90.5884 34.776C90.5457 34.7707 90.5004 34.768 90.4524 34.768C90.111 34.768 89.8337 34.8667 89.6204 35.064C89.4124 35.256 89.3084 35.5573 89.3084 35.968V38H88.0604ZM93.8332 38V37.16L93.7532 36.976V35.472C93.7532 35.2053 93.6705 34.9973 93.5052 34.848C93.3452 34.6987 93.0972 34.624 92.7612 34.624C92.5319 34.624 92.3052 34.6613 92.0812 34.736C91.8625 34.8053 91.6759 34.9013 91.5212 35.024L91.0732 34.152C91.3079 33.9867 91.5905 33.8587 91.9212 33.768C92.2519 33.6773 92.5879 33.632 92.9292 33.632C93.5852 33.632 94.0945 33.7867 94.4572 34.096C94.8199 34.4053 95.0012 34.888 95.0012 35.544V38H93.8332ZM92.5212 38.064C92.1852 38.064 91.8972 38.008 91.6572 37.896C91.4172 37.7787 91.2332 37.6213 91.1052 37.424C90.9772 37.2267 90.9132 37.0053 90.9132 36.76C90.9132 36.504 90.9745 36.28 91.0972 36.088C91.2252 35.896 91.4252 35.7467 91.6972 35.64C91.9692 35.528 92.3239 35.472 92.7612 35.472H93.9052V36.2H92.8972C92.6039 36.2 92.4012 36.248 92.2892 36.344C92.1825 36.44 92.1292 36.56 92.1292 36.704C92.1292 36.864 92.1905 36.992 92.3132 37.088C92.4412 37.1787 92.6145 37.224 92.8332 37.224C93.0412 37.224 93.2279 37.176 93.3932 37.08C93.5585 36.9787 93.6785 36.832 93.7532 36.64L93.9452 37.216C93.8545 37.4933 93.6892 37.704 93.4492 37.848C93.2092 37.992 92.8999 38.064 92.5212 38.064ZM98.6747 38.064C98.296 38.064 97.9707 37.984 97.6987 37.824C97.4267 37.664 97.2187 37.4213 97.0747 37.096C96.9307 36.7653 96.8587 36.3493 96.8587 35.848C96.8587 35.3413 96.9334 34.9253 97.0827 34.6C97.2374 34.2747 97.4507 34.032 97.7227 33.872C97.9947 33.712 98.312 33.632 98.6747 33.632C99.08 33.632 99.4427 33.7227 99.7627 33.904C100.088 34.0853 100.344 34.3413 100.531 34.672C100.723 35.0027 100.819 35.3947 100.819 35.848C100.819 36.296 100.723 36.6853 100.531 37.016C100.344 37.3467 100.088 37.6053 99.7627 37.792C99.4427 37.9733 99.08 38.064 98.6747 38.064ZM96.1307 38V32.064H97.3787V34.568L97.2987 35.84L97.3227 37.12V38H96.1307ZM98.4587 37.04C98.6667 37.04 98.8507 36.992 99.0107 36.896C99.176 36.8 99.3067 36.664 99.4027 36.488C99.504 36.3067 99.5547 36.0933 99.5547 35.848C99.5547 35.5973 99.504 35.384 99.4027 35.208C99.3067 35.032 99.176 34.896 99.0107 34.8C98.8507 34.704 98.6667 34.656 98.4587 34.656C98.2507 34.656 98.064 34.704 97.8987 34.8C97.7334 34.896 97.6027 35.032 97.5067 35.208C97.4107 35.384 97.3627 35.5973 97.3627 35.848C97.3627 36.0933 97.4107 36.3067 97.5067 36.488C97.6027 36.664 97.7334 36.8 97.8987 36.896C98.064 36.992 98.2507 37.04 98.4587 37.04ZM104.224 38V37.16L104.144 36.976V35.472C104.144 35.2053 104.061 34.9973 103.896 34.848C103.736 34.6987 103.488 34.624 103.152 34.624C102.922 34.624 102.696 34.6613 102.472 34.736C102.253 34.8053 102.066 34.9013 101.912 35.024L101.464 34.152C101.698 33.9867 101.981 33.8587 102.312 33.768C102.642 33.6773 102.978 33.632 103.32 33.632C103.976 33.632 104.485 33.7867 104.848 34.096C105.21 34.4053 105.392 34.888 105.392 35.544V38H104.224ZM102.912 38.064C102.576 38.064 102.288 38.008 102.048 37.896C101.808 37.7787 101.624 37.6213 101.496 37.424C101.368 37.2267 101.304 37.0053 101.304 36.76C101.304 36.504 101.365 36.28 101.488 36.088C101.616 35.896 101.816 35.7467 102.088 35.64C102.36 35.528 102.714 35.472 103.152 35.472H104.296V36.2H103.288C102.994 36.2 102.792 36.248 102.68 36.344C102.573 36.44 102.52 36.56 102.52 36.704C102.52 36.864 102.581 36.992 102.704 37.088C102.832 37.1787 103.005 37.224 103.224 37.224C103.432 37.224 103.618 37.176 103.784 37.08C103.949 36.9787 104.069 36.832 104.144 36.64L104.336 37.216C104.245 37.4933 104.08 37.704 103.84 37.848C103.6 37.992 103.29 38.064 102.912 38.064ZM108.401 38.064C107.995 38.064 107.63 37.9733 107.305 37.792C106.979 37.6053 106.721 37.3467 106.529 37.016C106.342 36.6853 106.249 36.296 106.249 35.848C106.249 35.3947 106.342 35.0027 106.529 34.672C106.721 34.3413 106.979 34.0853 107.305 33.904C107.63 33.7227 107.995 33.632 108.401 33.632C108.763 33.632 109.081 33.712 109.353 33.872C109.625 34.032 109.835 34.2747 109.985 34.6C110.134 34.9253 110.209 35.3413 110.209 35.848C110.209 36.3493 110.137 36.7653 109.993 37.096C109.849 37.4213 109.641 37.664 109.369 37.824C109.102 37.984 108.779 38.064 108.401 38.064ZM108.617 37.04C108.819 37.04 109.003 36.992 109.169 36.896C109.334 36.8 109.465 36.664 109.561 36.488C109.662 36.3067 109.713 36.0933 109.713 35.848C109.713 35.5973 109.662 35.384 109.561 35.208C109.465 35.032 109.334 34.896 109.169 34.8C109.003 34.704 108.819 34.656 108.617 34.656C108.409 34.656 108.222 34.704 108.057 34.8C107.891 34.896 107.758 35.032 107.657 35.208C107.561 35.384 107.513 35.5973 107.513 35.848C107.513 36.0933 107.561 36.3067 107.657 36.488C107.758 36.664 107.891 36.8 108.057 36.896C108.222 36.992 108.409 37.04 108.617 37.04ZM109.745 38V37.12L109.769 35.84L109.689 34.568V32.064H110.937V38H109.745ZM113.517 38.8L116.157 31.264H117.269L114.629 38.8H113.517ZM119.844 38V32.4H122.58C123.284 32.4 123.812 32.5333 124.164 32.8C124.521 33.0667 124.7 33.4187 124.7 33.856C124.7 34.1493 124.628 34.4053 124.484 34.624C124.34 34.8373 124.142 35.0027 123.892 35.12C123.641 35.2373 123.353 35.296 123.028 35.296L123.18 34.968C123.532 34.968 123.844 35.0267 124.116 35.144C124.388 35.256 124.598 35.424 124.748 35.648C124.902 35.872 124.98 36.1467 124.98 36.472C124.98 36.952 124.79 37.328 124.412 37.6C124.033 37.8667 123.476 38 122.74 38H119.844ZM121.132 37.024H122.644C122.98 37.024 123.233 36.9707 123.404 36.864C123.58 36.752 123.668 36.576 123.668 36.336C123.668 36.1013 123.58 35.928 123.404 35.816C123.233 35.6987 122.98 35.64 122.644 35.64H121.036V34.696H122.42C122.734 34.696 122.974 34.6427 123.14 34.536C123.31 34.424 123.396 34.256 123.396 34.032C123.396 33.8133 123.31 33.6507 123.14 33.544C122.974 33.432 122.734 33.376 122.42 33.376H121.132V37.024ZM128.513 38V37.16L128.433 36.976V35.472C128.433 35.2053 128.35 34.9973 128.185 34.848C128.025 34.6987 127.777 34.624 127.441 34.624C127.212 34.624 126.985 34.6613 126.761 34.736C126.542 34.8053 126.356 34.9013 126.201 35.024L125.753 34.152C125.988 33.9867 126.27 33.8587 126.601 33.768C126.932 33.6773 127.268 33.632 127.609 33.632C128.265 33.632 128.774 33.7867 129.137 34.096C129.5 34.4053 129.681 34.888 129.681 35.544V38H128.513ZM127.201 38.064C126.865 38.064 126.577 38.008 126.337 37.896C126.097 37.7787 125.913 37.6213 125.785 37.424C125.657 37.2267 125.593 37.0053 125.593 36.76C125.593 36.504 125.654 36.28 125.777 36.088C125.905 35.896 126.105 35.7467 126.377 35.64C126.649 35.528 127.004 35.472 127.441 35.472H128.585V36.2H127.577C127.284 36.2 127.081 36.248 126.969 36.344C126.862 36.44 126.809 36.56 126.809 36.704C126.809 36.864 126.87 36.992 126.993 37.088C127.121 37.1787 127.294 37.224 127.513 37.224C127.721 37.224 127.908 37.176 128.073 37.08C128.238 36.9787 128.358 36.832 128.433 36.64L128.625 37.216C128.534 37.4933 128.369 37.704 128.129 37.848C127.889 37.992 127.58 38.064 127.201 38.064ZM133.426 33.632C133.768 33.632 134.072 33.7013 134.338 33.84C134.61 33.9733 134.824 34.1813 134.978 34.464C135.133 34.7413 135.21 35.0987 135.21 35.536V38H133.962V35.728C133.962 35.3813 133.885 35.1253 133.73 34.96C133.581 34.7947 133.368 34.712 133.09 34.712C132.893 34.712 132.714 34.7547 132.554 34.84C132.4 34.92 132.277 35.0453 132.186 35.216C132.101 35.3867 132.058 35.6053 132.058 35.872V38H130.81V33.696H132.002V34.888L131.778 34.528C131.933 34.24 132.154 34.0187 132.442 33.864C132.73 33.7093 133.058 33.632 133.426 33.632ZM138.397 39.616C137.992 39.616 137.6 39.5653 137.221 39.464C136.848 39.368 136.536 39.2213 136.285 39.024L136.781 38.128C136.962 38.2773 137.192 38.3947 137.469 38.48C137.752 38.5707 138.029 38.616 138.301 38.616C138.744 38.616 139.064 38.5173 139.261 38.32C139.464 38.1227 139.565 37.8293 139.565 37.44V36.792L139.645 35.712L139.629 34.624V33.696H140.813V37.28C140.813 38.08 140.605 38.6693 140.189 39.048C139.773 39.4267 139.176 39.616 138.397 39.616ZM138.205 37.792C137.805 37.792 137.442 37.7067 137.117 37.536C136.797 37.36 136.538 37.1173 136.341 36.808C136.149 36.4933 136.053 36.128 136.053 35.712C136.053 35.2907 136.149 34.9253 136.341 34.616C136.538 34.3013 136.797 34.0587 137.117 33.888C137.442 33.7173 137.805 33.632 138.205 33.632C138.568 33.632 138.888 33.7067 139.165 33.856C139.442 34 139.658 34.2267 139.813 34.536C139.968 34.84 140.045 35.232 140.045 35.712C140.045 36.1867 139.968 36.5787 139.813 36.888C139.658 37.192 139.442 37.4187 139.165 37.568C138.888 37.7173 138.568 37.792 138.205 37.792ZM138.453 36.768C138.672 36.768 138.866 36.7253 139.037 36.64C139.208 36.5493 139.341 36.424 139.437 36.264C139.533 36.104 139.581 35.92 139.581 35.712C139.581 35.4987 139.533 35.3147 139.437 35.16C139.341 35 139.208 34.8773 139.037 34.792C138.866 34.7013 138.672 34.656 138.453 34.656C138.234 34.656 138.04 34.7013 137.869 34.792C137.698 34.8773 137.562 35 137.461 35.16C137.365 35.3147 137.317 35.4987 137.317 35.712C137.317 35.92 137.365 36.104 137.461 36.264C137.562 36.424 137.698 36.5493 137.869 36.64C138.04 36.7253 138.234 36.768 138.453 36.768ZM144.614 38V37.16L144.534 36.976V35.472C144.534 35.2053 144.452 34.9973 144.286 34.848C144.126 34.6987 143.878 34.624 143.542 34.624C143.313 34.624 143.086 34.6613 142.862 34.736C142.644 34.8053 142.457 34.9013 142.302 35.024L141.854 34.152C142.089 33.9867 142.372 33.8587 142.702 33.768C143.033 33.6773 143.369 33.632 143.71 33.632C144.366 33.632 144.876 33.7867 145.238 34.096C145.601 34.4053 145.782 34.888 145.782 35.544V38H144.614ZM143.302 38.064C142.966 38.064 142.678 38.008 142.438 37.896C142.198 37.7787 142.014 37.6213 141.886 37.424C141.758 37.2267 141.694 37.0053 141.694 36.76C141.694 36.504 141.756 36.28 141.878 36.088C142.006 35.896 142.206 35.7467 142.478 35.64C142.75 35.528 143.105 35.472 143.542 35.472H144.686V36.2H143.678C143.385 36.2 143.182 36.248 143.07 36.344C142.964 36.44 142.91 36.56 142.91 36.704C142.91 36.864 142.972 36.992 143.094 37.088C143.222 37.1787 143.396 37.224 143.614 37.224C143.822 37.224 144.009 37.176 144.174 37.08C144.34 36.9787 144.46 36.832 144.534 36.64L144.726 37.216C144.636 37.4933 144.47 37.704 144.23 37.848C143.99 37.992 143.681 38.064 143.302 38.064ZM146.912 38V32.064H148.16V38H146.912ZM151.366 38.064C150.908 38.064 150.5 37.968 150.142 37.776C149.79 37.584 149.51 37.3227 149.302 36.992C149.1 36.656 148.998 36.2747 148.998 35.848C148.998 35.416 149.1 35.0347 149.302 34.704C149.51 34.368 149.79 34.1067 150.142 33.92C150.5 33.728 150.908 33.632 151.366 33.632C151.82 33.632 152.225 33.728 152.582 33.92C152.94 34.1067 153.22 34.3653 153.422 34.696C153.625 35.0267 153.726 35.4107 153.726 35.848C153.726 36.2747 153.625 36.656 153.422 36.992C153.22 37.3227 152.94 37.584 152.582 37.776C152.225 37.968 151.82 38.064 151.366 38.064ZM151.366 37.04C151.574 37.04 151.761 36.992 151.926 36.896C152.092 36.8 152.222 36.664 152.318 36.488C152.414 36.3067 152.462 36.0933 152.462 35.848C152.462 35.5973 152.414 35.384 152.318 35.208C152.222 35.032 152.092 34.896 151.926 34.8C151.761 34.704 151.574 34.656 151.366 34.656C151.158 34.656 150.972 34.704 150.806 34.8C150.641 34.896 150.508 35.032 150.406 35.208C150.31 35.384 150.262 35.5973 150.262 35.848C150.262 36.0933 150.31 36.3067 150.406 36.488C150.508 36.664 150.641 36.8 150.806 36.896C150.972 36.992 151.158 37.04 151.366 37.04ZM154.56 38V33.696H155.752V34.912L155.584 34.56C155.712 34.256 155.918 34.0267 156.2 33.872C156.483 33.712 156.827 33.632 157.232 33.632V34.784C157.179 34.7787 157.131 34.776 157.088 34.776C157.046 34.7707 157 34.768 156.952 34.768C156.611 34.768 156.334 34.8667 156.12 35.064C155.912 35.256 155.808 35.5573 155.808 35.968V38H154.56ZM160.071 38.064C159.581 38.064 159.149 37.968 158.775 37.776C158.407 37.584 158.122 37.3227 157.919 36.992C157.717 36.656 157.615 36.2747 157.615 35.848C157.615 35.416 157.714 35.0347 157.911 34.704C158.114 34.368 158.389 34.1067 158.735 33.92C159.082 33.728 159.474 33.632 159.911 33.632C160.333 33.632 160.711 33.7227 161.047 33.904C161.389 34.08 161.658 34.336 161.855 34.672C162.053 35.0027 162.151 35.4 162.151 35.864C162.151 35.912 162.149 35.968 162.143 36.032C162.138 36.0907 162.133 36.1467 162.127 36.2H158.631V35.472H161.471L160.991 35.688C160.991 35.464 160.946 35.2693 160.855 35.104C160.765 34.9387 160.639 34.8107 160.479 34.72C160.319 34.624 160.133 34.576 159.919 34.576C159.706 34.576 159.517 34.624 159.351 34.72C159.191 34.8107 159.066 34.9413 158.975 35.112C158.885 35.2773 158.839 35.4747 158.839 35.704V35.896C158.839 36.1307 158.89 36.3387 158.991 36.52C159.098 36.696 159.245 36.832 159.431 36.928C159.623 37.0187 159.847 37.064 160.103 37.064C160.333 37.064 160.533 37.0293 160.703 36.96C160.879 36.8907 161.039 36.7867 161.183 36.648L161.847 37.368C161.65 37.592 161.402 37.7653 161.103 37.888C160.805 38.0053 160.461 38.064 160.071 38.064ZM164.408 38.8L167.048 31.264H168.16L165.52 38.8H164.408ZM173.414 38.096C172.982 38.096 172.58 38.0267 172.206 37.888C171.838 37.744 171.518 37.5413 171.246 37.28C170.974 37.0187 170.761 36.712 170.606 36.36C170.457 36.008 170.382 35.6213 170.382 35.2C170.382 34.7787 170.457 34.392 170.606 34.04C170.761 33.688 170.974 33.3813 171.246 33.12C171.524 32.8587 171.846 32.6587 172.214 32.52C172.582 32.376 172.985 32.304 173.422 32.304C173.908 32.304 174.345 32.3893 174.734 32.56C175.129 32.7253 175.46 32.9707 175.726 33.296L174.894 34.064C174.702 33.8453 174.489 33.6827 174.254 33.576C174.02 33.464 173.764 33.408 173.486 33.408C173.225 33.408 172.985 33.4507 172.766 33.536C172.548 33.6213 172.358 33.744 172.198 33.904C172.038 34.064 171.913 34.2533 171.822 34.472C171.737 34.6907 171.694 34.9333 171.694 35.2C171.694 35.4667 171.737 35.7093 171.822 35.928C171.913 36.1467 172.038 36.336 172.198 36.496C172.358 36.656 172.548 36.7787 172.766 36.864C172.985 36.9493 173.225 36.992 173.486 36.992C173.764 36.992 174.02 36.9387 174.254 36.832C174.489 36.72 174.702 36.552 174.894 36.328L175.726 37.096C175.46 37.4213 175.129 37.6693 174.734 37.84C174.345 38.0107 173.905 38.096 173.414 38.096ZM178.413 38.064C177.954 38.064 177.546 37.968 177.189 37.776C176.837 37.584 176.557 37.3227 176.349 36.992C176.146 36.656 176.045 36.2747 176.045 35.848C176.045 35.416 176.146 35.0347 176.349 34.704C176.557 34.368 176.837 34.1067 177.189 33.92C177.546 33.728 177.954 33.632 178.413 33.632C178.866 33.632 179.272 33.728 179.629 33.92C179.986 34.1067 180.266 34.3653 180.469 34.696C180.672 35.0267 180.773 35.4107 180.773 35.848C180.773 36.2747 180.672 36.656 180.469 36.992C180.266 37.3227 179.986 37.584 179.629 37.776C179.272 37.968 178.866 38.064 178.413 38.064ZM178.413 37.04C178.621 37.04 178.808 36.992 178.973 36.896C179.138 36.8 179.269 36.664 179.365 36.488C179.461 36.3067 179.509 36.0933 179.509 35.848C179.509 35.5973 179.461 35.384 179.365 35.208C179.269 35.032 179.138 34.896 178.973 34.8C178.808 34.704 178.621 34.656 178.413 34.656C178.205 34.656 178.018 34.704 177.853 34.8C177.688 34.896 177.554 35.032 177.453 35.208C177.357 35.384 177.309 35.5973 177.309 35.848C177.309 36.0933 177.357 36.3067 177.453 36.488C177.554 36.664 177.688 36.8 177.853 36.896C178.018 36.992 178.205 37.04 178.413 37.04ZM181.607 38V33.696H182.855V38H181.607ZM182.231 33.096C182.002 33.096 181.815 33.0293 181.671 32.896C181.527 32.7627 181.455 32.5973 181.455 32.4C181.455 32.2027 181.527 32.0373 181.671 31.904C181.815 31.7707 182.002 31.704 182.231 31.704C182.461 31.704 182.647 31.768 182.791 31.896C182.935 32.0187 183.007 32.1787 183.007 32.376C183.007 32.584 182.935 32.7573 182.791 32.896C182.653 33.0293 182.466 33.096 182.231 33.096ZM189.526 33.632C189.867 33.632 190.168 33.7013 190.43 33.84C190.696 33.9733 190.904 34.1813 191.054 34.464C191.208 34.7413 191.286 35.0987 191.286 35.536V38H190.038V35.728C190.038 35.3813 189.966 35.1253 189.822 34.96C189.678 34.7947 189.475 34.712 189.214 34.712C189.032 34.712 188.87 34.7547 188.726 34.84C188.582 34.92 188.47 35.0427 188.39 35.208C188.31 35.3733 188.27 35.584 188.27 35.84V38H187.022V35.728C187.022 35.3813 186.95 35.1253 186.806 34.96C186.667 34.7947 186.467 34.712 186.206 34.712C186.024 34.712 185.862 34.7547 185.718 34.84C185.574 34.92 185.462 35.0427 185.382 35.208C185.302 35.3733 185.262 35.584 185.262 35.84V38H184.014V33.696H185.206V34.872L184.982 34.528C185.131 34.2347 185.342 34.0133 185.614 33.864C185.891 33.7093 186.206 33.632 186.558 33.632C186.952 33.632 187.296 33.7333 187.59 33.936C187.888 34.1333 188.086 34.4373 188.182 34.848L187.742 34.728C187.886 34.392 188.115 34.1253 188.43 33.928C188.75 33.7307 189.115 33.632 189.526 33.632ZM194.948 38.064C194.569 38.064 194.244 37.984 193.972 37.824C193.7 37.664 193.492 37.4213 193.348 37.096C193.204 36.7653 193.132 36.3493 193.132 35.848C193.132 35.3413 193.207 34.9253 193.356 34.6C193.511 34.2747 193.724 34.032 193.996 33.872C194.268 33.712 194.585 33.632 194.948 33.632C195.353 33.632 195.716 33.7227 196.036 33.904C196.361 34.0853 196.617 34.3413 196.804 34.672C196.996 35.0027 197.092 35.3947 197.092 35.848C197.092 36.296 196.996 36.6853 196.804 37.016C196.617 37.3467 196.361 37.6053 196.036 37.792C195.716 37.9733 195.353 38.064 194.948 38.064ZM192.404 38V32.064H193.652V34.568L193.572 35.84L193.596 37.12V38H192.404ZM194.732 37.04C194.94 37.04 195.124 36.992 195.284 36.896C195.449 36.8 195.58 36.664 195.676 36.488C195.777 36.3067 195.828 36.0933 195.828 35.848C195.828 35.5973 195.777 35.384 195.676 35.208C195.58 35.032 195.449 34.896 195.284 34.8C195.124 34.704 194.94 34.656 194.732 34.656C194.524 34.656 194.337 34.704 194.172 34.8C194.007 34.896 193.876 35.032 193.78 35.208C193.684 35.384 193.636 35.5973 193.636 35.848C193.636 36.0933 193.684 36.3067 193.78 36.488C193.876 36.664 194.007 36.8 194.172 36.896C194.337 36.992 194.524 37.04 194.732 37.04ZM200.497 38V37.16L200.417 36.976V35.472C200.417 35.2053 200.335 34.9973 200.169 34.848C200.009 34.6987 199.761 34.624 199.425 34.624C199.196 34.624 198.969 34.6613 198.745 34.736C198.527 34.8053 198.34 34.9013 198.185 35.024L197.737 34.152C197.972 33.9867 198.255 33.8587 198.585 33.768C198.916 33.6773 199.252 33.632 199.593 33.632C200.249 33.632 200.759 33.7867 201.121 34.096C201.484 34.4053 201.665 34.888 201.665 35.544V38H200.497ZM199.185 38.064C198.849 38.064 198.561 38.008 198.321 37.896C198.081 37.7787 197.897 37.6213 197.769 37.424C197.641 37.2267 197.577 37.0053 197.577 36.76C197.577 36.504 197.639 36.28 197.761 36.088C197.889 35.896 198.089 35.7467 198.361 35.64C198.633 35.528 198.988 35.472 199.425 35.472H200.569V36.2H199.561C199.268 36.2 199.065 36.248 198.953 36.344C198.847 36.44 198.793 36.56 198.793 36.704C198.793 36.864 198.855 36.992 198.977 37.088C199.105 37.1787 199.279 37.224 199.497 37.224C199.705 37.224 199.892 37.176 200.057 37.08C200.223 36.9787 200.343 36.832 200.417 36.64L200.609 37.216C200.519 37.4933 200.353 37.704 200.113 37.848C199.873 37.992 199.564 38.064 199.185 38.064ZM204.555 38.064C204.048 38.064 203.653 37.936 203.371 37.68C203.088 37.4187 202.947 37.032 202.947 36.52V32.744H204.195V36.504C204.195 36.6853 204.243 36.8267 204.339 36.928C204.435 37.024 204.565 37.072 204.731 37.072C204.928 37.072 205.096 37.0187 205.235 36.912L205.571 37.792C205.443 37.8827 205.288 37.952 205.107 38C204.931 38.0427 204.747 38.064 204.555 38.064ZM202.283 34.752V33.792H205.267V34.752H202.283ZM208.187 38.064C207.728 38.064 207.32 37.968 206.963 37.776C206.611 37.584 206.331 37.3227 206.123 36.992C205.92 36.656 205.819 36.2747 205.819 35.848C205.819 35.416 205.92 35.0347 206.123 34.704C206.331 34.368 206.611 34.1067 206.963 33.92C207.32 33.728 207.728 33.632 208.187 33.632C208.64 33.632 209.045 33.728 209.403 33.92C209.76 34.1067 210.04 34.3653 210.243 34.696C210.445 35.0267 210.547 35.4107 210.547 35.848C210.547 36.2747 210.445 36.656 210.243 36.992C210.04 37.3227 209.76 37.584 209.403 37.776C209.045 37.968 208.64 38.064 208.187 38.064ZM208.187 37.04C208.395 37.04 208.581 36.992 208.747 36.896C208.912 36.8 209.043 36.664 209.139 36.488C209.235 36.3067 209.283 36.0933 209.283 35.848C209.283 35.5973 209.235 35.384 209.139 35.208C209.043 35.032 208.912 34.896 208.747 34.8C208.581 34.704 208.395 34.656 208.187 34.656C207.979 34.656 207.792 34.704 207.627 34.8C207.461 34.896 207.328 35.032 207.227 35.208C207.131 35.384 207.083 35.5973 207.083 35.848C207.083 36.0933 207.131 36.3067 207.227 36.488C207.328 36.664 207.461 36.8 207.627 36.896C207.792 36.992 207.979 37.04 208.187 37.04ZM211.381 38V33.696H212.573V34.912L212.405 34.56C212.533 34.256 212.738 34.0267 213.021 33.872C213.303 33.712 213.647 33.632 214.053 33.632V34.784C213.999 34.7787 213.951 34.776 213.909 34.776C213.866 34.7707 213.821 34.768 213.773 34.768C213.431 34.768 213.154 34.8667 212.941 35.064C212.733 35.256 212.629 35.5573 212.629 35.968V38H211.381ZM216.892 38.064C216.401 38.064 215.969 37.968 215.596 37.776C215.228 37.584 214.942 37.3227 214.74 36.992C214.537 36.656 214.436 36.2747 214.436 35.848C214.436 35.416 214.534 35.0347 214.732 34.704C214.934 34.368 215.209 34.1067 215.556 33.92C215.902 33.728 216.294 33.632 216.732 33.632C217.153 33.632 217.532 33.7227 217.868 33.904C218.209 34.08 218.478 34.336 218.676 34.672C218.873 35.0027 218.972 35.4 218.972 35.864C218.972 35.912 218.969 35.968 218.964 36.032C218.958 36.0907 218.953 36.1467 218.948 36.2H215.452V35.472H218.292L217.812 35.688C217.812 35.464 217.766 35.2693 217.676 35.104C217.585 34.9387 217.46 34.8107 217.3 34.72C217.14 34.624 216.953 34.576 216.74 34.576C216.526 34.576 216.337 34.624 216.172 34.72C216.012 34.8107 215.886 34.9413 215.796 35.112C215.705 35.2773 215.66 35.4747 215.66 35.704V35.896C215.66 36.1307 215.71 36.3387 215.812 36.52C215.918 36.696 216.065 36.832 216.252 36.928C216.444 37.0187 216.668 37.064 216.924 37.064C217.153 37.064 217.353 37.0293 217.524 36.96C217.7 36.8907 217.86 36.7867 218.004 36.648L218.668 37.368C218.47 37.592 218.222 37.7653 217.924 37.888C217.625 38.0053 217.281 38.064 216.892 38.064Z" fill="white"/>
<path d="M98.16 10.14C97.5867 10.14 97.0333 10.07 96.5 9.93C95.9733 9.78333 95.5433 9.59667 95.21 9.37L95.86 7.91C96.1733 8.11 96.5333 8.27667 96.94 8.41C97.3533 8.53667 97.7633 8.6 98.17 8.6C98.4433 8.6 98.6633 8.57667 98.83 8.53C98.9967 8.47667 99.1167 8.41 99.19 8.33C99.27 8.24333 99.31 8.14333 99.31 8.03C99.31 7.87 99.2367 7.74333 99.09 7.65C98.9433 7.55667 98.7533 7.48 98.52 7.42C98.2867 7.36 98.0267 7.3 97.74 7.24C97.46 7.18 97.1767 7.10333 96.89 7.01C96.61 6.91667 96.3533 6.79667 96.12 6.65C95.8867 6.49667 95.6967 6.3 95.55 6.06C95.4033 5.81333 95.33 5.50333 95.33 5.13C95.33 4.71 95.4433 4.33 95.67 3.99C95.9033 3.65 96.25 3.37667 96.71 3.17C97.17 2.96333 97.7433 2.86 98.43 2.86C98.89 2.86 99.34 2.91333 99.78 3.02C100.227 3.12 100.623 3.27 100.97 3.47L100.36 4.94C100.027 4.76 99.6967 4.62667 99.37 4.54C99.0433 4.44667 98.7267 4.4 98.42 4.4C98.1467 4.4 97.9267 4.43 97.76 4.49C97.5933 4.54333 97.4733 4.61667 97.4 4.71C97.3267 4.80333 97.29 4.91 97.29 5.03C97.29 5.18333 97.36 5.30667 97.5 5.4C97.6467 5.48667 97.8367 5.56 98.07 5.62C98.31 5.67333 98.57 5.73 98.85 5.79C99.1367 5.85 99.42 5.92667 99.7 6.02C99.9867 6.10667 100.247 6.22667 100.48 6.38C100.713 6.52667 100.9 6.72333 101.04 6.97C101.187 7.21 101.26 7.51333 101.26 7.88C101.26 8.28667 101.143 8.66333 100.91 9.01C100.683 9.35 100.34 9.62333 99.88 9.83C99.4267 10.0367 98.8533 10.14 98.16 10.14ZM101.335 10L104.425 3H106.375L109.475 10H107.415L104.995 3.97H105.775L103.355 10H101.335ZM103.025 8.64L103.535 7.18H106.955L107.465 8.64H103.025ZM110.036 10V3H112.016V8.43H115.356V10H110.036ZM117.959 5.71H121.209V7.19H117.959V5.71ZM118.099 8.47H121.759V10H116.139V3H121.629V4.53H118.099V8.47ZM125.318 10.14C124.745 10.14 124.192 10.07 123.658 9.93C123.132 9.78333 122.702 9.59667 122.368 9.37L123.018 7.91C123.332 8.11 123.692 8.27667 124.098 8.41C124.512 8.53667 124.922 8.6 125.328 8.6C125.602 8.6 125.822 8.57667 125.988 8.53C126.155 8.47667 126.275 8.41 126.348 8.33C126.428 8.24333 126.468 8.14333 126.468 8.03C126.468 7.87 126.395 7.74333 126.248 7.65C126.102 7.55667 125.912 7.48 125.678 7.42C125.445 7.36 125.185 7.3 124.898 7.24C124.618 7.18 124.335 7.10333 124.048 7.01C123.768 6.91667 123.512 6.79667 123.278 6.65C123.045 6.49667 122.855 6.3 122.708 6.06C122.562 5.81333 122.488 5.50333 122.488 5.13C122.488 4.71 122.602 4.33 122.828 3.99C123.062 3.65 123.408 3.37667 123.868 3.17C124.328 2.96333 124.902 2.86 125.588 2.86C126.048 2.86 126.498 2.91333 126.938 3.02C127.385 3.12 127.782 3.27 128.128 3.47L127.518 4.94C127.185 4.76 126.855 4.62667 126.528 4.54C126.202 4.44667 125.885 4.4 125.578 4.4C125.305 4.4 125.085 4.43 124.918 4.49C124.752 4.54333 124.632 4.61667 124.558 4.71C124.485 4.80333 124.448 4.91 124.448 5.03C124.448 5.18333 124.518 5.30667 124.658 5.4C124.805 5.48667 124.995 5.56 125.228 5.62C125.468 5.67333 125.728 5.73 126.008 5.79C126.295 5.85 126.578 5.92667 126.858 6.02C127.145 6.10667 127.405 6.22667 127.638 6.38C127.872 6.52667 128.058 6.72333 128.198 6.97C128.345 7.21 128.418 7.51333 128.418 7.88C128.418 8.28667 128.302 8.66333 128.068 9.01C127.842 9.35 127.498 9.62333 127.038 9.83C126.585 10.0367 126.012 10.14 125.318 10.14ZM135.773 10.14C135.213 10.14 134.696 10.05 134.223 9.87C133.75 9.69 133.336 9.43667 132.983 9.11C132.636 8.77667 132.366 8.39 132.173 7.95C131.98 7.51 131.883 7.02667 131.883 6.5C131.883 5.97333 131.98 5.49 132.173 5.05C132.366 4.61 132.636 4.22667 132.983 3.9C133.336 3.56667 133.75 3.31 134.223 3.13C134.696 2.95 135.213 2.86 135.773 2.86C136.34 2.86 136.856 2.95 137.323 3.13C137.796 3.31 138.206 3.56667 138.553 3.9C138.9 4.22667 139.17 4.61 139.363 5.05C139.563 5.49 139.663 5.97333 139.663 6.5C139.663 7.02667 139.563 7.51333 139.363 7.96C139.17 8.4 138.9 8.78333 138.553 9.11C138.206 9.43667 137.796 9.69 137.323 9.87C136.856 10.05 136.34 10.14 135.773 10.14ZM135.773 8.5C136.04 8.5 136.286 8.45333 136.513 8.36C136.746 8.26667 136.946 8.13333 137.113 7.96C137.286 7.78 137.42 7.56667 137.513 7.32C137.613 7.07333 137.663 6.8 137.663 6.5C137.663 6.19333 137.613 5.92 137.513 5.68C137.42 5.43333 137.286 5.22333 137.113 5.05C136.946 4.87 136.746 4.73333 136.513 4.64C136.286 4.54667 136.04 4.5 135.773 4.5C135.506 4.5 135.256 4.54667 135.023 4.64C134.796 4.73333 134.596 4.87 134.423 5.05C134.256 5.22333 134.123 5.43333 134.023 5.68C133.93 5.92 133.883 6.19333 133.883 6.5C133.883 6.8 133.93 7.07333 134.023 7.32C134.123 7.56667 134.256 7.78 134.423 7.96C134.596 8.13333 134.796 8.26667 135.023 8.36C135.256 8.45333 135.506 8.5 135.773 8.5ZM142.54 6.07H145.77V7.6H142.54V6.07ZM142.68 10H140.7V3H146.19V4.53H142.68V10ZM148.956 6.07H152.186V7.6H148.956V6.07ZM149.096 10H147.116V3H152.606V4.53H149.096V10ZM153.532 10V3H155.512V10H153.532ZM160.411 10.14C159.857 10.14 159.344 10.0533 158.871 9.88C158.404 9.7 157.997 9.44667 157.651 9.12C157.311 8.79333 157.044 8.41 156.851 7.97C156.657 7.52333 156.561 7.03333 156.561 6.5C156.561 5.96667 156.657 5.48 156.851 5.04C157.044 4.59333 157.311 4.20667 157.651 3.88C157.997 3.55333 158.404 3.30333 158.871 3.13C159.344 2.95 159.857 2.86 160.411 2.86C161.057 2.86 161.634 2.97333 162.141 3.2C162.654 3.42667 163.081 3.75333 163.421 4.18L162.161 5.32C161.934 5.05333 161.684 4.85 161.411 4.71C161.144 4.57 160.844 4.5 160.511 4.5C160.224 4.5 159.961 4.54667 159.721 4.64C159.481 4.73333 159.274 4.87 159.101 5.05C158.934 5.22333 158.801 5.43333 158.701 5.68C158.607 5.92667 158.561 6.2 158.561 6.5C158.561 6.8 158.607 7.07333 158.701 7.32C158.801 7.56667 158.934 7.78 159.101 7.96C159.274 8.13333 159.481 8.26667 159.721 8.36C159.961 8.45333 160.224 8.5 160.511 8.5C160.844 8.5 161.144 8.43 161.411 8.29C161.684 8.15 161.934 7.94667 162.161 7.68L163.421 8.82C163.081 9.24 162.654 9.56667 162.141 9.8C161.634 10.0267 161.057 10.14 160.411 10.14ZM166.124 5.71H169.374V7.19H166.124V5.71ZM166.264 8.47H169.924V10H164.304V3H169.794V4.53H166.264V8.47ZM173.482 10.14C172.909 10.14 172.356 10.07 171.822 9.93C171.296 9.78333 170.866 9.59667 170.532 9.37L171.182 7.91C171.496 8.11 171.856 8.27667 172.262 8.41C172.676 8.53667 173.086 8.6 173.492 8.6C173.766 8.6 173.986 8.57667 174.152 8.53C174.319 8.47667 174.439 8.41 174.512 8.33C174.592 8.24333 174.632 8.14333 174.632 8.03C174.632 7.87 174.559 7.74333 174.412 7.65C174.266 7.55667 174.076 7.48 173.842 7.42C173.609 7.36 173.349 7.3 173.062 7.24C172.782 7.18 172.499 7.10333 172.212 7.01C171.932 6.91667 171.676 6.79667 171.442 6.65C171.209 6.49667 171.019 6.3 170.872 6.06C170.726 5.81333 170.652 5.50333 170.652 5.13C170.652 4.71 170.766 4.33 170.992 3.99C171.226 3.65 171.572 3.37667 172.032 3.17C172.492 2.96333 173.066 2.86 173.752 2.86C174.212 2.86 174.662 2.91333 175.102 3.02C175.549 3.12 175.946 3.27 176.292 3.47L175.682 4.94C175.349 4.76 175.019 4.62667 174.692 4.54C174.366 4.44667 174.049 4.4 173.742 4.4C173.469 4.4 173.249 4.43 173.082 4.49C172.916 4.54333 172.796 4.61667 172.722 4.71C172.649 4.80333 172.612 4.91 172.612 5.03C172.612 5.18333 172.682 5.30667 172.822 5.4C172.969 5.48667 173.159 5.56 173.392 5.62C173.632 5.67333 173.892 5.73 174.172 5.79C174.459 5.85 174.742 5.92667 175.022 6.02C175.309 6.10667 175.569 6.22667 175.802 6.38C176.036 6.52667 176.222 6.72333 176.362 6.97C176.509 7.21 176.582 7.51333 176.582 7.88C176.582 8.28667 176.466 8.66333 176.232 9.01C176.006 9.35 175.662 9.62333 175.202 9.83C174.749 10.0367 174.176 10.14 173.482 10.14Z" fill="white"/>
</svg>
