<svg width="230" height="11" viewBox="0 0 230 11" fill="none" xmlns="http://www.w3.org/2000/svg">
<path d="M2.63966 8.20801C2.14366 8.20801 1.67966 8.17201 1.24766 8.10001C0.823664 8.02801 0.455664 7.92401 0.143664 7.78801V6.36001C0.495664 6.50401 0.875664 6.62001 1.28366 6.70801C1.69166 6.79601 2.09166 6.84001 2.48366 6.84001C3.04366 6.84001 3.45566 6.78801 3.71966 6.68401C3.98366 6.58001 4.11566 6.34401 4.11566 5.97601C4.11566 5.74401 4.05966 5.56001 3.94766 5.42401C3.83566 5.28801 3.63966 5.16801 3.35966 5.06401C3.08766 4.95201 2.69966 4.82801 2.19566 4.69201C1.38766 4.46801 0.819664 4.18801 0.491664 3.85201C0.163664 3.51601 -0.000335932 3.05201 -0.000335932 2.46001C-0.000335932 1.74801 0.259664 1.20001 0.779664 0.816013C1.29966 0.432012 2.05566 0.240012 3.04766 0.240012C3.51166 0.240012 3.94366 0.272012 4.34366 0.336012C4.74366 0.400012 5.06766 0.476012 5.31566 0.564012V1.99201C4.65966 1.74401 3.97566 1.62001 3.26366 1.62001C2.75966 1.62001 2.36366 1.67601 2.07566 1.78801C1.78766 1.89201 1.64366 2.11601 1.64366 2.46001C1.64366 2.66001 1.69566 2.82001 1.79966 2.94001C1.90366 3.06001 2.07966 3.16801 2.32766 3.26401C2.58366 3.36001 2.93966 3.46801 3.39566 3.58801C4.02766 3.75601 4.51566 3.95601 4.85966 4.18801C5.20366 4.42001 5.43966 4.68401 5.56766 4.98001C5.70366 5.27601 5.77166 5.60801 5.77166 5.97601C5.77166 6.64801 5.51566 7.18801 5.00366 7.59601C4.49166 8.00401 3.70366 8.20801 2.63966 8.20801ZM9.73991 8.20801C8.67591 8.20801 7.89591 7.95201 7.39991 7.44001C6.90391 6.92001 6.65591 6.18801 6.65591 5.24401C6.65591 4.30001 6.90391 3.57201 7.39991 3.06001C7.90391 2.54001 8.68391 2.28001 9.73991 2.28001C10.8039 2.28001 11.5839 2.54001 12.0799 3.06001C12.5839 3.57201 12.8359 4.30001 12.8359 5.24401C12.8359 6.18801 12.5879 6.92001 12.0919 7.44001C11.5959 7.95201 10.8119 8.20801 9.73991 8.20801ZM9.73991 6.82801C10.2599 6.82801 10.6319 6.71201 10.8559 6.48001C11.0799 6.24001 11.1919 5.82801 11.1919 5.24401C11.1919 4.66001 11.0799 4.25201 10.8559 4.02001C10.6319 3.78001 10.2599 3.66001 9.73991 3.66001C9.22791 3.66001 8.85991 3.78001 8.63591 4.02001C8.41191 4.25201 8.29991 4.66001 8.29991 5.24401C8.29991 5.82801 8.41191 6.24001 8.63591 6.48001C8.85991 6.71201 9.22791 6.82801 9.73991 6.82801ZM15.5463 8.20801C14.9943 8.20801 14.5903 8.08001 14.3343 7.82401C14.0863 7.56801 13.9623 7.16001 13.9623 6.60001V1.23978e-05H15.5823V6.46801C15.5823 6.66801 15.6223 6.80801 15.7023 6.88801C15.7823 6.96001 15.8983 6.99601 16.0503 6.99601C16.2583 6.99601 16.4463 6.96801 16.6143 6.91201V8.02801C16.3103 8.14801 15.9543 8.20801 15.5463 8.20801ZM19.3319 8.20801C18.6519 8.20801 18.1199 8.02001 17.7359 7.64401C17.3599 7.26001 17.1719 6.70001 17.1719 5.96401V2.40001H18.7919V5.92801C18.7919 6.31201 18.8839 6.59201 19.0679 6.76801C19.2519 6.93601 19.5279 7.02001 19.8959 7.02001C20.1759 7.02001 20.4319 6.96401 20.6639 6.85201C20.9039 6.74001 21.1079 6.60001 21.2759 6.43201V2.40001H22.8959V8.08801H21.3959L21.3359 7.54801C21.0959 7.74001 20.8119 7.90001 20.4839 8.02801C20.1639 8.14801 19.7799 8.20801 19.3319 8.20801ZM26.5308 8.20801C25.8748 8.20801 25.3868 8.03601 25.0668 7.69201C24.7548 7.34801 24.5988 6.88001 24.5988 6.28801V3.64801H23.7948V2.40001H24.5988V1.17601L26.2188 0.696012V2.40001H27.6588L27.5628 3.64801H26.2188V6.18001C26.2188 6.49201 26.2908 6.70801 26.4348 6.82801C26.5788 6.94001 26.8028 6.99601 27.1068 6.99601C27.3308 6.99601 27.5628 6.95601 27.8028 6.87601V7.99201C27.6268 8.06401 27.4348 8.11601 27.2268 8.14801C27.0188 8.18801 26.7868 8.20801 26.5308 8.20801ZM29.0302 1.35601V0.084012H30.7942V1.35601H29.0302ZM29.1622 8.08801V3.60001H28.3102L28.4542 2.40001H30.7822V8.08801H29.1622ZM35.0055 8.20801C33.9415 8.20801 33.1615 7.95201 32.6655 7.44001C32.1695 6.92001 31.9215 6.18801 31.9215 5.24401C31.9215 4.30001 32.1695 3.57201 32.6655 3.06001C33.1695 2.54001 33.9495 2.28001 35.0055 2.28001C36.0695 2.28001 36.8495 2.54001 37.3455 3.06001C37.8495 3.57201 38.1015 4.30001 38.1015 5.24401C38.1015 6.18801 37.8535 6.92001 37.3575 7.44001C36.8615 7.95201 36.0775 8.20801 35.0055 8.20801ZM35.0055 6.82801C35.5255 6.82801 35.8975 6.71201 36.1215 6.48001C36.3455 6.24001 36.4575 5.82801 36.4575 5.24401C36.4575 4.66001 36.3455 4.25201 36.1215 4.02001C35.8975 3.78001 35.5255 3.66001 35.0055 3.66001C34.4935 3.66001 34.1255 3.78001 33.9015 4.02001C33.6775 4.25201 33.5655 4.66001 33.5655 5.24401C33.5655 5.82801 33.6775 6.24001 33.9015 6.48001C34.1255 6.71201 34.4935 6.82801 35.0055 6.82801ZM39.2279 8.08801V2.40001H40.7279L40.7879 2.94001C41.0199 2.76401 41.3119 2.61201 41.6639 2.48401C42.0239 2.34801 42.3999 2.28001 42.7919 2.28001C43.5439 2.28001 44.0919 2.45601 44.4359 2.80801C44.7799 3.16001 44.9519 3.70401 44.9519 4.44001V8.08801H43.3319V4.52401C43.3319 4.14001 43.2519 3.86801 43.0919 3.70801C42.9399 3.54801 42.6519 3.46801 42.2279 3.46801C41.9799 3.46801 41.7279 3.52401 41.4719 3.63601C41.2239 3.74801 41.0159 3.88801 40.8479 4.05601V8.08801H39.2279ZM48.9076 8.08801V0.360012H52.5316C53.1396 0.360012 53.6356 0.476012 54.0196 0.708013C54.4116 0.940012 54.7036 1.25601 54.8956 1.65601C55.0876 2.05601 55.1836 2.51201 55.1836 3.02401C55.1836 3.54401 55.0716 4.00401 54.8476 4.40401C54.6316 4.80401 54.3196 5.11601 53.9116 5.34001C53.5116 5.55601 53.0356 5.66401 52.4836 5.66401H50.5276V8.08801H48.9076ZM50.5276 4.38001H52.1476C52.6116 4.38001 52.9596 4.26001 53.1916 4.02001C53.4316 3.77201 53.5516 3.44001 53.5516 3.02401C53.5516 2.57601 53.4396 2.23601 53.2156 2.00401C52.9916 1.76401 52.6556 1.64401 52.2076 1.64401H50.5276V4.38001ZM56.0795 8.08801V2.40001H57.5795L57.6515 2.98801C57.9075 2.82801 58.2235 2.68401 58.5995 2.55601C58.9835 2.42001 59.3595 2.32801 59.7275 2.28001V3.50401C59.5115 3.53601 59.2755 3.58401 59.0195 3.64801C58.7635 3.71201 58.5195 3.78401 58.2875 3.86401C58.0555 3.94401 57.8595 4.02801 57.6995 4.11601V8.08801H56.0795ZM63.1657 8.20801C62.1017 8.20801 61.3217 7.95201 60.8257 7.44001C60.3297 6.92001 60.0817 6.18801 60.0817 5.24401C60.0817 4.30001 60.3297 3.57201 60.8257 3.06001C61.3297 2.54001 62.1097 2.28001 63.1657 2.28001C64.2297 2.28001 65.0097 2.54001 65.5057 3.06001C66.0097 3.57201 66.2617 4.30001 66.2617 5.24401C66.2617 6.18801 66.0137 6.92001 65.5177 7.44001C65.0217 7.95201 64.2377 8.20801 63.1657 8.20801ZM63.1657 6.82801C63.6857 6.82801 64.0577 6.71201 64.2817 6.48001C64.5057 6.24001 64.6177 5.82801 64.6177 5.24401C64.6177 4.66001 64.5057 4.25201 64.2817 4.02001C64.0577 3.78001 63.6857 3.66001 63.1657 3.66001C62.6537 3.66001 62.2857 3.78001 62.0617 4.02001C61.8377 4.25201 61.7257 4.66001 61.7257 5.24401C61.7257 5.82801 61.8377 6.24001 62.0617 6.48001C62.2857 6.71201 62.6537 6.82801 63.1657 6.82801ZM68.7359 8.08801L66.4919 2.40001H68.1839L69.5999 6.45601L71.0279 2.40001H72.7079L70.4759 8.08801H68.7359ZM73.8193 1.35601V0.084012H75.5833V1.35601H73.8193ZM73.9513 8.08801V3.60001H73.0993L73.2433 2.40001H75.5713V8.08801H73.9513ZM79.3266 8.20801C78.8226 8.20801 78.3706 8.12001 77.9706 7.94401C77.5786 7.76001 77.2706 7.46401 77.0466 7.05601C76.8226 6.64001 76.7106 6.09201 76.7106 5.41201C76.7106 4.73201 76.8346 4.16001 77.0826 3.69601C77.3306 3.23201 77.6626 2.88001 78.0786 2.64001C78.4946 2.40001 78.9506 2.28001 79.4466 2.28001C80.0706 2.28001 80.6026 2.42401 81.0426 2.71201V1.23978e-05H82.6626V8.08801H81.2706L81.1746 7.56001C80.9266 7.77601 80.6546 7.94001 80.3586 8.05201C80.0706 8.15601 79.7266 8.20801 79.3266 8.20801ZM79.7706 7.02001C80.2746 7.02001 80.6986 6.84801 81.0426 6.50401V3.91201C80.7066 3.61601 80.3146 3.46801 79.8666 3.46801C78.8586 3.46801 78.3546 4.11601 78.3546 5.41201C78.3546 6.02001 78.4786 6.44001 78.7266 6.67201C78.9746 6.90401 79.3226 7.02001 79.7706 7.02001ZM86.8755 8.20801C85.8915 8.20801 85.1115 7.96401 84.5355 7.47601C83.9595 6.98001 83.6715 6.23201 83.6715 5.23201C83.6715 4.32801 83.9115 3.61201 84.3915 3.08401C84.8795 2.54801 85.6035 2.28001 86.5635 2.28001C87.4435 2.28001 88.1155 2.51201 88.5795 2.97601C89.0515 3.43201 89.2875 4.03201 89.2875 4.77601V5.80801H85.1715C85.2595 6.26401 85.4675 6.57601 85.7955 6.74401C86.1315 6.91201 86.6035 6.99601 87.2115 6.99601C87.5155 6.99601 87.8235 6.96801 88.1355 6.91201C88.4555 6.85601 88.7275 6.78401 88.9515 6.69601V7.84801C88.6875 7.96801 88.3795 8.05601 88.0275 8.11201C87.6755 8.17601 87.2915 8.20801 86.8755 8.20801ZM85.1715 4.81201H87.8715V4.50001C87.8715 4.17201 87.7755 3.91601 87.5835 3.73201C87.3915 3.54001 87.0675 3.44401 86.6115 3.44401C86.0755 3.44401 85.6995 3.55201 85.4835 3.76801C85.2755 3.98401 85.1715 4.33201 85.1715 4.81201ZM90.4154 8.08801V2.40001H91.9154L91.9874 2.98801C92.2434 2.82801 92.5594 2.68401 92.9354 2.55601C93.3194 2.42001 93.6954 2.32801 94.0634 2.28001V3.50401C93.8474 3.53601 93.6114 3.58401 93.3554 3.64801C93.0994 3.71201 92.8554 3.78401 92.6234 3.86401C92.3914 3.94401 92.1954 4.02801 92.0354 4.11601V8.08801H90.4154ZM97.5287 8.08801V0.360012H102.965V1.62001H99.1487V3.60001H102.521V4.84801H99.1487V8.08801H97.5287ZM106.338 8.20801C105.274 8.20801 104.494 7.95201 103.998 7.44001C103.502 6.92001 103.254 6.18801 103.254 5.24401C103.254 4.30001 103.502 3.57201 103.998 3.06001C104.502 2.54001 105.282 2.28001 106.338 2.28001C107.402 2.28001 108.182 2.54001 108.678 3.06001C109.182 3.57201 109.434 4.30001 109.434 5.24401C109.434 6.18801 109.186 6.92001 108.69 7.44001C108.194 7.95201 107.41 8.20801 106.338 8.20801ZM106.338 6.82801C106.858 6.82801 107.23 6.71201 107.454 6.48001C107.678 6.24001 107.79 5.82801 107.79 5.24401C107.79 4.66001 107.678 4.25201 107.454 4.02001C107.23 3.78001 106.858 3.66001 106.338 3.66001C105.826 3.66001 105.458 3.78001 105.234 4.02001C105.01 4.25201 104.898 4.66001 104.898 5.24401C104.898 5.82801 105.01 6.24001 105.234 6.48001C105.458 6.71201 105.826 6.82801 106.338 6.82801ZM110.56 8.08801V2.40001H112.06L112.132 2.98801C112.388 2.82801 112.704 2.68401 113.08 2.55601C113.464 2.42001 113.84 2.32801 114.208 2.28001V3.50401C113.992 3.53601 113.756 3.58401 113.5 3.64801C113.244 3.71201 113 3.78401 112.768 3.86401C112.536 3.94401 112.34 4.02801 112.18 4.11601V8.08801H110.56ZM117.673 8.08801V0.360012H121.585C122.361 0.360012 122.937 0.544012 123.313 0.912012C123.697 1.27201 123.889 1.78401 123.889 2.44801C123.889 2.86401 123.809 3.21201 123.649 3.49201C123.489 3.76401 123.273 3.97601 123.001 4.12801C123.361 4.24001 123.645 4.42801 123.853 4.69201C124.069 4.94801 124.177 5.32801 124.177 5.83201C124.177 6.57601 123.965 7.14001 123.541 7.52401C123.125 7.90001 122.521 8.08801 121.729 8.08801H117.673ZM119.293 3.56401H121.285C121.677 3.56401 121.957 3.48001 122.125 3.31201C122.293 3.13601 122.377 2.89201 122.377 2.58001C122.377 2.23601 122.289 1.98001 122.113 1.81201C121.945 1.64401 121.629 1.56001 121.165 1.56001H119.293V3.56401ZM119.293 6.90001H121.345C121.753 6.90001 122.053 6.81601 122.245 6.64801C122.437 6.48001 122.533 6.18401 122.533 5.76001C122.533 5.41601 122.437 5.16001 122.245 4.99201C122.061 4.82401 121.725 4.74001 121.237 4.74001H119.293V6.90001ZM127.402 8.20801C126.722 8.20801 126.19 8.02001 125.806 7.64401C125.43 7.26001 125.242 6.70001 125.242 5.96401V2.40001H126.862V5.92801C126.862 6.31201 126.954 6.59201 127.138 6.76801C127.322 6.93601 127.598 7.02001 127.966 7.02001C128.246 7.02001 128.502 6.96401 128.734 6.85201C128.974 6.74001 129.178 6.60001 129.346 6.43201V2.40001H130.966V8.08801H129.466L129.406 7.54801C129.166 7.74001 128.882 7.90001 128.554 8.02801C128.234 8.14801 127.85 8.20801 127.402 8.20801ZM133.929 8.20801C133.377 8.20801 132.973 8.08001 132.717 7.82401C132.469 7.56801 132.345 7.16001 132.345 6.60001V1.23978e-05H133.965V6.46801C133.965 6.66801 134.005 6.80801 134.085 6.88801C134.165 6.96001 134.281 6.99601 134.433 6.99601C134.641 6.99601 134.829 6.96801 134.997 6.91201V8.02801C134.693 8.14801 134.337 8.20801 133.929 8.20801ZM135.919 8.08801V1.23978e-05H137.539V4.45201L139.663 2.40001H141.511L139.219 4.72801L141.643 8.08801H139.927L138.199 5.58001L137.539 6.21601V8.08801H135.919ZM147.73 8.20801C147.234 8.20801 146.77 8.17201 146.338 8.10001C145.914 8.02801 145.546 7.92401 145.234 7.78801V6.36001C145.586 6.50401 145.966 6.62001 146.374 6.70801C146.782 6.79601 147.182 6.84001 147.574 6.84001C148.134 6.84001 148.546 6.78801 148.81 6.68401C149.074 6.58001 149.206 6.34401 149.206 5.97601C149.206 5.74401 149.15 5.56001 149.038 5.42401C148.926 5.28801 148.73 5.16801 148.45 5.06401C148.178 4.95201 147.79 4.82801 147.286 4.69201C146.478 4.46801 145.91 4.18801 145.582 3.85201C145.254 3.51601 145.09 3.05201 145.09 2.46001C145.09 1.74801 145.35 1.20001 145.87 0.816013C146.39 0.432012 147.146 0.240012 148.138 0.240012C148.602 0.240012 149.034 0.272012 149.434 0.336012C149.834 0.400012 150.158 0.476012 150.406 0.564012V1.99201C149.75 1.74401 149.066 1.62001 148.354 1.62001C147.85 1.62001 147.454 1.67601 147.166 1.78801C146.878 1.89201 146.734 2.11601 146.734 2.46001C146.734 2.66001 146.786 2.82001 146.89 2.94001C146.994 3.06001 147.17 3.16801 147.418 3.26401C147.674 3.36001 148.03 3.46801 148.486 3.58801C149.118 3.75601 149.606 3.95601 149.95 4.18801C150.294 4.42001 150.53 4.68401 150.658 4.98001C150.794 5.27601 150.862 5.60801 150.862 5.97601C150.862 6.64801 150.606 7.18801 150.094 7.59601C149.582 8.00401 148.794 8.20801 147.73 8.20801ZM154.83 8.20801C153.766 8.20801 152.986 7.95201 152.49 7.44001C151.994 6.92001 151.746 6.18801 151.746 5.24401C151.746 4.30001 151.994 3.57201 152.49 3.06001C152.994 2.54001 153.774 2.28001 154.83 2.28001C155.894 2.28001 156.674 2.54001 157.17 3.06001C157.674 3.57201 157.926 4.30001 157.926 5.24401C157.926 6.18801 157.678 6.92001 157.182 7.44001C156.686 7.95201 155.902 8.20801 154.83 8.20801ZM154.83 6.82801C155.35 6.82801 155.722 6.71201 155.946 6.48001C156.17 6.24001 156.282 5.82801 156.282 5.24401C156.282 4.66001 156.17 4.25201 155.946 4.02001C155.722 3.78001 155.35 3.66001 154.83 3.66001C154.318 3.66001 153.95 3.78001 153.726 4.02001C153.502 4.25201 153.39 4.66001 153.39 5.24401C153.39 5.82801 153.502 6.24001 153.726 6.48001C153.95 6.71201 154.318 6.82801 154.83 6.82801ZM160.636 8.20801C160.084 8.20801 159.68 8.08001 159.424 7.82401C159.176 7.56801 159.052 7.16001 159.052 6.60001V1.23978e-05H160.672V6.46801C160.672 6.66801 160.712 6.80801 160.792 6.88801C160.872 6.96001 160.988 6.99601 161.14 6.99601C161.348 6.99601 161.536 6.96801 161.704 6.91201V8.02801C161.4 8.14801 161.044 8.20801 160.636 8.20801ZM162.601 1.35601V0.084012H164.365V1.35601H162.601ZM162.733 8.08801V3.60001H161.881L162.025 2.40001H164.353V8.08801H162.733ZM168.108 8.20801C167.604 8.20801 167.152 8.12001 166.752 7.94401C166.36 7.76001 166.052 7.46401 165.828 7.05601C165.604 6.64001 165.492 6.09201 165.492 5.41201C165.492 4.73201 165.616 4.16001 165.864 3.69601C166.112 3.23201 166.444 2.88001 166.86 2.64001C167.276 2.40001 167.732 2.28001 168.228 2.28001C168.852 2.28001 169.384 2.42401 169.824 2.71201V1.23978e-05H171.444V8.08801H170.052L169.956 7.56001C169.708 7.77601 169.436 7.94001 169.14 8.05201C168.852 8.15601 168.508 8.20801 168.108 8.20801ZM168.552 7.02001C169.056 7.02001 169.48 6.84801 169.824 6.50401V3.91201C169.488 3.61601 169.096 3.46801 168.648 3.46801C167.64 3.46801 167.136 4.11601 167.136 5.41201C167.136 6.02001 167.26 6.44001 167.508 6.67201C167.756 6.90401 168.104 7.02001 168.552 7.02001ZM174.814 8.20801C174.39 8.20801 173.986 8.17601 173.602 8.11201C173.218 8.05601 172.91 7.98401 172.678 7.89601V6.55201C172.958 6.66401 173.274 6.75201 173.626 6.81601C173.978 6.87201 174.302 6.90001 174.598 6.90001C174.998 6.90001 175.278 6.87601 175.438 6.82801C175.606 6.78001 175.69 6.67201 175.69 6.50401C175.69 6.31201 175.562 6.17201 175.306 6.08401C175.058 5.99601 174.686 5.87201 174.19 5.71201C173.67 5.53601 173.27 5.32401 172.99 5.07601C172.71 4.82801 172.57 4.46001 172.57 3.97201C172.57 3.42801 172.766 3.01201 173.158 2.72401C173.558 2.42801 174.198 2.28001 175.078 2.28001C175.43 2.28001 175.762 2.30801 176.074 2.36401C176.386 2.41201 176.65 2.47201 176.866 2.54401V3.87601C176.65 3.77201 176.402 3.69601 176.122 3.64801C175.842 3.59201 175.582 3.56401 175.342 3.56401C174.998 3.56401 174.722 3.58801 174.514 3.63601C174.314 3.68401 174.214 3.78801 174.214 3.94801C174.214 4.12401 174.322 4.24801 174.538 4.32001C174.762 4.39201 175.106 4.50001 175.57 4.64401C176.026 4.78001 176.382 4.92801 176.638 5.08801C176.894 5.24801 177.074 5.44001 177.178 5.66401C177.282 5.88001 177.334 6.15201 177.334 6.48001C177.334 7.63201 176.494 8.20801 174.814 8.20801ZM181.095 8.08801V0.360012H182.715V3.60001H186.087V0.360012H187.707V8.08801H186.087V4.84801H182.715V8.08801H181.095ZM190.864 8.20801C190.504 8.20801 190.168 8.14401 189.856 8.01601C189.552 7.88001 189.304 7.68401 189.112 7.42801C188.928 7.16401 188.836 6.83601 188.836 6.44401C188.836 5.88401 189.032 5.43601 189.424 5.10001C189.824 4.76401 190.412 4.59601 191.188 4.59601H192.868V4.44001C192.868 4.08801 192.768 3.84001 192.568 3.69601C192.376 3.55201 191.984 3.48001 191.392 3.48001C190.744 3.48001 190.12 3.58001 189.52 3.78001V2.64001C189.784 2.53601 190.104 2.45201 190.48 2.38801C190.864 2.31601 191.28 2.28001 191.728 2.28001C192.584 2.28001 193.244 2.45601 193.708 2.80801C194.18 3.15201 194.416 3.70801 194.416 4.47601V8.08801H193.012L192.928 7.57201C192.704 7.77201 192.428 7.92801 192.1 8.04001C191.772 8.15201 191.36 8.20801 190.864 8.20801ZM191.308 7.14001C191.668 7.14001 191.98 7.08001 192.244 6.96001C192.508 6.84001 192.716 6.68801 192.868 6.50401V5.60401H191.224C190.592 5.60401 190.276 5.86401 190.276 6.38401C190.276 6.88801 190.62 7.14001 191.308 7.14001ZM195.72 8.08801V2.40001H197.22L197.28 2.94001C197.512 2.76401 197.804 2.61201 198.156 2.48401C198.516 2.34801 198.892 2.28001 199.284 2.28001C200.036 2.28001 200.584 2.45601 200.928 2.80801C201.272 3.16001 201.444 3.70401 201.444 4.44001V8.08801H199.824V4.52401C199.824 4.14001 199.744 3.86801 199.584 3.70801C199.432 3.54801 199.144 3.46801 198.72 3.46801C198.472 3.46801 198.22 3.52401 197.964 3.63601C197.716 3.74801 197.508 3.88801 197.34 4.05601V8.08801H195.72ZM204.952 8.20801C204.448 8.20801 203.996 8.12001 203.596 7.94401C203.204 7.76001 202.896 7.46401 202.672 7.05601C202.448 6.64001 202.336 6.09201 202.336 5.41201C202.336 4.73201 202.46 4.16001 202.708 3.69601C202.956 3.23201 203.288 2.88001 203.704 2.64001C204.12 2.40001 204.576 2.28001 205.072 2.28001C205.696 2.28001 206.228 2.42401 206.668 2.71201V1.23978e-05H208.288V8.08801H206.896L206.8 7.56001C206.552 7.77601 206.28 7.94001 205.984 8.05201C205.696 8.15601 205.352 8.20801 204.952 8.20801ZM205.396 7.02001C205.9 7.02001 206.324 6.84801 206.668 6.50401V3.91201C206.332 3.61601 205.94 3.46801 205.492 3.46801C204.484 3.46801 203.98 4.11601 203.98 5.41201C203.98 6.02001 204.104 6.44001 204.352 6.67201C204.6 6.90401 204.948 7.02001 205.396 7.02001ZM211.238 8.20801C210.686 8.20801 210.282 8.08001 210.026 7.82401C209.778 7.56801 209.654 7.16001 209.654 6.60001V1.23978e-05H211.274V6.46801C211.274 6.66801 211.314 6.80801 211.394 6.88801C211.474 6.96001 211.59 6.99601 211.742 6.99601C211.95 6.99601 212.138 6.96801 212.306 6.91201V8.02801C212.002 8.14801 211.646 8.20801 211.238 8.20801ZM213.202 1.35601V0.084012H214.966V1.35601H213.202ZM213.334 8.08801V3.60001H212.482L212.626 2.40001H214.954V8.08801H213.334ZM216.333 8.08801V2.40001H217.833L217.893 2.94001C218.125 2.76401 218.417 2.61201 218.769 2.48401C219.129 2.34801 219.505 2.28001 219.897 2.28001C220.649 2.28001 221.197 2.45601 221.541 2.80801C221.885 3.16001 222.057 3.70401 222.057 4.44001V8.08801H220.437V4.52401C220.437 4.14001 220.357 3.86801 220.197 3.70801C220.045 3.54801 219.757 3.46801 219.333 3.46801C219.085 3.46801 218.833 3.52401 218.577 3.63601C218.329 3.74801 218.121 3.88801 217.953 4.05601V8.08801H216.333ZM225.776 10.2C225.352 10.2 224.916 10.172 224.468 10.116C224.028 10.06 223.656 9.98001 223.352 9.87601V8.66401C223.672 8.76801 224.048 8.84801 224.48 8.90401C224.912 8.96801 225.316 9.00001 225.692 9.00001C226.244 9.00001 226.644 8.96801 226.892 8.90401C227.14 8.84801 227.264 8.74401 227.264 8.59201C227.264 8.46401 227.208 8.37601 227.096 8.32801C226.992 8.28001 226.768 8.25601 226.424 8.25601H224.876C223.86 8.25601 223.352 7.88001 223.352 7.12801C223.352 6.89601 223.416 6.68401 223.544 6.49201C223.672 6.30001 223.876 6.14801 224.156 6.03601C223.508 5.70801 223.184 5.15601 223.184 4.38001C223.184 3.64401 223.412 3.11201 223.868 2.78401C224.324 2.44801 225 2.28001 225.896 2.28001C226.08 2.28001 226.28 2.29601 226.496 2.32801C226.72 2.35201 226.888 2.37601 227 2.40001H229.136L229.1 3.42001H228.2C228.448 3.65201 228.572 3.97601 228.572 4.39201C228.572 4.97601 228.388 5.44401 228.02 5.79601C227.652 6.14001 227.108 6.31201 226.388 6.31201C226.26 6.31201 226.136 6.30801 226.016 6.30001C225.904 6.28401 225.788 6.26801 225.668 6.25201C225.428 6.28401 225.224 6.34001 225.056 6.42001C224.896 6.50001 224.816 6.60801 224.816 6.74401C224.816 6.92801 224.98 7.02001 225.308 7.02001H226.916C227.492 7.02001 227.936 7.15201 228.248 7.41601C228.56 7.67201 228.716 8.04801 228.716 8.54401C228.716 9.10401 228.464 9.52001 227.96 9.79201C227.456 10.064 226.728 10.2 225.776 10.2ZM225.908 5.40001C226.388 5.40001 226.72 5.32001 226.904 5.16001C227.096 4.99201 227.192 4.71201 227.192 4.32001C227.192 3.92801 227.096 3.64401 226.904 3.46801C226.72 3.29201 226.388 3.20401 225.908 3.20401C225.452 3.20401 225.124 3.29201 224.924 3.46801C224.724 3.63601 224.624 3.92001 224.624 4.32001C224.624 4.68801 224.716 4.96001 224.9 5.13601C225.092 5.31201 225.428 5.40001 225.908 5.40001Z" fill="#292929"/>
</svg>
