<svg width="20" height="20" viewBox="0 0 20 20" fill="none" xmlns="http://www.w3.org/2000/svg">
<circle cx="10" cy="10" r="9.5" stroke="#484E53"/>
<path d="M7.24 13.1C6.59333 13.1 6.06667 12.97 5.66 12.71C5.26 12.45 4.96667 12.0767 4.78 11.59C4.59333 11.1033 4.5 10.5267 4.5 9.86C4.5 9.14 4.58667 8.52667 4.76 8.02C4.93333 7.51333 5.22 7.12667 5.62 6.86C6.02 6.59333 6.56 6.46 7.24 6.46C7.91333 6.46 8.45 6.59333 8.85 6.86C9.25 7.12667 9.53667 7.51333 9.71 8.02C9.88333 8.52667 9.97 9.14 9.97 9.86C9.97 10.5267 9.87667 11.1033 9.69 11.59C9.51 12.0767 9.22 12.45 8.82 12.71C8.42 12.97 7.89333 13.1 7.24 13.1ZM7.24 12.4C7.71333 12.4 8.08667 12.2967 8.36 12.09C8.64 11.8767 8.84 11.58 8.96 11.2C9.08667 10.8133 9.15 10.3667 9.15 9.86C9.15 8.98667 9.01 8.32 8.73 7.86C8.45667 7.39333 7.96 7.16 7.24 7.16C6.76 7.16 6.38 7.26333 6.1 7.47C5.82 7.67667 5.62 7.98333 5.5 8.39C5.38 8.79 5.32 9.28 5.32 9.86C5.32 10.3667 5.38 10.8133 5.5 11.2C5.62667 11.58 5.83 11.8767 6.11 12.09C6.39667 12.2967 6.77333 12.4 7.24 12.4ZM13.3246 13.1C12.5579 13.1 11.9746 12.9067 11.5746 12.52C11.1746 12.1267 10.9746 11.5033 10.9746 10.65V9.13C10.9746 8.59667 11.0779 8.13 11.2846 7.73C11.4979 7.33 11.7979 7.02 12.1846 6.8C12.5779 6.57333 13.0413 6.46 13.5746 6.46C13.8879 6.46 14.1646 6.48 14.4046 6.52C14.6446 6.55333 14.8613 6.60333 15.0546 6.67V7.38C14.8613 7.30667 14.6446 7.25333 14.4046 7.22C14.1713 7.18 13.9079 7.16 13.6146 7.16C12.9679 7.16 12.4946 7.32667 12.1946 7.66C11.9013 7.98667 11.7546 8.42667 11.7546 8.98V9.47C12.0146 9.27667 12.3013 9.13667 12.6146 9.05C12.9346 8.95667 13.2246 8.91 13.4846 8.91C14.2179 8.91 14.7646 9.09 15.1246 9.45C15.4846 9.80333 15.6646 10.3167 15.6646 10.99C15.6646 11.6167 15.4713 12.1267 15.0846 12.52C14.7046 12.9067 14.1179 13.1 13.3246 13.1ZM13.3246 12.45C13.8579 12.45 14.2579 12.3233 14.5246 12.07C14.7913 11.81 14.9246 11.4567 14.9246 11.01C14.9246 10.7033 14.8813 10.4433 14.7946 10.23C14.7079 10.01 14.5546 9.84333 14.3346 9.73C14.1146 9.61 13.8079 9.55 13.4146 9.55C13.0879 9.55 12.7846 9.60333 12.5046 9.71C12.2246 9.81 11.9746 9.94 11.7546 10.1V10.88C11.7546 11.9267 12.2779 12.45 13.3246 12.45Z" fill="#3D3A3A"/>
</svg>
