<svg width="302" height="24" viewBox="0 0 302 24" fill="none" xmlns="http://www.w3.org/2000/svg">
<path d="M3.008 22.7839V0.383934H12C13.6213 0.383934 15.0827 0.650601 16.384 1.18394C17.7067 1.71727 18.8373 2.48527 19.776 3.48793C20.736 4.4906 21.4613 5.6746 21.952 7.03994C22.464 8.40527 22.72 9.91993 22.72 11.5839C22.72 13.2479 22.464 14.7733 21.952 16.1599C21.4613 17.5253 20.7467 18.7093 19.808 19.7119C18.8693 20.6933 17.7387 21.4506 16.416 21.9839C15.0933 22.5173 13.6213 22.7839 12 22.7839H3.008ZM7.168 19.5519L6.848 18.9439H11.84C12.8853 18.9439 13.8133 18.7733 14.624 18.4319C15.456 18.0906 16.16 17.5999 16.736 16.9599C17.312 16.3199 17.7493 15.5519 18.048 14.6559C18.3467 13.7386 18.496 12.7146 18.496 11.5839C18.496 10.4533 18.3467 9.43993 18.048 8.54393C17.7493 7.6266 17.3013 6.84793 16.704 6.20794C16.128 5.56793 15.4347 5.07727 14.624 4.73594C13.8133 4.3946 12.8853 4.22393 11.84 4.22393H6.752L7.168 3.67994V19.5519ZM26.086 22.7839V19.1039H29.766V4.06393H26.086V0.383934H37.606V4.06393H33.926V19.1039H37.606V22.7839H26.086ZM49.4103 22.7839L40.4503 0.383934H44.9943L49.9863 13.2159C50.2423 13.8773 50.4663 14.4746 50.6583 15.0079C50.8503 15.5199 51.0209 15.9893 51.1703 16.4159C51.3196 16.8426 51.4476 17.2586 51.5543 17.6639C51.6823 18.0693 51.8209 18.4959 51.9703 18.9439H51.0743C51.2236 18.3679 51.3836 17.8026 51.5543 17.2479C51.7249 16.6719 51.9169 16.0639 52.1303 15.4239C52.3649 14.7839 52.6423 14.0479 52.9623 13.2159L57.6343 0.383934H62.2103L53.1863 22.7839H49.4103ZM65.758 22.7839V0.383934H80.414V4.15993H69.854V19.0079H80.542V22.7839H65.758ZM67.678 13.1839V9.47194H78.782V13.1839H67.678ZM85.758 22.7839V0.383934H95.486C96.83 0.383934 98.0567 0.703934 99.166 1.34394C100.275 1.9626 101.15 2.81593 101.79 3.90393C102.451 4.9706 102.782 6.17593 102.782 7.51993C102.782 8.79993 102.451 9.98393 101.79 11.0719C101.15 12.1386 100.275 12.9919 99.166 13.6319C98.078 14.2506 96.8513 14.5599 95.486 14.5599H89.822V22.7839H85.758ZM98.75 22.7839L93.054 12.6719L97.342 11.8719L103.678 22.8159L98.75 22.7839ZM89.822 10.9439H95.518C96.1367 10.9439 96.67 10.8053 97.118 10.5279C97.5873 10.2293 97.95 9.82393 98.206 9.31193C98.462 8.79993 98.59 8.2346 98.59 7.61593C98.59 6.91193 98.43 6.30393 98.11 5.79193C97.79 5.27994 97.342 4.8746 96.766 4.57594C96.19 4.27727 95.5287 4.12794 94.782 4.12794H89.822V10.9439ZM111.926 22.7839V4.22393H105.526V0.383934H122.678V4.22393H116.086V22.7839H111.926ZM126.758 22.7839V0.383934H141.414V4.15993H130.854V19.0079H141.542V22.7839H126.758ZM128.678 13.1839V9.47194H139.782V13.1839H128.678ZM146.758 22.7839V0.383934H156.486C157.83 0.383934 159.057 0.703934 160.166 1.34394C161.275 1.9626 162.15 2.81593 162.79 3.90393C163.451 4.9706 163.782 6.17593 163.782 7.51993C163.782 8.79993 163.451 9.98393 162.79 11.0719C162.15 12.1386 161.275 12.9919 160.166 13.6319C159.078 14.2506 157.851 14.5599 156.486 14.5599H150.822V22.7839H146.758ZM159.75 22.7839L154.054 12.6719L158.342 11.8719L164.678 22.8159L159.75 22.7839ZM150.822 10.9439H156.518C157.137 10.9439 157.67 10.8053 158.118 10.5279C158.587 10.2293 158.95 9.82393 159.206 9.31193C159.462 8.79993 159.59 8.2346 159.59 7.61593C159.59 6.91193 159.43 6.30393 159.11 5.79193C158.79 5.27994 158.342 4.8746 157.766 4.57594C157.19 4.27727 156.529 4.12794 155.782 4.12794H150.822V10.9439ZM184.973 22.7839L176.013 0.383934H180.557L185.549 13.2159C185.805 13.8773 186.029 14.4746 186.221 15.0079C186.413 15.5199 186.583 15.9893 186.733 16.4159C186.882 16.8426 187.01 17.2586 187.117 17.6639C187.245 18.0693 187.383 18.4959 187.533 18.9439H186.637C186.786 18.3679 186.946 17.8026 187.117 17.2479C187.287 16.6719 187.479 16.0639 187.693 15.4239C187.927 14.7839 188.205 14.0479 188.525 13.2159L193.197 0.383934H197.773L188.749 22.7839H184.973ZM196.418 22.7839L205.154 0.383934H209.058L217.73 22.7839H213.41L208.61 10.0479C208.504 9.79193 208.354 9.3866 208.162 8.83193C207.992 8.27727 207.8 7.67994 207.586 7.03994C207.373 6.3786 207.181 5.7706 207.01 5.21593C206.84 4.63993 206.712 4.22393 206.626 3.96794L207.426 3.93593C207.298 4.3626 207.149 4.8426 206.978 5.37593C206.808 5.90927 206.626 6.46393 206.434 7.03994C206.242 7.61593 206.05 8.1706 205.858 8.70393C205.688 9.23727 205.528 9.71727 205.378 10.1439L200.578 22.7839H196.418ZM200.386 17.6639L201.826 14.0479H212.034L213.57 17.6639H200.386ZM221.258 22.7839V0.383934H225.418V18.9439H235.754V22.7839H221.258ZM244.598 22.7839L235.638 0.383934H240.182L245.174 13.2159C245.43 13.8773 245.654 14.4746 245.846 15.0079C246.038 15.5199 246.208 15.9893 246.358 16.4159C246.507 16.8426 246.635 17.2586 246.742 17.6639C246.87 18.0693 247.008 18.4959 247.158 18.9439H246.262C246.411 18.3679 246.571 17.8026 246.742 17.2479C246.912 16.6719 247.104 16.0639 247.318 15.4239C247.552 14.7839 247.83 14.0479 248.15 13.2159L252.822 0.383934H257.398L248.374 22.7839H244.598ZM260.946 22.7839V0.383934H275.602V4.15993H265.042V19.0079H275.73V22.7839H260.946ZM262.866 13.1839V9.47194H273.97V13.1839H262.866ZM288.05 23.1039C286.748 23.1039 285.554 22.9439 284.466 22.6239C283.378 22.2826 282.396 21.7813 281.522 21.1199C280.647 20.4586 279.868 19.6586 279.186 18.7199L281.906 15.6479C282.951 17.0986 283.975 18.1013 284.978 18.6559C285.98 19.2106 287.111 19.4879 288.37 19.4879C289.095 19.4879 289.756 19.3813 290.354 19.1679C290.951 18.9333 291.42 18.6239 291.762 18.2399C292.103 17.8346 292.274 17.3759 292.274 16.8639C292.274 16.5013 292.199 16.1706 292.05 15.8719C291.922 15.5519 291.719 15.2746 291.442 15.0399C291.164 14.7839 290.823 14.5493 290.418 14.3359C290.012 14.1226 289.554 13.9413 289.042 13.7919C288.53 13.6426 287.964 13.5039 287.345 13.3759C286.172 13.1413 285.148 12.8319 284.274 12.4479C283.399 12.0426 282.663 11.5519 282.066 10.9759C281.468 10.3786 281.031 9.71727 280.754 8.99193C280.476 8.24527 280.338 7.4026 280.338 6.46393C280.338 5.52527 280.54 4.66127 280.946 3.87193C281.372 3.0826 281.948 2.39993 282.674 1.82393C283.399 1.24793 284.242 0.799934 285.202 0.479935C286.162 0.159935 287.196 -6.48499e-05 288.306 -6.48499e-05C289.564 -6.48499e-05 290.684 0.149268 291.666 0.447935C292.668 0.746602 293.543 1.1946 294.29 1.79193C295.058 2.36794 295.687 3.07194 296.178 3.90393L293.426 6.62394C292.999 5.9626 292.519 5.4186 291.986 4.99193C291.452 4.54393 290.876 4.21327 290.258 3.99994C289.639 3.76527 288.988 3.64793 288.306 3.64793C287.538 3.64793 286.866 3.7546 286.29 3.96794C285.735 4.18127 285.298 4.4906 284.978 4.89594C284.658 5.27994 284.498 5.74927 284.498 6.30393C284.498 6.7306 284.594 7.1146 284.786 7.45593C284.978 7.77593 285.244 8.06393 285.586 8.31993C285.948 8.57593 286.407 8.79993 286.962 8.99193C287.516 9.18393 288.146 9.3546 288.85 9.50393C290.023 9.7386 291.079 10.0586 292.018 10.4639C292.956 10.8479 293.756 11.3173 294.418 11.8719C295.079 12.4053 295.58 13.0239 295.922 13.7279C296.263 14.4106 296.434 15.1786 296.434 16.0319C296.434 17.5039 296.082 18.7733 295.378 19.8399C294.695 20.8853 293.724 21.6959 292.466 22.2719C291.207 22.8266 289.735 23.1039 288.05 23.1039Z" fill="#0671CE"/>
</svg>
