<svg width="441" height="20" viewBox="0 0 441 20" fill="none" xmlns="http://www.w3.org/2000/svg">
<path d="M31.2581 15.177L35.6611 3.88725H37.6287L41.9994 15.177H39.8221L37.4029 8.75797C37.3491 8.62895 37.2739 8.42466 37.1771 8.1451C37.0911 7.86555 36.9943 7.56449 36.8868 7.24192C36.7793 6.90861 36.6825 6.60217 36.5965 6.32261C36.5105 6.03231 36.446 5.82264 36.403 5.69361L36.8062 5.67748C36.7416 5.89253 36.6664 6.13445 36.5804 6.40325C36.4943 6.67206 36.403 6.95161 36.3062 7.24192C36.2094 7.53223 36.1126 7.81178 36.0159 8.08059C35.9299 8.34939 35.8492 8.59132 35.774 8.80636L33.3547 15.177H31.2581ZM33.2579 12.5965L33.9837 10.774H39.1286L39.9028 12.5965H33.2579ZM43.4226 18.7252V6.67743H45.3741L45.4064 8.61282L45.0677 8.46767C45.1322 8.13435 45.315 7.82254 45.6161 7.53223C45.9171 7.23117 46.2827 6.98925 46.7128 6.80646C47.1536 6.62367 47.6106 6.53228 48.0837 6.53228C48.8363 6.53228 49.503 6.72044 50.0836 7.09677C50.6749 7.47309 51.1373 7.9892 51.4706 8.64508C51.8147 9.30096 51.9867 10.059 51.9867 10.9192C51.9867 11.7686 51.8147 12.5266 51.4706 13.1932C51.1373 13.8491 50.6749 14.3706 50.0836 14.7577C49.503 15.134 48.8471 15.3222 48.1159 15.3222C47.6213 15.3222 47.1429 15.2254 46.6805 15.0318C46.2289 14.8383 45.8419 14.5856 45.5193 14.2738C45.2075 13.962 45.0139 13.6341 44.9387 13.29L45.4225 13.0642V18.7252H43.4226ZM47.7127 13.5642C48.1643 13.5642 48.5675 13.4513 48.9224 13.2255C49.2772 12.9997 49.5514 12.6879 49.7449 12.2901C49.9492 11.8922 50.0513 11.4353 50.0513 10.9192C50.0513 10.4031 49.9546 9.95146 49.761 9.56438C49.5675 9.16655 49.2933 8.85474 48.9385 8.62895C48.5837 8.40315 48.1751 8.29026 47.7127 8.29026C47.2396 8.29026 46.8257 8.40315 46.4709 8.62895C46.1268 8.84399 45.8526 9.15043 45.6483 9.54826C45.444 9.94609 45.3419 10.4031 45.3419 10.9192C45.3419 11.4353 45.444 11.8922 45.6483 12.2901C45.8526 12.6879 46.1268 12.9997 46.4709 13.2255C46.8257 13.4513 47.2396 13.5642 47.7127 13.5642ZM53.7548 18.7252V6.67743H55.7063L55.7385 8.61282L55.3998 8.46767C55.4644 8.13435 55.6471 7.82254 55.9482 7.53223C56.2493 7.23117 56.6148 6.98925 57.0449 6.80646C57.4858 6.62367 57.9427 6.53228 58.4158 6.53228C59.1685 6.53228 59.8351 6.72044 60.4157 7.09677C61.0071 7.47309 61.4694 7.9892 61.8027 8.64508C62.1468 9.30096 62.3188 10.059 62.3188 10.9192C62.3188 11.7686 62.1468 12.5266 61.8027 13.1932C61.4694 13.8491 61.0071 14.3706 60.4157 14.7577C59.8351 15.134 59.1792 15.3222 58.4481 15.3222C57.9535 15.3222 57.475 15.2254 57.0127 15.0318C56.5611 14.8383 56.174 14.5856 55.8514 14.2738C55.5396 13.962 55.3461 13.6341 55.2708 13.29L55.7547 13.0642V18.7252H53.7548ZM58.0449 13.5642C58.4965 13.5642 58.8997 13.4513 59.2545 13.2255C59.6093 12.9997 59.8835 12.6879 60.077 12.2901C60.2813 11.8922 60.3835 11.4353 60.3835 10.9192C60.3835 10.4031 60.2867 9.95146 60.0932 9.56438C59.8996 9.16655 59.6254 8.85474 59.2706 8.62895C58.9158 8.40315 58.5072 8.29026 58.0449 8.29026C57.5718 8.29026 57.1578 8.40315 56.803 8.62895C56.4589 8.84399 56.1847 9.15043 55.9805 9.54826C55.7762 9.94609 55.674 10.4031 55.674 10.9192C55.674 11.4353 55.7762 11.8922 55.9805 12.2901C56.1847 12.6879 56.4589 12.9997 56.803 13.2255C57.1578 13.4513 57.5718 13.5642 58.0449 13.5642ZM64.103 15.177V3.24212H66.1029V15.177H64.103ZM68.6598 15.177V6.67743H70.6435V15.177H68.6598ZM69.6274 4.87107C69.2296 4.87107 68.9178 4.7743 68.692 4.58077C68.477 4.37648 68.3694 4.09154 68.3694 3.72597C68.3694 3.3819 68.4823 3.10235 68.7081 2.8873C68.9339 2.67226 69.2404 2.56474 69.6274 2.56474C70.036 2.56474 70.3478 2.66688 70.5629 2.87118C70.7887 3.06471 70.9016 3.34965 70.9016 3.72597C70.9016 4.05929 70.7887 4.33347 70.5629 4.54851C70.3371 4.76355 70.0253 4.87107 69.6274 4.87107ZM76.804 15.3383C76.0083 15.3383 75.2933 15.1447 74.6589 14.7577C74.0246 14.3706 73.5246 13.8437 73.159 13.1771C72.7934 12.5105 72.6107 11.7578 72.6107 10.9192C72.6107 10.0805 72.7934 9.32784 73.159 8.6612C73.5246 7.99457 74.0246 7.46772 74.6589 7.08064C75.2933 6.69356 76.0083 6.50002 76.804 6.50002C77.5674 6.50002 78.2609 6.64518 78.8845 6.93549C79.5082 7.22579 79.992 7.629 80.3361 8.1451L79.2394 9.46761C79.0781 9.24182 78.8738 9.03753 78.6265 8.85474C78.3792 8.67196 78.1158 8.5268 77.8362 8.41928C77.5566 8.31176 77.2771 8.258 76.9975 8.258C76.5244 8.258 76.0997 8.37627 75.7234 8.61282C75.3578 8.83861 75.0675 9.1558 74.8525 9.56438C74.6374 9.96221 74.5299 10.4138 74.5299 10.9192C74.5299 11.4245 74.6374 11.8761 74.8525 12.2739C75.0783 12.6718 75.3793 12.9889 75.7557 13.2255C76.132 13.462 76.5513 13.5803 77.0137 13.5803C77.2932 13.5803 77.562 13.5373 77.8201 13.4513C78.0889 13.3545 78.3416 13.2201 78.5781 13.0481C78.8146 12.876 79.0351 12.661 79.2394 12.4029L80.3361 13.7416C79.9705 14.2147 79.4652 14.6018 78.82 14.9028C78.1856 15.1931 77.5136 15.3383 76.804 15.3383ZM85.0627 15.3383C84.3638 15.3383 83.7294 15.1447 83.1595 14.7577C82.5897 14.3706 82.1327 13.8437 81.7886 13.1771C81.4446 12.5105 81.2725 11.7524 81.2725 10.903C81.2725 10.0536 81.4446 9.29558 81.7886 8.62895C82.1327 7.96231 82.6004 7.44084 83.1918 7.06451C83.7831 6.68819 84.4498 6.50002 85.1917 6.50002C85.6218 6.50002 86.0142 6.56454 86.369 6.69356C86.7239 6.81184 87.0357 6.98387 87.3045 7.20966C87.5733 7.43546 87.7937 7.69351 87.9657 7.98382C88.1485 8.27413 88.2722 8.58594 88.3367 8.91926L87.9012 8.80636V6.67743H89.9011V15.177H87.8851V13.1448L88.3528 13.0642C88.2775 13.3545 88.1378 13.6394 87.9335 13.919C87.7399 14.1878 87.4926 14.4297 87.1916 14.6448C86.9013 14.8491 86.5733 15.0157 86.2078 15.1447C85.8529 15.2738 85.4712 15.3383 85.0627 15.3383ZM85.611 13.5803C86.0734 13.5803 86.4819 13.4674 86.8368 13.2416C87.1916 13.0158 87.4658 12.704 87.6593 12.3062C87.8636 11.8976 87.9657 11.4299 87.9657 10.903C87.9657 10.3869 87.8636 9.92996 87.6593 9.53213C87.4658 9.1343 87.1916 8.82249 86.8368 8.59669C86.4819 8.3709 86.0734 8.258 85.611 8.258C85.1487 8.258 84.7401 8.3709 84.3853 8.59669C84.0412 8.82249 83.7724 9.1343 83.5789 9.53213C83.3853 9.92996 83.2885 10.3869 83.2885 10.903C83.2885 11.4299 83.3853 11.8976 83.5789 12.3062C83.7724 12.704 84.0412 13.0158 84.3853 13.2416C84.7401 13.4674 85.1487 13.5803 85.611 13.5803ZM93.1203 15.177V4.51625H95.1041V15.177H93.1203ZM91.443 8.51605V6.67743H96.9588V8.51605H91.443ZM98.6954 15.177V6.67743H100.679V15.177H98.6954ZM99.6631 4.87107C99.2653 4.87107 98.9535 4.7743 98.7277 4.58077C98.5126 4.37648 98.4051 4.09154 98.4051 3.72597C98.4051 3.3819 98.518 3.10235 98.7438 2.8873C98.9696 2.67226 99.276 2.56474 99.6631 2.56474C100.072 2.56474 100.383 2.66688 100.599 2.87118C100.824 3.06471 100.937 3.34965 100.937 3.72597C100.937 4.05929 100.824 4.33347 100.599 4.54851C100.373 4.76355 100.061 4.87107 99.6631 4.87107ZM107.082 15.3383C106.232 15.3383 105.474 15.1501 104.807 14.7738C104.141 14.3867 103.614 13.8599 103.227 13.1932C102.84 12.5266 102.646 11.7686 102.646 10.9192C102.646 10.0697 102.84 9.31171 103.227 8.64508C103.614 7.97844 104.141 7.45696 104.807 7.08064C105.474 6.69356 106.232 6.50002 107.082 6.50002C107.92 6.50002 108.673 6.69356 109.34 7.08064C110.006 7.45696 110.528 7.97844 110.904 8.64508C111.291 9.31171 111.485 10.0697 111.485 10.9192C111.485 11.7686 111.291 12.5266 110.904 13.1932C110.528 13.8599 110.006 14.3867 109.34 14.7738C108.673 15.1501 107.92 15.3383 107.082 15.3383ZM107.082 13.5803C107.544 13.5803 107.952 13.462 108.307 13.2255C108.673 12.9889 108.958 12.6718 109.162 12.2739C109.377 11.8761 109.479 11.4245 109.469 10.9192C109.479 10.4031 109.377 9.94609 109.162 9.54826C108.958 9.15043 108.673 8.83861 108.307 8.61282C107.952 8.37627 107.544 8.258 107.082 8.258C106.619 8.258 106.2 8.37627 105.824 8.61282C105.458 8.83861 105.173 9.1558 104.969 9.56438C104.764 9.96221 104.662 10.4138 104.662 10.9192C104.662 11.4245 104.764 11.8761 104.969 12.2739C105.173 12.6718 105.458 12.9889 105.824 13.2255C106.2 13.462 106.619 13.5803 107.082 13.5803ZM113.259 15.177V6.67743H115.194L115.227 8.41928L114.856 8.61282C114.963 8.22574 115.173 7.8763 115.485 7.56449C115.797 7.24192 116.168 6.98387 116.598 6.79033C117.028 6.59679 117.469 6.50002 117.92 6.50002C118.565 6.50002 119.103 6.62905 119.533 6.8871C119.974 7.14515 120.302 7.53223 120.517 8.04833C120.743 8.56443 120.855 9.20956 120.855 9.98372V15.177H118.872V10.1289C118.872 9.69879 118.813 9.34397 118.694 9.06441C118.576 8.7741 118.393 8.56443 118.146 8.43541C117.899 8.29563 117.598 8.23112 117.243 8.24187C116.952 8.24187 116.684 8.29026 116.436 8.38702C116.2 8.47304 115.99 8.60207 115.807 8.7741C115.635 8.93538 115.495 9.12355 115.388 9.33859C115.291 9.55363 115.243 9.79018 115.243 10.0482V15.177H114.259C114.065 15.177 113.883 15.177 113.711 15.177C113.549 15.177 113.399 15.177 113.259 15.177ZM125.926 15.3383C125.173 15.3383 124.496 15.2146 123.894 14.9673C123.302 14.7093 122.818 14.3437 122.442 13.8706L123.732 12.7578C124.055 13.1233 124.415 13.3868 124.813 13.5481C125.211 13.7093 125.63 13.79 126.071 13.79C126.254 13.79 126.415 13.7685 126.555 13.7255C126.705 13.6825 126.834 13.6179 126.942 13.5319C127.049 13.4459 127.13 13.3491 127.184 13.2416C127.248 13.1233 127.281 12.9943 127.281 12.8545C127.281 12.5965 127.184 12.3922 126.99 12.2417C126.883 12.1664 126.711 12.0858 126.474 11.9997C126.248 11.9137 125.953 11.8277 125.587 11.7417C125.006 11.5912 124.523 11.4191 124.136 11.2256C123.748 11.0213 123.447 10.7955 123.232 10.5482C123.05 10.3439 122.91 10.1127 122.813 9.85469C122.727 9.59664 122.684 9.31708 122.684 9.01602C122.684 8.6397 122.765 8.30101 122.926 7.99995C123.098 7.68814 123.329 7.41933 123.619 7.19354C123.91 6.96774 124.248 6.79571 124.635 6.67743C125.023 6.55916 125.426 6.50002 125.845 6.50002C126.275 6.50002 126.689 6.55378 127.087 6.66131C127.496 6.76883 127.872 6.92473 128.216 7.12902C128.571 7.32256 128.872 7.55911 129.119 7.83867L128.022 9.04828C127.818 8.85474 127.592 8.68271 127.345 8.53218C127.108 8.38165 126.867 8.26337 126.619 8.17736C126.372 8.08059 126.141 8.0322 125.926 8.0322C125.721 8.0322 125.539 8.05371 125.377 8.09672C125.216 8.12897 125.082 8.18273 124.974 8.258C124.867 8.33326 124.781 8.43003 124.716 8.54831C124.662 8.65583 124.635 8.78485 124.635 8.93538C124.646 9.06441 124.678 9.18806 124.732 9.30633C124.797 9.41385 124.883 9.50525 124.99 9.58051C125.109 9.65578 125.286 9.74179 125.523 9.83856C125.759 9.93533 126.066 10.0267 126.442 10.1127C126.969 10.2525 127.41 10.4084 127.764 10.5805C128.119 10.7525 128.399 10.9514 128.603 11.1772C128.807 11.3707 128.952 11.5965 129.038 11.8546C129.125 12.1126 129.168 12.3976 129.168 12.7094C129.168 13.2147 129.022 13.6663 128.732 14.0642C128.452 14.462 128.065 14.7738 127.571 14.9996C127.087 15.2254 126.539 15.3383 125.926 15.3383Z" fill="white"/>
<path d="M187.242 9.677L408.745 9.67702" stroke="white" stroke-width="1.61282" stroke-dasharray="3.23 3.23"/>
<circle cx="430.902" cy="9.67693" r="9.19308" stroke="white" stroke-width="0.967693"/>
<path d="M428.231 12.8706C427.605 12.8706 427.096 12.7448 426.702 12.4932C426.315 12.2416 426.031 11.8803 425.851 11.4094C425.67 10.9384 425.58 10.3804 425.58 9.73525C425.58 9.03851 425.663 8.44499 425.831 7.95469C425.999 7.4644 426.276 7.09022 426.663 6.83217C427.05 6.57412 427.573 6.44509 428.231 6.44509C428.883 6.44509 429.402 6.57412 429.789 6.83217C430.176 7.09022 430.453 7.4644 430.621 7.95469C430.789 8.44499 430.873 9.03851 430.873 9.73525C430.873 10.3804 430.783 10.9384 430.602 11.4094C430.428 11.8803 430.147 12.2416 429.76 12.4932C429.373 12.7448 428.863 12.8706 428.231 12.8706ZM428.231 12.1932C428.689 12.1932 429.05 12.0932 429.315 11.8932C429.586 11.6868 429.779 11.3997 429.895 11.032C430.018 10.6578 430.079 10.2255 430.079 9.73525C430.079 8.89013 429.944 8.245 429.673 7.79986C429.408 7.34827 428.928 7.12248 428.231 7.12248C427.767 7.12248 427.399 7.22247 427.128 7.42246C426.857 7.62245 426.663 7.91921 426.547 8.31274C426.431 8.69982 426.373 9.17399 426.373 9.73525C426.373 10.2255 426.431 10.6578 426.547 11.032C426.67 11.3997 426.867 11.6868 427.138 11.8932C427.415 12.0932 427.779 12.1932 428.231 12.1932ZM433.519 12.8706C433.235 12.8706 432.932 12.8448 432.609 12.7932C432.287 12.7415 432.032 12.6803 431.845 12.6093V11.9126C432.09 12.0093 432.345 12.0803 432.609 12.1254C432.874 12.1706 433.145 12.1932 433.422 12.1932C433.977 12.1932 434.387 12.1093 434.651 11.9416C434.922 11.7739 435.058 11.4803 435.058 11.061C435.058 10.661 434.932 10.3707 434.68 10.1901C434.429 10.0094 434.077 9.91911 433.626 9.91911H432.726L432.803 9.31914H433.548C434.013 9.31914 434.358 9.21915 434.584 9.01916C434.809 8.81271 434.922 8.52563 434.922 8.15791C434.922 7.80309 434.803 7.54181 434.564 7.37408C434.332 7.20634 433.958 7.12248 433.442 7.12248C433.184 7.12248 432.922 7.14828 432.658 7.19989C432.4 7.2515 432.168 7.31924 431.961 7.40311V6.71605C432.142 6.64508 432.377 6.5838 432.668 6.53219C432.964 6.47412 433.258 6.44509 433.548 6.44509C434.29 6.44509 434.835 6.60638 435.184 6.92894C435.538 7.24505 435.716 7.65148 435.716 8.14823C435.716 8.46435 435.632 8.7611 435.464 9.03851C435.303 9.30946 435.042 9.49978 434.68 9.60945C435.093 9.69977 435.39 9.8804 435.571 10.1514C435.758 10.4159 435.851 10.7191 435.851 11.061C435.851 11.6674 435.642 12.1222 435.222 12.4254C434.803 12.7222 434.235 12.8706 433.519 12.8706Z" fill="white"/>
</svg>
