<svg width="441" height="20" viewBox="0 0 441 20" fill="none" xmlns="http://www.w3.org/2000/svg">
<path d="M190.306 15.338C189.489 15.338 188.742 15.1983 188.064 14.9187C187.387 14.6392 186.801 14.2413 186.306 13.7252C185.812 13.1984 185.425 12.5801 185.145 11.8705C184.876 11.1501 184.742 10.3652 184.742 9.51576C184.742 8.69859 184.887 7.94057 185.177 7.24168C185.468 6.54279 185.871 5.92992 186.387 5.40306C186.903 4.87621 187.505 4.46762 188.193 4.17732C188.881 3.88701 189.629 3.74185 190.435 3.74185C190.984 3.74185 191.516 3.8225 192.032 3.98378C192.548 4.14506 193.021 4.37086 193.451 4.66116C193.881 4.94072 194.241 5.26866 194.532 5.64498L193.193 7.11265C192.914 6.82234 192.623 6.58042 192.322 6.38688C192.032 6.18259 191.725 6.03206 191.403 5.93529C191.091 5.82777 190.768 5.77401 190.435 5.77401C189.941 5.77401 189.473 5.8654 189.032 6.04819C188.602 6.23098 188.226 6.48903 187.903 6.82234C187.591 7.15566 187.344 7.55349 187.161 8.01583C186.978 8.46742 186.887 8.97277 186.887 9.53188C186.887 10.1017 186.973 10.6178 187.145 11.0802C187.328 11.5425 187.58 11.9404 187.903 12.2737C188.236 12.607 188.629 12.865 189.08 13.0478C189.543 13.2199 190.048 13.3059 190.596 13.3059C190.951 13.3059 191.295 13.2575 191.629 13.1607C191.962 13.064 192.268 12.9296 192.548 12.7575C192.838 12.5747 193.102 12.3651 193.338 12.1285L194.37 13.7897C194.112 14.08 193.768 14.3435 193.338 14.58C192.908 14.8166 192.424 15.0047 191.887 15.1445C191.36 15.2735 190.833 15.338 190.306 15.338ZM200.073 15.338C199.224 15.338 198.466 15.1499 197.799 14.7736C197.133 14.3865 196.606 13.8596 196.219 13.193C195.832 12.5264 195.638 11.7683 195.638 10.9189C195.638 10.0695 195.832 9.31146 196.219 8.64483C196.606 7.9782 197.133 7.45672 197.799 7.08039C198.466 6.69332 199.224 6.49978 200.073 6.49978C200.912 6.49978 201.665 6.69332 202.331 7.08039C202.998 7.45672 203.519 7.9782 203.896 8.64483C204.283 9.31146 204.476 10.0695 204.476 10.9189C204.476 11.7683 204.283 12.5264 203.896 13.193C203.519 13.8596 202.998 14.3865 202.331 14.7736C201.665 15.1499 200.912 15.338 200.073 15.338ZM200.073 13.5801C200.536 13.5801 200.944 13.4618 201.299 13.2252C201.665 12.9887 201.95 12.6715 202.154 12.2737C202.369 11.8759 202.471 11.4243 202.46 10.9189C202.471 10.4028 202.369 9.94584 202.154 9.54801C201.95 9.15018 201.665 8.83837 201.299 8.61258C200.944 8.37603 200.536 8.25775 200.073 8.25775C199.611 8.25775 199.192 8.37603 198.815 8.61258C198.45 8.83837 198.165 9.15556 197.96 9.56414C197.756 9.96197 197.654 10.4136 197.654 10.9189C197.654 11.4243 197.756 11.8759 197.96 12.2737C198.165 12.6715 198.45 12.9887 198.815 13.2252C199.192 13.4618 199.611 13.5801 200.073 13.5801ZM206.251 15.1768V6.67719H208.186L208.218 8.41904L207.847 8.61258C207.955 8.2255 208.165 7.87605 208.476 7.56424C208.788 7.24168 209.159 6.98363 209.589 6.79009C210.019 6.59655 210.46 6.49978 210.912 6.49978C211.557 6.49978 212.095 6.6288 212.525 6.88686C212.965 7.14491 213.293 7.53199 213.508 8.04809C213.734 8.56419 213.847 9.20932 213.847 9.98347V15.1768H211.863V10.1286C211.863 9.69854 211.804 9.34372 211.686 9.06417C211.568 8.77386 211.385 8.56419 211.138 8.43517C210.89 8.29539 210.589 8.23087 210.234 8.24163C209.944 8.24163 209.675 8.29001 209.428 8.38678C209.191 8.4728 208.982 8.60182 208.799 8.77386C208.627 8.93514 208.487 9.1233 208.38 9.33834C208.283 9.55339 208.235 9.78993 208.235 10.048V15.1768H207.251C207.057 15.1768 206.874 15.1768 206.702 15.1768C206.541 15.1768 206.391 15.1768 206.251 15.1768ZM216.998 15.1768V4.51601H218.982V15.1768H216.998ZM215.321 8.51581V6.67719H220.837V8.51581H215.321ZM225.478 15.338C224.779 15.338 224.145 15.1445 223.575 14.7574C223.005 14.3703 222.548 13.8435 222.204 13.1769C221.86 12.5102 221.688 11.7522 221.688 10.9028C221.688 10.0534 221.86 9.29534 222.204 8.6287C222.548 7.96207 223.016 7.44059 223.607 7.06427C224.199 6.68794 224.865 6.49978 225.607 6.49978C226.037 6.49978 226.43 6.56429 226.785 6.69332C227.139 6.81159 227.451 6.98363 227.72 7.20942C227.989 7.43522 228.209 7.69327 228.381 7.98358C228.564 8.27388 228.688 8.58569 228.752 8.91901L228.317 8.80611V6.67719H230.317V15.1768H228.301V13.1446L228.768 13.064C228.693 13.3543 228.553 13.6392 228.349 13.9188C228.156 14.1876 227.908 14.4295 227.607 14.6445C227.317 14.8488 226.989 15.0155 226.623 15.1445C226.269 15.2735 225.887 15.338 225.478 15.338ZM226.027 13.5801C226.489 13.5801 226.898 13.4672 227.252 13.2414C227.607 13.0156 227.881 12.7038 228.075 12.3059C228.279 11.8974 228.381 11.4296 228.381 10.9028C228.381 10.3867 228.279 9.92971 228.075 9.53188C227.881 9.13405 227.607 8.82224 227.252 8.59645C226.898 8.37065 226.489 8.25775 226.027 8.25775C225.564 8.25775 225.156 8.37065 224.801 8.59645C224.457 8.82224 224.188 9.13405 223.994 9.53188C223.801 9.92971 223.704 10.3867 223.704 10.9028C223.704 11.4296 223.801 11.8974 223.994 12.3059C224.188 12.7038 224.457 13.0156 224.801 13.2414C225.156 13.4672 225.564 13.5801 226.027 13.5801ZM236.262 15.338C235.466 15.338 234.751 15.1445 234.117 14.7574C233.482 14.3703 232.982 13.8435 232.617 13.1769C232.251 12.5102 232.068 11.7576 232.068 10.9189C232.068 10.0802 232.251 9.32759 232.617 8.66096C232.982 7.99433 233.482 7.46747 234.117 7.08039C234.751 6.69332 235.466 6.49978 236.262 6.49978C237.025 6.49978 237.718 6.64493 238.342 6.93524C238.966 7.22555 239.45 7.62875 239.794 8.14486L238.697 9.46737C238.536 9.24158 238.331 9.03728 238.084 8.8545C237.837 8.67171 237.573 8.52656 237.294 8.41904C237.014 8.31152 236.735 8.25775 236.455 8.25775C235.982 8.25775 235.557 8.37603 235.181 8.61258C234.815 8.83837 234.525 9.15556 234.31 9.56414C234.095 9.96197 233.988 10.4136 233.988 10.9189C233.988 11.4243 234.095 11.8759 234.31 12.2737C234.536 12.6715 234.837 12.9887 235.213 13.2252C235.59 13.4618 236.009 13.5801 236.471 13.5801C236.751 13.5801 237.02 13.5371 237.278 13.451C237.546 13.3543 237.799 13.2199 238.036 13.0478C238.272 12.8758 238.493 12.6608 238.697 12.4027L239.794 13.7413C239.428 14.2144 238.923 14.6015 238.278 14.9026C237.643 15.1929 236.971 15.338 236.262 15.338ZM242.23 15.1768V4.51601H244.214V15.1768H242.23ZM240.553 8.51581V6.67719H246.069V8.51581H240.553ZM255.272 15.338C254.659 15.338 254.126 15.2036 253.675 14.9348C253.223 14.6553 252.879 14.2628 252.643 13.7575C252.406 13.2414 252.288 12.6285 252.288 11.9189V6.67719H254.272V11.4995C254.272 11.9511 254.342 12.3382 254.481 12.6608C254.621 12.9726 254.825 13.2145 255.094 13.3865C255.363 13.5586 255.686 13.6446 256.062 13.6446C256.341 13.6446 256.594 13.6016 256.82 13.5156C257.056 13.4188 257.261 13.2898 257.433 13.1285C257.605 12.9564 257.739 12.7575 257.836 12.5317C257.933 12.2952 257.981 12.0425 257.981 11.7737V6.67719H259.965V15.1768H258.03L257.997 13.4027L258.352 13.2091C258.223 13.6177 258.003 13.9833 257.691 14.3058C257.39 14.6176 257.03 14.8703 256.61 15.0639C256.191 15.2466 255.745 15.338 255.272 15.338ZM265.129 15.338C264.376 15.338 263.699 15.2144 263.096 14.9671C262.505 14.709 262.021 14.3435 261.645 13.8704L262.935 12.7575C263.258 13.1231 263.618 13.3865 264.016 13.5478C264.414 13.7091 264.833 13.7897 265.274 13.7897C265.456 13.7897 265.618 13.7682 265.758 13.7252C265.908 13.6822 266.037 13.6177 266.145 13.5317C266.252 13.4457 266.333 13.3489 266.387 13.2414C266.451 13.1231 266.483 12.9941 266.483 12.8543C266.483 12.5962 266.387 12.392 266.193 12.2414C266.085 12.1662 265.913 12.0855 265.677 11.9995C265.451 11.9135 265.155 11.8275 264.79 11.7414C264.209 11.5909 263.725 11.4189 263.338 11.2253C262.951 11.0211 262.65 10.7953 262.435 10.548C262.252 10.3437 262.113 10.1125 262.016 9.85445C261.93 9.5964 261.887 9.31684 261.887 9.01578C261.887 8.63946 261.967 8.30076 262.129 7.9997C262.301 7.68789 262.532 7.41909 262.822 7.19329C263.113 6.9675 263.451 6.79546 263.838 6.67719C264.225 6.55892 264.629 6.49978 265.048 6.49978C265.478 6.49978 265.892 6.55354 266.29 6.66106C266.698 6.76858 267.075 6.92449 267.419 7.12878C267.774 7.32232 268.075 7.55887 268.322 7.83842L267.225 9.04804C267.021 8.8545 266.795 8.68246 266.548 8.53193C266.311 8.3814 266.069 8.26313 265.822 8.17711C265.575 8.08034 265.344 8.03196 265.129 8.03196C264.924 8.03196 264.741 8.05346 264.58 8.09647C264.419 8.12873 264.285 8.18249 264.177 8.25775C264.069 8.33302 263.983 8.42979 263.919 8.54806C263.865 8.65558 263.838 8.78461 263.838 8.93514C263.849 9.06417 263.881 9.18781 263.935 9.30609C264 9.41361 264.086 9.505 264.193 9.58027C264.311 9.65553 264.489 9.74155 264.725 9.83832C264.962 9.93509 265.268 10.0265 265.645 10.1125C266.172 10.2523 266.612 10.4082 266.967 10.5802C267.322 10.7523 267.602 10.9512 267.806 11.177C268.01 11.3705 268.155 11.5963 268.241 11.8543C268.327 12.1124 268.37 12.3973 268.37 12.7091C268.37 13.2145 268.225 13.6661 267.935 14.0639C267.655 14.4617 267.268 14.7736 266.774 14.9993C266.29 15.2251 265.741 15.338 265.129 15.338Z" fill="white"/>
<path d="M340.242 9.677L408.825 9.67701" stroke="white" stroke-width="1.61282" stroke-dasharray="3.23 3.23"/>
<circle cx="430.982" cy="9.67693" r="9.19308" stroke="white" stroke-width="0.967693"/>
<path d="M428.923 12.8707C428.298 12.8707 427.788 12.7449 427.394 12.4933C427.007 12.2417 426.724 11.8804 426.543 11.4095C426.362 10.9385 426.272 10.3805 426.272 9.73537C426.272 9.03863 426.356 8.44511 426.524 7.95482C426.691 7.46452 426.969 7.09034 427.356 6.83229C427.743 6.57424 428.265 6.44522 428.923 6.44522C429.575 6.44522 430.094 6.57424 430.481 6.83229C430.868 7.09034 431.146 7.46452 431.314 7.95482C431.481 8.44511 431.565 9.03863 431.565 9.73537C431.565 10.3805 431.475 10.9385 431.294 11.4095C431.12 11.8804 430.839 12.2417 430.452 12.4933C430.065 12.7449 429.556 12.8707 428.923 12.8707ZM428.923 12.1933C429.381 12.1933 429.743 12.0933 430.007 11.8933C430.278 11.6869 430.472 11.3998 430.588 11.0321C430.71 10.6579 430.772 10.2257 430.772 9.73537C430.772 8.89025 430.636 8.24512 430.365 7.79999C430.101 7.3484 429.62 7.1226 428.923 7.1226C428.459 7.1226 428.091 7.2226 427.82 7.42259C427.549 7.62257 427.356 7.91933 427.24 8.31286C427.124 8.69994 427.065 9.17411 427.065 9.73537C427.065 10.2257 427.124 10.6579 427.24 11.0321C427.362 11.3998 427.559 11.6869 427.83 11.8933C428.107 12.0933 428.472 12.1933 428.923 12.1933ZM433.282 12.7739L435.653 7.16131H432.441V6.54198H436.486V7.09357L434.086 12.7739H433.282Z" fill="white"/>
</svg>
