<svg width="441" height="20" viewBox="0 0 441 20" fill="none" xmlns="http://www.w3.org/2000/svg">
<path d="M1.51605 15.177V3.88725H6.04808C6.86524 3.88725 7.60176 4.02165 8.25764 4.29046C8.92428 4.55926 9.49414 4.94634 9.96724 5.45169C10.4511 5.95704 10.8167 6.55378 11.064 7.24192C11.322 7.93006 11.451 8.69346 11.451 9.53213C11.451 10.3708 11.322 11.1396 11.064 11.8385C10.8167 12.5266 10.4565 13.1233 9.98336 13.6287C9.51027 14.1233 8.94041 14.505 8.27377 14.7738C7.60714 15.0426 6.86524 15.177 6.04808 15.177H1.51605ZM3.61272 13.5481L3.45144 13.2416H5.96744C6.49429 13.2416 6.96201 13.1556 7.37059 12.9836C7.78993 12.8115 8.14475 12.5642 8.43505 12.2417C8.72536 11.9191 8.94578 11.532 9.09631 11.0804C9.24684 10.6181 9.32211 10.102 9.32211 9.53213C9.32211 8.96226 9.24684 8.45154 9.09631 7.99995C8.94578 7.53761 8.71999 7.14515 8.41893 6.82259C8.12862 6.50002 7.77917 6.25272 7.37059 6.08069C6.96201 5.90866 6.49429 5.82264 5.96744 5.82264H3.40305L3.61272 5.54846V13.5481ZM17.3513 15.3383C16.4589 15.3383 15.6686 15.1501 14.9805 14.7738C14.3031 14.3975 13.7708 13.8867 13.3838 13.2416C13.0074 12.5857 12.8193 11.8385 12.8193 10.9998C12.8193 10.3332 12.9268 9.72567 13.1418 9.17731C13.3569 8.62895 13.6526 8.15585 14.0289 7.75802C14.416 7.34944 14.8729 7.03763 15.3998 6.82259C15.9374 6.59679 16.5234 6.4839 17.1578 6.4839C17.7169 6.4839 18.2384 6.59142 18.7222 6.80646C19.2061 7.0215 19.6254 7.31719 19.9802 7.69351C20.335 8.05908 20.6038 8.49992 20.7866 9.01602C20.9802 9.52138 21.0716 10.0751 21.0608 10.6772L21.0447 11.3707H14.1579L13.787 10.016H19.3835L19.1254 10.2902V9.93533C19.0932 9.60202 18.9856 9.31171 18.8028 9.06441C18.6201 8.80636 18.3835 8.60744 18.0932 8.46767C17.8137 8.31714 17.5018 8.24187 17.1578 8.24187C16.6309 8.24187 16.1847 8.34402 15.8191 8.54831C15.4643 8.7526 15.1955 9.04828 15.0127 9.43536C14.8299 9.81168 14.7385 10.2848 14.7385 10.8546C14.7385 11.403 14.8514 11.8815 15.0772 12.2901C15.3138 12.6986 15.6417 13.0158 16.0611 13.2416C16.4911 13.4567 16.9911 13.5642 17.561 13.5642C17.9588 13.5642 18.3244 13.4997 18.6577 13.3706C18.991 13.2416 19.3512 13.0104 19.7383 12.6771L20.7221 14.048C20.4318 14.3168 20.0985 14.548 19.7222 14.7415C19.3566 14.9243 18.9695 15.0695 18.5609 15.177C18.1523 15.2845 17.7491 15.3383 17.3513 15.3383ZM25.6563 15.3383C24.9037 15.3383 24.2263 15.2146 23.6242 14.9673C23.0328 14.7093 22.549 14.3437 22.1726 13.8706L23.4629 12.7578C23.7855 13.1233 24.1457 13.3868 24.5435 13.5481C24.9413 13.7093 25.3606 13.79 25.8015 13.79C25.9843 13.79 26.1456 13.7685 26.2853 13.7255C26.4359 13.6825 26.5649 13.6179 26.6724 13.5319C26.7799 13.4459 26.8606 13.3491 26.9143 13.2416C26.9788 13.1233 27.0111 12.9943 27.0111 12.8545C27.0111 12.5965 26.9143 12.3922 26.7208 12.2417C26.6133 12.1664 26.4412 12.0858 26.2047 11.9997C25.9789 11.9137 25.6832 11.8277 25.3176 11.7417C24.737 11.5912 24.2532 11.4191 23.8661 11.2256C23.479 11.0213 23.178 10.7955 22.9629 10.5482C22.7801 10.3439 22.6404 10.1127 22.5436 9.85469C22.4576 9.59664 22.4146 9.31708 22.4146 9.01602C22.4146 8.6397 22.4952 8.30101 22.6565 7.99995C22.8285 7.68814 23.0597 7.41933 23.35 7.19354C23.6403 6.96774 23.979 6.79571 24.3661 6.67743C24.7532 6.55916 25.1564 6.50002 25.5757 6.50002C26.0058 6.50002 26.4197 6.55378 26.8176 6.66131C27.2261 6.76883 27.6025 6.92473 27.9465 7.12902C28.3014 7.32256 28.6024 7.55911 28.8497 7.83867L27.753 9.04828C27.5487 8.85474 27.3229 8.68271 27.0756 8.53218C26.8391 8.38165 26.5971 8.26337 26.3498 8.17736C26.1025 8.08059 25.8714 8.0322 25.6563 8.0322C25.452 8.0322 25.2693 8.05371 25.108 8.09672C24.9467 8.12897 24.8123 8.18273 24.7048 8.258C24.5972 8.33326 24.5112 8.43003 24.4467 8.54831C24.393 8.65583 24.3661 8.78485 24.3661 8.93538C24.3768 9.06441 24.4091 9.18806 24.4628 9.30633C24.5274 9.41385 24.6134 9.50525 24.7209 9.58051C24.8392 9.65578 25.0166 9.74179 25.2531 9.83856C25.4897 9.93533 25.7961 10.0267 26.1724 10.1127C26.6993 10.2525 27.1401 10.4084 27.4949 10.5805C27.8498 10.7525 28.1293 10.9514 28.3336 11.1772C28.5379 11.3707 28.6831 11.5965 28.7691 11.8546C28.8551 12.1126 28.8981 12.3976 28.8981 12.7094C28.8981 13.2147 28.7529 13.6663 28.4626 14.0642C28.1831 14.462 27.796 14.7738 27.3014 14.9996C26.8176 15.2254 26.2692 15.3383 25.6563 15.3383ZM34.2906 15.3383C33.4949 15.3383 32.7799 15.1447 32.1455 14.7577C31.5112 14.3706 31.0112 13.8437 30.6456 13.1771C30.28 12.5105 30.0973 11.7578 30.0973 10.9192C30.0973 10.0805 30.28 9.32784 30.6456 8.6612C31.0112 7.99457 31.5112 7.46772 32.1455 7.08064C32.7799 6.69356 33.4949 6.50002 34.2906 6.50002C35.054 6.50002 35.7475 6.64518 36.3711 6.93549C36.9948 7.22579 37.4786 7.629 37.8227 8.1451L36.726 9.46761C36.5647 9.24182 36.3604 9.03753 36.1131 8.85474C35.8658 8.67196 35.6024 8.5268 35.3228 8.41928C35.0432 8.31176 34.7637 8.258 34.4841 8.258C34.011 8.258 33.5863 8.37627 33.21 8.61282C32.8444 8.83861 32.5541 9.1558 32.3391 9.56438C32.124 9.96221 32.0165 10.4138 32.0165 10.9192C32.0165 11.4245 32.124 11.8761 32.3391 12.2739C32.5649 12.6718 32.8659 12.9889 33.2423 13.2255C33.6186 13.462 34.0379 13.5803 34.5003 13.5803C34.7798 13.5803 35.0486 13.5373 35.3067 13.4513C35.5755 13.3545 35.8282 13.2201 36.0647 13.0481C36.3012 12.876 36.5217 12.661 36.726 12.4029L37.8227 13.7416C37.4571 14.2147 36.9517 14.6018 36.3066 14.9028C35.6722 15.1931 35.0002 15.3383 34.2906 15.3383ZM39.3397 15.177V6.67743H41.2912L41.3235 9.38697L41.0493 8.7741C41.1676 8.34402 41.3719 7.95694 41.6622 7.61287C41.9525 7.2688 42.2858 7 42.6621 6.80646C43.0492 6.60217 43.4524 6.50002 43.8718 6.50002C44.0545 6.50002 44.2266 6.51615 44.3879 6.54841C44.5599 6.58066 44.6997 6.6183 44.8072 6.66131L44.275 8.83861C44.1567 8.7741 44.0115 8.72034 43.8395 8.67733C43.6675 8.63432 43.4954 8.61282 43.3234 8.61282C43.0546 8.61282 42.7965 8.66658 42.5492 8.7741C42.3127 8.87087 42.103 9.01065 41.9202 9.19343C41.7375 9.37622 41.5923 9.59126 41.4848 9.83856C41.388 10.0751 41.3396 10.3439 41.3396 10.645V15.177H39.3397ZM46.3539 15.177V6.67743H48.3376V15.177H46.3539ZM47.3216 4.87107C46.9237 4.87107 46.6119 4.7743 46.3861 4.58077C46.1711 4.37648 46.0636 4.09154 46.0636 3.72597C46.0636 3.3819 46.1765 3.10235 46.4023 2.8873C46.628 2.67226 46.9345 2.56474 47.3216 2.56474C47.7301 2.56474 48.042 2.66688 48.257 2.87118C48.4828 3.06471 48.5957 3.34965 48.5957 3.72597C48.5957 4.05929 48.4828 4.33347 48.257 4.54851C48.0312 4.76355 47.7194 4.87107 47.3216 4.87107ZM50.8531 18.7252V6.67743H52.8046L52.8369 8.61282L52.4982 8.46767C52.5627 8.13435 52.7455 7.82254 53.0466 7.53223C53.3476 7.23117 53.7132 6.98925 54.1433 6.80646C54.5841 6.62367 55.0411 6.53228 55.5142 6.53228C56.2668 6.53228 56.9335 6.72044 57.5141 7.09677C58.1055 7.47309 58.5678 7.9892 58.9011 8.64508C59.2452 9.30096 59.4172 10.059 59.4172 10.9192C59.4172 11.7686 59.2452 12.5266 58.9011 13.1932C58.5678 13.8491 58.1055 14.3706 57.5141 14.7577C56.9335 15.134 56.2776 15.3222 55.5464 15.3222C55.0518 15.3222 54.5734 15.2254 54.111 15.0318C53.6594 14.8383 53.2724 14.5856 52.9498 14.2738C52.638 13.962 52.4445 13.6341 52.3692 13.29L52.853 13.0642V18.7252H50.8531ZM55.1432 13.5642C55.5948 13.5642 55.998 13.4513 56.3529 13.2255C56.7077 12.9997 56.9819 12.6879 57.1754 12.2901C57.3797 11.8922 57.4818 11.4353 57.4818 10.9192C57.4818 10.4031 57.3851 9.95146 57.1915 9.56438C56.998 9.16655 56.7238 8.85474 56.369 8.62895C56.0142 8.40315 55.6056 8.29026 55.1432 8.29026C54.6701 8.29026 54.2562 8.40315 53.9014 8.62895C53.5573 8.84399 53.2831 9.15043 53.0788 9.54826C52.8745 9.94609 52.7724 10.4031 52.7724 10.9192C52.7724 11.4353 52.8745 11.8922 53.0788 12.2901C53.2831 12.6879 53.5573 12.9997 53.9014 13.2255C54.2562 13.4513 54.6701 13.5642 55.1432 13.5642ZM62.1046 15.177V4.51625H64.0883V15.177H62.1046ZM60.4272 8.51605V6.67743H65.9431V8.51605H60.4272ZM67.6796 15.177V6.67743H69.6634V15.177H67.6796ZM68.6473 4.87107C68.2495 4.87107 67.9377 4.7743 67.7119 4.58077C67.4969 4.37648 67.3893 4.09154 67.3893 3.72597C67.3893 3.3819 67.5022 3.10235 67.728 2.8873C67.9538 2.67226 68.2603 2.56474 68.6473 2.56474C69.0559 2.56474 69.3677 2.66688 69.5828 2.87118C69.8086 3.06471 69.9215 3.34965 69.9215 3.72597C69.9215 4.05929 69.8086 4.33347 69.5828 4.54851C69.357 4.76355 69.0452 4.87107 68.6473 4.87107ZM76.0658 15.3383C75.2164 15.3383 74.4584 15.1501 73.7917 14.7738C73.1251 14.3867 72.5982 13.8599 72.2112 13.1932C71.8241 12.5266 71.6306 11.7686 71.6306 10.9192C71.6306 10.0697 71.8241 9.31171 72.2112 8.64508C72.5982 7.97844 73.1251 7.45696 73.7917 7.08064C74.4584 6.69356 75.2164 6.50002 76.0658 6.50002C76.9045 6.50002 77.6571 6.69356 78.3238 7.08064C78.9904 7.45696 79.5119 7.97844 79.8882 8.64508C80.2753 9.31171 80.4688 10.0697 80.4688 10.9192C80.4688 11.7686 80.2753 12.5266 79.8882 13.1932C79.5119 13.8599 78.9904 14.3867 78.3238 14.7738C77.6571 15.1501 76.9045 15.3383 76.0658 15.3383ZM76.0658 13.5803C76.5282 13.5803 76.9367 13.462 77.2916 13.2255C77.6571 12.9889 77.9421 12.6718 78.1464 12.2739C78.3614 11.8761 78.4635 11.4245 78.4528 10.9192C78.4635 10.4031 78.3614 9.94609 78.1464 9.54826C77.9421 9.15043 77.6571 8.83861 77.2916 8.61282C76.9367 8.37627 76.5282 8.258 76.0658 8.258C75.6035 8.258 75.1841 8.37627 74.8078 8.61282C74.4422 8.83861 74.1573 9.1558 73.953 9.56438C73.7487 9.96221 73.6466 10.4138 73.6466 10.9192C73.6466 11.4245 73.7487 11.8761 73.953 12.2739C74.1573 12.6718 74.4422 12.9889 74.8078 13.2255C75.1841 13.462 75.6035 13.5803 76.0658 13.5803ZM82.2433 15.177V6.67743H84.1787L84.2109 8.41928L83.84 8.61282C83.9475 8.22574 84.1572 7.8763 84.469 7.56449C84.7808 7.24192 85.1517 6.98387 85.5818 6.79033C86.0119 6.59679 86.4528 6.50002 86.9043 6.50002C87.5495 6.50002 88.0871 6.62905 88.5172 6.8871C88.958 7.14515 89.2859 7.53223 89.501 8.04833C89.7268 8.56443 89.8397 9.20956 89.8397 9.98372V15.177H87.8559V10.1289C87.8559 9.69879 87.7968 9.34397 87.6785 9.06441C87.5602 8.7741 87.3774 8.56443 87.1301 8.43541C86.8828 8.29563 86.5818 8.23112 86.227 8.24187C85.9367 8.24187 85.6679 8.29026 85.4206 8.38702C85.184 8.47304 84.9743 8.60207 84.7916 8.7741C84.6195 8.93538 84.4797 9.12355 84.3722 9.33859C84.2754 9.55363 84.2271 9.79018 84.2271 10.0482V15.177H83.2432C83.0497 15.177 82.8669 15.177 82.6949 15.177C82.5336 15.177 82.3831 15.177 82.2433 15.177Z" fill="white"/>
<path d="M156.242 9.677L408.206 9.67698" stroke="white" stroke-width="1.61282" stroke-dasharray="3.23 3.23"/>
<circle cx="430.362" cy="9.67693" r="9.19308" stroke="white" stroke-width="0.967693"/>
<path d="M427.692 12.8706C427.066 12.8706 426.557 12.7448 426.163 12.4932C425.776 12.2416 425.492 11.8803 425.311 11.4094C425.131 10.9384 425.04 10.3804 425.04 9.73525C425.04 9.03851 425.124 8.44499 425.292 7.95469C425.46 7.4644 425.737 7.09022 426.124 6.83217C426.511 6.57412 427.034 6.44509 427.692 6.44509C428.344 6.44509 428.863 6.57412 429.25 6.83217C429.637 7.09022 429.914 7.4644 430.082 7.95469C430.25 8.44499 430.334 9.03851 430.334 9.73525C430.334 10.3804 430.243 10.9384 430.063 11.4094C429.889 11.8803 429.608 12.2416 429.221 12.4932C428.834 12.7448 428.324 12.8706 427.692 12.8706ZM427.692 12.1932C428.15 12.1932 428.511 12.0932 428.776 11.8932C429.047 11.6868 429.24 11.3997 429.356 11.032C429.479 10.6578 429.54 10.2255 429.54 9.73525C429.54 8.89013 429.405 8.245 429.134 7.79986C428.869 7.34827 428.389 7.12248 427.692 7.12248C427.227 7.12248 426.86 7.22247 426.589 7.42246C426.318 7.62245 426.124 7.91921 426.008 8.31274C425.892 8.69982 425.834 9.17399 425.834 9.73525C425.834 10.2255 425.892 10.6578 426.008 11.032C426.131 11.3997 426.328 11.6868 426.598 11.8932C426.876 12.0932 427.24 12.1932 427.692 12.1932ZM431.306 12.7738V12.348C431.474 11.9416 431.712 11.5706 432.022 11.2352C432.332 10.8997 432.664 10.5836 433.019 10.2868C433.374 9.99007 433.648 9.7417 433.841 9.54171C434.041 9.33527 434.18 9.1385 434.257 8.95142C434.335 8.75788 434.374 8.53208 434.374 8.27403C434.374 7.89986 434.277 7.616 434.083 7.42246C433.89 7.22247 433.528 7.12248 432.999 7.12248C432.761 7.12248 432.516 7.14828 432.264 7.19989C432.012 7.24505 431.774 7.31279 431.548 7.40311V6.69669C431.754 6.62573 432.003 6.56767 432.293 6.52251C432.583 6.4709 432.861 6.44509 433.125 6.44509C433.796 6.44509 434.303 6.6096 434.644 6.93862C434.993 7.26118 435.167 7.70632 435.167 8.27403C435.167 8.58369 435.112 8.85787 435.003 9.09657C434.893 9.32882 434.741 9.55139 434.548 9.76428C434.354 9.97072 434.128 10.1901 433.87 10.4223C433.554 10.6997 433.251 10.9739 432.961 11.2448C432.677 11.5094 432.451 11.8126 432.283 12.1545H435.235V12.7738H431.306Z" fill="white"/>
</svg>
