<svg width="442" height="20" viewBox="0 0 442 20" fill="none" xmlns="http://www.w3.org/2000/svg">
<path d="M55.5161 15.1769V3.88713H60.0481C60.8652 3.88713 61.6018 4.02153 62.2576 4.29034C62.9243 4.55914 63.4941 4.94622 63.9672 5.45157C64.4511 5.95692 64.8167 6.55366 65.064 7.2418C65.322 7.92994 65.451 8.69334 65.451 9.53201C65.451 10.3707 65.322 11.1395 65.064 11.8383C64.8167 12.5265 64.4565 13.1232 63.9834 13.6286C63.5103 14.1232 62.9404 14.5049 62.2738 14.7737C61.6071 15.0425 60.8652 15.1769 60.0481 15.1769H55.5161ZM57.6127 13.5479L57.4514 13.2415H59.9674C60.4943 13.2415 60.962 13.1555 61.3706 12.9834C61.7899 12.8114 62.1447 12.5641 62.4351 12.2415C62.7254 11.919 62.9458 11.5319 63.0963 11.0803C63.2468 10.618 63.3221 10.1019 63.3221 9.53201C63.3221 8.96214 63.2468 8.45142 63.0963 7.99983C62.9458 7.53748 62.72 7.14503 62.4189 6.82247C62.1286 6.4999 61.7792 6.2526 61.3706 6.08057C60.962 5.90853 60.4943 5.82252 59.9674 5.82252H57.4031L57.6127 5.54834V13.5479ZM71.3513 15.3382C70.4589 15.3382 69.6686 15.15 68.9805 14.7737C68.3031 14.3973 67.7708 13.8866 67.3838 13.2415C67.0074 12.5856 66.8193 11.8383 66.8193 10.9997C66.8193 10.333 66.9268 9.72554 67.1418 9.17718C67.3569 8.62883 67.6526 8.15573 68.0289 7.7579C68.416 7.34932 68.8729 7.03751 69.3998 6.82247C69.9374 6.59667 70.5234 6.48377 71.1578 6.48377C71.7169 6.48377 72.2384 6.59129 72.7222 6.80634C73.2061 7.02138 73.6254 7.31706 73.9802 7.69339C74.335 8.05896 74.6038 8.4998 74.7866 9.0159C74.9802 9.52125 75.0716 10.075 75.0608 10.6771L75.0447 11.3706H68.1579L67.787 10.0159H73.3835L73.1254 10.29V9.93521C73.0932 9.60189 72.9856 9.31159 72.8028 9.06429C72.6201 8.80624 72.3835 8.60732 72.0932 8.46754C71.8137 8.31701 71.5018 8.24175 71.1578 8.24175C70.6309 8.24175 70.1847 8.34389 69.8191 8.54818C69.4643 8.75248 69.1955 9.04816 69.0127 9.43524C68.8299 9.81156 68.7385 10.2847 68.7385 10.8545C68.7385 11.4029 68.8514 11.8813 69.0772 12.2899C69.3138 12.6985 69.6417 13.0157 70.0611 13.2415C70.4911 13.4565 70.9911 13.5641 71.561 13.5641C71.9588 13.5641 72.3244 13.4995 72.6577 13.3705C72.991 13.2415 73.3512 13.0103 73.7383 12.677L74.7221 14.0479C74.4318 14.3167 74.0985 14.5479 73.7222 14.7414C73.3566 14.9242 72.9695 15.0694 72.5609 15.1769C72.1523 15.2844 71.7491 15.3382 71.3513 15.3382ZM79.6563 15.3382C78.9037 15.3382 78.2263 15.2145 77.6242 14.9672C77.0328 14.7092 76.549 14.3436 76.1726 13.8705L77.4629 12.7576C77.7855 13.1232 78.1457 13.3866 78.5435 13.5479C78.9413 13.7092 79.3606 13.7899 79.8015 13.7899C79.9843 13.7899 80.1456 13.7683 80.2853 13.7253C80.4359 13.6823 80.5649 13.6178 80.6724 13.5318C80.7799 13.4458 80.8606 13.349 80.9143 13.2415C80.9788 13.1232 81.0111 12.9942 81.0111 12.8544C81.0111 12.5964 80.9143 12.3921 80.7208 12.2415C80.6133 12.1663 80.4412 12.0856 80.2047 11.9996C79.9789 11.9136 79.6832 11.8276 79.3176 11.7416C78.737 11.591 78.2532 11.419 77.8661 11.2255C77.479 11.0212 77.178 10.7954 76.9629 10.5481C76.7801 10.3438 76.6404 10.1126 76.5436 9.85457C76.4576 9.59652 76.4146 9.31696 76.4146 9.0159C76.4146 8.63958 76.4952 8.30089 76.6565 7.99983C76.8285 7.68801 77.0597 7.41921 77.35 7.19341C77.6403 6.96762 77.979 6.79559 78.3661 6.67731C78.7532 6.55904 79.1564 6.4999 79.5757 6.4999C80.0058 6.4999 80.4197 6.55366 80.8176 6.66118C81.2261 6.76871 81.6025 6.92461 81.9465 7.1289C82.3014 7.32244 82.6024 7.55899 82.8497 7.83854L81.753 9.04816C81.5487 8.85462 81.3229 8.68259 81.0756 8.53206C80.8391 8.38153 80.5971 8.26325 80.3498 8.17724C80.1025 8.08047 79.8714 8.03208 79.6563 8.03208C79.452 8.03208 79.2693 8.05359 79.108 8.09659C78.9467 8.12885 78.8123 8.18261 78.7048 8.25788C78.5972 8.33314 78.5112 8.42991 78.4467 8.54818C78.393 8.65571 78.3661 8.78473 78.3661 8.93526C78.3768 9.06429 78.4091 9.18794 78.4628 9.30621C78.5274 9.41373 78.6134 9.50513 78.7209 9.58039C78.8392 9.65566 79.0166 9.74167 79.2531 9.83844C79.4897 9.93521 79.7961 10.0266 80.1724 10.1126C80.6993 10.2524 81.1401 10.4083 81.4949 10.5803C81.8498 10.7524 82.1293 10.9513 82.3336 11.1771C82.5379 11.3706 82.6831 11.5964 82.7691 11.8545C82.8551 12.1125 82.8981 12.3975 82.8981 12.7093C82.8981 13.2146 82.7529 13.6662 82.4626 14.064C82.1831 14.4619 81.796 14.7737 81.3014 14.9995C80.8176 15.2253 80.2692 15.3382 79.6563 15.3382ZM84.8714 15.1769V6.67731H86.8552V15.1769H84.8714ZM85.8391 4.87095C85.4413 4.87095 85.1295 4.77418 84.9037 4.58064C84.6886 4.37635 84.5811 4.09142 84.5811 3.72585C84.5811 3.38178 84.694 3.10222 84.9198 2.88718C85.1456 2.67214 85.452 2.56462 85.8391 2.56462C86.2477 2.56462 86.5595 2.66676 86.7745 2.87105C87.0003 3.06459 87.1132 3.34952 87.1132 3.72585C87.1132 4.05917 87.0003 4.33334 86.7745 4.54839C86.5487 4.76343 86.2369 4.87095 85.8391 4.87095ZM93.1931 18.8864C92.5587 18.8864 91.9243 18.7896 91.2899 18.5961C90.6663 18.4025 90.161 18.1498 89.7739 17.838L90.4835 16.3704C90.7093 16.5316 90.962 16.6714 91.2416 16.7897C91.5211 16.908 91.8168 16.9994 92.1286 17.0639C92.4512 17.1284 92.7684 17.1607 93.0802 17.1607C93.65 17.1607 94.1231 17.0693 94.4995 16.8865C94.8865 16.7144 95.1768 16.4456 95.3704 16.0801C95.5639 15.7252 95.6607 15.279 95.6607 14.7414V13.177L95.951 13.2899C95.8865 13.6232 95.7091 13.9404 95.4188 14.2414C95.1285 14.5425 94.7629 14.7898 94.322 14.9833C93.8812 15.1661 93.4296 15.2575 92.9673 15.2575C92.1609 15.2575 91.4458 15.0694 90.8222 14.693C90.2093 14.3167 89.7201 13.806 89.3546 13.1609C88.9997 12.505 88.8223 11.7523 88.8223 10.9029C88.8223 10.0535 88.9997 9.30083 89.3546 8.64495C89.7094 7.97832 90.1932 7.45684 90.8061 7.08052C91.4297 6.69344 92.1286 6.4999 92.9028 6.4999C93.2253 6.4999 93.5371 6.53753 93.8382 6.6128C94.1393 6.68806 94.4134 6.79559 94.6607 6.93536C94.9188 7.07514 95.15 7.23105 95.3542 7.40308C95.5585 7.57512 95.7252 7.7579 95.8542 7.95144C95.9832 8.14498 96.0639 8.33314 96.0961 8.51593L95.6768 8.64495L95.7091 6.67731H97.6606V14.5963C97.6606 15.2844 97.5584 15.8919 97.3541 16.4188C97.1499 16.9456 96.8542 17.3918 96.4671 17.7574C96.08 18.1337 95.6123 18.4133 95.0639 18.5961C94.5156 18.7896 93.892 18.8864 93.1931 18.8864ZM93.2737 13.5641C93.7576 13.5641 94.1823 13.4512 94.5478 13.2254C94.9242 12.9996 95.2145 12.6878 95.4188 12.2899C95.6231 11.8921 95.7252 11.4351 95.7252 10.919C95.7252 10.3922 95.6177 9.92983 95.4026 9.53201C95.1983 9.12342 94.9134 8.80624 94.5478 8.58044C94.1823 8.35465 93.7576 8.24175 93.2737 8.24175C92.7899 8.24175 92.3652 8.36002 91.9996 8.59657C91.634 8.82236 91.3437 9.13955 91.1287 9.54813C90.9244 9.94596 90.8222 10.4029 90.8222 10.919C90.8222 11.4244 90.9244 11.8813 91.1287 12.2899C91.3437 12.6878 91.634 12.9996 91.9996 13.2254C92.3652 13.4512 92.7899 13.5641 93.2737 13.5641ZM99.9548 15.1769V6.67731H101.89L101.922 8.41916L101.552 8.6127C101.659 8.22562 101.869 7.87618 102.181 7.56436C102.492 7.2418 102.863 6.98375 103.293 6.79021C103.723 6.59667 104.164 6.4999 104.616 6.4999C105.261 6.4999 105.799 6.62893 106.229 6.88698C106.67 7.14503 106.997 7.53211 107.213 8.04821C107.438 8.56431 107.551 9.20944 107.551 9.9836V15.1769H105.567V10.1287C105.567 9.69866 105.508 9.34384 105.39 9.06429C105.272 8.77398 105.089 8.56431 104.842 8.43529C104.594 8.29551 104.293 8.231 103.938 8.24175C103.648 8.24175 103.379 8.29013 103.132 8.3869C102.896 8.47292 102.686 8.60195 102.503 8.77398C102.331 8.93526 102.191 9.12342 102.084 9.33847C101.987 9.55351 101.939 9.79006 101.939 10.0481V15.1769H100.955C100.761 15.1769 100.578 15.1769 100.406 15.1769C100.245 15.1769 100.095 15.1769 99.9548 15.1769ZM112.622 15.3382C111.869 15.3382 111.191 15.2145 110.589 14.9672C109.998 14.7092 109.514 14.3436 109.138 13.8705L110.428 12.7576C110.751 13.1232 111.111 13.3866 111.509 13.5479C111.906 13.7092 112.326 13.7899 112.767 13.7899C112.949 13.7899 113.111 13.7683 113.251 13.7253C113.401 13.6823 113.53 13.6178 113.638 13.5318C113.745 13.4458 113.826 13.349 113.88 13.2415C113.944 13.1232 113.976 12.9942 113.976 12.8544C113.976 12.5964 113.88 12.3921 113.686 12.2415C113.578 12.1663 113.406 12.0856 113.17 11.9996C112.944 11.9136 112.648 11.8276 112.283 11.7416C111.702 11.591 111.218 11.419 110.831 11.2255C110.444 11.0212 110.143 10.7954 109.928 10.5481C109.745 10.3438 109.606 10.1126 109.509 9.85457C109.423 9.59652 109.38 9.31696 109.38 9.0159C109.38 8.63958 109.46 8.30089 109.622 7.99983C109.794 7.68801 110.025 7.41921 110.315 7.19341C110.605 6.96762 110.944 6.79559 111.331 6.67731C111.718 6.55904 112.122 6.4999 112.541 6.4999C112.971 6.4999 113.385 6.55366 113.783 6.66118C114.191 6.76871 114.568 6.92461 114.912 7.1289C115.267 7.32244 115.568 7.55899 115.815 7.83854L114.718 9.04816C114.514 8.85462 114.288 8.68259 114.041 8.53206C113.804 8.38153 113.562 8.26325 113.315 8.17724C113.068 8.08047 112.837 8.03208 112.622 8.03208C112.417 8.03208 112.234 8.05359 112.073 8.09659C111.912 8.12885 111.777 8.18261 111.67 8.25788C111.562 8.33314 111.476 8.42991 111.412 8.54818C111.358 8.65571 111.331 8.78473 111.331 8.93526C111.342 9.06429 111.374 9.18794 111.428 9.30621C111.493 9.41373 111.579 9.50513 111.686 9.58039C111.804 9.65566 111.982 9.74167 112.218 9.83844C112.455 9.93521 112.761 10.0266 113.138 10.1126C113.664 10.2524 114.105 10.4083 114.46 10.5803C114.815 10.7524 115.095 10.9513 115.299 11.1771C115.503 11.3706 115.648 11.5964 115.734 11.8545C115.82 12.1125 115.863 12.3975 115.863 12.7093C115.863 13.2146 115.718 13.6662 115.428 14.064C115.148 14.4619 114.761 14.7737 114.267 14.9995C113.783 15.2253 113.234 15.3382 112.622 15.3382Z" fill="white"/>
<path d="M210.242 9.67676L409.306 9.67678" stroke="white" stroke-width="1.61282" stroke-dasharray="3.23 3.23"/>
<circle cx="431.463" cy="9.67693" r="9.19308" stroke="white" stroke-width="0.967693"/>
<path d="M428.793 12.8705C428.167 12.8705 427.657 12.7447 427.264 12.4931C426.877 12.2415 426.593 11.8802 426.412 11.4092C426.231 10.9383 426.141 10.3803 426.141 9.73513C426.141 9.03839 426.225 8.44487 426.393 7.95457C426.56 7.46427 426.838 7.0901 427.225 6.83205C427.612 6.574 428.135 6.44497 428.793 6.44497C429.444 6.44497 429.963 6.574 430.351 6.83205C430.738 7.0901 431.015 7.46427 431.183 7.95457C431.35 8.44487 431.434 9.03839 431.434 9.73513C431.434 10.3803 431.344 10.9383 431.163 11.4092C430.989 11.8802 430.709 12.2415 430.322 12.4931C429.934 12.7447 429.425 12.8705 428.793 12.8705ZM428.793 12.1931C429.251 12.1931 429.612 12.0931 429.876 11.8931C430.147 11.6866 430.341 11.3996 430.457 11.0318C430.58 10.6577 430.641 10.2254 430.641 9.73513C430.641 8.89001 430.505 8.24488 430.234 7.79974C429.97 7.34815 429.489 7.12236 428.793 7.12236C428.328 7.12236 427.96 7.22235 427.689 7.42234C427.418 7.62233 427.225 7.91909 427.109 8.31262C426.993 8.6997 426.935 9.17386 426.935 9.73513C426.935 10.2254 426.993 10.6577 427.109 11.0318C427.231 11.3996 427.428 11.6866 427.699 11.8931C427.976 12.0931 428.341 12.1931 428.793 12.1931ZM434.081 12.8705C433.797 12.8705 433.494 12.8446 433.171 12.793C432.848 12.7414 432.594 12.6801 432.407 12.6092V11.9124C432.652 12.0092 432.906 12.0802 433.171 12.1253C433.435 12.1705 433.706 12.1931 433.984 12.1931C434.539 12.1931 434.948 12.1092 435.213 11.9415C435.484 11.7737 435.619 11.4802 435.619 11.0609C435.619 10.6609 435.493 10.3706 435.242 10.1899C434.99 10.0093 434.639 9.91899 434.187 9.91899H433.287L433.365 9.31902H434.11C434.574 9.31902 434.919 9.21902 435.145 9.01903C435.371 8.81259 435.484 8.52551 435.484 8.15779C435.484 7.80297 435.364 7.54169 435.126 7.37396C434.893 7.20622 434.519 7.12236 434.003 7.12236C433.745 7.12236 433.484 7.14816 433.219 7.19977C432.961 7.25138 432.729 7.31912 432.523 7.40299V6.71593C432.703 6.64496 432.939 6.58367 433.229 6.53206C433.526 6.474 433.819 6.44497 434.11 6.44497C434.852 6.44497 435.397 6.60625 435.745 6.92882C436.1 7.24493 436.277 7.65136 436.277 8.14811C436.277 8.46422 436.193 8.76098 436.026 9.03839C435.864 9.30934 435.603 9.49965 435.242 9.60933C435.655 9.69964 435.951 9.88028 436.132 10.1512C436.319 10.4157 436.413 10.7189 436.413 11.0609C436.413 11.6673 436.203 12.1221 435.784 12.4253C435.364 12.7221 434.797 12.8705 434.081 12.8705Z" fill="white"/>
</svg>
