<svg width="441" height="20" viewBox="0 0 441 20" fill="none" xmlns="http://www.w3.org/2000/svg">
<path d="M126.516 15.1769V3.88713H131.048C131.865 3.88713 132.602 4.02153 133.258 4.29034C133.924 4.55914 134.494 4.94622 134.967 5.45157C135.451 5.95692 135.817 6.55366 136.064 7.2418C136.322 7.92994 136.451 8.69334 136.451 9.53201C136.451 10.3707 136.322 11.1395 136.064 11.8383C135.817 12.5265 135.456 13.1232 134.983 13.6286C134.51 14.1232 133.94 14.5049 133.274 14.7737C132.607 15.0425 131.865 15.1769 131.048 15.1769H126.516ZM128.613 13.5479L128.451 13.2415H130.967C131.494 13.2415 131.962 13.1555 132.371 12.9834C132.79 12.8114 133.145 12.5641 133.435 12.2415C133.725 11.919 133.946 11.5319 134.096 11.0803C134.247 10.618 134.322 10.1019 134.322 9.53201C134.322 8.96214 134.247 8.45142 134.096 7.99983C133.946 7.53748 133.72 7.14503 133.419 6.82247C133.129 6.4999 132.779 6.2526 132.371 6.08057C131.962 5.90853 131.494 5.82252 130.967 5.82252H128.403L128.613 5.54834V13.5479ZM138.593 15.1769V6.67731H140.577V15.1769H138.593ZM139.561 4.87095C139.163 4.87095 138.851 4.77418 138.626 4.58064C138.411 4.37635 138.303 4.09142 138.303 3.72585C138.303 3.38178 138.416 3.10222 138.642 2.88718C138.868 2.67214 139.174 2.56462 139.561 2.56462C139.97 2.56462 140.282 2.66676 140.497 2.87105C140.722 3.06459 140.835 3.34952 140.835 3.72585C140.835 4.05917 140.722 4.33334 140.497 4.54839C140.271 4.76343 139.959 4.87095 139.561 4.87095ZM143.06 15.1769V6.67731H145.012L145.044 8.3869L144.722 8.51593C144.818 8.23637 144.964 7.97832 145.157 7.74177C145.351 7.49447 145.582 7.28481 145.851 7.11277C146.119 6.92999 146.404 6.79021 146.705 6.69344C147.006 6.58592 147.313 6.53216 147.625 6.53216C148.087 6.53216 148.496 6.60742 148.85 6.75795C149.216 6.89773 149.517 7.12353 149.754 7.43534C150.001 7.74715 150.184 8.14498 150.302 8.62883L149.996 8.56431L150.125 8.30626C150.243 8.04821 150.41 7.81704 150.625 7.61275C150.84 7.39771 151.082 7.20954 151.35 7.04826C151.619 6.87623 151.899 6.7472 152.189 6.66118C152.49 6.57517 152.786 6.53216 153.076 6.53216C153.721 6.53216 154.259 6.66118 154.689 6.91923C155.119 7.17729 155.442 7.56974 155.657 8.09659C155.872 8.62345 155.979 9.27395 155.979 10.0481V15.1769H153.979V10.1771C153.979 9.74705 153.92 9.39223 153.802 9.11267C153.694 8.83312 153.522 8.62883 153.286 8.4998C153.06 8.36002 152.775 8.29013 152.431 8.29013C152.162 8.29013 151.904 8.33852 151.657 8.43529C151.42 8.5213 151.216 8.65033 151.044 8.82236C150.872 8.98365 150.737 9.17181 150.641 9.38685C150.544 9.60189 150.496 9.83844 150.496 10.0965V15.1769H148.496V10.161C148.496 9.75242 148.437 9.41373 148.318 9.14493C148.2 8.86537 148.028 8.65571 147.802 8.51593C147.576 8.3654 147.302 8.29013 146.98 8.29013C146.711 8.29013 146.458 8.33852 146.222 8.43529C145.985 8.5213 145.781 8.64495 145.609 8.80624C145.437 8.96752 145.302 9.15568 145.205 9.37072C145.109 9.58577 145.06 9.82231 145.06 10.0804V15.1769H143.06ZM162.165 15.3382C161.273 15.3382 160.482 15.15 159.794 14.7737C159.117 14.3973 158.585 13.8866 158.198 13.2415C157.821 12.5856 157.633 11.8383 157.633 10.9997C157.633 10.333 157.741 9.72554 157.956 9.17718C158.171 8.62883 158.466 8.15573 158.843 7.7579C159.23 7.34932 159.687 7.03751 160.214 6.82247C160.751 6.59667 161.337 6.48377 161.972 6.48377C162.531 6.48377 163.052 6.59129 163.536 6.80634C164.02 7.02138 164.439 7.31706 164.794 7.69339C165.149 8.05896 165.418 8.4998 165.6 9.0159C165.794 9.52125 165.885 10.075 165.875 10.6771L165.858 11.3706H158.972L158.601 10.0159H164.197L163.939 10.29V9.93521C163.907 9.60189 163.799 9.31159 163.617 9.06429C163.434 8.80624 163.197 8.60732 162.907 8.46754C162.627 8.31701 162.316 8.24175 161.972 8.24175C161.445 8.24175 160.998 8.34389 160.633 8.54818C160.278 8.75248 160.009 9.04816 159.826 9.43524C159.644 9.81156 159.552 10.2847 159.552 10.8545C159.552 11.4029 159.665 11.8813 159.891 12.2899C160.128 12.6985 160.455 13.0157 160.875 13.2415C161.305 13.4565 161.805 13.5641 162.375 13.5641C162.773 13.5641 163.138 13.4995 163.471 13.3705C163.805 13.2415 164.165 13.0103 164.552 12.677L165.536 14.0479C165.246 14.3167 164.912 14.5479 164.536 14.7414C164.17 14.9242 163.783 15.0694 163.375 15.1769C162.966 15.2844 162.563 15.3382 162.165 15.3382ZM167.632 15.1769V6.67731H169.567L169.599 8.41916L169.228 8.6127C169.336 8.22562 169.545 7.87618 169.857 7.56436C170.169 7.2418 170.54 6.98375 170.97 6.79021C171.4 6.59667 171.841 6.4999 172.293 6.4999C172.938 6.4999 173.475 6.62893 173.905 6.88698C174.346 7.14503 174.674 7.53211 174.889 8.04821C175.115 8.56431 175.228 9.20944 175.228 9.9836V15.1769H173.244V10.1287C173.244 9.69866 173.185 9.34384 173.067 9.06429C172.948 8.77398 172.766 8.56431 172.518 8.43529C172.271 8.29551 171.97 8.231 171.615 8.24175C171.325 8.24175 171.056 8.29013 170.809 8.3869C170.572 8.47292 170.363 8.60195 170.18 8.77398C170.008 8.93526 169.868 9.12342 169.76 9.33847C169.664 9.55351 169.615 9.79006 169.615 10.0481V15.1769H168.631C168.438 15.1769 168.255 15.1769 168.083 15.1769C167.922 15.1769 167.771 15.1769 167.632 15.1769ZM180.298 15.3382C179.546 15.3382 178.868 15.2145 178.266 14.9672C177.675 14.7092 177.191 14.3436 176.815 13.8705L178.105 12.7576C178.427 13.1232 178.788 13.3866 179.185 13.5479C179.583 13.7092 180.003 13.7899 180.443 13.7899C180.626 13.7899 180.787 13.7683 180.927 13.7253C181.078 13.6823 181.207 13.6178 181.314 13.5318C181.422 13.4458 181.502 13.349 181.556 13.2415C181.621 13.1232 181.653 12.9942 181.653 12.8544C181.653 12.5964 181.556 12.3921 181.363 12.2415C181.255 12.1663 181.083 12.0856 180.847 11.9996C180.621 11.9136 180.325 11.8276 179.96 11.7416C179.379 11.591 178.895 11.419 178.508 11.2255C178.121 11.0212 177.82 10.7954 177.605 10.5481C177.422 10.3438 177.282 10.1126 177.185 9.85457C177.099 9.59652 177.056 9.31696 177.056 9.0159C177.056 8.63958 177.137 8.30089 177.298 7.99983C177.47 7.68801 177.702 7.41921 177.992 7.19341C178.282 6.96762 178.621 6.79559 179.008 6.67731C179.395 6.55904 179.798 6.4999 180.218 6.4999C180.648 6.4999 181.062 6.55366 181.459 6.66118C181.868 6.76871 182.244 6.92461 182.588 7.1289C182.943 7.32244 183.244 7.55899 183.492 7.83854L182.395 9.04816C182.191 8.85462 181.965 8.68259 181.718 8.53206C181.481 8.38153 181.239 8.26325 180.992 8.17724C180.744 8.08047 180.513 8.03208 180.298 8.03208C180.094 8.03208 179.911 8.05359 179.75 8.09659C179.589 8.12885 179.454 8.18261 179.347 8.25788C179.239 8.33314 179.153 8.42991 179.089 8.54818C179.035 8.65571 179.008 8.78473 179.008 8.93526C179.019 9.06429 179.051 9.18794 179.105 9.30621C179.169 9.41373 179.255 9.50513 179.363 9.58039C179.481 9.65566 179.658 9.74167 179.895 9.83844C180.132 9.93521 180.438 10.0266 180.814 10.1126C181.341 10.2524 181.782 10.4083 182.137 10.5803C182.492 10.7524 182.771 10.9513 182.976 11.1771C183.18 11.3706 183.325 11.5964 183.411 11.8545C183.497 12.1125 183.54 12.3975 183.54 12.7093C183.54 13.2146 183.395 13.6662 183.105 14.064C182.825 14.4619 182.438 14.7737 181.943 14.9995C181.459 15.2253 180.911 15.3382 180.298 15.3382ZM185.513 15.1769V6.67731H187.497V15.1769H185.513ZM186.481 4.87095C186.083 4.87095 185.771 4.77418 185.546 4.58064C185.331 4.37635 185.223 4.09142 185.223 3.72585C185.223 3.38178 185.336 3.10222 185.562 2.88718C185.787 2.67214 186.094 2.56462 186.481 2.56462C186.89 2.56462 187.201 2.66676 187.416 2.87105C187.642 3.06459 187.755 3.34952 187.755 3.72585C187.755 4.05917 187.642 4.33334 187.416 4.54839C187.191 4.76343 186.879 4.87095 186.481 4.87095ZM193.899 15.3382C193.05 15.3382 192.292 15.15 191.625 14.7737C190.959 14.3866 190.432 13.8597 190.045 13.1931C189.658 12.5265 189.464 11.7685 189.464 10.919C189.464 10.0696 189.658 9.31159 190.045 8.64495C190.432 7.97832 190.959 7.45684 191.625 7.08052C192.292 6.69344 193.05 6.4999 193.899 6.4999C194.738 6.4999 195.491 6.69344 196.157 7.08052C196.824 7.45684 197.346 7.97832 197.722 8.64495C198.109 9.31159 198.302 10.0696 198.302 10.919C198.302 11.7685 198.109 12.5265 197.722 13.1931C197.346 13.8597 196.824 14.3866 196.157 14.7737C195.491 15.15 194.738 15.3382 193.899 15.3382ZM193.899 13.5802C194.362 13.5802 194.77 13.4619 195.125 13.2254C195.491 12.9888 195.776 12.6716 195.98 12.2738C196.195 11.876 196.297 11.4244 196.286 10.919C196.297 10.4029 196.195 9.94596 195.98 9.54813C195.776 9.1503 195.491 8.83849 195.125 8.6127C194.77 8.37615 194.362 8.25788 193.899 8.25788C193.437 8.25788 193.018 8.37615 192.641 8.6127C192.276 8.83849 191.991 9.15568 191.787 9.56426C191.582 9.96209 191.48 10.4137 191.48 10.919C191.48 11.4244 191.582 11.876 191.787 12.2738C191.991 12.6716 192.276 12.9888 192.641 13.2254C193.018 13.4619 193.437 13.5802 193.899 13.5802ZM200.077 15.1769V6.67731H202.012L202.045 8.41916L201.674 8.6127C201.781 8.22562 201.991 7.87618 202.303 7.56436C202.614 7.2418 202.985 6.98375 203.415 6.79021C203.846 6.59667 204.286 6.4999 204.738 6.4999C205.383 6.4999 205.921 6.62893 206.351 6.88698C206.792 7.14503 207.12 7.53211 207.335 8.04821C207.56 8.56431 207.673 9.20944 207.673 9.9836V15.1769H205.69V10.1287C205.69 9.69866 205.63 9.34384 205.512 9.06429C205.394 8.77398 205.211 8.56431 204.964 8.43529C204.716 8.29551 204.415 8.231 204.061 8.24175C203.77 8.24175 203.502 8.29013 203.254 8.3869C203.018 8.47292 202.808 8.60195 202.625 8.77398C202.453 8.93526 202.313 9.12342 202.206 9.33847C202.109 9.55351 202.061 9.79006 202.061 10.0481V15.1769H201.077C200.883 15.1769 200.701 15.1769 200.529 15.1769C200.367 15.1769 200.217 15.1769 200.077 15.1769ZM215.001 15.1769V3.88713H219.533C220.35 3.88713 221.086 4.02153 221.742 4.29034C222.409 4.55914 222.979 4.94622 223.452 5.45157C223.936 5.95692 224.301 6.55366 224.549 7.2418C224.807 7.92994 224.936 8.69334 224.936 9.53201C224.936 10.3707 224.807 11.1395 224.549 11.8383C224.301 12.5265 223.941 13.1232 223.468 13.6286C222.995 14.1232 222.425 14.5049 221.758 14.7737C221.092 15.0425 220.35 15.1769 219.533 15.1769H215.001ZM217.097 13.5479L216.936 13.2415H219.452C219.979 13.2415 220.447 13.1555 220.855 12.9834C221.275 12.8114 221.629 12.5641 221.92 12.2415C222.21 11.919 222.43 11.5319 222.581 11.0803C222.732 10.618 222.807 10.1019 222.807 9.53201C222.807 8.96214 222.732 8.45142 222.581 7.99983C222.43 7.53748 222.205 7.14503 221.904 6.82247C221.613 6.4999 221.264 6.2526 220.855 6.08057C220.447 5.90853 219.979 5.82252 219.452 5.82252H216.888L217.097 5.54834V13.5479ZM230.836 15.3382C229.944 15.3382 229.153 15.15 228.465 14.7737C227.788 14.3973 227.256 13.8866 226.868 13.2415C226.492 12.5856 226.304 11.8383 226.304 10.9997C226.304 10.333 226.411 9.72554 226.627 9.17718C226.842 8.62883 227.137 8.15573 227.514 7.7579C227.901 7.34932 228.358 7.03751 228.884 6.82247C229.422 6.59667 230.008 6.48377 230.642 6.48377C231.202 6.48377 231.723 6.59129 232.207 6.80634C232.691 7.02138 233.11 7.31706 233.465 7.69339C233.82 8.05896 234.088 8.4998 234.271 9.0159C234.465 9.52125 234.556 10.075 234.545 10.6771L234.529 11.3706H227.643L227.272 10.0159H232.868L232.61 10.29V9.93521C232.578 9.60189 232.47 9.31159 232.288 9.06429C232.105 8.80624 231.868 8.60732 231.578 8.46754C231.298 8.31701 230.987 8.24175 230.642 8.24175C230.116 8.24175 229.669 8.34389 229.304 8.54818C228.949 8.75248 228.68 9.04816 228.497 9.43524C228.315 9.81156 228.223 10.2847 228.223 10.8545C228.223 11.4029 228.336 11.8813 228.562 12.2899C228.798 12.6985 229.126 13.0157 229.546 13.2415C229.976 13.4565 230.476 13.5641 231.046 13.5641C231.443 13.5641 231.809 13.4995 232.142 13.3705C232.476 13.2415 232.836 13.0103 233.223 12.677L234.207 14.0479C233.916 14.3167 233.583 14.5479 233.207 14.7414C232.841 14.9242 232.454 15.0694 232.046 15.1769C231.637 15.2844 231.234 15.3382 230.836 15.3382ZM237.222 15.1769V4.51613H239.206V15.1769H237.222ZM235.544 8.51593V6.67731H241.06V8.51593H235.544ZM245.702 15.3382C245.003 15.3382 244.369 15.1446 243.799 14.7575C243.229 14.3705 242.772 13.8436 242.428 13.177C242.084 12.5103 241.912 11.7523 241.912 10.9029C241.912 10.0535 242.084 9.29546 242.428 8.62883C242.772 7.96219 243.24 7.44071 243.831 7.06439C244.422 6.68806 245.089 6.4999 245.831 6.4999C246.261 6.4999 246.653 6.56441 247.008 6.69344C247.363 6.81171 247.675 6.98375 247.944 7.20954C248.212 7.43534 248.433 7.69339 248.605 7.9837C248.788 8.274 248.911 8.58582 248.976 8.91913L248.54 8.80624V6.67731H250.54V15.1769H248.524V13.1447L248.992 13.0641C248.917 13.3544 248.777 13.6393 248.573 13.9189C248.379 14.1877 248.132 14.4296 247.831 14.6446C247.54 14.8489 247.212 15.0156 246.847 15.1446C246.492 15.2736 246.11 15.3382 245.702 15.3382ZM246.25 13.5802C246.712 13.5802 247.121 13.4673 247.476 13.2415C247.831 13.0157 248.105 12.7039 248.298 12.3061C248.503 11.8975 248.605 11.4298 248.605 10.9029C248.605 10.3868 248.503 9.92983 248.298 9.53201C248.105 9.13418 247.831 8.82236 247.476 8.59657C247.121 8.37077 246.712 8.25788 246.25 8.25788C245.788 8.25788 245.379 8.37077 245.024 8.59657C244.68 8.82236 244.412 9.13418 244.218 9.53201C244.024 9.92983 243.928 10.3868 243.928 10.9029C243.928 11.4298 244.024 11.8975 244.218 12.3061C244.412 12.7039 244.68 13.0157 245.024 13.2415C245.379 13.4673 245.788 13.5802 246.25 13.5802ZM253.066 15.1769V6.67731H255.05V15.1769H253.066ZM254.034 4.87095C253.636 4.87095 253.324 4.77418 253.098 4.58064C252.883 4.37635 252.776 4.09142 252.776 3.72585C252.776 3.38178 252.889 3.10222 253.114 2.88718C253.34 2.67214 253.647 2.56462 254.034 2.56462C254.442 2.56462 254.754 2.66676 254.969 2.87105C255.195 3.06459 255.308 3.34952 255.308 3.72585C255.308 4.05917 255.195 4.33334 254.969 4.54839C254.743 4.76343 254.431 4.87095 254.034 4.87095ZM257.581 15.1769V3.242H259.581V15.1769H257.581ZM264.751 15.3382C263.998 15.3382 263.321 15.2145 262.719 14.9672C262.127 14.7092 261.643 14.3436 261.267 13.8705L262.557 12.7576C262.88 13.1232 263.24 13.3866 263.638 13.5479C264.036 13.7092 264.455 13.7899 264.896 13.7899C265.079 13.7899 265.24 13.7683 265.38 13.7253C265.53 13.6823 265.659 13.6178 265.767 13.5318C265.874 13.4458 265.955 13.349 266.009 13.2415C266.073 13.1232 266.106 12.9942 266.106 12.8544C266.106 12.5964 266.009 12.3921 265.815 12.2415C265.708 12.1663 265.536 12.0856 265.299 11.9996C265.073 11.9136 264.778 11.8276 264.412 11.7416C263.832 11.591 263.348 11.419 262.961 11.2255C262.574 11.0212 262.272 10.7954 262.057 10.5481C261.875 10.3438 261.735 10.1126 261.638 9.85457C261.552 9.59652 261.509 9.31696 261.509 9.0159C261.509 8.63958 261.59 8.30089 261.751 7.99983C261.923 7.68801 262.154 7.41921 262.444 7.19341C262.735 6.96762 263.074 6.79559 263.461 6.67731C263.848 6.55904 264.251 6.4999 264.67 6.4999C265.1 6.4999 265.514 6.55366 265.912 6.66118C266.321 6.76871 266.697 6.92461 267.041 7.1289C267.396 7.32244 267.697 7.55899 267.944 7.83854L266.848 9.04816C266.643 8.85462 266.417 8.68259 266.17 8.53206C265.934 8.38153 265.692 8.26325 265.444 8.17724C265.197 8.08047 264.966 8.03208 264.751 8.03208C264.547 8.03208 264.364 8.05359 264.202 8.09659C264.041 8.12885 263.907 8.18261 263.799 8.25788C263.692 8.33314 263.606 8.42991 263.541 8.54818C263.487 8.65571 263.461 8.78473 263.461 8.93526C263.471 9.06429 263.504 9.18794 263.557 9.30621C263.622 9.41373 263.708 9.50513 263.815 9.58039C263.934 9.65566 264.111 9.74167 264.348 9.83844C264.584 9.93521 264.891 10.0266 265.267 10.1126C265.794 10.2524 266.235 10.4083 266.589 10.5803C266.944 10.7524 267.224 10.9513 267.428 11.1771C267.632 11.3706 267.778 11.5964 267.864 11.8545C267.95 12.1125 267.993 12.3975 267.993 12.7093C267.993 13.2146 267.847 13.6662 267.557 14.064C267.278 14.4619 266.891 14.7737 266.396 14.9995C265.912 15.2253 265.364 15.3382 264.751 15.3382Z" fill="white"/>
<path d="M281.242 9.62842L408.795 9.62843" stroke="white" stroke-width="1.61282" stroke-dasharray="3.23 3.23"/>
<circle cx="430.952" cy="9.67693" r="9.19308" stroke="white" stroke-width="0.967693"/>
<path d="M428.282 12.8705C427.656 12.8705 427.146 12.7447 426.753 12.4931C426.366 12.2415 426.082 11.8802 425.901 11.4092C425.721 10.9383 425.63 10.3803 425.63 9.73513C425.63 9.03839 425.714 8.44487 425.882 7.95457C426.05 7.46427 426.327 7.0901 426.714 6.83205C427.101 6.574 427.624 6.44497 428.282 6.44497C428.933 6.44497 429.453 6.574 429.84 6.83205C430.227 7.0901 430.504 7.46427 430.672 7.95457C430.84 8.44487 430.924 9.03839 430.924 9.73513C430.924 10.3803 430.833 10.9383 430.653 11.4092C430.478 11.8802 430.198 12.2415 429.811 12.4931C429.424 12.7447 428.914 12.8705 428.282 12.8705ZM428.282 12.1931C428.74 12.1931 429.101 12.0931 429.366 11.8931C429.637 11.6866 429.83 11.3996 429.946 11.0318C430.069 10.6577 430.13 10.2254 430.13 9.73513C430.13 8.89001 429.995 8.24488 429.724 7.79974C429.459 7.34815 428.979 7.12236 428.282 7.12236C427.817 7.12236 427.45 7.22235 427.179 7.42234C426.908 7.62233 426.714 7.91909 426.598 8.31262C426.482 8.6997 426.424 9.17386 426.424 9.73513C426.424 10.2254 426.482 10.6577 426.598 11.0318C426.721 11.3996 426.917 11.6866 427.188 11.8931C427.466 12.0931 427.83 12.1931 428.282 12.1931ZM434.905 12.7737V11.3415H431.702V10.7415L434.992 6.54174H435.699V10.6931H436.357V11.3415H435.699V12.7737H434.905ZM432.496 10.7125H435.012V7.49008L432.496 10.7125Z" fill="white"/>
</svg>
