<svg width="442" height="20" viewBox="0 0 442 20" fill="none" xmlns="http://www.w3.org/2000/svg">
<path d="M16.5161 15.177V3.88725H18.6127V15.177H16.5161ZM17.4837 10.5482V8.64508H23.306V10.5482H17.4837ZM17.4837 5.82264V3.88725H23.9995V5.82264H17.4837ZM29.721 15.3383C28.8286 15.3383 28.0383 15.1501 27.3502 14.7738C26.6728 14.3975 26.1406 13.8867 25.7535 13.2416C25.3772 12.5857 25.189 11.8385 25.189 10.9998C25.189 10.3332 25.2965 9.72567 25.5116 9.17731C25.7266 8.62895 26.0223 8.15585 26.3986 7.75802C26.7857 7.34944 27.2427 7.03763 27.7695 6.82259C28.3071 6.59679 28.8931 6.4839 29.5275 6.4839C30.0866 6.4839 30.6081 6.59142 31.0919 6.80646C31.5758 7.0215 31.9951 7.31719 32.3499 7.69351C32.7047 8.05908 32.9735 8.49992 33.1563 9.01602C33.3499 9.52138 33.4413 10.0751 33.4305 10.6772L33.4144 11.3707H26.5276L26.1567 10.016H31.7532L31.4951 10.2902V9.93533C31.4629 9.60202 31.3554 9.31171 31.1726 9.06441C30.9898 8.80636 30.7532 8.60744 30.4629 8.46767C30.1834 8.31714 29.8716 8.24187 29.5275 8.24187C29.0006 8.24187 28.5544 8.34402 28.1888 8.54831C27.834 8.7526 27.5652 9.04828 27.3824 9.43536C27.1996 9.81168 27.1083 10.2848 27.1083 10.8546C27.1083 11.403 27.2212 11.8815 27.4469 12.2901C27.6835 12.6986 28.0114 13.0158 28.4308 13.2416C28.8609 13.4567 29.3608 13.5642 29.9307 13.5642C30.3285 13.5642 30.6941 13.4997 31.0274 13.3706C31.3607 13.2416 31.7209 13.0104 32.108 12.6771L33.0918 14.048C32.8015 14.3168 32.4682 14.548 32.0919 14.7415C31.7263 14.9243 31.3392 15.0695 30.9306 15.177C30.5221 15.2845 30.1189 15.3383 29.721 15.3383ZM38.397 15.3383C37.6981 15.3383 37.0637 15.1447 36.4939 14.7577C35.924 14.3706 35.467 13.8437 35.123 13.1771C34.7789 12.5105 34.6069 11.7524 34.6069 10.903C34.6069 10.0536 34.7789 9.29558 35.123 8.62895C35.467 7.96231 35.9348 7.44084 36.5261 7.06451C37.1175 6.68819 37.7841 6.50002 38.526 6.50002C38.9561 6.50002 39.3486 6.56454 39.7034 6.69356C40.0582 6.81184 40.37 6.98387 40.6388 7.20966C40.9076 7.43546 41.128 7.69351 41.3001 7.98382C41.4829 8.27413 41.6065 8.58594 41.671 8.91926L41.2356 8.80636V6.67743H43.2355V15.177H41.2194V13.1448L41.6872 13.0642C41.6119 13.3545 41.4721 13.6394 41.2678 13.919C41.0743 14.1878 40.827 14.4297 40.5259 14.6448C40.2356 14.8491 39.9077 15.0157 39.5421 15.1447C39.1873 15.2738 38.8056 15.3383 38.397 15.3383ZM38.9454 13.5803C39.4077 13.5803 39.8163 13.4674 40.1711 13.2416C40.5259 13.0158 40.8001 12.704 40.9936 12.3062C41.1979 11.8976 41.3001 11.4299 41.3001 10.903C41.3001 10.3869 41.1979 9.92996 40.9936 9.53213C40.8001 9.1343 40.5259 8.82249 40.1711 8.59669C39.8163 8.3709 39.4077 8.258 38.9454 8.258C38.483 8.258 38.0744 8.3709 37.7196 8.59669C37.3755 8.82249 37.1067 9.1343 36.9132 9.53213C36.7197 9.92996 36.6229 10.3869 36.6229 10.903C36.6229 11.4299 36.7197 11.8976 36.9132 12.3062C37.1067 12.704 37.3755 13.0158 37.7196 13.2416C38.0744 13.4674 38.483 13.5803 38.9454 13.5803ZM46.4547 15.177V4.51625H48.4384V15.177H46.4547ZM44.7773 8.51605V6.67743H50.2932V8.51605H44.7773ZM54.7554 15.3383C54.1425 15.3383 53.6103 15.2039 53.1587 14.9351C52.7071 14.6555 52.3631 14.2631 52.1265 13.7577C51.89 13.2416 51.7717 12.6287 51.7717 11.9191V6.67743H53.7555V11.4998C53.7555 11.9514 53.8254 12.3384 53.9651 12.661C54.1049 12.9728 54.3092 13.2147 54.578 13.3868C54.8468 13.5588 55.1694 13.6448 55.5457 13.6448C55.8253 13.6448 56.0779 13.6018 56.3037 13.5158C56.5403 13.419 56.7446 13.29 56.9166 13.1287C57.0886 12.9567 57.223 12.7578 57.3198 12.532C57.4166 12.2954 57.465 12.0428 57.465 11.7739V6.67743H59.4487V15.177H57.5133L57.4811 13.4029L57.8359 13.2094C57.7069 13.6179 57.4865 13.9835 57.1746 14.3061C56.8736 14.6179 56.5134 14.8706 56.0941 15.0641C55.6747 15.2469 55.2285 15.3383 54.7554 15.3383ZM61.7738 15.177V6.67743H63.7253L63.7576 9.38697L63.4834 8.7741C63.6017 8.34402 63.806 7.95694 64.0963 7.61287C64.3866 7.2688 64.7199 7 65.0962 6.80646C65.4833 6.60217 65.8865 6.50002 66.3059 6.50002C66.4886 6.50002 66.6607 6.51615 66.822 6.54841C66.994 6.58066 67.1338 6.6183 67.2413 6.66131L66.7091 8.83861C66.5908 8.7741 66.4456 8.72034 66.2736 8.67733C66.1016 8.63432 65.9295 8.61282 65.7575 8.61282C65.4887 8.61282 65.2306 8.66658 64.9833 8.7741C64.7468 8.87087 64.5371 9.01065 64.3543 9.19343C64.1716 9.37622 64.0264 9.59126 63.9189 9.83856C63.8221 10.0751 63.7737 10.3439 63.7737 10.645V15.177H61.7738ZM72.1836 15.3383C71.2912 15.3383 70.5009 15.1501 69.8127 14.7738C69.1354 14.3975 68.6031 13.8867 68.216 13.2416C67.8397 12.5857 67.6516 11.8385 67.6516 10.9998C67.6516 10.3332 67.7591 9.72567 67.9741 9.17731C68.1892 8.62895 68.4848 8.15585 68.8612 7.75802C69.2482 7.34944 69.7052 7.03763 70.2321 6.82259C70.7697 6.59679 71.3557 6.4839 71.99 6.4839C72.5492 6.4839 73.0706 6.59142 73.5545 6.80646C74.0383 7.0215 74.4577 7.31719 74.8125 7.69351C75.1673 8.05908 75.4361 8.49992 75.6189 9.01602C75.8124 9.52138 75.9038 10.0751 75.8931 10.6772L75.8769 11.3707H68.9902L68.6192 10.016H74.2157L73.9577 10.2902V9.93533C73.9254 9.60202 73.8179 9.31171 73.6351 9.06441C73.4523 8.80636 73.2158 8.60744 72.9255 8.46767C72.6459 8.31714 72.3341 8.24187 71.99 8.24187C71.4632 8.24187 71.017 8.34402 70.6514 8.54831C70.2966 8.7526 70.0278 9.04828 69.845 9.43536C69.6622 9.81168 69.5708 10.2848 69.5708 10.8546C69.5708 11.403 69.6837 11.8815 69.9095 12.2901C70.1461 12.6986 70.474 13.0158 70.8933 13.2416C71.3234 13.4567 71.8234 13.5642 72.3933 13.5642C72.7911 13.5642 73.1567 13.4997 73.49 13.3706C73.8233 13.2416 74.1835 13.0104 74.5706 12.6771L75.5544 14.048C75.2641 14.3168 74.9308 14.548 74.5544 14.7415C74.1889 14.9243 73.8018 15.0695 73.3932 15.177C72.9846 15.2845 72.5814 15.3383 72.1836 15.3383ZM80.4886 15.3383C79.736 15.3383 79.0586 15.2146 78.4564 14.9673C77.8651 14.7093 77.3812 14.3437 77.0049 13.8706L78.2952 12.7578C78.6177 13.1233 78.9779 13.3868 79.3758 13.5481C79.7736 13.7093 80.1929 13.79 80.6338 13.79C80.8165 13.79 80.9778 13.7685 81.1176 13.7255C81.2681 13.6825 81.3972 13.6179 81.5047 13.5319C81.6122 13.4459 81.6928 13.3491 81.7466 13.2416C81.8111 13.1233 81.8434 12.9943 81.8434 12.8545C81.8434 12.5965 81.7466 12.3922 81.5531 12.2417C81.4455 12.1664 81.2735 12.0858 81.037 11.9997C80.8112 11.9137 80.5155 11.8277 80.1499 11.7417C79.5693 11.5912 79.0854 11.4191 78.6984 11.2256C78.3113 11.0213 78.0102 10.7955 77.7952 10.5482C77.6124 10.3439 77.4726 10.1127 77.3759 9.85469C77.2898 9.59664 77.2468 9.31708 77.2468 9.01602C77.2468 8.6397 77.3275 8.30101 77.4888 7.99995C77.6608 7.68814 77.892 7.41933 78.1823 7.19354C78.4726 6.96774 78.8113 6.79571 79.1983 6.67743C79.5854 6.55916 79.9886 6.50002 80.408 6.50002C80.838 6.50002 81.252 6.55378 81.6498 6.66131C82.0584 6.76883 82.4347 6.92473 82.7788 7.12902C83.1336 7.32256 83.4347 7.55911 83.682 7.83867L82.5853 9.04828C82.381 8.85474 82.1552 8.68271 81.9079 8.53218C81.6713 8.38165 81.4294 8.26337 81.1821 8.17736C80.9348 8.08059 80.7036 8.0322 80.4886 8.0322C80.2843 8.0322 80.1015 8.05371 79.9402 8.09672C79.779 8.12897 79.6446 8.18273 79.537 8.258C79.4295 8.33326 79.3435 8.43003 79.279 8.54831C79.2252 8.65583 79.1983 8.78485 79.1983 8.93538C79.2091 9.06441 79.2414 9.18806 79.2951 9.30633C79.3596 9.41385 79.4456 9.50525 79.5532 9.58051C79.6714 9.65578 79.8489 9.74179 80.0854 9.83856C80.3219 9.93533 80.6284 10.0267 81.0047 10.1127C81.5316 10.2525 81.9724 10.4084 82.3272 10.5805C82.682 10.7525 82.9616 10.9514 83.1659 11.1772C83.3702 11.3707 83.5153 11.5965 83.6013 11.8546C83.6874 12.1126 83.7304 12.3976 83.7304 12.7094C83.7304 13.2147 83.5852 13.6663 83.2949 14.0642C83.0154 14.462 82.6283 14.7738 82.1337 14.9996C81.6498 15.2254 81.1015 15.3383 80.4886 15.3383Z" fill="white"/>
<path d="M171.242 9.67676L409.306 9.67678" stroke="white" stroke-width="1.61282" stroke-dasharray="3.23 3.23"/>
<circle cx="431.463" cy="9.67693" r="9.19308" stroke="white" stroke-width="0.967693"/>
<path d="M428.793 12.8705C428.167 12.8705 427.657 12.7447 427.264 12.4931C426.877 12.2415 426.593 11.8802 426.412 11.4092C426.231 10.9383 426.141 10.3803 426.141 9.73513C426.141 9.03839 426.225 8.44487 426.393 7.95457C426.56 7.46427 426.838 7.0901 427.225 6.83205C427.612 6.574 428.135 6.44497 428.793 6.44497C429.444 6.44497 429.963 6.574 430.351 6.83205C430.738 7.0901 431.015 7.46427 431.183 7.95457C431.35 8.44487 431.434 9.03839 431.434 9.73513C431.434 10.3803 431.344 10.9383 431.163 11.4092C430.989 11.8802 430.709 12.2415 430.322 12.4931C429.934 12.7447 429.425 12.8705 428.793 12.8705ZM428.793 12.1931C429.251 12.1931 429.612 12.0931 429.876 11.8931C430.147 11.6866 430.341 11.3996 430.457 11.0318C430.58 10.6577 430.641 10.2254 430.641 9.73513C430.641 8.89001 430.505 8.24488 430.234 7.79974C429.97 7.34815 429.489 7.12236 428.793 7.12236C428.328 7.12236 427.96 7.22235 427.689 7.42234C427.418 7.62233 427.225 7.91909 427.109 8.31262C426.993 8.6997 426.935 9.17386 426.935 9.73513C426.935 10.2254 426.993 10.6577 427.109 11.0318C427.231 11.3996 427.428 11.6866 427.699 11.8931C427.976 12.0931 428.341 12.1931 428.793 12.1931ZM434.081 12.8705C433.797 12.8705 433.494 12.8446 433.171 12.793C432.848 12.7414 432.594 12.6801 432.407 12.6092V11.9124C432.652 12.0092 432.906 12.0802 433.171 12.1253C433.435 12.1705 433.706 12.1931 433.984 12.1931C434.539 12.1931 434.948 12.1092 435.213 11.9415C435.484 11.7737 435.619 11.4802 435.619 11.0609C435.619 10.6609 435.493 10.3706 435.242 10.1899C434.99 10.0093 434.639 9.91899 434.187 9.91899H433.287L433.365 9.31902H434.11C434.574 9.31902 434.919 9.21902 435.145 9.01903C435.371 8.81259 435.484 8.52551 435.484 8.15779C435.484 7.80297 435.364 7.54169 435.126 7.37396C434.893 7.20622 434.519 7.12236 434.003 7.12236C433.745 7.12236 433.484 7.14816 433.219 7.19977C432.961 7.25138 432.729 7.31912 432.523 7.40299V6.71593C432.703 6.64496 432.939 6.58367 433.229 6.53206C433.526 6.474 433.819 6.44497 434.11 6.44497C434.852 6.44497 435.397 6.60625 435.745 6.92882C436.1 7.24493 436.277 7.65136 436.277 8.14811C436.277 8.46422 436.193 8.76098 436.026 9.03839C435.864 9.30934 435.603 9.49965 435.242 9.60933C435.655 9.69964 435.951 9.88028 436.132 10.1512C436.319 10.4157 436.413 10.7189 436.413 11.0609C436.413 11.6673 436.203 12.1221 435.784 12.4253C435.364 12.7221 434.797 12.8705 434.081 12.8705Z" fill="white"/>
</svg>
