<svg width="442" height="20" viewBox="0 0 442 20" fill="none" xmlns="http://www.w3.org/2000/svg">
<path d="M92.3868 15.3383C91.5804 15.3383 90.8331 15.1931 90.145 14.9028C89.4568 14.6125 88.8547 14.2093 88.3386 13.6932C87.8332 13.1664 87.4408 12.5481 87.1612 11.8385C86.8817 11.1288 86.7419 10.3547 86.7419 9.516C86.7419 8.67733 86.8817 7.90318 87.1612 7.19354C87.4408 6.48389 87.8332 5.87102 88.3386 5.35492C88.8547 4.82807 89.4568 4.41948 90.145 4.12918C90.8331 3.83887 91.5804 3.69371 92.3868 3.69371C93.2039 3.69371 93.9566 3.83887 94.6447 4.12918C95.3329 4.41948 95.9296 4.82807 96.435 5.35492C96.9403 5.88178 97.3328 6.50002 97.6123 7.20966C97.8919 7.90855 98.0316 8.67733 98.0316 9.516C98.0316 10.3439 97.8919 11.1127 97.6123 11.8223C97.3328 12.532 96.9403 13.1502 96.435 13.6771C95.9296 14.2039 95.3329 14.6125 94.6447 14.9028C93.9566 15.1931 93.2039 15.3383 92.3868 15.3383ZM92.3868 13.3384C92.9029 13.3384 93.3706 13.247 93.7899 13.0642C94.22 12.8707 94.591 12.6019 94.9028 12.2578C95.2146 11.903 95.4565 11.4944 95.6285 11.0321C95.8113 10.5697 95.9027 10.0644 95.9027 9.516C95.9027 8.96764 95.8113 8.46229 95.6285 7.99995C95.4565 7.53761 95.2146 7.1344 94.9028 6.79033C94.591 6.43551 94.22 6.16671 93.7899 5.98392C93.3706 5.79038 92.9029 5.69361 92.3868 5.69361C91.8814 5.69361 91.4137 5.79038 90.9836 5.98392C90.5535 6.16671 90.1826 6.43013 89.8708 6.7742C89.559 7.11827 89.317 7.52148 89.145 7.98382C88.973 8.44616 88.887 8.95689 88.887 9.516C88.887 10.0644 88.973 10.5751 89.145 11.0482C89.317 11.5105 89.559 11.9137 89.8708 12.2578C90.1826 12.6019 90.5535 12.8707 90.9836 13.0642C91.4137 13.247 91.8814 13.3384 92.3868 13.3384ZM99.9504 18.7252V6.67743H101.902L101.934 8.61282L101.595 8.46767C101.66 8.13435 101.843 7.82254 102.144 7.53223C102.445 7.23117 102.81 6.98925 103.241 6.80646C103.681 6.62367 104.138 6.53228 104.611 6.53228C105.364 6.53228 106.031 6.72044 106.611 7.09677C107.203 7.47309 107.665 7.9892 107.998 8.64508C108.342 9.30096 108.514 10.059 108.514 10.9192C108.514 11.7686 108.342 12.5266 107.998 13.1932C107.665 13.8491 107.203 14.3706 106.611 14.7577C106.031 15.134 105.375 15.3222 104.644 15.3222C104.149 15.3222 103.671 15.2254 103.208 15.0318C102.757 14.8383 102.37 14.5856 102.047 14.2738C101.735 13.962 101.542 13.6341 101.466 13.29L101.95 13.0642V18.7252H99.9504ZM104.241 13.5642C104.692 13.5642 105.095 13.4513 105.45 13.2255C105.805 12.9997 106.079 12.6879 106.273 12.2901C106.477 11.8922 106.579 11.4353 106.579 10.9192C106.579 10.4031 106.482 9.95146 106.289 9.56438C106.095 9.16655 105.821 8.85474 105.466 8.62895C105.111 8.40315 104.703 8.29026 104.241 8.29026C103.767 8.29026 103.353 8.40315 102.999 8.62895C102.655 8.84399 102.38 9.15043 102.176 9.54826C101.972 9.94609 101.87 10.4031 101.87 10.9192C101.87 11.4353 101.972 11.8922 102.176 12.2901C102.38 12.6879 102.655 12.9997 102.999 13.2255C103.353 13.4513 103.767 13.5642 104.241 13.5642ZM111.202 15.177V4.51625H113.186V15.177H111.202ZM109.525 8.51605V6.67743H115.04V8.51605H109.525ZM116.777 15.177V6.67743H118.761V15.177H116.777ZM117.745 4.87107C117.347 4.87107 117.035 4.7743 116.809 4.58077C116.594 4.37648 116.487 4.09154 116.487 3.72597C116.487 3.3819 116.6 3.10235 116.825 2.8873C117.051 2.67226 117.358 2.56474 117.745 2.56474C118.153 2.56474 118.465 2.66688 118.68 2.87118C118.906 3.06471 119.019 3.34965 119.019 3.72597C119.019 4.05929 118.906 4.33347 118.68 4.54851C118.454 4.76355 118.142 4.87107 117.745 4.87107ZM125.163 15.3383C124.314 15.3383 123.556 15.1501 122.889 14.7738C122.222 14.3867 121.696 13.8599 121.308 13.1932C120.921 12.5266 120.728 11.7686 120.728 10.9192C120.728 10.0697 120.921 9.31171 121.308 8.64508C121.696 7.97844 122.222 7.45696 122.889 7.08064C123.556 6.69356 124.314 6.50002 125.163 6.50002C126.002 6.50002 126.754 6.69356 127.421 7.08064C128.088 7.45696 128.609 7.97844 128.985 8.64508C129.373 9.31171 129.566 10.0697 129.566 10.9192C129.566 11.7686 129.373 12.5266 128.985 13.1932C128.609 13.8599 128.088 14.3867 127.421 14.7738C126.754 15.1501 126.002 15.3383 125.163 15.3383ZM125.163 13.5803C125.625 13.5803 126.034 13.462 126.389 13.2255C126.754 12.9889 127.039 12.6718 127.244 12.2739C127.459 11.8761 127.561 11.4245 127.55 10.9192C127.561 10.4031 127.459 9.94609 127.244 9.54826C127.039 9.15043 126.754 8.83861 126.389 8.61282C126.034 8.37627 125.625 8.258 125.163 8.258C124.701 8.258 124.281 8.37627 123.905 8.61282C123.54 8.83861 123.255 9.1558 123.05 9.56438C122.846 9.96221 122.744 10.4138 122.744 10.9192C122.744 11.4245 122.846 11.8761 123.05 12.2739C123.255 12.6718 123.54 12.9889 123.905 13.2255C124.281 13.462 124.701 13.5803 125.163 13.5803ZM131.341 15.177V6.67743H133.276L133.308 8.41928L132.937 8.61282C133.045 8.22574 133.254 7.8763 133.566 7.56449C133.878 7.24192 134.249 6.98387 134.679 6.79033C135.109 6.59679 135.55 6.50002 136.002 6.50002C136.647 6.50002 137.184 6.62905 137.614 6.8871C138.055 7.14515 138.383 7.53223 138.598 8.04833C138.824 8.56443 138.937 9.20956 138.937 9.98372V15.177H136.953V10.1289C136.953 9.69879 136.894 9.34397 136.776 9.06441C136.657 8.7741 136.475 8.56443 136.227 8.43541C135.98 8.29563 135.679 8.23112 135.324 8.24187C135.034 8.24187 134.765 8.29026 134.518 8.38702C134.281 8.47304 134.072 8.60207 133.889 8.7741C133.717 8.93538 133.577 9.12355 133.469 9.33859C133.373 9.55363 133.324 9.79018 133.324 10.0482V15.177H132.341C132.147 15.177 131.964 15.177 131.792 15.177C131.631 15.177 131.48 15.177 131.341 15.177ZM144.007 15.3383C143.255 15.3383 142.577 15.2146 141.975 14.9673C141.384 14.7093 140.9 14.3437 140.524 13.8706L141.814 12.7578C142.136 13.1233 142.497 13.3868 142.894 13.5481C143.292 13.7093 143.712 13.79 144.152 13.79C144.335 13.79 144.496 13.7685 144.636 13.7255C144.787 13.6825 144.916 13.6179 145.023 13.5319C145.131 13.4459 145.211 13.3491 145.265 13.2416C145.33 13.1233 145.362 12.9943 145.362 12.8545C145.362 12.5965 145.265 12.3922 145.072 12.2417C144.964 12.1664 144.792 12.0858 144.556 11.9997C144.33 11.9137 144.034 11.8277 143.669 11.7417C143.088 11.5912 142.604 11.4191 142.217 11.2256C141.83 11.0213 141.529 10.7955 141.314 10.5482C141.131 10.3439 140.991 10.1127 140.895 9.85469C140.808 9.59664 140.765 9.31708 140.765 9.01602C140.765 8.6397 140.846 8.30101 141.007 7.99995C141.179 7.68814 141.411 7.41933 141.701 7.19354C141.991 6.96774 142.33 6.79571 142.717 6.67743C143.104 6.55916 143.507 6.50002 143.927 6.50002C144.357 6.50002 144.771 6.55378 145.168 6.66131C145.577 6.76883 145.953 6.92473 146.297 7.12902C146.652 7.32256 146.953 7.55911 147.201 7.83867L146.104 9.04828C145.9 8.85474 145.674 8.68271 145.427 8.53218C145.19 8.38165 144.948 8.26337 144.701 8.17736C144.453 8.08059 144.222 8.0322 144.007 8.0322C143.803 8.0322 143.62 8.05371 143.459 8.09672C143.298 8.12897 143.163 8.18273 143.056 8.258C142.948 8.33326 142.862 8.43003 142.798 8.54831C142.744 8.65583 142.717 8.78485 142.717 8.93538C142.728 9.06441 142.76 9.18806 142.814 9.30633C142.878 9.41385 142.964 9.50525 143.072 9.58051C143.19 9.65578 143.368 9.74179 143.604 9.83856C143.841 9.93533 144.147 10.0267 144.523 10.1127C145.05 10.2525 145.491 10.4084 145.846 10.5805C146.201 10.7525 146.48 10.9514 146.685 11.1772C146.889 11.3707 147.034 11.5965 147.12 11.8546C147.206 12.1126 147.249 12.3976 147.249 12.7094C147.249 13.2147 147.104 13.6663 146.814 14.0642C146.534 14.462 146.147 14.7738 145.652 14.9996C145.168 15.2254 144.62 15.3383 144.007 15.3383Z" fill="white"/>
<path d="M242.242 9.62842L409.473 9.62843" stroke="white" stroke-width="1.61282" stroke-dasharray="3.23 3.23"/>
<circle cx="431.63" cy="9.67693" r="9.19308" stroke="white" stroke-width="0.967693"/>
<path d="M428.96 12.8706C428.334 12.8706 427.824 12.7448 427.431 12.4932C427.044 12.2416 426.76 11.8803 426.579 11.4094C426.398 10.9384 426.308 10.3804 426.308 9.73525C426.308 9.03851 426.392 8.44499 426.56 7.95469C426.727 7.4644 427.005 7.09022 427.392 6.83217C427.779 6.57412 428.302 6.44509 428.96 6.44509C429.611 6.44509 430.13 6.57412 430.518 6.83217C430.905 7.09022 431.182 7.4644 431.35 7.95469C431.517 8.44499 431.601 9.03851 431.601 9.73525C431.601 10.3804 431.511 10.9384 431.33 11.4094C431.156 11.8803 430.876 12.2416 430.488 12.4932C430.101 12.7448 429.592 12.8706 428.96 12.8706ZM428.96 12.1932C429.418 12.1932 429.779 12.0932 430.043 11.8932C430.314 11.6868 430.508 11.3997 430.624 11.032C430.747 10.6578 430.808 10.2255 430.808 9.73525C430.808 8.89013 430.672 8.245 430.401 7.79986C430.137 7.34827 429.656 7.12248 428.96 7.12248C428.495 7.12248 428.127 7.22247 427.856 7.42246C427.585 7.62245 427.392 7.91921 427.276 8.31274C427.16 8.69982 427.102 9.17399 427.102 9.73525C427.102 10.2255 427.16 10.6578 427.276 11.032C427.398 11.3997 427.595 11.6868 427.866 11.8932C428.143 12.0932 428.508 12.1932 428.96 12.1932ZM434.248 12.8706C433.964 12.8706 433.661 12.8448 433.338 12.7932C433.015 12.7415 432.761 12.6803 432.573 12.6093V11.9126C432.819 12.0093 433.073 12.0803 433.338 12.1254C433.602 12.1706 433.873 12.1932 434.151 12.1932C434.706 12.1932 435.115 12.1093 435.38 11.9416C435.651 11.7739 435.786 11.4803 435.786 11.061C435.786 10.661 435.66 10.3707 435.409 10.1901C435.157 10.0094 434.806 9.91911 434.354 9.91911H433.454L433.532 9.31914H434.277C434.741 9.31914 435.086 9.21915 435.312 9.01916C435.538 8.81271 435.651 8.52563 435.651 8.15791C435.651 7.80309 435.531 7.54181 435.293 7.37408C435.06 7.20634 434.686 7.12248 434.17 7.12248C433.912 7.12248 433.651 7.14828 433.386 7.19989C433.128 7.2515 432.896 7.31924 432.69 7.40311V6.71605C432.87 6.64508 433.106 6.5838 433.396 6.53219C433.693 6.47412 433.986 6.44509 434.277 6.44509C435.019 6.44509 435.564 6.60638 435.912 6.92894C436.267 7.24505 436.444 7.65148 436.444 8.14823C436.444 8.46435 436.36 8.7611 436.193 9.03851C436.031 9.30946 435.77 9.49978 435.409 9.60945C435.822 9.69977 436.118 9.8804 436.299 10.1514C436.486 10.4159 436.58 10.7191 436.58 11.061C436.58 11.6674 436.37 12.1222 435.951 12.4254C435.531 12.7222 434.964 12.8706 434.248 12.8706Z" fill="white"/>
</svg>
