<svg width="280" height="21" viewBox="0 0 280 21" fill="none" xmlns="http://www.w3.org/2000/svg">
<path d="M5.60176 19.9448V3.69767H-0.000705629V0.33619H15.0139V3.69767H9.24336V19.9448H5.60176ZM15.0332 19.9448L22.6805 0.33619H26.098L33.6894 19.9448H29.9077L25.7059 8.79591C25.6125 8.57182 25.4818 8.21699 25.3137 7.73145C25.1643 7.2459 24.9962 6.723 24.8095 6.16276C24.6227 5.58383 24.4546 5.0516 24.3052 4.56605C24.1558 4.06183 24.0438 3.69767 23.9691 3.47357L24.6694 3.44556C24.5574 3.81906 24.4266 4.23924 24.2772 4.70611C24.1278 5.17299 23.9691 5.65853 23.801 6.16276C23.6329 6.66698 23.4649 7.15252 23.2968 7.6194C23.1474 8.08627 23.0073 8.50645 22.8766 8.87995L18.6748 19.9448H15.0332ZM18.5067 15.4629L19.7672 12.2975H28.7032L30.0478 15.4629H18.5067ZM36.7775 19.9448V0.33619H45.1252C46.4138 0.33619 47.4969 0.522939 48.3746 0.896438C49.271 1.26994 49.9433 1.83018 50.3915 2.57718C50.8584 3.3055 51.0918 4.19255 51.0918 5.23835C51.0918 6.32149 50.8024 7.23656 50.2234 7.98356C49.6445 8.73055 48.8322 9.24411 47.7864 9.52424L47.7584 8.96399C48.6361 9.15074 49.4017 9.48689 50.0554 9.97243C50.709 10.4393 51.2132 11.0276 51.568 11.7372C51.9415 12.4282 52.1283 13.2219 52.1283 14.1183C52.1283 15.0707 51.9695 15.911 51.6521 16.6394C51.3533 17.3677 50.9051 17.9746 50.3075 18.4602C49.7099 18.9457 49.0002 19.3192 48.1785 19.5807C47.3568 19.8234 46.4324 19.9448 45.4053 19.9448H36.7775ZM40.3351 16.6674H45.2372C45.9282 16.6674 46.5071 16.5647 46.974 16.3592C47.4596 16.1538 47.8237 15.855 48.0665 15.4629C48.3279 15.052 48.4587 14.5665 48.4587 14.0062C48.4587 13.4833 48.3186 13.0351 48.0385 12.6616C47.777 12.2881 47.3942 12.008 46.89 11.8212C46.3857 11.6158 45.7882 11.5131 45.0972 11.5131H40.3351V16.6674ZM40.3351 8.37573H44.789C45.3306 8.37573 45.7975 8.27302 46.1897 8.06759C46.6005 7.86217 46.918 7.58205 47.1421 7.22722C47.3662 6.8724 47.4782 6.46155 47.4782 5.99468C47.4782 5.24769 47.2261 4.66876 46.7219 4.25792C46.2177 3.8284 45.48 3.61363 44.5089 3.61363H40.3351V8.37573ZM56.0634 19.9448V0.33619H59.705V16.5833H68.7529V19.9448H56.0634ZM72.9145 19.9448V0.33619H85.7442V3.64165H76.5001V16.6394H85.8562V19.9448H72.9145ZM74.5953 11.5411V8.29169H84.3155V11.5411H74.5953ZM107.116 20.2249C105.715 20.2249 104.418 19.9728 103.222 19.4686C102.027 18.9644 100.981 18.2641 100.085 17.3677C99.2072 16.4526 98.5256 15.3788 98.0401 14.1463C97.5545 12.9137 97.3117 11.5691 97.3117 10.1125C97.3117 8.65585 97.5545 7.31126 98.0401 6.07872C98.5256 4.84618 99.2072 3.78171 100.085 2.88531C100.981 1.97024 102.027 1.2606 103.222 0.756374C104.418 0.252153 105.715 4.28351e-05 107.116 4.28351e-05C108.535 4.28351e-05 109.843 0.252153 111.038 0.756374C112.233 1.2606 113.269 1.97024 114.147 2.88531C115.025 3.80038 115.706 4.87419 116.192 6.10673C116.678 7.3206 116.92 8.65585 116.92 10.1125C116.92 11.5505 116.678 12.8857 116.192 14.1183C115.706 15.3508 115.025 16.4246 114.147 17.3397C113.269 18.2547 112.233 18.9644 111.038 19.4686C109.843 19.9728 108.535 20.2249 107.116 20.2249ZM107.116 16.7514C108.012 16.7514 108.825 16.5927 109.553 16.2752C110.3 15.9391 110.944 15.4722 111.486 14.8746C112.028 14.2583 112.448 13.5487 112.747 12.7457C113.064 11.9426 113.223 11.0649 113.223 10.1125C113.223 9.16008 113.064 8.28236 112.747 7.47934C112.448 6.67631 112.028 5.97601 111.486 5.37841C110.944 4.76214 110.3 4.29527 109.553 3.97779C108.825 3.64165 108.012 3.47357 107.116 3.47357C106.238 3.47357 105.426 3.64165 104.679 3.97779C103.932 4.29527 103.288 4.7528 102.746 5.3504C102.205 5.94799 101.784 6.6483 101.486 7.45132C101.187 8.25434 101.037 9.1414 101.037 10.1125C101.037 11.0649 101.187 11.952 101.486 12.7737C101.784 13.5767 102.205 14.277 102.746 14.8746C103.288 15.4722 103.932 15.9391 104.679 16.2752C105.426 16.5927 106.238 16.7514 107.116 16.7514ZM120.869 19.9448V0.33619H124.511V19.9448H120.869ZM122.55 11.9053V8.59983H132.662V11.9053H122.55ZM122.55 3.69767V0.33619H133.867V3.69767H122.55ZM154.466 20.2249C153.046 20.2249 151.748 19.9822 150.572 19.4966C149.395 19.0111 148.378 18.3201 147.519 17.4237C146.66 16.5086 145.987 15.4348 145.502 14.2023C145.035 12.9511 144.801 11.5878 144.801 10.1125C144.801 8.6932 145.053 7.37662 145.558 6.16276C146.062 4.94889 146.762 3.88442 147.659 2.96935C148.555 2.05428 149.601 1.34463 150.796 0.840412C151.991 0.33619 153.289 0.0840788 154.69 0.0840788C155.642 0.0840788 156.567 0.224141 157.463 0.504265C158.359 0.784388 159.181 1.17656 159.928 1.68078C160.675 2.16633 161.301 2.73591 161.805 3.38953L159.48 5.93866C158.994 5.43444 158.49 5.01425 157.967 4.6781C157.463 4.32328 156.931 4.06183 156.37 3.89376C155.829 3.70701 155.269 3.61363 154.69 3.61363C153.831 3.61363 153.018 3.77237 152.253 4.08984C151.506 4.40732 150.852 4.85551 150.292 5.43444C149.75 6.01336 149.321 6.70433 149.003 7.50735C148.686 8.29169 148.527 9.16941 148.527 10.1405C148.527 11.1303 148.676 12.0267 148.975 12.8297C149.293 13.6327 149.732 14.3237 150.292 14.9026C150.871 15.4815 151.552 15.9297 152.337 16.2472C153.14 16.546 154.017 16.6954 154.97 16.6954C155.586 16.6954 156.184 16.6114 156.763 16.4433C157.342 16.2752 157.874 16.0418 158.359 15.743C158.864 15.4255 159.321 15.0613 159.732 14.6505L161.525 17.5358C161.077 18.04 160.479 18.4975 159.732 18.9084C158.985 19.3192 158.145 19.646 157.211 19.8888C156.296 20.1129 155.381 20.2249 154.466 20.2249ZM173.755 20.2249C172.354 20.2249 171.056 19.9728 169.861 19.4686C168.666 18.9644 167.62 18.2641 166.724 17.3677C165.846 16.4526 165.164 15.3788 164.679 14.1463C164.193 12.9137 163.95 11.5691 163.95 10.1125C163.95 8.65585 164.193 7.31126 164.679 6.07872C165.164 4.84618 165.846 3.78171 166.724 2.88531C167.62 1.97024 168.666 1.2606 169.861 0.756374C171.056 0.252153 172.354 4.28351e-05 173.755 4.28351e-05C175.174 4.28351e-05 176.481 0.252153 177.676 0.756374C178.872 1.2606 179.908 1.97024 180.786 2.88531C181.664 3.80038 182.345 4.87419 182.831 6.10673C183.316 7.3206 183.559 8.65585 183.559 10.1125C183.559 11.5505 183.316 12.8857 182.831 14.1183C182.345 15.3508 181.664 16.4246 180.786 17.3397C179.908 18.2547 178.872 18.9644 177.676 19.4686C176.481 19.9728 175.174 20.2249 173.755 20.2249ZM173.755 16.7514C174.651 16.7514 175.464 16.5927 176.192 16.2752C176.939 15.9391 177.583 15.4722 178.125 14.8746C178.666 14.2583 179.086 13.5487 179.385 12.7457C179.703 11.9426 179.861 11.0649 179.861 10.1125C179.861 9.16008 179.703 8.28236 179.385 7.47934C179.086 6.67631 178.666 5.97601 178.125 5.37841C177.583 4.76214 176.939 4.29527 176.192 3.97779C175.464 3.64165 174.651 3.47357 173.755 3.47357C172.877 3.47357 172.065 3.64165 171.318 3.97779C170.571 4.29527 169.926 4.7528 169.385 5.3504C168.843 5.94799 168.423 6.6483 168.124 7.45132C167.825 8.25434 167.676 9.1414 167.676 10.1125C167.676 11.0649 167.825 11.952 168.124 12.7737C168.423 13.5767 168.843 14.277 169.385 14.8746C169.926 15.4722 170.571 15.9391 171.318 16.2752C172.065 16.5927 172.877 16.7514 173.755 16.7514ZM187.508 19.9448V0.33619H190.785L202.158 15.6589L201.542 15.771C201.467 15.2481 201.402 14.7159 201.346 14.1743C201.29 13.614 201.234 13.0351 201.178 12.4375C201.141 11.8399 201.103 11.2143 201.066 10.5607C201.047 9.90707 201.029 9.22544 201.01 8.51579C200.991 7.78747 200.982 7.0218 200.982 6.21878V0.33619H204.595V19.9448H201.262L189.833 4.84618L190.561 4.65009C190.655 5.69588 190.729 6.59228 190.785 7.33927C190.86 8.06759 190.916 8.70254 190.953 9.24411C190.991 9.76701 191.019 10.2059 191.038 10.5607C191.075 10.9155 191.094 11.2423 191.094 11.5411C191.112 11.8212 191.122 12.092 191.122 12.3535V19.9448H187.508ZM213.779 19.9448V3.69767H208.177V0.33619H223.192V3.69767H217.421V19.9448H213.779ZM226.791 19.9448V0.33619H239.621V3.64165H230.376V16.6394H239.733V19.9448H226.791ZM228.472 11.5411V8.29169H238.192V11.5411H228.472ZM244.299 19.9448V0.33619H247.576L258.949 15.6589L258.333 15.771C258.258 15.2481 258.193 14.7159 258.137 14.1743C258.081 13.614 258.025 13.0351 257.969 12.4375C257.931 11.8399 257.894 11.2143 257.857 10.5607C257.838 9.90707 257.819 9.22544 257.801 8.51579C257.782 7.78747 257.772 7.0218 257.772 6.21878V0.33619H261.386V19.9448H258.053L246.624 4.84618L247.352 4.65009C247.445 5.69588 247.52 6.59228 247.576 7.33927C247.651 8.06759 247.707 8.70254 247.744 9.24411C247.781 9.76701 247.809 10.2059 247.828 10.5607C247.865 10.9155 247.884 11.2423 247.884 11.5411C247.903 11.8212 247.912 12.092 247.912 12.3535V19.9448H244.299ZM270.57 19.9448V3.69767H264.968V0.33619H279.982V3.69767H274.212V19.9448H270.57Z" fill="white"/>
</svg>
