<svg width="20" height="20" viewBox="0 0 20 20" fill="none" xmlns="http://www.w3.org/2000/svg">
<circle cx="10" cy="10" r="9.5" stroke="#484E53"/>
<path d="M7.24 13.1C6.59333 13.1 6.06667 12.97 5.66 12.71C5.26 12.45 4.96667 12.0767 4.78 11.59C4.59333 11.1033 4.5 10.5267 4.5 9.86C4.5 9.14 4.58667 8.52667 4.76 8.02C4.93333 7.51333 5.22 7.12667 5.62 6.86C6.02 6.59333 6.56 6.46 7.24 6.46C7.91333 6.46 8.45 6.59333 8.85 6.86C9.25 7.12667 9.53667 7.51333 9.71 8.02C9.88333 8.52667 9.97 9.14 9.97 9.86C9.97 10.5267 9.87667 11.1033 9.69 11.59C9.51 12.0767 9.22 12.45 8.82 12.71C8.42 12.97 7.89333 13.1 7.24 13.1ZM7.24 12.4C7.71333 12.4 8.08667 12.2967 8.36 12.09C8.64 11.8767 8.84 11.58 8.96 11.2C9.08667 10.8133 9.15 10.3667 9.15 9.86C9.15 8.98667 9.01 8.32 8.73 7.86C8.45667 7.39333 7.96 7.16 7.24 7.16C6.76 7.16 6.38 7.26333 6.1 7.47C5.82 7.67667 5.62 7.98333 5.5 8.39C5.38 8.79 5.32 9.28 5.32 9.86C5.32 10.3667 5.38 10.8133 5.5 11.2C5.62667 11.58 5.83 11.8767 6.11 12.09C6.39667 12.2967 6.77333 12.4 7.24 12.4ZM10.9746 13V12.56C11.1479 12.14 11.3946 11.7567 11.7146 11.41C12.0346 11.0633 12.3779 10.7367 12.7446 10.43C13.1113 10.1233 13.3946 9.86667 13.5946 9.66C13.8013 9.44667 13.9446 9.24333 14.0246 9.05C14.1046 8.85 14.1446 8.61667 14.1446 8.35C14.1446 7.96333 14.0446 7.67 13.8446 7.47C13.6446 7.26333 13.2713 7.16 12.7246 7.16C12.4779 7.16 12.2246 7.18667 11.9646 7.24C11.7046 7.28667 11.4579 7.35667 11.2246 7.45V6.72C11.4379 6.64667 11.6946 6.58667 11.9946 6.54C12.2946 6.48667 12.5813 6.46 12.8546 6.46C13.5479 6.46 14.0713 6.63 14.4246 6.97C14.7846 7.30333 14.9646 7.76333 14.9646 8.35C14.9646 8.67 14.9079 8.95333 14.7946 9.2C14.6813 9.44 14.5246 9.67 14.3246 9.89C14.1246 10.1033 13.8913 10.33 13.6246 10.57C13.2979 10.8567 12.9846 11.14 12.6846 11.42C12.3913 11.6933 12.1579 12.0067 11.9846 12.36H15.0346V13H10.9746Z" fill="#3D3A3A"/>
</svg>
