<svg width="184" height="63" viewBox="0 0 184 63" fill="none" xmlns="http://www.w3.org/2000/svg">
<path d="M0.000187635 22.432V0.0320053H8.99219C10.6135 0.0320053 12.0749 0.298672 13.3762 0.832006C14.6989 1.36534 15.8295 2.13334 16.7682 3.13601C17.7282 4.13867 18.4535 5.32267 18.9442 6.68801C19.4562 8.05334 19.7122 9.56801 19.7122 11.232C19.7122 12.896 19.4562 14.4213 18.9442 15.808C18.4535 17.1733 17.7389 18.3573 16.8002 19.36C15.8615 20.3413 14.7309 21.0987 13.4082 21.632C12.0855 22.1653 10.6135 22.432 8.99219 22.432H0.000187635ZM4.16019 19.2L3.84019 18.592H8.83219C9.87752 18.592 10.8055 18.4213 11.6162 18.08C12.4482 17.7387 13.1522 17.248 13.7282 16.608C14.3042 15.968 14.7415 15.2 15.0402 14.304C15.3389 13.3867 15.4882 12.3627 15.4882 11.232C15.4882 10.1013 15.3389 9.08801 15.0402 8.19201C14.7415 7.27467 14.2935 6.49601 13.6962 5.85601C13.1202 5.21601 12.4269 4.72534 11.6162 4.38401C10.8055 4.04267 9.87752 3.87201 8.83219 3.87201H3.74419L4.16019 3.32801V19.2ZM24.2189 22.432V0.0320053H33.9469C35.2909 0.0320053 36.5176 0.352006 37.6269 0.992006C38.7363 1.61067 39.6109 2.46401 40.2509 3.55201C40.9123 4.61867 41.2429 5.82401 41.2429 7.16801C41.2429 8.44801 40.9123 9.63201 40.2509 10.72C39.6109 11.7867 38.7363 12.64 37.6269 13.28C36.5389 13.8987 35.3123 14.208 33.9469 14.208H28.2829V22.432H24.2189ZM37.2109 22.432L31.5149 12.32L35.8029 11.52L42.1389 22.464L37.2109 22.432ZM28.2829 10.592H33.9789C34.5976 10.592 35.1309 10.4533 35.5789 10.176C36.0483 9.87734 36.4109 9.47201 36.6669 8.96001C36.9229 8.44801 37.0509 7.88267 37.0509 7.26401C37.0509 6.56001 36.8909 5.95201 36.5709 5.44001C36.2509 4.92801 35.8029 4.52267 35.2269 4.22401C34.6509 3.92534 33.9896 3.77601 33.2429 3.77601H28.2829V10.592ZM55.3352 22.624C53.5645 22.624 51.9859 22.2507 50.5992 21.504C49.2125 20.736 48.1139 19.6907 47.3032 18.368C46.5139 17.024 46.1192 15.5093 46.1192 13.824V5.72205e-06H50.3112V13.536C50.3112 14.5387 50.5352 15.4347 50.9832 16.224C51.4525 16.992 52.0712 17.6107 52.8392 18.08C53.6072 18.5493 54.4392 18.784 55.3352 18.784C56.3165 18.784 57.2019 18.5493 57.9912 18.08C58.7805 17.6107 59.3992 16.992 59.8472 16.224C60.3165 15.4347 60.5512 14.5387 60.5512 13.536V5.72205e-06H64.5832V13.824C64.5832 15.5093 64.1779 17.024 63.3672 18.368C62.5779 19.6907 61.4899 20.736 60.1032 21.504C58.7165 22.2507 57.1272 22.624 55.3352 22.624ZM70.3439 22.432V0.0320053H74.2799L82.4399 13.312L80.1359 13.28L88.3919 0.0320053H92.1359V22.432H88.0079V14.016C88.0079 12.096 88.0506 10.368 88.1359 8.83201C88.2426 7.29601 88.4133 5.77067 88.6479 4.25601L89.1599 5.63201L82.2159 16.352H80.1039L73.3839 5.72801L73.8319 4.25601C74.0666 5.68534 74.2266 7.15734 74.3119 8.67201C74.4186 10.1653 74.4719 11.9467 74.4719 14.016V22.432H70.3439ZM112.043 22.432V3.87201H105.643V0.0320053H122.795V3.87201H116.203V22.432H112.043ZM133.14 22.432V11.264L133.364 12.832L124.308 0.0320053H129.172L136.084 9.95201L134.58 9.85601L140.82 0.0320053H145.492L136.82 13.184L137.3 11.008V22.432H133.14ZM148.625 22.432V0.0320053H157.937C159.217 0.0320053 160.369 0.341339 161.393 0.960007C162.439 1.57867 163.271 2.42134 163.889 3.48801C164.508 4.55467 164.817 5.74934 164.817 7.07201C164.817 8.41601 164.508 9.63201 163.889 10.72C163.271 11.7867 162.439 12.64 161.393 13.28C160.369 13.92 159.217 14.24 157.937 14.24H152.785V22.432H148.625ZM152.785 10.4H157.649C158.183 10.4 158.663 10.2507 159.089 9.95201C159.537 9.65334 159.889 9.25867 160.145 8.76801C160.423 8.27734 160.561 7.72267 160.561 7.10401C160.561 6.48534 160.423 5.94134 160.145 5.47201C159.889 4.98134 159.537 4.59734 159.089 4.32001C158.663 4.02134 158.183 3.87201 157.649 3.87201H152.785V10.4ZM169.219 22.432V0.0320053H183.875V3.80801H173.315V18.656H184.003V22.432H169.219ZM171.139 12.832V9.12001H182.243V12.832H171.139ZM0.000187635 62.432V40.032H8.99219C10.6135 40.032 12.0749 40.2987 13.3762 40.832C14.6989 41.3653 15.8295 42.1333 16.7682 43.136C17.7282 44.1387 18.4535 45.3227 18.9442 46.688C19.4562 48.0533 19.7122 49.568 19.7122 51.232C19.7122 52.896 19.4562 54.4213 18.9442 55.808C18.4535 57.1733 17.7389 58.3573 16.8002 59.36C15.8615 60.3413 14.7309 61.0987 13.4082 61.632C12.0855 62.1653 10.6135 62.432 8.99219 62.432H0.000187635ZM4.16019 59.2L3.84019 58.592H8.83219C9.87752 58.592 10.8055 58.4213 11.6162 58.08C12.4482 57.7387 13.1522 57.248 13.7282 56.608C14.3042 55.968 14.7415 55.2 15.0402 54.304C15.3389 53.3867 15.4882 52.3627 15.4882 51.232C15.4882 50.1013 15.3389 49.088 15.0402 48.192C14.7415 47.2747 14.2935 46.496 13.6962 45.856C13.1202 45.216 12.4269 44.7253 11.6162 44.384C10.8055 44.0427 9.87752 43.872 8.83219 43.872H3.74419L4.16019 43.328V59.2ZM23.0782 62.432V58.752H26.7582V43.712H23.0782V40.032H34.5982V43.712H30.9182V58.752H34.5982V62.432H23.0782ZM46.4024 62.432L37.4424 40.032H41.9864L46.9784 52.864C47.2344 53.5253 47.4584 54.1227 47.6504 54.656C47.8424 55.168 48.0131 55.6373 48.1624 56.064C48.3118 56.4907 48.4398 56.9067 48.5464 57.312C48.6744 57.7173 48.8131 58.144 48.9624 58.592H48.0664C48.2158 58.016 48.3758 57.4507 48.5464 56.896C48.7171 56.32 48.9091 55.712 49.1224 55.072C49.3571 54.432 49.6344 53.696 49.9544 52.864L54.6264 40.032H59.2024L50.1784 62.432H46.4024ZM62.7502 62.432V40.032H77.4062V43.808H66.8462V58.656H77.5342V62.432H62.7502ZM64.6702 52.832V49.12H75.7742V52.832H64.6702ZM82.7502 62.432V40.032H92.4782C93.8222 40.032 95.0489 40.352 96.1582 40.992C97.2675 41.6107 98.1422 42.464 98.7822 43.552C99.4435 44.6187 99.7742 45.824 99.7742 47.168C99.7742 48.448 99.4435 49.632 98.7822 50.72C98.1422 51.7867 97.2675 52.64 96.1582 53.28C95.0702 53.8987 93.8435 54.208 92.4782 54.208H86.8142V62.432H82.7502ZM95.7422 62.432L90.0462 52.32L94.3342 51.52L100.67 62.464L95.7422 62.432ZM86.8142 50.592H92.5102C93.1289 50.592 93.6622 50.4533 94.1102 50.176C94.5795 49.8773 94.9422 49.472 95.1982 48.96C95.4542 48.448 95.5822 47.8827 95.5822 47.264C95.5822 46.56 95.4222 45.952 95.1022 45.44C94.7822 44.928 94.3342 44.5227 93.7582 44.224C93.1822 43.9253 92.5209 43.776 91.7742 43.776H86.8142V50.592ZM108.918 62.432V43.872H102.518V40.032H119.67V43.872H113.078V62.432H108.918ZM123.75 62.432V40.032H138.406V43.808H127.846V58.656H138.534V62.432H123.75ZM125.67 52.832V49.12H136.774V52.832H125.67ZM143.75 62.432V40.032H153.478C154.822 40.032 156.049 40.352 157.158 40.992C158.268 41.6107 159.142 42.464 159.782 43.552C160.444 44.6187 160.774 45.824 160.774 47.168C160.774 48.448 160.444 49.632 159.782 50.72C159.142 51.7867 158.268 52.64 157.158 53.28C156.07 53.8987 154.844 54.208 153.478 54.208H147.814V62.432H143.75ZM156.742 62.432L151.046 52.32L155.334 51.52L161.67 62.464L156.742 62.432ZM147.814 50.592H153.51C154.129 50.592 154.662 50.4533 155.11 50.176C155.58 49.8773 155.942 49.472 156.198 48.96C156.454 48.448 156.582 47.8827 156.582 47.264C156.582 46.56 156.422 45.952 156.102 45.44C155.782 44.928 155.334 44.5227 154.758 44.224C154.182 43.9253 153.521 43.776 152.774 43.776H147.814V50.592Z" fill="white"/>
</svg>
