<svg width="20" height="20" viewBox="0 0 20 20" fill="none" xmlns="http://www.w3.org/2000/svg">
<circle cx="10" cy="10" r="9.5" stroke="#484E53"/>
<path d="M7.24 13.1C6.59333 13.1 6.06667 12.97 5.66 12.71C5.26 12.45 4.96667 12.0767 4.78 11.59C4.59333 11.1033 4.5 10.5267 4.5 9.86C4.5 9.14 4.58667 8.52667 4.76 8.02C4.93333 7.51333 5.22 7.12667 5.62 6.86C6.02 6.59333 6.56 6.46 7.24 6.46C7.91333 6.46 8.45 6.59333 8.85 6.86C9.25 7.12667 9.53667 7.51333 9.71 8.02C9.88333 8.52667 9.97 9.14 9.97 9.86C9.97 10.5267 9.87667 11.1033 9.69 11.59C9.51 12.0767 9.22 12.45 8.82 12.71C8.42 12.97 7.89333 13.1 7.24 13.1ZM7.24 12.4C7.71333 12.4 8.08667 12.2967 8.36 12.09C8.64 11.8767 8.84 11.58 8.96 11.2C9.08667 10.8133 9.15 10.3667 9.15 9.86C9.15 8.98667 9.01 8.32 8.73 7.86C8.45667 7.39333 7.96 7.16 7.24 7.16C6.76 7.16 6.38 7.26333 6.1 7.47C5.82 7.67667 5.62 7.98333 5.5 8.39C5.38 8.79 5.32 9.28 5.32 9.86C5.32 10.3667 5.38 10.8133 5.5 11.2C5.62667 11.58 5.83 11.8767 6.11 12.09C6.39667 12.2967 6.77333 12.4 7.24 12.4ZM14.0846 13V11.52H10.7746V10.9L14.1746 6.56H14.9046V10.85H15.5846V11.52H14.9046V13H14.0846ZM11.5946 10.87H14.1946V7.54L11.5946 10.87Z" fill="#3D3A3A"/>
</svg>
