<svg width="306" height="63" viewBox="0 0 306 63" fill="none" xmlns="http://www.w3.org/2000/svg">
<path d="M2.63316 20V0.391366H10.5046C11.9239 0.391366 13.2031 0.624802 14.3423 1.09167C15.5002 1.55855 16.4899 2.23084 17.3116 3.10856C18.152 3.98628 18.7869 5.02274 19.2165 6.21793C19.6647 7.41312 19.8888 8.73904 19.8888 10.1957C19.8888 11.6523 19.6647 12.9876 19.2165 14.2014C18.7869 15.3966 18.1613 16.4331 17.3396 17.3108C16.5179 18.1699 15.5282 18.8328 14.3703 19.2997C13.2125 19.7666 11.9239 20 10.5046 20H2.63316ZM6.27476 17.1708L5.99464 16.6385H10.3646C11.2796 16.6385 12.092 16.4891 12.8016 16.1903C13.53 15.8915 14.1462 15.462 14.6505 14.9018C15.1547 14.3415 15.5375 13.6692 15.799 12.8849C16.0604 12.0818 16.1911 11.1855 16.1911 10.1957C16.1911 9.20591 16.0604 8.31886 15.799 7.53451C15.5375 6.73149 15.1453 6.04986 14.6224 5.48961C14.1182 4.92936 13.5113 4.49984 12.8016 4.20104C12.092 3.90225 11.2796 3.75285 10.3646 3.75285H5.9106L6.27476 3.27664V17.1708ZM22.8353 20V16.7786H26.0567V3.61278H22.8353V0.391366H32.9197V3.61278H29.6983V16.7786H32.9197V20H22.8353ZM37.5665 20V0.391366H41.012L48.1552 12.0165L46.1383 11.9885L53.3655 0.391366H56.6429V20H53.0293V12.6328C53.0293 10.952 53.0667 9.43935 53.1414 8.09476C53.2347 6.75017 53.3841 5.41491 53.5896 4.08899L54.0378 5.29352L47.9591 14.6777H46.1103L40.2277 5.37756L40.6199 4.08899C40.8253 5.34021 40.9653 6.62878 41.04 7.9547C41.1334 9.26194 41.1801 10.8213 41.1801 12.6328V20H37.5665ZM61.9132 20V0.391366H74.7428V3.69682H65.4987V16.6945H74.8549V20H61.9132ZM63.5939 11.5963V8.34687H73.3142V11.5963H63.5939ZM79.4209 20V0.391366H82.6983L94.0713 15.7141L93.4551 15.8262C93.3804 15.3033 93.315 14.771 93.259 14.2295C93.2029 13.6692 93.1469 13.0903 93.0909 12.4927C93.0535 11.8951 93.0162 11.2695 92.9788 10.6159C92.9602 9.96225 92.9415 9.28061 92.9228 8.57097C92.9041 7.84265 92.8948 7.07698 92.8948 6.27396V0.391366H96.5084V20H93.1749L81.7459 4.90135L82.4742 4.70527C82.5676 5.75106 82.6423 6.64745 82.6983 7.39445C82.773 8.12277 82.829 8.75772 82.8664 9.29929C82.9037 9.82219 82.9318 10.261 82.9504 10.6159C82.9878 10.9707 83.0065 11.2975 83.0065 11.5963C83.0251 11.8764 83.0345 12.1472 83.0345 12.4087V20H79.4209ZM107.989 20.2801C106.85 20.2801 105.804 20.1401 104.852 19.8599C103.899 19.5611 103.04 19.1223 102.275 18.5434C101.509 17.9644 100.827 17.2641 100.23 16.4424L102.611 13.7532C103.526 15.0231 104.422 15.9009 105.3 16.3864C106.178 16.872 107.168 17.1147 108.269 17.1147C108.904 17.1147 109.483 17.0214 110.006 16.8346C110.529 16.6292 110.94 16.3584 111.239 16.0222C111.538 15.6674 111.687 15.2659 111.687 14.8177C111.687 14.5002 111.622 14.2108 111.491 13.9493C111.379 13.6692 111.201 13.4264 110.959 13.221C110.716 12.9969 110.417 12.7915 110.062 12.6047C109.707 12.418 109.306 12.2593 108.858 12.1285C108.409 11.9978 107.915 11.8764 107.373 11.7644C106.346 11.559 105.45 11.2882 104.684 10.952C103.918 10.5972 103.274 10.1677 102.751 9.66345C102.228 9.14055 101.845 8.56163 101.602 7.92668C101.36 7.27306 101.238 6.5354 101.238 5.71371C101.238 4.89201 101.416 4.13568 101.771 3.44471C102.144 2.75374 102.648 2.15614 103.283 1.65192C103.918 1.1477 104.656 0.755526 105.496 0.475403C106.337 0.19528 107.242 0.0552186 108.213 0.0552186C109.315 0.0552186 110.296 0.185943 111.155 0.447391C112.032 0.70884 112.798 1.10101 113.452 1.62391C114.124 2.12813 114.675 2.7444 115.104 3.47272L112.695 5.85377C112.322 5.27485 111.902 4.79864 111.435 4.42514C110.968 4.03297 110.464 3.74351 109.922 3.55676C109.381 3.35134 108.811 3.24862 108.213 3.24862C107.541 3.24862 106.953 3.342 106.449 3.52875C105.963 3.7155 105.58 3.98628 105.3 4.34111C105.02 4.67725 104.88 5.0881 104.88 5.57365C104.88 5.94715 104.964 6.28329 105.132 6.58209C105.3 6.86222 105.534 7.11433 105.832 7.33842C106.15 7.56252 106.551 7.75861 107.037 7.92668C107.522 8.09476 108.073 8.24416 108.69 8.37488C109.717 8.58031 110.641 8.86043 111.463 9.21525C112.285 9.5514 112.985 9.96225 113.564 10.4478C114.143 10.9147 114.582 11.4562 114.88 12.0725C115.179 12.6701 115.329 13.3424 115.329 14.0894C115.329 15.378 115.02 16.4891 114.404 17.4229C113.807 18.3379 112.957 19.0476 111.855 19.5518C110.753 20.0373 109.465 20.2801 107.989 20.2801ZM118.745 20V16.7786H121.966V3.61278H118.745V0.391366H128.829V3.61278H125.608V16.7786H128.829V20H118.745ZM141.525 20.2801C140.125 20.2801 138.827 20.028 137.632 19.5238C136.436 19.0196 135.391 18.3193 134.494 17.4229C133.616 16.5078 132.935 15.434 132.449 14.2014C131.964 12.9689 131.721 11.6243 131.721 10.1677C131.721 8.71103 131.964 7.36644 132.449 6.13389C132.935 4.90135 133.616 3.83688 134.494 2.94049C135.391 2.02542 136.436 1.31577 137.632 0.81155C138.827 0.307329 140.125 0.0552186 141.525 0.0552186C142.945 0.0552186 144.252 0.307329 145.447 0.81155C146.642 1.31577 147.679 2.02542 148.556 2.94049C149.434 3.85556 150.116 4.92936 150.601 6.16191C151.087 7.37577 151.33 8.71103 151.33 10.1677C151.33 11.6056 151.087 12.9409 150.601 14.1734C150.116 15.406 149.434 16.4798 148.556 17.3949C147.679 18.3099 146.642 19.0196 145.447 19.5238C144.252 20.028 142.945 20.2801 141.525 20.2801ZM141.525 16.8066C142.422 16.8066 143.234 16.6479 143.962 16.3304C144.709 15.9942 145.354 15.5274 145.895 14.9298C146.437 14.3135 146.857 13.6039 147.156 12.8008C147.473 11.9978 147.632 11.1201 147.632 10.1677C147.632 9.21525 147.473 8.33753 147.156 7.53451C146.857 6.73149 146.437 6.03118 145.895 5.43359C145.354 4.81731 144.709 4.35044 143.962 4.03297C143.234 3.69682 142.422 3.52875 141.525 3.52875C140.648 3.52875 139.835 3.69682 139.088 4.03297C138.341 4.35044 137.697 4.80798 137.155 5.40557C136.614 6.00317 136.194 6.70348 135.895 7.5065C135.596 8.30952 135.447 9.19658 135.447 10.1677C135.447 11.1201 135.596 12.0071 135.895 12.8288C136.194 13.6319 136.614 14.3322 137.155 14.9298C137.697 15.5274 138.341 15.9942 139.088 16.3304C139.835 16.6479 140.648 16.8066 141.525 16.8066ZM155.278 20V0.391366H158.556L169.929 15.7141L169.313 15.8262C169.238 15.3033 169.173 14.771 169.117 14.2295C169.061 13.6692 169.005 13.0903 168.949 12.4927C168.911 11.8951 168.874 11.2695 168.836 10.6159C168.818 9.96225 168.799 9.28061 168.78 8.57097C168.762 7.84265 168.752 7.07698 168.752 6.27396V0.391366H172.366V20H169.033L157.604 4.90135L158.332 4.70527C158.425 5.75106 158.5 6.64745 158.556 7.39445C158.631 8.12277 158.687 8.75772 158.724 9.29929C158.761 9.82219 158.789 10.261 158.808 10.6159C158.845 10.9707 158.864 11.2975 158.864 11.5963C158.883 11.8764 158.892 12.1472 158.892 12.4087V20H155.278ZM185.862 20V0.391366H193.734C195.153 0.391366 196.432 0.624802 197.571 1.09167C198.729 1.55855 199.719 2.23084 200.541 3.10856C201.381 3.98628 202.016 5.02274 202.446 6.21793C202.894 7.41312 203.118 8.73904 203.118 10.1957C203.118 11.6523 202.894 12.9876 202.446 14.2014C202.016 15.3966 201.39 16.4331 200.569 17.3108C199.747 18.1699 198.757 18.8328 197.599 19.2997C196.442 19.7666 195.153 20 193.734 20H185.862ZM189.504 17.1708L189.224 16.6385H193.594C194.509 16.6385 195.321 16.4891 196.031 16.1903C196.759 15.8915 197.375 15.462 197.88 14.9018C198.384 14.3415 198.767 13.6692 199.028 12.8849C199.29 12.0818 199.42 11.1855 199.42 10.1957C199.42 9.20591 199.29 8.31886 199.028 7.53451C198.767 6.73149 198.374 6.04986 197.852 5.48961C197.347 4.92936 196.74 4.49984 196.031 4.20104C195.321 3.90225 194.509 3.75285 193.594 3.75285H189.14L189.504 3.27664V17.1708ZM207.063 20V0.391366H219.893V3.69682H210.649V16.6945H220.005V20H207.063ZM208.744 11.5963V8.34687H218.464V11.5963H208.744ZM228.492 20V3.75285H222.89V0.391366H237.905V3.75285H232.134V20H228.492ZM237.896 20L245.544 0.391366H248.961L256.553 20H252.771L248.569 8.85109C248.476 8.62699 248.345 8.27217 248.177 7.78662C248.028 7.30108 247.86 6.77818 247.673 6.21793C247.486 5.63901 247.318 5.10678 247.169 4.62123C247.019 4.11701 246.907 3.75285 246.832 3.52875L247.533 3.50073C247.421 3.87423 247.29 4.29442 247.141 4.76129C246.991 5.22816 246.832 5.71371 246.664 6.21793C246.496 6.72215 246.328 7.2077 246.16 7.67457C246.011 8.14145 245.871 8.56163 245.74 8.93513L241.538 20H237.896ZM241.37 15.518L242.631 12.3526H251.567L252.911 15.518H241.37ZM259.053 20V16.7786H262.274V3.61278H259.053V0.391366H269.137V3.61278H265.916V16.7786H269.137V20H259.053ZM273.784 20V0.391366H277.425V16.6385H286.473V20H273.784ZM296.854 20.2801C295.715 20.2801 294.669 20.1401 293.716 19.8599C292.764 19.5611 291.905 19.1223 291.139 18.5434C290.374 17.9644 289.692 17.2641 289.094 16.4424L291.475 13.7532C292.39 15.0231 293.287 15.9009 294.165 16.3864C295.042 16.872 296.032 17.1147 297.134 17.1147C297.769 17.1147 298.348 17.0214 298.871 16.8346C299.393 16.6292 299.804 16.3584 300.103 16.0222C300.402 15.6674 300.551 15.2659 300.551 14.8177C300.551 14.5002 300.486 14.2108 300.355 13.9493C300.243 13.6692 300.066 13.4264 299.823 13.221C299.58 12.9969 299.281 12.7915 298.927 12.6047C298.572 12.418 298.17 12.2593 297.722 12.1285C297.274 11.9978 296.779 11.8764 296.237 11.7644C295.21 11.559 294.314 11.2882 293.548 10.952C292.783 10.5972 292.138 10.1677 291.615 9.66345C291.092 9.14055 290.71 8.56163 290.467 7.92668C290.224 7.27306 290.103 6.5354 290.103 5.71371C290.103 4.89201 290.28 4.13568 290.635 3.44471C291.008 2.75374 291.513 2.15614 292.148 1.65192C292.783 1.1477 293.52 0.755526 294.361 0.475403C295.201 0.19528 296.107 0.0552186 297.078 0.0552186C298.18 0.0552186 299.16 0.185943 300.019 0.447391C300.897 0.70884 301.662 1.10101 302.316 1.62391C302.988 2.12813 303.539 2.7444 303.969 3.47272L301.56 5.85377C301.186 5.27485 300.766 4.79864 300.299 4.42514C299.832 4.03297 299.328 3.74351 298.787 3.55676C298.245 3.35134 297.675 3.24862 297.078 3.24862C296.406 3.24862 295.817 3.342 295.313 3.52875C294.827 3.7155 294.445 3.98628 294.165 4.34111C293.884 4.67725 293.744 5.0881 293.744 5.57365C293.744 5.94715 293.828 6.28329 293.996 6.58209C294.165 6.86222 294.398 7.11433 294.697 7.33842C295.014 7.56252 295.416 7.75861 295.901 7.92668C296.387 8.09476 296.938 8.24416 297.554 8.37488C298.581 8.58031 299.506 8.86043 300.327 9.21525C301.149 9.5514 301.849 9.96225 302.428 10.4478C303.007 10.9147 303.446 11.4562 303.745 12.0725C304.044 12.6701 304.193 13.3424 304.193 14.0894C304.193 15.378 303.885 16.4891 303.269 17.4229C302.671 18.3379 301.821 19.0476 300.719 19.5518C299.618 20.0373 298.329 20.2801 296.854 20.2801Z" fill="white"/>
<path d="M62.0929 62.2988C60.6923 62.2988 59.3944 62.0467 58.1992 61.5425C57.004 61.0382 55.9582 60.3379 55.0618 59.4415C54.1841 58.5265 53.5024 57.4527 53.0169 56.2201C52.5313 54.9876 52.2886 53.643 52.2886 52.1863C52.2886 50.7297 52.5313 49.3851 53.0169 48.1526C53.5024 46.92 54.1841 45.8556 55.0618 44.9592C55.9582 44.0441 57.004 43.3344 58.1992 42.8302C59.3944 42.326 60.6923 42.0739 62.0929 42.0739C63.5122 42.0739 64.8194 42.326 66.0146 42.8302C67.2098 43.3344 68.2463 44.0441 69.124 44.9592C70.0017 45.8742 70.6833 46.948 71.1689 48.1806C71.6544 49.3945 71.8972 50.7297 71.8972 52.1863C71.8972 53.6243 71.6544 54.9596 71.1689 56.1921C70.6833 57.4247 70.0017 58.4985 69.124 59.4135C68.2463 60.3286 67.2098 61.0382 66.0146 61.5425C64.8194 62.0467 63.5122 62.2988 62.0929 62.2988ZM62.0929 58.8253C62.9893 58.8253 63.8016 58.6665 64.53 58.3491C65.277 58.0129 65.9212 57.546 66.4628 56.9484C67.0044 56.3322 67.4246 55.6225 67.7234 54.8195C68.0408 54.0165 68.1996 53.1388 68.1996 52.1863C68.1996 51.2339 68.0408 50.3562 67.7234 49.5532C67.4246 48.7502 67.0044 48.0499 66.4628 47.4523C65.9212 46.836 65.277 46.3691 64.53 46.0516C63.8016 45.7155 62.9893 45.5474 62.0929 45.5474C61.2152 45.5474 60.4028 45.7155 59.6558 46.0516C58.9088 46.3691 58.2645 46.8267 57.723 47.4243C57.1814 48.0218 56.7612 48.7222 56.4624 49.5252C56.1636 50.3282 56.0142 51.2153 56.0142 52.1863C56.0142 53.1388 56.1636 54.0258 56.4624 54.8475C56.7612 55.6505 57.1814 56.3508 57.723 56.9484C58.2645 57.546 58.9088 58.0129 59.6558 58.3491C60.4028 58.6665 61.2152 58.8253 62.0929 58.8253ZM75.8461 62.0187V42.41H79.4877V62.0187H75.8461ZM77.5268 53.9791V50.6737H87.6393V53.9791H77.5268ZM77.5268 45.7715V42.41H88.8438V45.7715H77.5268ZM101.123 62.0187V42.41H108.994C110.414 42.41 111.693 42.6435 112.832 43.1104C113.99 43.5772 114.98 44.2495 115.801 45.1272C116.642 46.005 117.277 47.0414 117.706 48.2366C118.154 49.4318 118.378 50.7577 118.378 52.2144C118.378 53.671 118.154 55.0063 117.706 56.2201C117.277 57.4153 116.651 58.4518 115.829 59.3295C115.008 60.1885 114.018 60.8515 112.86 61.3184C111.702 61.7852 110.414 62.0187 108.994 62.0187H101.123ZM104.764 59.1894L104.484 58.6572H108.854C109.769 58.6572 110.582 58.5078 111.291 58.209C112.02 57.9102 112.636 57.4807 113.14 56.9204C113.644 56.3602 114.027 55.6879 114.289 54.9035C114.55 54.1005 114.681 53.2041 114.681 52.2144C114.681 51.2246 114.55 50.3375 114.289 49.5532C114.027 48.7502 113.635 48.0685 113.112 47.5083C112.608 46.948 112.001 46.5185 111.291 46.2197C110.582 45.9209 109.769 45.7715 108.854 45.7715H104.4L104.764 45.2953V59.1894ZM125.397 62.0187V45.7715H119.795V42.41H134.809V45.7715H129.039V62.0187H125.397ZM138.381 62.0187V42.41H146.253C147.672 42.41 148.951 42.6435 150.091 43.1104C151.248 43.5772 152.238 44.2495 153.06 45.1272C153.9 46.005 154.535 47.0414 154.965 48.2366C155.413 49.4318 155.637 50.7577 155.637 52.2144C155.637 53.671 155.413 55.0063 154.965 56.2201C154.535 57.4153 153.91 58.4518 153.088 59.3295C152.266 60.1885 151.276 60.8515 150.119 61.3184C148.961 61.7852 147.672 62.0187 146.253 62.0187H138.381ZM142.023 59.1894L141.743 58.6572H146.113C147.028 58.6572 147.84 58.5078 148.55 58.209C149.278 57.9102 149.894 57.4807 150.399 56.9204C150.903 56.3602 151.286 55.6879 151.547 54.9035C151.809 54.1005 151.939 53.2041 151.939 52.2144C151.939 51.2246 151.809 50.3375 151.547 49.5532C151.286 48.7502 150.894 48.0685 150.371 47.5083C149.866 46.948 149.26 46.5185 148.55 46.2197C147.84 45.9209 147.028 45.7715 146.113 45.7715H141.659L142.023 45.2953V59.1894ZM173.503 62.0187L165.659 42.41H169.637L174.007 53.643C174.231 54.2219 174.427 54.7448 174.595 55.2117C174.763 55.6599 174.913 56.0707 175.043 56.4442C175.174 56.8177 175.286 57.1819 175.38 57.5367C175.492 57.8915 175.613 58.265 175.744 58.6572H174.959C175.09 58.153 175.23 57.6581 175.38 57.1725C175.529 56.6683 175.697 56.1361 175.884 55.5758C176.089 55.0156 176.332 54.3713 176.612 53.643L180.702 42.41H184.708L176.808 62.0187H173.503ZM183.522 62.0187L191.169 42.41H194.587L202.178 62.0187H198.397L194.195 50.8698C194.101 50.6457 193.971 50.2908 193.803 49.8053C193.653 49.3198 193.485 48.7969 193.298 48.2366C193.112 47.6577 192.943 47.1255 192.794 46.6399C192.645 46.1357 192.533 45.7715 192.458 45.5474L193.158 45.5194C193.046 45.8929 192.915 46.3131 192.766 46.78C192.617 47.2468 192.458 47.7324 192.29 48.2366C192.122 48.7408 191.954 49.2264 191.786 49.6932C191.636 50.1601 191.496 50.5803 191.365 50.9538L187.164 62.0187H183.522ZM186.996 57.5367L188.256 54.3713H197.192L198.537 57.5367H186.996ZM205.266 62.0187V42.41H208.908V58.6572H217.956V62.0187H205.266ZM225.698 62.0187L217.854 42.41H221.832L226.202 53.643C226.426 54.2219 226.622 54.7448 226.79 55.2117C226.958 55.6599 227.108 56.0707 227.238 56.4442C227.369 56.8177 227.481 57.1819 227.574 57.5367C227.686 57.8915 227.808 58.265 227.939 58.6572H227.154C227.285 58.153 227.425 57.6581 227.574 57.1725C227.724 56.6683 227.892 56.1361 228.079 55.5758C228.284 55.0156 228.527 54.3713 228.807 53.643L232.897 42.41H236.903L229.003 62.0187H225.698ZM240.008 62.0187V42.41H252.838V45.7155H243.594V58.7132H252.95V62.0187H240.008ZM241.689 53.615V50.3655H251.409V53.615H241.689Z" fill="white"/>
</svg>
