<svg width="493" height="42" viewBox="0 0 493 42" fill="none" xmlns="http://www.w3.org/2000/svg">
<path d="M1.88 15.6399V1.63989H7.5C8.51333 1.63989 9.42667 1.80656 10.24 2.13989C11.0667 2.47323 11.7733 2.95323 12.36 3.57989C12.96 4.20656 13.4133 4.94656 13.72 5.79989C14.04 6.65323 14.2 7.59989 14.2 8.63989C14.2 9.67989 14.04 10.6332 13.72 11.4999C13.4133 12.3532 12.9667 13.0932 12.38 13.7199C11.7933 14.3332 11.0867 14.8066 10.26 15.1399C9.43333 15.4732 8.51333 15.6399 7.5 15.6399H1.88ZM4.48 13.6199L4.28 13.2399H7.4C8.05333 13.2399 8.63333 13.1332 9.14 12.9199C9.66 12.7066 10.1 12.3999 10.46 11.9999C10.82 11.5999 11.0933 11.1199 11.28 10.5599C11.4667 9.98656 11.56 9.34656 11.56 8.63989C11.56 7.93323 11.4667 7.29989 11.28 6.73989C11.0933 6.16656 10.8133 5.67989 10.44 5.27989C10.08 4.87989 9.64667 4.57323 9.14 4.35989C8.63333 4.14656 8.05333 4.03989 7.4 4.03989H4.22L4.48 3.69989V13.6199ZM16.8567 15.6399V5.09989H19.3167V15.6399H16.8567ZM18.0567 2.85989C17.5634 2.85989 17.1767 2.73989 16.8967 2.49989C16.6301 2.24656 16.4967 1.89322 16.4967 1.43989C16.4967 1.01323 16.6367 0.666559 16.9167 0.399892C17.1967 0.133225 17.5767 -0.000108719 18.0567 -0.000108719C18.5634 -0.000108719 18.9501 0.126558 19.2167 0.379892C19.4967 0.619892 19.6367 0.973225 19.6367 1.43989C19.6367 1.85323 19.4967 2.19323 19.2167 2.45989C18.9367 2.72656 18.5501 2.85989 18.0567 2.85989ZM25.8161 15.6399L21.3761 5.09989H24.0561L27.0561 12.9799L26.5361 13.1199L29.6961 5.09989H32.3161L27.6561 15.6399H25.8161ZM38.7628 15.8399C37.6561 15.8399 36.6761 15.6066 35.8228 15.1399C34.9828 14.6732 34.3228 14.0399 33.8428 13.2399C33.3761 12.4266 33.1428 11.4999 33.1428 10.4599C33.1428 9.63323 33.2761 8.87989 33.5428 8.19989C33.8095 7.51989 34.1761 6.93323 34.6428 6.43989C35.1228 5.93323 35.6895 5.54656 36.3428 5.27989C37.0095 4.99989 37.7361 4.85989 38.5228 4.85989C39.2161 4.85989 39.8628 4.99323 40.4628 5.25989C41.0628 5.52656 41.5828 5.89323 42.0228 6.35989C42.4628 6.81323 42.7961 7.35989 43.0228 7.99989C43.2628 8.62656 43.3761 9.31323 43.3628 10.0599L43.3428 10.9199H34.8028L34.3428 9.23989H41.2828L40.9628 9.57989V9.13989C40.9228 8.72656 40.7895 8.36656 40.5628 8.05989C40.3361 7.73989 40.0428 7.49323 39.6828 7.31989C39.3361 7.13323 38.9495 7.03989 38.5228 7.03989C37.8695 7.03989 37.3161 7.16656 36.8628 7.41989C36.4228 7.67323 36.0895 8.03989 35.8628 8.51989C35.6361 8.98656 35.5228 9.57323 35.5228 10.2799C35.5228 10.9599 35.6628 11.5532 35.9428 12.0599C36.2361 12.5666 36.6428 12.9599 37.1628 13.2399C37.6961 13.5066 38.3161 13.6399 39.0228 13.6399C39.5161 13.6399 39.9695 13.5599 40.3828 13.3999C40.7961 13.2399 41.2428 12.9532 41.7228 12.5399L42.9428 14.2399C42.5828 14.5732 42.1695 14.8599 41.7028 15.0999C41.2495 15.3266 40.7695 15.5066 40.2628 15.6399C39.7561 15.7732 39.2561 15.8399 38.7628 15.8399ZM45.5416 15.6399V5.09989H47.9616L48.0016 8.45989L47.6616 7.69989C47.8082 7.16656 48.0616 6.68656 48.4216 6.25989C48.7816 5.83323 49.1949 5.49989 49.6616 5.25989C50.1416 5.00656 50.6416 4.87989 51.1616 4.87989C51.3882 4.87989 51.6016 4.89989 51.8016 4.93989C52.0149 4.97989 52.1882 5.02656 52.3216 5.07989L51.6616 7.77989C51.5149 7.69989 51.3349 7.63323 51.1216 7.57989C50.9082 7.52656 50.6949 7.49989 50.4816 7.49989C50.1482 7.49989 49.8282 7.56656 49.5216 7.69989C49.2282 7.81989 48.9682 7.99323 48.7416 8.21989C48.5149 8.44656 48.3349 8.71323 48.2016 9.01989C48.0816 9.31323 48.0216 9.64656 48.0216 10.0199V15.6399H45.5416ZM55.4902 15.6399V2.41989H57.9502V15.6399H55.4902ZM53.4102 7.37989V5.09989H60.2502V7.37989H53.4102ZM66.9659 15.8399C65.8593 15.8399 64.8793 15.6066 64.0259 15.1399C63.1859 14.6732 62.5259 14.0399 62.0459 13.2399C61.5793 12.4266 61.3459 11.4999 61.3459 10.4599C61.3459 9.63323 61.4793 8.87989 61.7459 8.19989C62.0126 7.51989 62.3793 6.93323 62.8459 6.43989C63.3259 5.93323 63.8926 5.54656 64.5459 5.27989C65.2126 4.99989 65.9393 4.85989 66.7259 4.85989C67.4193 4.85989 68.0659 4.99323 68.6659 5.25989C69.2659 5.52656 69.7859 5.89323 70.2259 6.35989C70.6659 6.81323 70.9993 7.35989 71.2259 7.99989C71.4659 8.62656 71.5793 9.31323 71.5659 10.0599L71.5459 10.9199H63.0059L62.5459 9.23989H69.4859L69.1659 9.57989V9.13989C69.1259 8.72656 68.9926 8.36656 68.7659 8.05989C68.5393 7.73989 68.2459 7.49323 67.8859 7.31989C67.5393 7.13323 67.1526 7.03989 66.7259 7.03989C66.0726 7.03989 65.5193 7.16656 65.0659 7.41989C64.6259 7.67323 64.2926 8.03989 64.0659 8.51989C63.8393 8.98656 63.7259 9.57323 63.7259 10.2799C63.7259 10.9599 63.8659 11.5532 64.1459 12.0599C64.4393 12.5666 64.8459 12.9599 65.3659 13.2399C65.8993 13.5066 66.5193 13.6399 67.2259 13.6399C67.7193 13.6399 68.1726 13.5599 68.5859 13.3999C68.9993 13.2399 69.4459 12.9532 69.9259 12.5399L71.1459 14.2399C70.7859 14.5732 70.3726 14.8599 69.9059 15.0999C69.4526 15.3266 68.9726 15.5066 68.4659 15.6399C67.9593 15.7732 67.4593 15.8399 66.9659 15.8399ZM73.7447 15.6399V5.09989H76.1647L76.2047 8.45989L75.8647 7.69989C76.0114 7.16656 76.2647 6.68656 76.6247 6.25989C76.9847 5.83323 77.398 5.49989 77.8647 5.25989C78.3447 5.00656 78.8447 4.87989 79.3647 4.87989C79.5914 4.87989 79.8047 4.89989 80.0047 4.93989C80.218 4.97989 80.3914 5.02656 80.5247 5.07989L79.8647 7.77989C79.718 7.69989 79.538 7.63323 79.3247 7.57989C79.1114 7.52656 78.898 7.49989 78.6847 7.49989C78.3514 7.49989 78.0314 7.56656 77.7247 7.69989C77.4314 7.81989 77.1714 7.99323 76.9447 8.21989C76.718 8.44656 76.538 8.71323 76.4047 9.01989C76.2847 9.31323 76.2247 9.64656 76.2247 10.0199V15.6399H73.7447ZM92.5416 15.6399L86.9416 1.63989H89.7816L92.9016 9.65989C93.0616 10.0732 93.2016 10.4466 93.3216 10.7799C93.4416 11.0999 93.5482 11.3932 93.6416 11.6599C93.7349 11.9266 93.8149 12.1866 93.8816 12.4399C93.9616 12.6932 94.0482 12.9599 94.1416 13.2399H93.5816C93.6749 12.8799 93.7749 12.5266 93.8816 12.1799C93.9882 11.8199 94.1082 11.4399 94.2416 11.0399C94.3882 10.6399 94.5616 10.1799 94.7616 9.65989L97.6816 1.63989H100.542L94.9016 15.6399H92.5416ZM105.108 15.8399C104.241 15.8399 103.454 15.5999 102.748 15.1199C102.041 14.6399 101.474 13.9866 101.048 13.1599C100.621 12.3332 100.408 11.3932 100.408 10.3399C100.408 9.28656 100.621 8.34656 101.048 7.51989C101.474 6.69323 102.054 6.04656 102.788 5.57989C103.521 5.11323 104.348 4.87989 105.268 4.87989C105.801 4.87989 106.288 4.95989 106.728 5.11989C107.168 5.26656 107.554 5.47989 107.888 5.75989C108.221 6.03989 108.494 6.35989 108.708 6.71989C108.934 7.07989 109.088 7.46656 109.168 7.87989L108.628 7.73989V5.09989H111.108V15.6399H108.608V13.1199L109.188 13.0199C109.094 13.3799 108.921 13.7332 108.668 14.0799C108.428 14.4132 108.121 14.7132 107.748 14.9799C107.388 15.2332 106.981 15.4399 106.528 15.5999C106.088 15.7599 105.614 15.8399 105.108 15.8399ZM105.788 13.6599C106.361 13.6599 106.868 13.5199 107.308 13.2399C107.748 12.9599 108.088 12.5732 108.328 12.0799C108.581 11.5732 108.708 10.9932 108.708 10.3399C108.708 9.69989 108.581 9.13323 108.328 8.63989C108.088 8.14656 107.748 7.75989 107.308 7.47989C106.868 7.19989 106.361 7.05989 105.788 7.05989C105.214 7.05989 104.708 7.19989 104.268 7.47989C103.841 7.75989 103.508 8.14656 103.268 8.63989C103.028 9.13323 102.908 9.69989 102.908 10.3399C102.908 10.9932 103.028 11.5732 103.268 12.0799C103.508 12.5732 103.841 12.9599 104.268 13.2399C104.708 13.5199 105.214 13.6599 105.788 13.6599ZM113.98 15.6399V0.839892H116.46V15.6399H113.98ZM122.222 15.6399L117.782 5.09989H120.462L123.462 12.9799L122.942 13.1199L126.102 5.09989H128.722L124.062 15.6399H122.222ZM135.169 15.8399C134.062 15.8399 133.082 15.6066 132.229 15.1399C131.389 14.6732 130.729 14.0399 130.249 13.2399C129.782 12.4266 129.549 11.4999 129.549 10.4599C129.549 9.63323 129.682 8.87989 129.949 8.19989C130.216 7.51989 130.582 6.93323 131.049 6.43989C131.529 5.93323 132.096 5.54656 132.749 5.27989C133.416 4.99989 134.142 4.85989 134.929 4.85989C135.622 4.85989 136.269 4.99323 136.869 5.25989C137.469 5.52656 137.989 5.89323 138.429 6.35989C138.869 6.81323 139.202 7.35989 139.429 7.99989C139.669 8.62656 139.782 9.31323 139.769 10.0599L139.749 10.9199H131.209L130.749 9.23989H137.689L137.369 9.57989V9.13989C137.329 8.72656 137.196 8.36656 136.969 8.05989C136.742 7.73989 136.449 7.49323 136.089 7.31989C135.742 7.13323 135.356 7.03989 134.929 7.03989C134.276 7.03989 133.722 7.16656 133.269 7.41989C132.829 7.67323 132.496 8.03989 132.269 8.51989C132.042 8.98656 131.929 9.57323 131.929 10.2799C131.929 10.9599 132.069 11.5532 132.349 12.0599C132.642 12.5666 133.049 12.9599 133.569 13.2399C134.102 13.5066 134.722 13.6399 135.429 13.6399C135.922 13.6399 136.376 13.5599 136.789 13.3999C137.202 13.2399 137.649 12.9532 138.129 12.5399L139.349 14.2399C138.989 14.5732 138.576 14.8599 138.109 15.0999C137.656 15.3266 137.176 15.5066 136.669 15.6399C136.162 15.7732 135.662 15.8399 135.169 15.8399Z" fill="white"/>
<path d="M376.618 16.6399V2.63989H382.238C383.252 2.63989 384.165 2.80656 384.978 3.13989C385.805 3.47323 386.512 3.95323 387.098 4.57989C387.698 5.20656 388.152 5.94656 388.458 6.79989C388.778 7.65323 388.938 8.59989 388.938 9.63989C388.938 10.6799 388.778 11.6332 388.458 12.4999C388.152 13.3532 387.705 14.0932 387.118 14.7199C386.532 15.3332 385.825 15.8066 384.998 16.1399C384.172 16.4732 383.252 16.6399 382.238 16.6399H376.618ZM379.218 14.6199L379.018 14.2399H382.138C382.792 14.2399 383.372 14.1332 383.878 13.9199C384.398 13.7066 384.838 13.3999 385.198 12.9999C385.558 12.5999 385.832 12.1199 386.018 11.5599C386.205 10.9866 386.298 10.3466 386.298 9.63989C386.298 8.93323 386.205 8.29989 386.018 7.73989C385.832 7.16656 385.552 6.67989 385.178 6.27989C384.818 5.87989 384.385 5.57323 383.878 5.35989C383.372 5.14656 382.792 5.03989 382.138 5.03989H378.958L379.218 4.69989V14.6199ZM391.755 16.6399V2.63989H397.835C398.675 2.63989 399.442 2.83989 400.135 3.23989C400.828 3.62656 401.375 4.15989 401.775 4.83989C402.188 5.50656 402.395 6.25989 402.395 7.09989C402.395 7.89989 402.188 8.63989 401.775 9.31989C401.375 9.98656 400.828 10.5199 400.135 10.9199C399.455 11.3066 398.688 11.4999 397.835 11.4999H394.295V16.6399H391.755ZM399.875 16.6399L396.315 10.3199L398.995 9.81989L402.955 16.6599L399.875 16.6399ZM394.295 9.23989H397.855C398.242 9.23989 398.575 9.15323 398.855 8.97989C399.148 8.79323 399.375 8.53989 399.535 8.21989C399.695 7.89989 399.775 7.54656 399.775 7.15989C399.775 6.71989 399.675 6.33989 399.475 6.01989C399.275 5.69989 398.995 5.44656 398.635 5.25989C398.275 5.07323 397.862 4.97989 397.395 4.97989H394.295V9.23989ZM411.203 16.7599C410.096 16.7599 409.109 16.5266 408.243 16.0599C407.376 15.5799 406.689 14.9266 406.183 14.0999C405.689 13.2599 405.443 12.3132 405.443 11.2599V2.61989H408.063V11.0799C408.063 11.7066 408.203 12.2666 408.483 12.7599C408.776 13.2399 409.163 13.6266 409.643 13.9199C410.123 14.2132 410.643 14.3599 411.203 14.3599C411.816 14.3599 412.369 14.2132 412.863 13.9199C413.356 13.6266 413.743 13.2399 414.023 12.7599C414.316 12.2666 414.463 11.7066 414.463 11.0799V2.61989H416.983V11.2599C416.983 12.3132 416.729 13.2599 416.223 14.0999C415.729 14.9266 415.049 15.5799 414.183 16.0599C413.316 16.5266 412.323 16.7599 411.203 16.7599ZM420.583 16.6399V2.63989H423.043L428.143 10.9399L426.703 10.9199L431.863 2.63989H434.203V16.6399H431.623V11.3799C431.623 10.1799 431.65 9.09989 431.703 8.13989C431.77 7.17989 431.876 6.22656 432.023 5.27989L432.343 6.13989L428.003 12.8399H426.683L422.483 6.19989L422.763 5.27989C422.91 6.17323 423.01 7.09323 423.063 8.03989C423.13 8.97323 423.163 10.0866 423.163 11.3799V16.6399H420.583ZM446.645 16.6399V5.03989H442.645V2.63989H453.365V5.03989H449.245V16.6399H446.645ZM459.83 16.6399V9.65989L459.97 10.6399L454.31 2.63989H457.35L461.67 8.83989L460.73 8.77989L464.63 2.63989H467.55L462.13 10.8599L462.43 9.49989V16.6399H459.83ZM469.509 16.6399V2.63989H475.329C476.129 2.63989 476.849 2.83323 477.489 3.21989C478.142 3.60656 478.662 4.13323 479.049 4.79989C479.436 5.46656 479.629 6.21323 479.629 7.03989C479.629 7.87989 479.436 8.63989 479.049 9.31989C478.662 9.98656 478.142 10.5199 477.489 10.9199C476.849 11.3199 476.129 11.5199 475.329 11.5199H472.109V16.6399H469.509ZM472.109 9.11989H475.149C475.482 9.11989 475.782 9.02656 476.049 8.83989C476.329 8.65323 476.549 8.40656 476.709 8.09989C476.882 7.79323 476.969 7.44656 476.969 7.05989C476.969 6.67323 476.882 6.33323 476.709 6.03989C476.549 5.73323 476.329 5.49323 476.049 5.31989C475.782 5.13323 475.482 5.03989 475.149 5.03989H472.109V9.11989ZM482.38 16.6399V2.63989H491.54V4.99989H484.94V14.2799H491.62V16.6399H482.38ZM483.58 10.6399V8.31989H490.52V10.6399H483.58ZM391.091 41.6399V27.6399H396.711C397.724 27.6399 398.638 27.8066 399.451 28.1399C400.278 28.4732 400.984 28.9532 401.571 29.5799C402.171 30.2066 402.624 30.9466 402.931 31.7999C403.251 32.6532 403.411 33.5999 403.411 34.6399C403.411 35.6799 403.251 36.6332 402.931 37.4999C402.624 38.3532 402.178 39.0932 401.591 39.7199C401.004 40.3332 400.298 40.8066 399.471 41.1399C398.644 41.4732 397.724 41.6399 396.711 41.6399H391.091ZM393.691 39.6199L393.491 39.2399H396.611C397.264 39.2399 397.844 39.1332 398.351 38.9199C398.871 38.7066 399.311 38.3999 399.671 37.9999C400.031 37.5999 400.304 37.1199 400.491 36.5599C400.678 35.9866 400.771 35.3466 400.771 34.6399C400.771 33.9332 400.678 33.2999 400.491 32.7399C400.304 32.1666 400.024 31.6799 399.651 31.2799C399.291 30.8799 398.858 30.5732 398.351 30.3599C397.844 30.1466 397.264 30.0399 396.611 30.0399H393.431L393.691 29.6999V39.6199ZM405.515 41.6399V39.3399H407.815V29.9399H405.515V27.6399H412.715V29.9399H410.415V39.3399H412.715V41.6399H405.515ZM420.092 41.6399L414.492 27.6399H417.332L420.452 35.6599C420.612 36.0732 420.752 36.4466 420.872 36.7799C420.992 37.0999 421.099 37.3932 421.192 37.6599C421.286 37.9266 421.366 38.1866 421.432 38.4399C421.512 38.6932 421.599 38.9599 421.692 39.2399H421.132C421.226 38.8799 421.326 38.5266 421.432 38.1799C421.539 37.8199 421.659 37.4399 421.792 37.0399C421.939 36.6399 422.112 36.1799 422.312 35.6599L425.232 27.6399H428.092L422.452 41.6399H420.092ZM430.31 41.6399V27.6399H439.47V29.9999H432.87V39.2799H439.55V41.6399H430.31ZM431.51 35.6399V33.3199H438.45V35.6399H431.51ZM442.81 41.6399V27.6399H448.89C449.73 27.6399 450.496 27.8399 451.19 28.2399C451.883 28.6266 452.43 29.1599 452.83 29.8399C453.243 30.5066 453.45 31.2599 453.45 32.0999C453.45 32.8999 453.243 33.6399 452.83 34.3199C452.43 34.9866 451.883 35.5199 451.19 35.9199C450.51 36.3066 449.743 36.4999 448.89 36.4999H445.35V41.6399H442.81ZM450.93 41.6399L447.37 35.3199L450.05 34.8199L454.01 41.6599L450.93 41.6399ZM445.35 34.2399H448.91C449.296 34.2399 449.63 34.1532 449.91 33.9799C450.203 33.7932 450.43 33.5399 450.59 33.2199C450.75 32.8999 450.83 32.5466 450.83 32.1599C450.83 31.7199 450.73 31.3399 450.53 31.0199C450.33 30.6999 450.05 30.4466 449.69 30.2599C449.33 30.0732 448.916 29.9799 448.45 29.9799H445.35V34.2399ZM459.164 41.6399V30.0399H455.164V27.6399H465.884V30.0399H461.764V41.6399H459.164ZM468.435 41.6399V27.6399H477.595V29.9999H470.995V39.2799H477.675V41.6399H468.435ZM469.635 35.6399V33.3199H476.575V35.6399H469.635ZM480.935 41.6399V27.6399H487.015C487.855 27.6399 488.621 27.8399 489.315 28.2399C490.008 28.6266 490.555 29.1599 490.955 29.8399C491.368 30.5066 491.575 31.2599 491.575 32.0999C491.575 32.8999 491.368 33.6399 490.955 34.3199C490.555 34.9866 490.008 35.5199 489.315 35.9199C488.635 36.3066 487.868 36.4999 487.015 36.4999H483.475V41.6399H480.935ZM489.055 41.6399L485.495 35.3199L488.175 34.8199L492.135 41.6599L489.055 41.6399ZM483.475 34.2399H487.035C487.421 34.2399 487.755 34.1532 488.035 33.9799C488.328 33.7932 488.555 33.5399 488.715 33.2199C488.875 32.8999 488.955 32.5466 488.955 32.1599C488.955 31.7199 488.855 31.3399 488.655 31.0199C488.455 30.6999 488.175 30.4466 487.815 30.2599C487.455 30.0732 487.041 29.9799 486.575 29.9799H483.475V34.2399Z" fill="white"/>
</svg>
